<svg xmlns="http://www.w3.org/2000/svg" width="68.256" height="68.256" viewBox="0 0 68.256 68.256">
  <path id="bank" d="M65.59,25.729a2.666,2.666,0,0,0,2.666-2.666v-10a2.666,2.666,0,0,0-1.831-2.532L34.9.134a2.665,2.665,0,0,0-1.673,0l-31.4,10.4A2.666,2.666,0,0,0,0,13.064v10a2.666,2.666,0,0,0,2.666,2.666h2V52.258h-2A2.666,2.666,0,0,0,0,54.925V65.59a2.666,2.666,0,0,0,2.666,2.666H45.193a2.666,2.666,0,0,0,0-5.332H5.332V57.591H39.327a2.666,2.666,0,0,0,2.666-2.666v-29.2h13.6v5.059c-10.558,3.349-8.464,18.666,2.733,18.937a4.333,4.333,0,1,1-3.955,6.106,2.666,2.666,0,1,0-4.864,2.186,9.687,9.687,0,0,0,6.086,5.31V65.59a2.666,2.666,0,0,0,5.332,0V63.368c10.681-3.229,8.675-18.7-2.6-18.975a4.333,4.333,0,1,1,3.991-6.024,2.666,2.666,0,1,0,4.908-2.084,9.652,9.652,0,0,0-6.3-5.536v-5.02ZM5.332,14.99,34.063,5.474l28.86,9.518v5.4H5.332ZM26,25.729V52.258H20.663V25.729Zm-16,0h5.332V52.258H10ZM36.661,52.258H31.328V25.729h5.332Zm0-38.394A2.666,2.666,0,1,1,33.995,11.2,2.666,2.666,0,0,1,36.661,13.864Z" transform="translate(0 0)" fill="#8758fa"/>
</svg>
