<?xml version="1.0" encoding="UTF-8" standalone="no"?>
<svg
   xmlns:dc="http://purl.org/dc/elements/1.1/"
   xmlns:cc="http://creativecommons.org/ns#"
   xmlns:rdf="http://www.w3.org/1999/02/22-rdf-syntax-ns#"
   xmlns:svg="http://www.w3.org/2000/svg"
   xmlns="http://www.w3.org/2000/svg"
   xmlns:sodipodi="http://sodipodi.sourceforge.net/DTD/sodipodi-0.dtd"
   xmlns:inkscape="http://www.inkscape.org/namespaces/inkscape"
   version="1.1"
   id="svg2"
   xml:space="preserve"
   width="3837.3333"
   height="2666.6667"
   viewBox="0 0 3837.3333 2666.6667"
   sodipodi:docname="Sad bankrupt thinking of money problems.eps"><metadata
     id="metadata8"><rdf:RDF><cc:Work
         rdf:about=""><dc:format>image/svg+xml</dc:format><dc:type
           rdf:resource="http://purl.org/dc/dcmitype/StillImage" /></cc:Work></rdf:RDF></metadata><defs
     id="defs6" /><sodipodi:namedview
     pagecolor="#ffffff"
     bordercolor="#666666"
     borderopacity="1"
     objecttolerance="10"
     gridtolerance="10"
     guidetolerance="10"
     inkscape:pageopacity="0"
     inkscape:pageshadow="2"
     inkscape:window-width="640"
     inkscape:window-height="480"
     id="namedview4" /><g
     id="g10"
     inkscape:groupmode="layer"
     inkscape:label="ink_ext_XXXXXX"
     transform="matrix(1.3333333,0,0,-1.3333333,0,2666.6667)"><g
       id="g12"
       transform="scale(0.1)"><path
         d="M 0,0 H 28780 V 20000 H 0 Z"
         style="fill:#ffffff;fill-opacity:1;fill-rule:nonzero;stroke:none"
         id="path14" /><path
         d="m 25934.2,1960.2 c 0,0 848.1,966.3 873.6,3028.9 25.5,2062.7 -623.2,4109.7 -2291.1,4988.2 -1668,878.6 -3132.2,1464.3 -3807,2330.1 -674.8,865.8 -2228.2,2253.6 -3323.2,2253.6 -1094.9,0 -1948,-292.9 -2610.1,203.7 -662.1,496.6 -4098.2,2550 -6173.61,2397.2 C 6527.41,17009.1 4232.03,16644.5 2767.81,14301.7 1303.58,11959 1697.44,7991.1 2919.75,5661 4142.05,3331 5173.39,1993.5 5173.39,1993.5 l 20760.81,-33.3"
         style="fill:#ffe8cf;fill-opacity:1;fill-rule:nonzero;stroke:none"
         id="path16" /><path
         d="m 16202.2,1960.2 c -90.4,72.3 -1573.1,2940.5 -2549.6,1584.3 0,0 -1464.6,4972.6 -3471.8,4737.5 -2007.07,-235 -307.35,-3923.8 -307.35,-3923.8 0,0 -1717.81,705.2 -1320,-1157.3 0,0 -2187.94,397.9 -2025.2,-1175.3 l 9673.95,-65.4"
         style="fill:#3f9896;fill-opacity:1;fill-rule:nonzero;stroke:none"
         id="path18" /><path
         d="m 7982.77,6706.9 c 267.67,-323 344.42,-701 171.42,-844.4 -172.99,-143.4 -530.22,2.2 -797.88,325.1 -267.67,322.9 -344.42,700.9 -171.42,844.3 172.99,143.4 530.22,-2.1 797.88,-325"
         style="fill:#3f9896;fill-opacity:1;fill-rule:nonzero;stroke:none"
         id="path20" /><path
         d="m 7574.4,5436.1 c 158.46,-191.2 203.89,-414.9 101.48,-499.8 -102.41,-84.9 -313.88,1.2 -472.34,192.4 -158.45,191.2 -203.88,414.9 -101.47,499.8 102.41,84.9 313.88,-1.2 472.33,-192.4"
         style="fill:#3f9896;fill-opacity:1;fill-rule:nonzero;stroke:none"
         id="path22" /><path
         d="m 9952.92,3994.6 c 5.14,1.1 9.87,4.1 13.01,8.8 6.45,9.7 3.86,22.7 -5.78,29.1 -17.55,11.8 -433.89,286.3 -799.31,207.1 l -0.21,-0.1 c -11.34,-2.5 -18.52,-13.6 -16.06,-25 2.46,-11.3 13.64,-18.5 24.98,-16 h 0.2 c 347.86,75.5 762.91,-198.1 767.05,-200.9 4.94,-3.3 10.75,-4.2 16.12,-3"
         style="fill:#000000;fill-opacity:1;fill-rule:nonzero;stroke:none"
         id="path24" /><path
         d="m 9673.11,3963.2 c 5.18,1.1 9.91,4.2 13.06,8.9 6.4,9.7 3.75,22.7 -5.92,29.1 -8.02,5.3 -200.31,129.8 -541.75,108.6 -11.66,-0.8 -20.37,-10.7 -19.66,-22.3 0.73,-11.6 10.69,-20.4 22.26,-19.7 327.52,20.4 514.12,-100.4 515.97,-101.6 4.92,-3.3 10.7,-4.2 16.04,-3"
         style="fill:#000000;fill-opacity:1;fill-rule:nonzero;stroke:none"
         id="path26" /><path
         d="m 14887.4,3151 c 5.2,0 10.5,2 14.6,5.9 8.3,8.1 8.6,21.4 0.5,29.7 -14.6,15.2 -363.3,371.8 -737.2,371.8 -12.1,-0.3 -21.3,-9.3 -21.3,-21 0,-11.6 9.4,-21 21,-21 h 0.3 c 356.2,0 703.5,-355.4 707,-359 4.1,-4.2 9.6,-6.4 15.1,-6.4"
         style="fill:#000000;fill-opacity:1;fill-rule:nonzero;stroke:none"
         id="path28" /><path
         d="m 14607.3,3179.7 c 5.3,0 10.6,2 14.7,6 8.2,8.1 8.4,21.3 0.3,29.6 -6.7,6.9 -168.2,169.3 -506.4,221 -11.6,1.7 -22.2,-6.1 -23.9,-17.6 -1.8,-11.5 6.1,-22.2 17.6,-23.9 323.2,-49.4 481.1,-207.2 482.6,-208.8 4.2,-4.2 9.6,-6.3 15.1,-6.3"
         style="fill:#000000;fill-opacity:1;fill-rule:nonzero;stroke:none"
         id="path30" /><path
         d="m 12099.4,9048.7 c -38.4,0 -72.5,19.9 -92.5,50 -11.1,16.9 -17.9,37 -18.5,58.6 -0.4,13.3 -5.5,330.4 346.9,630 176.5,150.1 253.3,307.9 216.5,444.3 -29.6,109.6 -124.5,181.1 -202.8,195.1 -15.8,2.8 -30.9,4.1 -45.5,4.1 -213.6,0 -298,-285.1 -301.7,-298.1 -13.9,-48.8 -58.5,-80.7 -106.9,-80.7 -10,0 -20.1,1.4 -30.2,4.3 -58.9,16.6 -93.3,77.6 -76.8,136.6 47.1,168.6 211.5,460.6 512.1,460.6 28.1,0 57.5,-2.6 88.1,-8.1 174.5,-31.1 330,-177.4 378.2,-355.8 35.1,-129.9 44.4,-389.7 -287,-671.6 -266.4,-226.5 -268.8,-446.4 -268.7,-455.7 1.7,-61.3 -46.5,-111.8 -107.9,-113.5 -1.1,-0.1 -2.2,-0.1 -3.3,-0.1"
         style="fill:#fddab5;fill-opacity:1;fill-rule:nonzero;stroke:none"
         id="path32" /><path
         d="m 12029.5,8694.7 c -42.7,0 -84.6,20.8 -109.9,59 -40.2,60.6 -23.6,142.4 37,182.5 22.4,14.9 47.7,22 72.7,22 42.6,0 84.5,-20.8 109.9,-59 40.1,-60.6 23.6,-142.4 -37.1,-182.5 -22.4,-14.9 -47.6,-22 -72.6,-22"
         style="fill:#fddab5;fill-opacity:1;fill-rule:nonzero;stroke:none"
         id="path34" /><path
         d="m 20762.7,5917 c -5.9,0 -11.9,0.5 -17.9,1.7 -32,6.3 -56.6,28.9 -67.4,57.3 -5.8,15.5 -7.5,32.8 -4.1,50.1 2.1,10.8 55.7,264.7 391.4,439.7 168.1,87.6 258.1,199.6 253.5,315.1 -3.7,92.9 -66.4,167.2 -126.4,192.6 -26.9,11.3 -52.7,16.3 -77.2,16.3 -147.9,0 -248.4,-178.9 -253.2,-187.8 -16.6,-30.1 -47.8,-47.2 -79.9,-47.2 -14.7,0 -29.7,3.6 -43.5,11.1 -43.9,24 -60.2,79 -36.4,123 60.4,111.6 211.8,283.6 412.2,283.6 47.1,0 97,-9.5 149,-31.6 133.6,-56.6 231.1,-201.6 237.1,-352.7 4.4,-110 -35.4,-319.1 -351.1,-483.7 -253.8,-132.3 -295.7,-307.3 -297.3,-314.7 -8.6,-43.3 -46.3,-72.8 -88.8,-72.8"
         style="fill:#fddab5;fill-opacity:1;fill-rule:nonzero;stroke:none"
         id="path36" /><path
         d="m 20645.9,5646.9 c -43.6,0 -84.6,26.6 -100.9,69.7 -21,55.7 7.1,117.9 62.8,138.9 12.5,4.8 25.4,7 38,7 43.6,0 84.6,-26.6 100.9,-69.7 21,-55.7 -7.1,-117.9 -62.8,-138.9 -12.5,-4.8 -25.4,-7 -38,-7"
         style="fill:#fddab5;fill-opacity:1;fill-rule:nonzero;stroke:none"
         id="path38" /><path
         d="m 17011.5,13251.5 c -4,0 -8.1,0.4 -12.2,1.2 -21.5,4.3 -38.1,19.5 -45.4,38.7 -3.9,10.4 -5.1,22 -2.8,33.7 1.5,7.3 37.6,178.5 263.9,296.5 113.4,59.1 174.1,134.5 171,212.5 -2.5,62.6 -44.8,112.7 -85.2,129.8 -18.1,7.7 -35.6,11 -52.1,11 -99.7,0 -167.4,-120.6 -170.7,-126.6 -11.2,-20.3 -32.2,-31.8 -53.9,-31.8 -9.9,0 -20,2.4 -29.3,7.5 -29.6,16.2 -40.6,53.2 -24.6,82.9 40.8,75.2 142.8,191.2 278,191.2 31.8,0 65.4,-6.4 100.4,-21.3 90.1,-38.2 155.9,-135.9 159.9,-237.8 3,-74.2 -23.9,-215.2 -236.8,-326.2 -171,-89.2 -199.3,-207.2 -200.4,-212.2 -5.8,-29.1 -31.2,-49.1 -59.8,-49.1"
         style="fill:#fddab5;fill-opacity:1;fill-rule:nonzero;stroke:none"
         id="path40" /><path
         d="m 16932.6,13069.4 c -29.3,0 -57,17.9 -68,47 -14.1,37.6 4.8,79.5 42.3,93.7 8.5,3.2 17.2,4.7 25.7,4.7 29.4,0 57,-17.9 68,-47 14.2,-37.6 -4.7,-79.5 -42.3,-93.7 -8.4,-3.2 -17.1,-4.7 -25.7,-4.7"
         style="fill:#fddab5;fill-opacity:1;fill-rule:nonzero;stroke:none"
         id="path42" /><path
         d="m 4492.81,7241.6 c -27.97,0 -55.18,9.2 -77.46,25.7 -18.93,14 -34.33,33.3 -43.59,56.7 -5.77,14.4 -137.57,359.4 128.74,827.7 133.37,234.4 154.66,437.7 59.98,572.4 -65.44,93.1 -172.57,136 -259.39,136 -14.03,0 -27.52,-1.1 -40.24,-3.3 -288.14,-50.1 -264,-443.3 -262.84,-460 4.98,-71.1 -48.5,-133.1 -119.61,-138.3 -3.23,-0.2 -6.45,-0.3 -9.64,-0.3 -66.99,0 -123.6,51.4 -128.83,119.3 -17.07,222.3 60.61,662 476.59,734.3 27.73,4.8 55.94,7.1 84.27,7.1 179.52,0 364.51,-93.9 471.41,-246 90.1,-128.1 203.8,-408.8 -46.71,-849.2 -201.32,-354 -116.34,-595.6 -112.62,-605.7 26.38,-66.4 -6.37,-140.9 -72.8,-167.3 -15.5,-6.1 -31.51,-9.1 -47.26,-9.1"
         style="fill:#fddab5;fill-opacity:1;fill-rule:nonzero;stroke:none"
         id="path44" /><path
         d="m 4548.22,6824.8 c -31.67,0 -63.62,9.8 -91.05,30.1 -68.11,50.4 -82.5,146.4 -32.16,214.5 30.09,40.7 76.47,62.2 123.46,62.2 31.68,0 63.63,-9.8 91.06,-30 68.11,-50.4 82.51,-146.4 32.15,-214.5 -30.08,-40.7 -76.47,-62.3 -123.46,-62.3"
         style="fill:#fddab5;fill-opacity:1;fill-rule:nonzero;stroke:none"
         id="path46" /><path
         d="m 24529,8148.3 c -26,0 -49.9,12.2 -65.6,31.6 -9.7,11.9 -16.3,26.7 -18.3,43 -1.3,10.1 -28.1,249.7 217,502.1 122.7,126.4 169.5,251.4 131.7,352.1 -30.3,80.8 -107.3,128.1 -167.7,133 -5.7,0.4 -11.2,0.7 -16.7,0.7 -176.6,0 -222.9,-238 -224.8,-248.4 -7.6,-40.7 -43.1,-69.2 -83.1,-69.2 -5,0 -10.1,0.4 -15.2,1.3 -45.8,8.4 -76.2,52.1 -68,97.9 24.6,137.6 137.2,387.5 389.2,387.5 10.5,0 21.3,-0.4 32.4,-1.3 134.4,-11 262.7,-110.5 312.1,-242.1 36,-95.8 61.9,-291.8 -168.6,-529.2 -185.3,-190.8 -171.2,-357.5 -170.5,-364.5 5.8,-46.3 -27.1,-88 -73.4,-93.8 -3.5,-0.5 -7,-0.7 -10.5,-0.7"
         style="fill:#fddab5;fill-opacity:1;fill-rule:nonzero;stroke:none"
         id="path48" /><path
         d="m 24500.1,7875.2 c -29.1,0 -58.1,12.7 -77.9,37.1 -34.8,43 -28.1,106.1 14.9,140.9 18.5,15 40.8,22.3 62.9,22.3 29.2,0 58.1,-12.7 77.9,-37.1 34.8,-43 28.2,-106.1 -14.8,-140.9 -18.5,-15 -40.8,-22.3 -63,-22.3"
         style="fill:#fddab5;fill-opacity:1;fill-rule:nonzero;stroke:none"
         id="path50" /><path
         d="m 19997.5,10877.8 c -11.1,0 -22.1,2.7 -31.9,7.8 -11.2,5.7 -20.9,14.5 -27.8,26 -4.3,7.1 -103.2,177.2 -3.4,446.3 50,134.8 43.8,243.5 -17.6,306.2 -35.1,35.9 -82.3,51.3 -123.4,51.3 -16.6,0 -32.2,-2.5 -45.6,-7.2 -147.2,-51.1 -100.8,-255.8 -98.7,-264.5 8.7,-36.9 -14.1,-74.1 -51,-83 -5.5,-1.3 -10.9,-1.9 -16.2,-1.9 -31.1,0 -59.2,21.1 -66.9,52.6 -28.1,115.5 -25,353.4 187.6,427.1 28.6,9.9 59,14.7 89.8,14.7 81.2,0 164.8,-33.2 222.9,-92.6 58.4,-59.6 142.3,-197.5 48.4,-450.6 -75.5,-203.5 -10,-323.2 -7.2,-328.2 19.6,-32.7 8.8,-74.7 -23.9,-94.3 -11,-6.6 -23.1,-9.7 -35.1,-9.7"
         style="fill:#fddab5;fill-opacity:1;fill-rule:nonzero;stroke:none"
         id="path52" /><path
         d="m 20060.3,10663.2 c -12.6,0 -25.4,2.9 -37.3,9.1 -40.2,20.6 -56,69.9 -35.4,110 14.5,28.2 43.1,44.4 72.8,44.4 12.6,0 25.3,-2.9 37.3,-9.1 40.1,-20.6 56,-69.9 35.3,-110 -14.5,-28.2 -43.1,-44.4 -72.7,-44.4"
         style="fill:#fddab5;fill-opacity:1;fill-rule:nonzero;stroke:none"
         id="path54" /><path
         d="m 5266.51,14274.2 c -12.88,0 -25.65,3 -37.27,8.6 -13.84,6.7 -26.05,17.2 -34.82,31.1 -5.45,8.6 -131.69,214.1 -17.28,546.8 57.29,166.6 46.41,299.6 -30.61,374.6 -42.64,41.6 -98.55,59.2 -147.75,59.2 -22.17,0 -42.97,-3.6 -60.59,-10.2 -178.89,-66.9 -115.94,-316.3 -113.17,-326.9 11.77,-45.1 -15.06,-91.3 -60.08,-103.2 -7.27,-1.9 -14.58,-2.9 -21.76,-2.9 -37.28,0 -71.33,24.8 -81.48,62.5 -37.79,140.7 -41.01,432.2 217.26,528.8 37.44,14.1 77.71,20.8 118.46,20.8 96.73,0 196.18,-38 267.03,-107 73.29,-71.3 180.15,-237.8 72.54,-550.7 -86.49,-251.5 -2.78,-396.3 0.84,-402.3 24.94,-39.5 12.92,-91.2 -26.54,-116.2 -13.9,-8.8 -29.42,-13 -44.78,-13"
         style="fill:#fddab5;fill-opacity:1;fill-rule:nonzero;stroke:none"
         id="path56" /><path
         d="m 5349.42,14013.1 c -14.64,0 -29.5,3.3 -43.56,10.1 -49.8,24.1 -70.63,84 -46.53,133.7 17.29,35.8 53.03,56.6 90.24,56.6 14.64,0 29.5,-3.2 43.56,-10 49.79,-24.1 70.63,-84 46.53,-133.8 -17.29,-35.8 -53.03,-56.6 -90.24,-56.6"
         style="fill:#fddab5;fill-opacity:1;fill-rule:nonzero;stroke:none"
         id="path58" /><path
         d="m 12850.8,13324.1 c -75.5,-1524.7 -1611.5,-2687.8 -3430.91,-2597.8 -1819.37,90 -3233.12,1399 -3157.69,2923.8 75.43,1524.8 1611.48,2687.9 3430.86,2597.9 1819.34,-90 3233.14,-1399.1 3157.74,-2923.9"
         style="fill:#e9f9ff;fill-opacity:1;fill-rule:nonzero;stroke:none"
         id="path60" /><path
         d="m 13489.6,12275.7 c 27.4,-136.4 -82.4,-273.5 -245.2,-306.1 -162.8,-32.6 -317,51.5 -344.3,187.9 -27.4,136.5 82.4,273.5 245.2,306.2 162.8,32.6 317,-51.5 344.3,-188"
         style="fill:#e9f9ff;fill-opacity:1;fill-rule:nonzero;stroke:none"
         id="path62" /><path
         d="m 11435.9,12710.6 -1384.9,-830.3 -1751.78,2922 1384.9,830.3 1751.78,-2922"
         style="fill:#53a07c;fill-opacity:1;fill-rule:nonzero;stroke:none"
         id="path64" /><path
         d="m 10340.9,14117.3 c 167.9,-280.2 77,-643.5 -203.2,-811.5 -280.19,-167.9 -643.49,-77 -811.45,203.2 -167.98,280.2 -77.02,643.5 203.16,811.5 280.18,167.9 643.49,77 811.49,-203.2"
         style="fill:#b9edd6;fill-opacity:1;fill-rule:nonzero;stroke:none"
         id="path66" /><path
         d="m 11499.7,12918.5 -1384.9,-830.2 -1751.84,2922 1384.9,830.2 1751.84,-2922"
         style="fill:#7fc6a6;fill-opacity:1;fill-rule:nonzero;stroke:none"
         id="path68" /><path
         d="m 10479.5,14200.4 c 167.9,-280.2 77,-643.5 -203.2,-811.5 -280.18,-167.9 -643.48,-77 -811.45,203.2 -167.98,280.2 -77.01,643.5 203.17,811.5 280.18,167.9 643.48,77 811.48,-203.2"
         style="fill:#b9edd6;fill-opacity:1;fill-rule:nonzero;stroke:none"
         id="path70" /><path
         d="m 9589.13,14535.2 c 241.61,144.8 532.27,136.7 759.47,3.9 l -627.78,1047.2 -1120.86,-672 627.78,-1047.1 c -10.04,262.9 119.77,523.1 361.39,668"
         style="fill:#b9edd6;fill-opacity:1;fill-rule:nonzero;stroke:none"
         id="path72" /><path
         d="m 10355.2,13257.4 c -241.6,-144.9 -532.29,-136.8 -759.48,-4 l 546.08,-910.9 1120.9,672 -546.1,910.8 c 10,-262.9 -119.8,-523.1 -361.4,-667.9"
         style="fill:#b9edd6;fill-opacity:1;fill-rule:nonzero;stroke:none"
         id="path74" /><path
         d="m 8299.22,14802.3 63.74,208 162.21,-270.6 -225.95,62.6"
         style="fill:#53a07c;fill-opacity:1;fill-rule:nonzero;stroke:none"
         id="path76" /><path
         d="m 11499.7,12918.5 -63.8,-207.9 -219.4,38.2 283.2,169.7"
         style="fill:#53a07c;fill-opacity:1;fill-rule:nonzero;stroke:none"
         id="path78" /><path
         d="m 10051,11880.3 63.8,208 1384.9,830.2 -63.8,-207.9 -1384.9,-830.3"
         style="fill:#4b8c6b;fill-opacity:1;fill-rule:nonzero;stroke:none"
         id="path80" /><path
         d="m 10698.6,14254.7 -1384.88,-830.3 -108.97,181.7 1384.95,830.3 108.9,-181.7"
         style="fill:#217f7a;fill-opacity:1;fill-rule:nonzero;stroke:none"
         id="path82" /><path
         d="m 9204.76,13606.1 -104.51,-139.9 103.15,-172.1 110.32,130.3 -108.96,181.7"
         style="fill:#e23e3d;fill-opacity:1;fill-rule:nonzero;stroke:none"
         id="path84" /><path
         d="m 11055.1,12613.1 -885.1,-1400.4 -2954.8,1867.4 885.08,1400.4 2954.82,-1867.4"
         style="fill:#53a07c;fill-opacity:1;fill-rule:nonzero;stroke:none"
         id="path86" /><path
         d="m 9402,13395.9 c 283.33,-179.1 367.85,-553.9 188.8,-837.3 -179.06,-283.3 -553.9,-367.8 -837.23,-188.8 -283.33,179.1 -367.85,553.9 -188.79,837.3 179.05,283.3 553.89,367.8 837.22,188.8"
         style="fill:#b9edd6;fill-opacity:1;fill-rule:nonzero;stroke:none"
         id="path88" /><path
         d="m 11017.4,12833.1 -885.1,-1400.5 -2954.79,1867.4 885.07,1400.5 2954.82,-1867.4"
         style="fill:#7fc6a6;fill-opacity:1;fill-rule:nonzero;stroke:none"
         id="path90" /><path
         d="m 9490.58,13536 c 283.33,-179 367.86,-553.9 188.8,-837.2 -179.06,-283.3 -553.9,-367.9 -837.23,-188.8 -283.33,179.1 -367.85,553.9 -188.8,837.2 179.07,283.4 553.91,367.9 837.23,188.8"
         style="fill:#b9edd6;fill-opacity:1;fill-rule:nonzero;stroke:none"
         id="path92" /><path
         d="m 8520.29,13431.3 c 154.41,244.4 424.43,371.2 693.89,354.6 l -1058.89,669.2 -716.33,-1133.5 1058.89,-669.2 c -130.68,236.3 -131.98,534.6 22.44,778.9"
         style="fill:#b9edd6;fill-opacity:1;fill-rule:nonzero;stroke:none"
         id="path94" /><path
         d="m 9812.45,12614.7 c -154.41,-244.3 -424.43,-371.2 -693.9,-354.5 l 921.05,-582.2 716.4,1133.5 -921.12,582.1 c 130.68,-236.2 131.98,-534.6 -22.43,-778.9"
         style="fill:#b9edd6;fill-opacity:1;fill-rule:nonzero;stroke:none"
         id="path96" /><path
         d="m 7215.21,13080.1 -37.7,219.9 273.6,-172.9 z"
         style="fill:#53a07c;fill-opacity:1;fill-rule:nonzero;stroke:none"
         id="path98" /><path
         d="m 11017.4,12833.1 37.7,-220 -218.6,-66.3 180.9,286.3"
         style="fill:#53a07c;fill-opacity:1;fill-rule:nonzero;stroke:none"
         id="path100" /><path
         d="m 10170,11212.7 -37.7,219.9 885.1,1400.5 37.7,-220 -885.1,-1400.4"
         style="fill:#4b8c6b;fill-opacity:1;fill-rule:nonzero;stroke:none"
         id="path102" /><path
         d="m 9666.28,13687 -885.07,-1400.5 -183.81,116.2 885.07,1400.5 183.81,-116.2"
         style="fill:#3f9896;fill-opacity:1;fill-rule:nonzero;stroke:none"
         id="path104" /><path
         d="m 8597.4,12402.7 -31.05,-176.5 173.98,-110 40.88,170.3 -183.81,116.2"
         style="fill:#3f9896;fill-opacity:1;fill-rule:nonzero;stroke:none"
         id="path106" /><path
         d="m 11049.1,12648.4 -31.7,184.7 -27.9,17.6 126.4,75.8 186.8,-126 -253.6,-152.1 m -698.6,606.2 -151.1,95.5 c 26.2,10.9 51.9,23.8 76.9,38.8 26.9,16.2 52,34.1 75.3,53.5 l 131.3,-88.6 c -38.2,-35.9 -80.9,-68.4 -127.7,-96.4 -1.6,-1 -3.1,-1.9 -4.7,-2.8"
         style="fill:#64ab89;fill-opacity:1;fill-rule:nonzero;stroke:none"
         id="path108" /><path
         d="m 10199.4,13350.1 -491.51,310.6 169.68,101.7 474.03,-320 c -23.3,-19.4 -48.4,-37.3 -75.3,-53.5 -25,-15 -50.7,-27.9 -76.9,-38.8"
         style="fill:#91cdb1;fill-opacity:1;fill-rule:nonzero;stroke:none"
         id="path110" /><path
         d="m 10989.5,12850.7 -639,403.9 c 1.6,0.9 3.1,1.8 4.7,2.8 46.8,28 89.5,60.5 127.7,96.4 l 633,-427.3 -126.4,-75.8"
         style="fill:#91cdb1;fill-opacity:1;fill-rule:nonzero;stroke:none"
         id="path112" /><path
         d="m 10922,12402.4 133.1,210.7 -6,35.3 253.6,152.1 133.2,-89.9 -513.9,-308.2"
         style="fill:#3b7958;fill-opacity:1;fill-rule:nonzero;stroke:none"
         id="path114" /><path
         d="m 8303.15,14815.1 -9.34,16.3 11.88,-8 -2.54,-8.3"
         style="fill:#b7d7d2;fill-opacity:1;fill-rule:nonzero;stroke:none"
         id="path116" /><path
         d="m 8845.18,14205.9 -303.36,191.7 -229.23,401 50.68,-14.1 226.78,-153 255.13,-425.6"
         style="fill:#418a66;fill-opacity:1;fill-rule:nonzero;stroke:none"
         id="path118" /><path
         d="m 9381.27,13867.1 -151.06,95.5 c 6.31,70 22.49,138.9 47.98,204.4 l 131.22,-88.6 c -21.94,-67.8 -31.62,-139.5 -28.14,-211.3 m -247.13,156.2 -288.96,182.6 -255.13,425.6 301.46,-203.5 242.63,-404.7"
         style="fill:#64ab89;fill-opacity:1;fill-rule:nonzero;stroke:none"
         id="path120" /><path
         d="m 9507.25,13787.5 -125.98,79.6 c -3.48,71.8 6.2,143.5 28.14,211.3 l 274.29,-185.1 -176.45,-105.8"
         style="fill:#91cdb1;fill-opacity:1;fill-rule:nonzero;stroke:none"
         id="path122" /><path
         d="m 9230.21,13962.6 -96.07,60.7 -242.63,404.7 386.68,-261 c -25.49,-65.5 -41.67,-134.4 -47.98,-204.4"
         style="fill:#91cdb1;fill-opacity:1;fill-rule:nonzero;stroke:none"
         id="path124" /><path
         d="m 8363.27,14784.5 -50.68,14.1 -9.44,16.5 2.54,8.3 57.58,-38.9"
         style="fill:#418a66;fill-opacity:1;fill-rule:nonzero;stroke:none"
         id="path126" /><path
         d="m 9707.89,13660.7 -200.64,126.8 176.45,105.8 193.87,-130.9 -169.68,-101.7"
         style="fill:#1a6e65;fill-opacity:1;fill-rule:nonzero;stroke:none"
         id="path128" /><path
         d="m 11017.4,12833.1 -2475.58,1564.5 303.36,-191.7 288.96,-182.6 96.07,-60.7 151.06,-95.5 125.98,-79.6 200.64,-126.8 491.51,-310.6 151.1,-95.5 639,-403.9 27.9,-17.6"
         style="fill:#64ab89;fill-opacity:1;fill-rule:nonzero;stroke:none"
         id="path130" /><path
         d="m 10922,12402.4 133.1,210.7 -133.1,-210.7 v 0 m 133.1,210.7 -37.7,220 37.7,-220"
         style="fill:#3b7958;fill-opacity:1;fill-rule:nonzero;stroke:none"
         id="path132" /><path
         d="m 10430.7,11615.2 c -1.8,0.2 -3.5,0.8 -5.1,1.8 -6,3.9 -7.8,11.8 -4,17.9 l 619.9,980.9 -35.9,209.4 -2939,1857.5 -878.17,-1389.6 c -3.81,-6 -11.78,-7.8 -17.82,-4 -6.03,3.8 -7.84,11.8 -4.03,17.8 l 891.98,1411.4 2970.64,-1877.4 39.5,-230.5 -625.3,-989.3 c -2.8,-4.5 -7.8,-6.6 -12.7,-5.9"
         style="fill:#000000;fill-opacity:1;fill-rule:nonzero;stroke:none"
         id="path134" /><path
         d="m 10600.7,12163.9 c -1.7,0.3 -3.4,0.9 -5,1.9 -6,3.8 -7.8,11.8 -4,17.8 l 414.8,656.4 c 3.8,6 11.8,7.8 17.8,4 6.1,-3.8 7.9,-11.8 4,-17.8 l -414.8,-656.4 c -2.8,-4.4 -7.9,-6.6 -12.8,-5.9"
         style="fill:#000000;fill-opacity:1;fill-rule:nonzero;stroke:none"
         id="path136" /><path
         d="m 8053.69,14250.1 c -6.73,1 -11.61,7 -11.01,13.9 0.61,7.1 6.87,12.4 13.99,11.7 l 234.28,-20.3 c 7,-0.8 12.38,-6.8 11.76,-13.9 -0.62,-7.1 -6.88,-12.4 -13.99,-11.8 l -234.29,20.3 -0.74,0.1"
         style="fill:#000000;fill-opacity:1;fill-rule:nonzero;stroke:none"
         id="path138" /><path
         d="m 8080.07,14178 c -6.74,1 -11.62,7.1 -11.02,13.9 0.62,7.1 6.88,12.4 13.99,11.8 l 234.28,-20.3 c 6.94,-0.9 12.38,-6.9 11.76,-14 -0.62,-7.1 -6.88,-12.4 -13.99,-11.8 l -234.28,20.3 -0.74,0.1"
         style="fill:#000000;fill-opacity:1;fill-rule:nonzero;stroke:none"
         id="path140" /><path
         d="m 9755.98,14972.2 c -6.73,0.9 -11.61,7 -11.02,13.9 0.62,7.1 6.88,12.3 13.99,11.7 l 234.28,-20.3 c 6.97,-0.7 12.37,-6.9 11.77,-14 -0.6,-7.1 -6.89,-12.3 -14,-11.7 l -234.28,20.3 -0.74,0.1"
         style="fill:#000000;fill-opacity:1;fill-rule:nonzero;stroke:none"
         id="path142" /><path
         d="m 9782.35,14900.1 c -6.73,1 -11.61,7 -11.02,13.9 0.62,7.1 6.88,12.4 14,11.8 l 234.27,-20.4 c 7.1,-0.7 12.4,-6.8 11.8,-13.9 -0.6,-7.1 -6.9,-12.4 -14,-11.8 l -234.31,20.3 -0.74,0.1"
         style="fill:#000000;fill-opacity:1;fill-rule:nonzero;stroke:none"
         id="path144" /><path
         d="m 11497.8,12905.7 c -3.7,0.6 -7.1,2.7 -9.2,6.2 l -1745.17,2910.9 -1369.56,-821.1 -60.61,-197.7 239.64,-399.7 c 3.67,-6.1 1.68,-14.1 -4.44,-17.7 -6.12,-3.7 -14.06,-1.7 -17.73,4.4 l -245.55,409.6 66.88,218.2 4.26,2.5 1395.98,837 1758.4,-2933.1 c 3.7,-6.1 1.7,-14.1 -4.4,-17.8 -2.6,-1.5 -5.6,-2.1 -8.5,-1.7"
         style="fill:#000000;fill-opacity:1;fill-rule:nonzero;stroke:none"
         id="path146" /><path
         d="m 15611.1,11950.5 c 0,0 379.6,210.4 1280.3,-105 900.7,-315.3 1551.3,-1316.1 1801.5,-1976.7 250.2,-660.5 540.4,-2572 380.3,-2772.2 -160.2,-200.2 -3692.9,1715.2 -3692.9,1715.2 l -233.5,2480.5 464.3,658.2"
         style="fill:#4cb7d8;fill-opacity:1;fill-rule:nonzero;stroke:none"
         id="path148" /><path
         d="m 12428.5,3188.5 -281.4,-555.9 848.1,-487.5 198.2,391.1 -63.1,337 -701.8,315.3"
         style="fill:#fe9f73;fill-opacity:1;fill-rule:nonzero;stroke:none"
         id="path150" /><path
         d="m 12875.7,1968.7 h -1400.9 c -12.6,2 -23,4.2 -30.5,6.7 -101,32.7 -97.9,96.2 -91,123.8 2,8.1 7,15.1 14,19.7 l 779.8,513.7 255.8,-115.1 c 81.4,-36.8 168.2,-60.3 257.1,-68.9 181.5,-17.7 475.6,-27.2 533.4,87.6 l -11.9,-440.4 c 0,0 41.2,-130.5 -305.8,-127.1"
         style="fill:#ef3a4c;fill-opacity:1;fill-rule:nonzero;stroke:none"
         id="path152" /><path
         d="m 13558.7,7737.1 c 0,0 -1190.9,-3282.6 -1531.2,-4713.8 0,0 580.5,-570.4 1311.1,-510.4 l 1020.8,2271.8 -800.7,2952.4"
         style="fill:#ef3a4c;fill-opacity:1;fill-rule:nonzero;stroke:none"
         id="path154" /><path
         d="m 15833.1,5730.6 544.7,-2220.2 53.8,-974.2 -198.2,-391.1 -790.6,296.5 -1058.6,3514.1 1448.9,-225.1"
         style="fill:#fe9f73;fill-opacity:1;fill-rule:nonzero;stroke:none"
         id="path156" /><path
         d="m 14469.5,8635.2 c 0,0 -849.4,87.7 -1027.5,-705.7 -100.5,-447.5 473.8,-2295.7 937.5,-3638.9 287.8,-833.8 612.9,-1642.6 612.9,-1642.6 0,0 1054,-25 1572.5,345.3 l -700.5,3136.9 c 0,0 1887.7,-614.9 2568.3,-54.4 680.5,560.4 640.5,1020.8 640.5,1020.8 l -1361.1,1090.9 -3242.6,447.7"
         style="fill:#ff424d;fill-opacity:1;fill-rule:nonzero;stroke:none"
         id="path158" /><path
         d="m 17917.2,9163.3 -1371.1,340.7 -16.8,-766.2 c 0,0 -875,186.3 -1489.4,283.1 l -515.9,-748 c 123.1,-32.9 751.3,-208.2 928.8,-285.6 0,0 1713.8,-720.6 2114.2,-550.4 400.3,170.1 350.2,1726.4 350.2,1726.4"
         style="fill:#fe9f73;fill-opacity:1;fill-rule:nonzero;stroke:none"
         id="path160" /><path
         d="m 16821.8,8490.1 c 3.6,0 7.2,1.6 9.7,4.6 4.3,5.3 3.6,13.2 -1.7,17.6 l -286.4,235.7 c -5.3,4.4 -13.2,3.7 -17.6,-1.7 -4.3,-5.3 -3.6,-13.2 1.7,-17.6 l 286.4,-235.7 c 2.3,-2 5.1,-2.9 7.9,-2.9"
         style="fill:#f07162;fill-opacity:1;fill-rule:nonzero;stroke:none"
         id="path162" /><path
         d="m 14441.9,12094.9 c 0,0 -37.5,-36.8 -10,-110.6 27.6,-73.8 203.9,-437.9 203.9,-437.9 0,0 -251.8,-2170 -251.6,-2528 0.2,-358 1156.1,-187.6 1156.1,-187.6 0,0 -225.2,2682.5 -360.3,2806.1 -135.1,123.5 -738.1,458 -738.1,458"
         style="fill:#f9956e;fill-opacity:1;fill-rule:nonzero;stroke:none"
         id="path164" /><path
         d="m 14326.4,12234.5 464.2,-624.9 c 0,0 140.8,-207.1 335.2,-101.6 l 166.3,-292.4 c 61.8,-108.7 192.3,-159.8 310.5,-119.1 57.8,20 121.6,50.7 185,97.7 200.9,149.2 197.8,380.7 158.6,468.5 -39.3,87.8 -356.9,410.4 -356.9,410.4 l -125.2,181.4 -532,668.3 -605.7,-688.3"
         style="fill:#fe9f73;fill-opacity:1;fill-rule:nonzero;stroke:none"
         id="path166" /><path
         d="m 15406.6,11981.4 c 0,0 238,-345 -158.1,-689.1 l -122.7,215.7 c 0,0 313,147.6 280.8,473.4"
         style="fill:#f07162;fill-opacity:1;fill-rule:nonzero;stroke:none"
         id="path168" /><path
         d="m 15054.8,12267.1 c 2.1,1.5 3.6,3.8 4.1,6.6 1,5.7 -2.9,11.1 -8.5,12 -2.1,0.4 -204.7,32.6 -246.9,-130.3 -1.5,-5.6 1.9,-11.3 7.4,-12.7 5.6,-1.5 11.3,1.9 12.8,7.5 37.4,144.3 215.6,116.2 223.2,115 2.9,-0.5 5.7,0.2 7.9,1.9"
         style="fill:#000000;fill-opacity:1;fill-rule:nonzero;stroke:none"
         id="path170" /><path
         d="m 15278.1,12569.2 -152.7,-171.8 -7.6,-58.1 c 0,0 -209.3,314.5 -219.5,399.3 -10.2,84.8 379.8,-169.4 379.8,-169.4"
         style="fill:#000000;fill-opacity:1;fill-rule:nonzero;stroke:none"
         id="path172" /><path
         d="m 14672.5,12061 c 2.3,1.7 3.9,4.4 4.2,7.6 0.4,5.7 -3.9,10.7 -9.6,11.2 -5.6,0.4 -136.2,9.4 -154.5,-71.4 -1.3,-5.7 2.3,-11.2 7.9,-12.5 5.6,-1.3 11.2,2.2 12.4,7.9 14.4,63.2 131.4,55.2 132.6,55.2 2.6,-0.2 5,0.5 7,2"
         style="fill:#000000;fill-opacity:1;fill-rule:nonzero;stroke:none"
         id="path174" /><path
         d="m 14910.7,12107.5 c 10.3,-13.9 29.9,-16.7 43.8,-6.4 13.8,10.3 16.7,29.8 6.4,43.7 -10.3,13.9 -29.9,16.8 -43.7,6.5 -13.9,-10.3 -16.8,-29.9 -6.5,-43.8"
         style="fill:#000000;fill-opacity:1;fill-rule:nonzero;stroke:none"
         id="path176" /><path
         d="m 14625.1,11934.3 c 10.3,-13.8 29.9,-16.7 43.8,-6.4 13.9,10.3 16.8,29.9 6.5,43.7 -10.4,13.9 -30,16.8 -43.8,6.5 -13.9,-10.3 -16.8,-29.9 -6.5,-43.8"
         style="fill:#000000;fill-opacity:1;fill-rule:nonzero;stroke:none"
         id="path178" /><path
         d="m 15111.6,12270.3 c 61.8,-83.2 179.4,-100.6 262.6,-38.8 83.2,61.9 100.6,179.4 38.8,262.6 -61.8,83.2 -179.4,100.6 -262.6,38.8 -83.2,-61.8 -100.6,-179.4 -38.8,-262.6"
         style="fill:#fe9f73;fill-opacity:1;fill-rule:nonzero;stroke:none"
         id="path180" /><path
         d="m 15350.8,12318.2 c 31.3,23.2 34.7,62.3 24.1,90.9 -12.5,33.8 -41.9,53.9 -74.9,51.2 -48.7,-4.1 -69.1,-39.9 -77,-61.6 -6.2,22 -5.3,42 2.8,59.7 17.6,38.4 63.2,53.9 63.7,54 2.7,0.9 4.2,3.9 3.3,6.6 -0.9,2.7 -3.8,4.2 -6.6,3.3 -2,-0.6 -50.3,-16.9 -69.8,-59.5 -11.3,-24.5 -10.5,-52.6 2.3,-83.4 l 7.2,-17.3 2.8,18.5 c 0.4,2.7 10.3,64.1 72.2,69.3 34.2,2.9 56,-22.1 64.3,-44.4 8.5,-23.1 8.2,-57.6 -20.6,-78.9 l -0.9,-0.7 c -2.2,-1.7 -2.8,-4.9 -1.1,-7.2 1.7,-2.3 5,-2.9 7.3,-1.2 l 0.9,0.7"
         style="fill:#f07162;fill-opacity:1;fill-rule:nonzero;stroke:none"
         id="path182" /><path
         d="m 14947.9,11872.3 c 1.8,1.3 2.6,3.6 1.9,5.8 -0.9,2.8 -3.9,4.3 -6.6,3.4 l -104.5,-34.6 -120.2,217.1 c -1.4,2.5 -4.5,3.4 -7.1,2 -2.5,-1.3 -3.4,-4.5 -2,-7 l 124.4,-224.7 112.7,37.3 1.4,0.7"
         style="fill:#f07162;fill-opacity:1;fill-rule:nonzero;stroke:none"
         id="path184" /><path
         d="m 14991.5,11794.8 c -2.1,0 -4.2,0.8 -5.9,2.4 -3.3,3.3 -3.4,8.6 -0.2,12 1.9,1.8 45.2,46.2 118.4,86 4,2.2 9.1,0.7 11.4,-3.4 2.2,-4.1 0.7,-9.2 -3.4,-11.5 -70.7,-38.4 -113.8,-82.4 -114.2,-82.9 -1.7,-1.7 -3.9,-2.6 -6.1,-2.6"
         style="fill:#f07162;fill-opacity:1;fill-rule:nonzero;stroke:none"
         id="path186" /><path
         d="m 15505.3,11073.7 c -160.3,0 -220.3,137.2 -220.9,138.6 l -145.2,283.5 c -195,-98.3 -353.8,106.6 -355.4,108.7 l -464.2,625 c -2.8,3.8 -2,9 1.7,11.8 3.7,2.8 9,2.1 11.8,-1.7 l 464.2,-624.9 c 6.3,-8.2 155.8,-200.8 341.5,-100 l 7.6,4.1 153.3,-299.4 c 2.6,-6.1 60.7,-137.5 221.4,-128.4 5.2,0.5 8.6,-3.3 8.9,-7.9 0.3,-4.7 -3.3,-8.7 -7.9,-9 -5.7,-0.3 -11.3,-0.4 -16.8,-0.4"
         style="fill:#f07162;fill-opacity:1;fill-rule:nonzero;stroke:none"
         id="path188" /><path
         d="m 15278.1,12569.2 c 0,0 -167.1,331.2 -338.1,373.8 -171.1,42.6 -828.8,-149 -850.7,-250.1 -21.8,-101.1 90,-121 90,-121 0,0 -256.3,-87.4 -166.8,-305.8 89.4,-218.4 592.7,34.3 794.4,317.5 0,0 213.8,79.2 471.2,-14.4"
         style="fill:#000000;fill-opacity:1;fill-rule:nonzero;stroke:none"
         id="path190" /><path
         d="m 15772.5,11065.7 c -7.2,0 -13.8,4.5 -16.1,11.7 -2.9,8.9 2,18.4 10.9,21.2 351.6,113.7 215.5,604.9 214.1,609.8 -2.5,9 2.7,18.3 11.6,20.9 8.9,2.5 18.3,-2.6 20.9,-11.6 1.5,-5.2 146.4,-527.5 -236.2,-651.2 -1.8,-0.6 -3.5,-0.8 -5.2,-0.8"
         style="fill:#21111d;fill-opacity:1;fill-rule:nonzero;stroke:none"
         id="path192" /><path
         d="m 18012.8,9122.7 -1668.7,414 -2.1,10.4 c -2.2,10.4 -218,1047 -210.6,1590.5 7.6,553.4 212.8,631.9 221.5,634.9 8.8,3.1 18.4,-1.5 21.5,-10.3 3.1,-8.7 -1.5,-18.3 -10.2,-21.5 -3.1,-1.2 -191.8,-79.4 -199,-603.6 -7,-510.6 185.1,-1462.7 207.7,-1572.7 l 1604,-398 c -8.1,166.2 -59.5,1198.5 -104,1571.2 -1.1,9.2 5.6,17.6 14.8,18.7 9.3,1.1 17.7,-5.5 18.8,-14.7 48.3,-405 104.6,-1584.4 105.2,-1596.3 l 1.1,-22.6"
         style="fill:#21111d;fill-opacity:1;fill-rule:nonzero;stroke:none"
         id="path194" /><path
         d="m 17934.6,10252.4 c -3.7,0 -7.5,1.3 -10.6,3.8 -7.3,5.9 -8.4,16.5 -2.5,23.8 46.3,57.2 117.2,227.1 117.9,228.8 3.6,8.6 13.5,12.6 22.1,9.1 8.6,-3.6 12.7,-13.5 9.1,-22.1 -3,-7.1 -73.5,-176.1 -122.9,-237.1 -3.3,-4.1 -8.2,-6.3 -13.1,-6.3"
         style="fill:#21111d;fill-opacity:1;fill-rule:nonzero;stroke:none"
         id="path196" /><path
         d="m 17975.6,9502.7 c -3.1,0 -6.1,0.8 -8.9,2.5 -302.4,187.6 -1692.6,532 -1706.6,535.4 -9.1,2.3 -14.6,11.4 -12.4,20.5 2.2,9 11.4,14.6 20.5,12.3 57.4,-14.1 1409.4,-349.1 1716.3,-539.5 7.9,-4.9 10.4,-15.3 5.5,-23.2 -3.3,-5.2 -8.8,-8 -14.4,-8"
         style="fill:#21111d;fill-opacity:1;fill-rule:nonzero;stroke:none"
         id="path198" /><path
         d="m 14996.2,2631.1 c -2.3,0 -3.7,0 -3.9,0 l -11.3,0.1 -4.2,10.4 c -440.8,1074.6 -1722.1,4783.6 -1538.3,5350 153.9,474.4 564.3,596.4 568.4,597.6 9,2.5 18.3,-2.6 20.9,-11.6 2.5,-8.9 -2.6,-18.3 -11.6,-20.8 -4,-1.2 -397.4,-118.9 -545.6,-575.6 -180.8,-557.1 1089.6,-4231.1 1533.1,-5316.3 88.4,0.4 677.2,7.7 1101.8,137.3 8.9,2.8 18.3,-2.3 21,-11.2 2.8,-8.9 -2.2,-18.4 -11.2,-21.1 -444,-135.6 -1063.8,-138.8 -1119.1,-138.8"
         style="fill:#21111d;fill-opacity:1;fill-rule:nonzero;stroke:none"
         id="path200" /><path
         d="m 16072.1,5249.2 c -7.7,0 -14.6,5.4 -16.4,13.2 l -260.8,1155.3 c -2,9.1 3.7,18.1 12.8,20.2 9,2 18.1,-3.7 20.2,-12.8 l 260.7,-1155.3 c 2.1,-9 -3.6,-18.1 -12.8,-20.1 -1.2,-0.3 -2.4,-0.5 -3.7,-0.5"
         style="fill:#21111d;fill-opacity:1;fill-rule:nonzero;stroke:none"
         id="path202" /><path
         d="m 14425,9979 h -393 l 98.4,-1159 h 595.9 l 88,1159 H 14425"
         style="fill:#3f9896;fill-opacity:1;fill-rule:nonzero;stroke:none"
         id="path204" /><path
         d="m 14710.4,10182.3 h -574.5 c -33.4,0 -60.5,-27.3 -60.5,-61 h 345.8 3.8 345.9 c 0,33.7 -27.1,61 -60.5,61"
         style="fill:#21111d;fill-opacity:1;fill-rule:nonzero;stroke:none"
         id="path206" /><path
         d="m 14805.6,10090.1 c -3.8,18.2 -19.8,31.2 -38.2,31.2 h -342.4 -3.8 -342.3 c -18.5,0 -34.4,-13 -38.2,-31.2 l -32.5,-155 c -5.1,-24.5 13.4,-47.6 38.3,-47.6 h 374.7 3.8 374.8 c 24.9,0 43.4,23.1 38.3,47.6 l -32.5,155"
         style="fill:#44243d;fill-opacity:1;fill-rule:nonzero;stroke:none"
         id="path208" /><path
         d="m 14051.2,9623.2 25.5,-471.2 h 692.8 l 25.5,471.2 h -369.5 -4.8 -369.5"
         style="fill:#fdeacf;fill-opacity:1;fill-rule:nonzero;stroke:none"
         id="path210" /><path
         d="m 14769.5,9145.4 h -699.1 l -25.8,477.4 13.3,0.7 25.1,-464.8 h 686.5 v -13.3"
         style="fill:#21111d;fill-opacity:1;fill-rule:nonzero;stroke:none"
         id="path212" /><path
         d="m 14613.4,9742.2 -11.6,6.6 66.9,118 11.6,-6.6 -66.9,-118"
         style="fill:#21111d;fill-opacity:1;fill-rule:nonzero;stroke:none"
         id="path214" /><path
         d="m 14624.6,9674.4 -11.5,6.7 60.5,103.9 11.5,-6.7 -60.5,-103.9"
         style="fill:#21111d;fill-opacity:1;fill-rule:nonzero;stroke:none"
         id="path216" /><path
         d="m 16897.5,5885.3 c -460.8,60.1 -1016.3,219 -1023,220.9 -9,2.6 -14.1,11.9 -11.5,20.9 2.5,9 11.9,14.2 20.8,11.6 8.2,-2.4 816,-233.3 1286.9,-242.1 9.5,-0.3 16.7,-7.9 16.6,-17.3 -0.2,-9.3 -7.9,-16.7 -17.2,-16.5 -82.7,1.5 -175.5,9.8 -272.6,22.5"
         style="fill:#21111d;fill-opacity:1;fill-rule:nonzero;stroke:none"
         id="path218" /><path
         d="m 14423.4,8270.7 v 0 c 55.2,16.6 402.7,-24.3 530.2,-47.8 l 0.7,0.9 641.5,-132.7 15.3,830 c 0,0 -756,143.8 -867.6,155.1 -111.6,11.3 -498.8,-75.3 -622.2,-161.2 -224,-155.9 -96.3,-179 -96.3,-179 -217.4,-183.8 -5.8,-196 -5.8,-196 -209.3,-147.5 -12.2,-197.6 -12.2,-197.6 -104.2,-90.7 -87.6,-140.1 -55.7,-165.5 23.3,-18.6 54.6,-23.8 83.5,-16.1 67.2,18.1 235.8,63.9 388.6,109.9"
         style="fill:#fe9f73;fill-opacity:1;fill-rule:nonzero;stroke:none"
         id="path220" /><path
         d="m 14256.9,8464.5 c 5.7,-0.2 10.9,-3.9 12.6,-9.7 2,-7.1 -2.1,-14.6 -9.2,-16.7 -100.2,-29.2 -245.5,-106.8 -246.9,-107.5 -6.6,-3.5 -14.8,-1.1 -18.3,5.5 -3.5,6.5 -1.1,14.7 5.5,18.2 6.1,3.3 149.2,79.7 252.2,109.7 1.4,0.4 2.8,0.6 4.1,0.5"
         style="fill:#f07162;fill-opacity:1;fill-rule:nonzero;stroke:none"
         id="path222" /><path
         d="m 14262,8635.2 c 6.4,-0.2 11.9,-4.9 12.9,-11.4 1.2,-7.3 -3.9,-14.2 -11.2,-15.4 -125.6,-19.5 -236.9,-79.6 -238,-80.2 -6.6,-3.6 -14.8,-1.1 -18.3,5.4 -3.6,6.5 -1.2,14.7 5.3,18.3 4.7,2.5 116.5,62.9 246.8,83.2 l 2.5,0.1"
         style="fill:#f07162;fill-opacity:1;fill-rule:nonzero;stroke:none"
         id="path224" /><path
         d="m 14237.9,8830.8 c 6.2,-0.2 11.6,-4.7 12.8,-11 1.4,-7.4 -3.5,-14.4 -10.8,-15.8 -107.9,-19.9 -206.9,-79 -207.9,-79.6 -6.4,-3.8 -14.7,-1.7 -18.5,4.7 -3.9,6.3 -1.8,14.6 4.6,18.5 4.2,2.5 104.3,62.1 216.9,83 1,0.1 1.9,0.2 2.9,0.2"
         style="fill:#f07162;fill-opacity:1;fill-rule:nonzero;stroke:none"
         id="path226" /><path
         d="m 13778.3,7268.9 c -9.2,0 -16.7,7.4 -16.9,16.7 -3.7,234.1 84.4,413.1 88.2,420.6 4.1,8.3 14.2,11.7 22.6,7.6 8.3,-4.2 11.7,-14.3 7.6,-22.7 -0.9,-1.8 -88.2,-179.5 -84.6,-405 0.2,-9.3 -7.3,-17 -16.6,-17.2 h -0.3"
         style="fill:#21111d;fill-opacity:1;fill-rule:nonzero;stroke:none"
         id="path228" /><path
         d="m 13864.6,7152.6 c -8.7,0 -16.1,6.7 -16.8,15.6 -11.4,148.4 72.6,369.5 76.2,378.9 3.3,8.7 13.1,13 21.8,9.7 8.7,-3.3 13,-13.1 9.7,-21.8 -0.9,-2.2 -84.8,-223.4 -74,-364.2 0.7,-9.3 -6.3,-17.4 -15.5,-18.2 h -1.4"
         style="fill:#21111d;fill-opacity:1;fill-rule:nonzero;stroke:none"
         id="path230" /><path
         d="m 13271,2494.8 c -810.7,0 -1251.9,512.3 -1256.4,517.7 l -5.5,6.4 1.9,8.2 c 277.3,1208 1424,4415.4 1435.5,4447.7 3.2,8.8 12.8,13.4 21.6,10.2 8.8,-3.1 13.4,-12.8 10.2,-21.6 -11.5,-32.1 -1152.2,-3222.9 -1432.4,-4435.4 54.2,-59.5 504.6,-525.9 1292.1,-498.2 9.8,0.6 17.1,-7 17.4,-16.3 0.4,-9.3 -6.9,-17.1 -16.2,-17.5 -23,-0.8 -45.8,-1.2 -68.2,-1.2"
         style="fill:#21111d;fill-opacity:1;fill-rule:nonzero;stroke:none"
         id="path232" /><path
         d="m 16114.9,1968.7 h -1401.7 c -12.7,2 -23,4.2 -30.6,6.7 -89.9,29.1 -97.4,82.6 -93.1,113.5 1.9,13.7 9.7,25.9 21.2,33.5 l 774.5,510.2 255.8,-115.1 c 81.4,-36.8 168.2,-60.3 257.1,-68.9 181.6,-17.7 475.6,-27.2 533.5,87.6 l -12,-440.4 c 0,0 42.3,-130.5 -304.7,-127.1"
         style="fill:#ef3a4c;fill-opacity:1;fill-rule:nonzero;stroke:none"
         id="path234" /><path
         d="m 19196.6,1993.5 h -112.4 l -263.5,3772.4 h 112.4 l 263.5,-3772.4"
         style="fill:#f9bb78;fill-opacity:1;fill-rule:nonzero;stroke:none"
         id="path236" /><path
         d="m 16620.8,1993.5 h 112.4 l 263.5,3772.4 h -112.5 l -263.4,-3772.4"
         style="fill:#f9bb78;fill-opacity:1;fill-rule:nonzero;stroke:none"
         id="path238" /><path
         d="M 19246.4,5718.8 H 16571 c -57.1,0 -103.4,46.3 -103.4,103.4 0,57.1 46.3,103.4 103.4,103.4 h 2675.4 c 57.1,0 103.4,-46.3 103.4,-103.4 0,-57.1 -46.3,-103.4 -103.4,-103.4"
         style="fill:#4c222e;fill-opacity:1;fill-rule:nonzero;stroke:none"
         id="path240" /><path
         d="m 18948.7,4327.5 h -2098.6 v 107.1 h 2098.6 v -107.1"
         style="fill:#f9bb78;fill-opacity:1;fill-rule:nonzero;stroke:none"
         id="path242" /><path
         d="m 19708.3,1993.5 c 113.5,113.6 998.9,1702.7 1611.8,885.4 0,0 1001.8,2304.3 2270.3,1853.1 0,0 808.7,-468.2 221.3,-1634.6 0,0 1958.1,124.9 1932.5,-1103.9 h -6035.9"
         style="fill:#258d8c;fill-opacity:1;fill-rule:nonzero;stroke:none"
         id="path244" /><path
         d="m 22637.9,4296.8 c -3.9,0 -7.8,1.8 -10.4,5.1 -4.5,5.7 -3.5,14 2.2,18.5 13.1,10.3 324,252.8 608.2,286.9 7.3,0.8 13.8,-4.3 14.7,-11.6 0.8,-7.2 -4.3,-13.8 -11.6,-14.6 -276.7,-33.2 -591.8,-279 -595,-281.4 -2.4,-1.9 -5.3,-2.9 -8.1,-2.9"
         style="fill:#000000;fill-opacity:1;fill-rule:nonzero;stroke:none"
         id="path246" /><path
         d="m 22637.9,4144 c -3.9,0 -7.7,1.6 -10.3,4.8 -4.6,5.7 -3.7,14 2,18.6 2.1,1.7 215.2,172.8 487,252.1 6.9,2.1 14.3,-1.9 16.3,-8.9 2.1,-7 -1.9,-14.4 -8.9,-16.4 -266.6,-77.7 -475.8,-245.6 -477.8,-247.3 -2.5,-2 -5.4,-2.9 -8.3,-2.9"
         style="fill:#000000;fill-opacity:1;fill-rule:nonzero;stroke:none"
         id="path248" /><path
         d="M 26762.2,1921.2 H 4965.09 c -12.13,0 -21.95,21.2 -21.95,47.4 0,26.2 9.82,47.4 21.95,47.4 H 26762.2 c 12.1,0 45.6,-21.2 45.6,-47.4 0,-26.2 -33.5,-47.4 -45.6,-47.4"
         style="fill:#21111d;fill-opacity:1;fill-rule:nonzero;stroke:none"
         id="path250" /><path
         d="m 24533.5,5208.5 c -226.1,-272.9 -291,-592.2 -144.8,-713.4 146.2,-121.1 448,1.8 674.1,274.7 226.2,272.8 291,592.2 144.8,713.3 -146.1,121.2 -447.9,-1.8 -674.1,-274.6"
         style="fill:#258d8c;fill-opacity:1;fill-rule:nonzero;stroke:none"
         id="path252" /><path
         d="m 24878.5,4134.9 c -133.8,-161.6 -172.2,-350.6 -85.7,-422.3 86.5,-71.8 265.2,1 399.1,162.5 133.8,161.6 172.2,350.6 85.7,422.3 -86.5,71.8 -265.2,-1 -399.1,-162.5"
         style="fill:#258d8c;fill-opacity:1;fill-rule:nonzero;stroke:none"
         id="path254" /><path
         d="m 2602.12,11706.9 c 373.74,25.4 1654.74,98.9 2533.24,-17.7 113.95,-15.2 184.3,122.2 104.38,204.8 -46.75,48.3 -125.82,87.1 -257.95,94.3 0,0 33.04,819 -585.9,863.8 -709.85,51.4 -706.24,-752.6 -706.24,-752.6 0,0 -326.85,301 -553.36,-90.4 0,0 -405.13,226.1 -601.22,-205.7 -21.38,-47.1 15.45,-100 67.05,-96.5"
         style="fill:#ffffff;fill-opacity:1;fill-rule:nonzero;stroke:none"
         id="path256" /><path
         d="m 8385.35,9248.9 c -284.22,16.2 -950.53,44.6 -1529.76,-4.2 -239.65,-20.2 -446.55,171.2 -441.17,411.6 2.21,98.4 37.5,212.9 128.84,342.7 351.69,499.4 963.02,22.4 957.15,-231.1 0,0 123.59,381.8 498.96,314.9 375.38,-66.8 242.63,-622 242.63,-622 0,0 121.13,25.5 205.1,-31.8 82.57,-56.3 38.06,-185.9 -61.75,-180.1"
         style="fill:#ffffff;fill-opacity:1;fill-rule:nonzero;stroke:none"
         id="path258" /><path
         d="m 20960.5,9200.9 c 505.9,5.4 1739.1,0.9 2473.3,-152.5 106.1,-22.2 184.5,99.2 119,185.7 -47.1,62.3 -134.2,117.4 -292.1,133.8 0,0 186.7,678.7 -474.4,782.4 -679.3,106.6 -731,-615.7 -731,-615.7 0,0 -377.2,402.5 -598.3,-55.4 0,0 -411.1,209.3 -615.9,-8.7 -96.4,-102.7 -21.5,-271.1 119.4,-269.6"
         style="fill:#ffffff;fill-opacity:1;fill-rule:nonzero;stroke:none"
         id="path260" /></g></g></svg>
