<svg xmlns="http://www.w3.org/2000/svg" width="70" height="69.982" viewBox="0 0 70 69.982">
  <path id="clock" d="M59.97,10.537C38.183-11.6.323,3.683.014,34.741c-.558,18.8,15.863,35.526,34.675,35.306,31.059.249,47.023-37.33,25.281-59.51Zm-22.5,53.942.024-2.608a2.734,2.734,0,0,0-5.467-.049l-.024,2.608a29.577,29.577,0,0,1-26.424-26.9l2.608.024a2.734,2.734,0,0,0,.049-5.467l-2.608-.024a29.577,29.577,0,0,1,26.9-26.424l-.024,2.608a2.734,2.734,0,0,0,5.467.049L38,5.683a29.577,29.577,0,0,1,26.424,26.9l-2.608-.024a2.734,2.734,0,0,0-.049,5.467l2.608.024a29.577,29.577,0,0,1-26.9,26.424Zm4.9-25.822a8.245,8.245,0,0,0-4.565-11.308l.086-9.489a2.734,2.734,0,0,0-5.467-.049L32.341,27.3a8.2,8.2,0,1,0,6.131,15.189l5.283,5.379a2.734,2.734,0,1,0,3.9-3.831Zm-4.635-3.512a2.669,2.669,0,0,1-2.693,2.645,2.776,2.776,0,0,1-2.768-2.563,2.737,2.737,0,0,1,2.949-2.9,2.776,2.776,0,0,1,2.513,2.814Z" transform="translate(0 -0.067)" fill="#8758fa"/>
</svg>
