<svg xmlns="http://www.w3.org/2000/svg" width="75.541" height="68.256" viewBox="0 0 75.541 68.256">
  <g id="daily-health-app" transform="translate(0 -24.705)">
    <path id="Path_10" data-name="Path 10" d="M212.961,162.7Z" transform="translate(-181.559 -117.652)" fill="#8758fa"/>
    <path id="Path_11" data-name="Path 11" d="M71.257,32.93c-7.634-11.627-25.131-9.984-33.5-.763a24,24,0,0,0-17.4-7.462C6.466,24.875.332,35.906.008,46.748c-.5,19.6,24.658,39.12,36.27,45.817a2.949,2.949,0,0,0,2.952,0C54.847,83.423,87.15,57.189,71.257,32.93Zm-33.5,53.625c-3.956-2.491-15.015-9.9-22.992-19.533h11.48a2.949,2.949,0,0,0,2.808-2.047l2.283-7.11L36.692,75.4a2.949,2.949,0,0,0,5.582.171l4.249-11.362.466,1.053a2.949,2.949,0,0,0,2.7,1.756h11.06C52.769,76.657,41.708,84.066,37.754,86.555ZM65,61.124h-13.4l-2.615-5.911a2.949,2.949,0,0,0-5.459.16l-3.739,10L34.223,47.14a2.949,2.949,0,0,0-5.628-.04l-4.5,14.024H10.507c-2.785-4.543-4.6-9.409-4.6-14.376,0-4.491,2.6-16.145,14.45-16.145,6.03-.195,12.126,3.615,14.907,7.77a2.922,2.922,0,0,0,4.98.006C43,34.251,49.1,30.405,55.153,30.6c11.854,0,14.45,11.654,14.45,16.145,0,4.967-1.816,9.833-4.6,14.376Z" transform="translate(0)" fill="#8758fa"/>
  </g>
</svg>
