<svg xmlns="http://www.w3.org/2000/svg" width="134.9" height="34.9" viewBox="0 0 134.9 34.9"><g transform="translate(-242 -40.4)"><path d="M6-10.2a4.987,4.987,0,0,1,2.51.62,4.346,4.346,0,0,1,1.71,1.79A5.883,5.883,0,0,1,10.84-5a5.883,5.883,0,0,1-.62,2.79A4.346,4.346,0,0,1,8.51-.42,4.987,4.987,0,0,1,6,.2,5,5,0,0,1,3.5-.42,4.327,4.327,0,0,1,1.78-2.21,5.883,5.883,0,0,1,1.16-5a5.883,5.883,0,0,1,.62-2.79A4.327,4.327,0,0,1,3.5-9.58,5,5,0,0,1,6-10.2ZM6-8.82a3.165,3.165,0,0,0-1.74.46A2.987,2.987,0,0,0,3.15-7.05,4.89,4.89,0,0,0,2.76-5a4.906,4.906,0,0,0,.39,2.04A2.978,2.978,0,0,0,4.26-1.64,3.165,3.165,0,0,0,6-1.18a3.165,3.165,0,0,0,1.74-.46A2.978,2.978,0,0,0,8.85-2.96,4.906,4.906,0,0,0,9.24-5a4.89,4.89,0,0,0-.39-2.05A2.987,2.987,0,0,0,7.74-8.36,3.165,3.165,0,0,0,6-8.82ZM17.06.2a5.891,5.891,0,0,1-2.69-.62,4.432,4.432,0,0,1-1.89-1.76l1.36-.98a3.337,3.337,0,0,0,1.29,1.44,3.855,3.855,0,0,0,2.05.52,2.911,2.911,0,0,0,1.66-.41,1.245,1.245,0,0,0,.6-1.07,1.232,1.232,0,0,0-.27-.77,1.714,1.714,0,0,0-1.03-.51l-2.4-.5a3.768,3.768,0,0,1-2.09-1,2.5,2.5,0,0,1-.63-1.74,2.581,2.581,0,0,1,.47-1.5,3.283,3.283,0,0,1,1.34-1.09,4.766,4.766,0,0,1,2.05-.41,4.988,4.988,0,0,1,2.5.58A3.621,3.621,0,0,1,20.9-7.98l-1.34.88a2.378,2.378,0,0,0-1.1-1.29,3.285,3.285,0,0,0-1.58-.41,3.372,3.372,0,0,0-1.23.2,1.773,1.773,0,0,0-.78.55,1.26,1.26,0,0,0-.27.79,1.258,1.258,0,0,0,.3.81,1.872,1.872,0,0,0,1.12.53l2.5.52a3.454,3.454,0,0,1,1.96.92,2.286,2.286,0,0,1,.56,1.56,2.793,2.793,0,0,1-.5,1.65,3.17,3.17,0,0,1-1.4,1.09A5.311,5.311,0,0,1,17.06.2ZM27.74-10.2a4.987,4.987,0,0,1,2.51.62,4.346,4.346,0,0,1,1.71,1.79A5.883,5.883,0,0,1,32.58-5a5.883,5.883,0,0,1-.62,2.79A4.346,4.346,0,0,1,30.25-.42,4.987,4.987,0,0,1,27.74.2a5,5,0,0,1-2.5-.62,4.327,4.327,0,0,1-1.72-1.79A5.883,5.883,0,0,1,22.9-5a5.883,5.883,0,0,1,.62-2.79,4.327,4.327,0,0,1,1.72-1.79A5,5,0,0,1,27.74-10.2Zm0,1.38A3.165,3.165,0,0,0,26-8.36a2.987,2.987,0,0,0-1.11,1.31A4.89,4.89,0,0,0,24.5-5a4.906,4.906,0,0,0,.39,2.04A2.978,2.978,0,0,0,26-1.64a3.165,3.165,0,0,0,1.74.46,3.165,3.165,0,0,0,1.74-.46,2.978,2.978,0,0,0,1.11-1.32A4.906,4.906,0,0,0,30.98-5a4.89,4.89,0,0,0-.39-2.05,2.987,2.987,0,0,0-1.11-1.31A3.165,3.165,0,0,0,27.74-8.82ZM40.1.2a4.015,4.015,0,0,1-1.56-.3A3.646,3.646,0,0,1,37.3-.94a3.6,3.6,0,0,1-.78-1.22l.22-.28L36.6,0H35.2V-14.6h1.6v6.86l-.2-.3a3.422,3.422,0,0,1,1.35-1.55,3.928,3.928,0,0,1,2.17-.61,4.371,4.371,0,0,1,2.28.62A4.468,4.468,0,0,1,44.06-7.8,5.869,5.869,0,0,1,44.68-5a5.806,5.806,0,0,1-.63,2.79A4.521,4.521,0,0,1,42.38-.42,4.371,4.371,0,0,1,40.1.2Zm-.16-1.4a2.79,2.79,0,0,0,2.31-1.04A4.3,4.3,0,0,0,43.08-5a4.332,4.332,0,0,0-.82-2.76,2.762,2.762,0,0,0-2.3-1.04,2.875,2.875,0,0,0-1.65.48A3.2,3.2,0,0,0,37.2-6.98a4.748,4.748,0,0,0-.4,2.02,4.732,4.732,0,0,0,.39,1.99,3.01,3.01,0,0,0,1.1,1.31A2.967,2.967,0,0,0,39.94-1.2Zm8.2-10.72a1.176,1.176,0,0,1-.87-.33,1.176,1.176,0,0,1-.33-.87,1.176,1.176,0,0,1,.33-.87,1.176,1.176,0,0,1,.87-.33,1.176,1.176,0,0,1,.87.33,1.176,1.176,0,0,1,.33.87,1.176,1.176,0,0,1-.33.87A1.176,1.176,0,0,1,48.14-11.92Zm.8,1.92V0h-1.6V-10ZM55.86.2a5.891,5.891,0,0,1-2.69-.62,4.432,4.432,0,0,1-1.89-1.76l1.36-.98a3.337,3.337,0,0,0,1.29,1.44,3.855,3.855,0,0,0,2.05.52,2.911,2.911,0,0,0,1.66-.41,1.245,1.245,0,0,0,.6-1.07,1.232,1.232,0,0,0-.27-.77,1.714,1.714,0,0,0-1.03-.51l-2.4-.5a3.768,3.768,0,0,1-2.09-1,2.5,2.5,0,0,1-.63-1.74,2.581,2.581,0,0,1,.47-1.5,3.283,3.283,0,0,1,1.34-1.09,4.766,4.766,0,0,1,2.05-.41,4.988,4.988,0,0,1,2.5.58A3.621,3.621,0,0,1,59.7-7.98l-1.34.88a2.378,2.378,0,0,0-1.1-1.29,3.285,3.285,0,0,0-1.58-.41,3.372,3.372,0,0,0-1.23.2,1.773,1.773,0,0,0-.78.55,1.26,1.26,0,0,0-.27.79,1.258,1.258,0,0,0,.3.81,1.872,1.872,0,0,0,1.12.53l2.5.52a3.454,3.454,0,0,1,1.96.92,2.286,2.286,0,0,1,.56,1.56,2.793,2.793,0,0,1-.5,1.65,3.17,3.17,0,0,1-1.4,1.09A5.311,5.311,0,0,1,55.86.2Zm8.9-13.04V-2.76a1.37,1.37,0,0,0,.42,1.1,1.6,1.6,0,0,0,1.08.36,2.307,2.307,0,0,0,1-.2,2.728,2.728,0,0,0,.76-.54L68.58-.7a3.383,3.383,0,0,1-1.09.66A4.056,4.056,0,0,1,66.04.2a3.714,3.714,0,0,1-1.42-.27,2.252,2.252,0,0,1-1.05-.86,2.88,2.88,0,0,1-.41-1.55V-12.4ZM68.4-10v1.38H61.16V-10Zm7.82,3.54a2.363,2.363,0,0,0-.6-1.73,2.277,2.277,0,0,0-1.7-.61,3.258,3.258,0,0,0-1.76.45A2.625,2.625,0,0,0,71.1-6.9l-1.3-.8a3.521,3.521,0,0,1,1.48-1.81,4.883,4.883,0,0,1,2.68-.69,5.01,5.01,0,0,1,1.96.37,3.083,3.083,0,0,1,1.39,1.12,3.364,3.364,0,0,1,.51,1.93v4.84q0,.72.76.72a2.752,2.752,0,0,0,.74-.1L79.24-.06a2.33,2.33,0,0,1-1.04.2,2.381,2.381,0,0,1-1.04-.22,1.626,1.626,0,0,1-.72-.67,2.232,2.232,0,0,1-.26-1.13v-.2l.4.06a2.634,2.634,0,0,1-.82,1.27,3.776,3.776,0,0,1-1.3.72A4.648,4.648,0,0,1,73.04.2,4.426,4.426,0,0,1,71.4-.1a2.694,2.694,0,0,1-1.21-.91,2.474,2.474,0,0,1-.45-1.51,2.472,2.472,0,0,1,.75-1.85,4.013,4.013,0,0,1,2.09-.99l3.96-.78v1.32l-3.22.66a3.7,3.7,0,0,0-1.46.56,1.18,1.18,0,0,0-.48,1,1.232,1.232,0,0,0,.49,1.01,2.184,2.184,0,0,0,1.39.39,4.057,4.057,0,0,0,1.11-.15,2.926,2.926,0,0,0,.95-.46,2.2,2.2,0,0,0,.66-.78,2.412,2.412,0,0,0,.24-1.11Z" transform="translate(274 55)" fill="#05074c"/><path d="M6.1.2A6.22,6.22,0,0,1,3.23-.42,4.422,4.422,0,0,1,1.36-2.2,5.577,5.577,0,0,1,.7-5a5.577,5.577,0,0,1,.66-2.8A4.45,4.45,0,0,1,3.21-9.58a5.823,5.823,0,0,1,2.73-.62,5.513,5.513,0,0,1,2.69.61,4.144,4.144,0,0,1,1.69,1.68,5.059,5.059,0,0,1,.58,2.45q0,.36-.02.72a5.66,5.66,0,0,1-.06.6H2.9V-5.96H9.32L7.7-5.34a3.293,3.293,0,0,0-.43-1.84,1.49,1.49,0,0,0-1.33-.64,1.92,1.92,0,0,0-1.09.3,1.823,1.823,0,0,0-.68.94,4.925,4.925,0,0,0-.23,1.64A4.1,4.1,0,0,0,4.2-3.35a1.751,1.751,0,0,0,.74.88A2.332,2.332,0,0,0,6.1-2.2a2.153,2.153,0,0,0,1.21-.3,1.793,1.793,0,0,0,.67-.84l2.72.9A3.161,3.161,0,0,1,9.73-.99,4.639,4.639,0,0,1,8.09-.1,6.569,6.569,0,0,1,6.1.2ZM12.8,0V-10h3.04l.1,1.94a3.535,3.535,0,0,1,1.35-1.6,3.732,3.732,0,0,1,2.01-.54,3.654,3.654,0,0,1,1.94.5,3,3,0,0,1,1.22,1.48,3.375,3.375,0,0,1,.83-1.1,3.434,3.434,0,0,1,1.17-.66,4.273,4.273,0,0,1,1.36-.22,3.8,3.8,0,0,1,1.76.39,2.9,2.9,0,0,1,1.21,1.18,3.933,3.933,0,0,1,.45,1.97V0h-3.4V-5.88a1.906,1.906,0,0,0-.37-1.34,1.318,1.318,0,0,0-.99-.38,1.714,1.714,0,0,0-.91.25,1.6,1.6,0,0,0-.63.75,3.139,3.139,0,0,0-.22,1.26V0h-3.4V-5.88a1.871,1.871,0,0,0-.38-1.34,1.326,1.326,0,0,0-.98-.38,1.7,1.7,0,0,0-.87.24,1.648,1.648,0,0,0-.65.75,3.143,3.143,0,0,0-.24,1.33V0ZM36.5.2a6.22,6.22,0,0,1-2.87-.62A4.422,4.422,0,0,1,31.76-2.2,5.577,5.577,0,0,1,31.1-5a5.577,5.577,0,0,1,.66-2.8,4.45,4.45,0,0,1,1.85-1.78,5.823,5.823,0,0,1,2.73-.62,5.513,5.513,0,0,1,2.69.61,4.144,4.144,0,0,1,1.69,1.68,5.059,5.059,0,0,1,.58,2.45q0,.36-.02.72a5.66,5.66,0,0,1-.06.6H33.3V-5.96h6.42l-1.62.62a3.293,3.293,0,0,0-.43-1.84,1.49,1.49,0,0,0-1.33-.64,1.92,1.92,0,0,0-1.09.3,1.823,1.823,0,0,0-.68.94,4.925,4.925,0,0,0-.23,1.64,4.1,4.1,0,0,0,.26,1.59,1.751,1.751,0,0,0,.74.88,2.332,2.332,0,0,0,1.16.27,2.153,2.153,0,0,0,1.21-.3,1.793,1.793,0,0,0,.67-.84l2.72.9a3.161,3.161,0,0,1-.97,1.45,4.639,4.639,0,0,1-1.64.89A6.569,6.569,0,0,1,36.5.2ZM43.2,0V-10h3l.14,2.16a3.757,3.757,0,0,1,1.13-1.74,2.9,2.9,0,0,1,1.91-.62,3.039,3.039,0,0,1,.65.06,1.384,1.384,0,0,1,.43.16l-.34,2.8a2.448,2.448,0,0,0-.51-.13,4.8,4.8,0,0,0-.75-.05,2.47,2.47,0,0,0-1.12.26,2.006,2.006,0,0,0-.83.77,2.448,2.448,0,0,0-.31,1.29V0ZM61.86-10,58.22,0A10.576,10.576,0,0,1,57,2.52a3.959,3.959,0,0,1-1.56,1.36,5.075,5.075,0,0,1-2.16.42,6.178,6.178,0,0,1-1.54-.18,4.411,4.411,0,0,1-1.22-.5l.68-2.3a2.363,2.363,0,0,0,.76.37,3.935,3.935,0,0,0,1.02.11,1.988,1.988,0,0,0,.95-.2,1.394,1.394,0,0,0,.59-.76l.26-.62L53.62-2.5l-3-7.5h3.74L55.9-4.3l.48,2.12.56-2.2L58.48-10Zm5.38-3.18v9.62a1.316,1.316,0,0,0,.35,1.03,1.413,1.413,0,0,0,.97.31,2.782,2.782,0,0,0,.83-.11,1.963,1.963,0,0,0,.63-.33l.36,2.1A3.792,3.792,0,0,1,69.12,0a6.1,6.1,0,0,1-1.56.2,5.472,5.472,0,0,1-1.97-.32,2.574,2.574,0,0,1-1.28-1.02A3.515,3.515,0,0,1,63.84-3v-9.24ZM70.22-10v2.42h-8.1V-10ZM75.18.2a4.288,4.288,0,0,1-1.79-.35,2.607,2.607,0,0,1-1.21-1.13,4.133,4.133,0,0,1-.44-2.04V-10h3.4v5.88a1.871,1.871,0,0,0,.38,1.34,1.461,1.461,0,0,0,1.08.38,1.789,1.789,0,0,0,.68-.13,1.5,1.5,0,0,0,.56-.4,1.838,1.838,0,0,0,.37-.7,3.505,3.505,0,0,0,.13-1.01V-10h3.4V0H78.7l-.1-1.88A3.372,3.372,0,0,1,77.26-.31,4.009,4.009,0,0,1,75.18.2Zm9-.2V-10h3l.14,2.16a3.757,3.757,0,0,1,1.13-1.74,2.9,2.9,0,0,1,1.91-.62,3.039,3.039,0,0,1,.65.06,1.384,1.384,0,0,1,.43.16l-.34,2.8a2.448,2.448,0,0,0-.51-.13,4.8,4.8,0,0,0-.75-.05,2.47,2.47,0,0,0-1.12.26,2.006,2.006,0,0,0-.83.77,2.448,2.448,0,0,0-.31,1.29V0ZM98.24-6.34a1.544,1.544,0,0,0-.39-1.11,1.381,1.381,0,0,0-1.05-.41,1.916,1.916,0,0,0-1.13.33,1.828,1.828,0,0,0-.65,1.17l-2.88-.68a3.575,3.575,0,0,1,1.48-2.3A5.731,5.731,0,0,1,97-10.2a6.457,6.457,0,0,1,2.49.43,3.366,3.366,0,0,1,1.58,1.28,3.768,3.768,0,0,1,.55,2.09v3.66q0,.78.7.78a1.734,1.734,0,0,0,.58-.08L102.7-.1a3.436,3.436,0,0,1-1.46.28,3.564,3.564,0,0,1-1.38-.25,2.043,2.043,0,0,1-.94-.76,2.279,2.279,0,0,1-.34-1.29v-.12l.38-.14a2.1,2.1,0,0,1-.51,1.44,3.039,3.039,0,0,1-1.32.86A5.136,5.136,0,0,1,95.44.2a4.562,4.562,0,0,1-1.78-.32,2.564,2.564,0,0,1-1.17-.93,2.647,2.647,0,0,1-.41-1.51,2.549,2.549,0,0,1,.65-1.79,3.682,3.682,0,0,1,2.05-.99l3.78-.78-.02,1.8-1.92.4a2.111,2.111,0,0,0-.89.35.827.827,0,0,0-.29.69.748.748,0,0,0,.32.66,1.308,1.308,0,0,0,.76.22,2.1,2.1,0,0,0,.65-.1,1.547,1.547,0,0,0,.55-.31,1.48,1.48,0,0,0,.38-.53,1.886,1.886,0,0,0,.14-.76Z" transform="translate(274 71)" fill="#05074c"/><rect width="19" height="19" rx="4" transform="translate(242 44)" fill="#3e2093"/><circle cx="9.5" cy="9.5" r="9.5" transform="translate(251 53)" fill="#fa949d"/></g></svg>