<?xml version="1.0" encoding="UTF-8" standalone="no"?>
<svg
   xmlns:dc="http://purl.org/dc/elements/1.1/"
   xmlns:cc="http://creativecommons.org/ns#"
   xmlns:rdf="http://www.w3.org/1999/02/22-rdf-syntax-ns#"
   xmlns:svg="http://www.w3.org/2000/svg"
   xmlns="http://www.w3.org/2000/svg"
   viewBox="0 0 4266.6665 2666.6667"
   height="2666.6667"
   width="4266.6665"
   xml:space="preserve"
   id="svg2"
   version="1.1"><metadata
     id="metadata8"><rdf:RDF><cc:Work
         rdf:about=""><dc:format>image/svg+xml</dc:format><dc:type
           rdf:resource="http://purl.org/dc/dcmitype/StillImage" /></cc:Work></rdf:RDF></metadata><defs
     id="defs6" /><g
     transform="matrix(1.3333333,0,0,-1.3333333,0,2666.6667)"
     id="g10"><g
       transform="scale(0.1)"
       id="g12"><g
         transform="scale(1.96319)"
         id="g14"><path
           id="path16"
           style="fill:transparent;fill-opacity:1;fill-rule:nonzero;stroke:none"
           d="M 16300,0 H 0 V 10187.5 H 16300 V 0" /></g><g
         transform="scale(1.96319)"
         id="g18"><path
           id="path20"
           style="fill:#ebf3fa;fill-opacity:1;fill-rule:nonzero;stroke:none"
           d="m 1403.91,1150.58 c 0,0 -1301.725,1979.84 122.9,4123.28 1264.02,1901.82 3258.38,389.56 4388.46,2324.73 C 7456.33,10237.6 15147.2,9207.01 14173.2,5146.78 13701.8,3181.91 16312.4,3110.5 15341.3,1146.4 l -13937.39,4.18" /></g><g
         transform="scale(1.51408)"
         id="g22"><path
           id="path24"
           style="fill:#82b378;fill-opacity:1;fill-rule:nonzero;stroke:none"
           d="m 14418.3,6621.62 c 0,0 -304.8,404.17 19,628.59 0,0 233.9,122.38 416.9,99.82 0,0 -287.6,-420.41 -206.1,-469.11 81.6,-48.69 286.8,491.58 286.8,491.58 0,0 516,17.71 676,-71.91 0,0 -460.8,-331.45 -369.8,-358.57 91,-27.13 586.6,295.48 586.6,295.48 0,0 472.3,-111.04 428.6,-400.66 -43.5,-289.63 -213.7,-369.28 -285.5,-357 -71.8,12.22 -484.6,200.08 -497.5,141.42 -13,-58.66 229.5,-268.16 407.2,-288.3 0,0 -359.7,-350.19 -576.7,-229.12 -217,121.13 -225.5,292.12 -360.9,364.51 -135.5,72.39 -254.5,79.65 -201,11.1 53.5,-68.56 301.9,-147.42 372.8,-293.45 71,-146.03 136.5,-245.63 -92.7,-196.35 -229.3,49.26 -594.8,242.12 -599.2,437.03 -4.5,194.94 -4.5,194.94 -4.5,194.94" /></g><g
         transform="scale(1.48819)"
         id="g26"><path
           id="path28"
           style="fill:#82b378;fill-opacity:1;fill-rule:nonzero;stroke:none"
           d="m 16300,6962.69 c 0,0 -1316,133.19 -1630.8,-225.88 0,0 -76.5,-188.92 -285.7,-352.27 l -36.1,-82.25 c 0,0 243.5,226.72 326.3,236.19 0,0 -98.7,475.37 1626.3,424.21" /></g><g
         transform="scale(1.32894)"
         id="g30"><path
           id="path32"
           style="fill:#82b378;fill-opacity:1;fill-rule:nonzero;stroke:none"
           d="m 16107.1,7149.62 c 0,0 -331.7,-214.69 -379.9,-632.31 l 57.3,-8.73 c 0,0 128.3,426.95 321.9,584.9 193.6,158.02 0.7,56.14 0.7,56.14" /></g><g
         transform="scale(1.43813)"
         id="g34"><path
           id="path36"
           style="fill:#a8d29f;fill-opacity:1;fill-rule:nonzero;stroke:none"
           d="m 13605,7988.6 c 0,0 -711.6,398.55 -379.5,939.44 0,0 265.6,332.12 550.3,417.53 0,0 -151.8,-806.59 0,-825.57 151.9,-18.98 104.4,910.97 104.4,910.97 0,0 749.6,360.59 1043.8,332.13 0,0 -464.9,-787.62 -313.1,-768.64 151.8,18.98 673.8,816.08 673.8,816.08 0,0 768.6,142.34 891.9,-313.14 123.4,-455.49 -75.9,-683.24 -189.8,-711.7 -113.8,-28.47 -844.5,-18.98 -825.6,-113.88 19.1,-94.88 512.5,-246.71 787.6,-161.31 0,0 -303.6,-749.65 -702.1,-711.7 -398.6,37.96 -521.9,284.68 -768.7,303.66 -246.7,18.98 -427,-47.45 -303.6,-113.87 123.3,-66.42 540.9,-21.77 740.1,-191.18 199.3,-169.42 360.6,-273.8 -9.4,-349.71 -370.1,-75.92 -1034.4,-28.47 -1167.2,256.21 C 13605,7988.6 13605,7988.6 13605,7988.6" /></g><g
         transform="scale(1.39626)"
         id="g38"><path
           id="path40"
           style="fill:#82b378;fill-opacity:1;fill-rule:nonzero;stroke:none"
           d="m 16300,9635.55 c 0,0 -2052.5,-664.62 -2287,-1407.43 0,0 9.7,-332.31 -195.6,-713.48 v -146.61 c 0,0 215.1,498.46 332.4,566.88 0,0 -459.4,645.07 2150.2,1700.64" /></g><g
         transform="scale(1.20053)"
         id="g42"><path
           id="path44"
           style="fill:#82b378;fill-opacity:1;fill-rule:nonzero;stroke:none"
           d="m 16070.3,8739.84 c 0,0 -368.1,-559.02 -158.3,-1239.55 l 94.7,25.49 c 0,0 -91.9,749.5 100.7,1126.47 192.6,376.96 -37.1,87.59 -37.1,87.59" /></g><path
         id="path46"
         style="fill:#a8d29f;fill-opacity:1;fill-rule:nonzero;stroke:none"
         d="m 14168.4,11194.9 c 0,0 1191.1,504.1 761.9,1414.4 0,0 -360.8,569.7 -794.6,753.9 0,0 98.7,-1297.6 -143.9,-1301.1 -242.6,-3.4 -5.7,1453.9 -5.7,1453.9 0,0 -1118.6,699 -1587.2,705.4 0,0 595.5,-1322.3 359.6,-1266 -236,56.4 -919.6,1403.6 -919.6,1403.6 0,0 -1186.5,358.3 -1460.3,-338.1 -273.8,-696.3 0.5,-1090 175,-1154.7 174.5,-64.7 1327.7,-177.1 1281.3,-323.3 -46.5,-146.2 -850.6,-299.5 -1269.4,-117 0,0 347.9,-1234.3 982.6,-1244 634.7,-9.6 872.1,357.7 1264.3,344.6 392.1,-13.1 664.7,-149.2 458.7,-232.4 -206,-83.2 -856.2,60 -1199.8,-172.3 -343.6,-232.2 -616,-368.6 -46,-552.8 570,-184.1 1625.1,-225.1 1884.1,200.4 259,425.5 259,425.5 259,425.5" /><path
         id="path48"
         style="fill:#82b378;fill-opacity:1;fill-rule:nonzero;stroke:none"
         d="m 10907.1,13735.4 c 0,0 3028.1,-1364.2 3261.3,-2540.5 0,0 -71.2,-506.8 178.4,-1124.8 l -24.9,-224.3 c 0,0 -244.6,799.1 -412.5,923.6 0,0 812,909.3 -3002.3,2966" /><path
         id="path50"
         style="fill:#82b378;fill-opacity:1;fill-rule:nonzero;stroke:none"
         d="m 14346.8,10070.1 c 0,0 402.9,-789 27.8,-1653.8 l -120.9,47.3 c 0,0 230,972.7 31.5,1496.7 -198.6,523.9 61.6,109.8 61.6,109.8" /><path
         id="path52"
         style="fill:#82b378;fill-opacity:1;fill-rule:nonzero;stroke:none"
         d="m 11725.3,8269.6 c -210.5,303.6 -233.9,586.4 -233.9,586.4 0,0 582.4,418.2 239,857.9 0,0 -264.7,264 -521.8,310.5 0,0 212,-689.5 81.3,-721.1 -130.8,-31.5 -180.9,785.5 -180.9,785.5 0,0 -690.3,241.2 -944.4,187.3 0,0 483.6,-642.2 349.2,-640.5 -134.5,1.6 -668.85,646.5 -668.85,646.5 0,0 -685.39,48.7 -748.32,-361.3 -62.92,-410 133.56,-589.3 235.82,-603 102.27,-13.7 739.55,66.5 732.35,-18.2 -7.3,-84.8 -423.33,-265.9 -672.1,-218.4 0,0 339.01,-625 683.4,-552.6 344.4,72.4 427.9,300.1 641.5,340.9 213.6,40.9 377.7,0.6 276.4,-69.6 -101.2,-70.1 -470.3,-72.2 -627.7,-239.8 -157.3,-167.6 -288,-274.6 42.8,-304.5 330.7,-29.9 906.2,76.9 994.2,338.6 3.9,11.5 7.5,22.3 11,32.8 -4.7,-21.4 -11,-32.8 -11,-32.8 63.6,-28 171.7,-183.8 248.1,-304.1 11.3,-20.7 28.7,-49.1 54,-87.4 h 0.1 c 10.5,-17.5 18.9,-31.8 24.7,-41.8 146.1,-272.2 141.2,-771.4 141.2,-771.4 l 71.2,-10.7 c 97.1,513.4 -217.3,890.8 -217.3,890.8" /><path
         id="path54"
         style="fill:#2c3a64;fill-opacity:1;fill-rule:nonzero;stroke:none"
         d="m 7832.65,15259.4 c -5.75,31.4 -79.67,368.6 -601.3,311.1 0,0 259.65,6.6 320.04,-99.2 0,0 -193.91,113.4 -328.97,48.3 -135.06,-65.1 -182.2,-325.2 -171.19,-406.8 11.01,-81.7 127.79,-333.2 220.86,-342.5 35.25,-3.6 74.11,4.4 108.81,15.6 -18.48,-40.7 -35.93,-85.3 -51.65,-134.5 -145.41,-455.2 128.49,-839.7 297.17,-768.4 108.17,45.8 167.84,-141.5 167.84,-141.5 l 964.13,1043 c 0,0 -521.79,772.1 -925.74,474.9" /><path
         id="path56"
         style="fill:#2b478b;fill-opacity:1;fill-rule:nonzero;stroke:none"
         d="m 9088.67,2697.2 -234.49,-87.3 c 0,0 -1018.5,1412.5 -1143.89,2655.4 -22.4,221.9 -14.93,436.8 33.5,635.4 0,0 -9.95,56.8 -27.37,157.3 -8.05,46.9 -18,103.4 -29.29,168.1 -33.12,189.7 -78.69,449.3 -130.76,744.9 -119.84,680.2 -275.1,1549.7 -395.71,2189 l 63.18,20.3 683.64,220.5 141.28,448.7 509.04,134 c 0,0 113.72,-222.4 215.37,-1273.2 18.76,-137.9 35.8,-289.9 48.63,-454.7 39.63,-503.1 42.5,-1127.2 -48.44,-1840.7 -23.35,-182.7 -52.83,-371.2 -89.4,-565 -26.8,-142 -30.82,-335.6 -19.53,-557.8 51.31,-1016 424.24,-2594.9 424.24,-2594.9" /><path
         id="path58"
         style="fill:#233862;fill-opacity:1;fill-rule:nonzero;stroke:none"
         d="M 8821.8,8255.6 7716.42,6058 c -8.05,46.9 -18,103.4 -29.29,168.1 -33.12,189.7 -78.69,449.3 -130.76,744.9 -119.84,680.2 -275.1,1549.7 -395.71,2189 l 63.18,20.3 683.64,220.5 141.28,448.7 509.04,134 c 0,0 113.72,-222.4 215.37,-1273.2 18.76,-137.9 35.8,-289.9 48.63,-454.7" /><path
         id="path60"
         style="fill:#2b478b;fill-opacity:1;fill-rule:nonzero;stroke:none"
         d="m 8335.52,9701.5 -25.59,219.5 c -428.71,-113.9 -1574.16,318.2 -1574.16,318.2 0,0 -415.32,-365.1 -360.79,-1240.2 26.62,-427.1 75.23,-2242.2 126.01,-2779.2 18.35,-194.7 34.43,-333.2 40.99,-388.6 l 0.13,-0.5 c 2.02,-16.9 -3.88,-32.8 -12.46,-47.6 C 6454.9,5656.3 6393,5524.2 6342.23,5389 5843.86,4060.9 6418.99,2425.4 6418.99,2425.4 l 149.25,60.2 c 0,0 327.29,1820.1 593.22,2624.2 45.15,136.4 88.42,243.6 128.08,307.6 115.62,186.6 222.93,491.5 320.32,854.2 184.08,685.7 332.25,1577.6 430.85,2266.1 13.6,-0.6 294.81,1163.8 294.81,1163.8" /><path
         id="path62"
         style="fill:#ffb27d;fill-opacity:1;fill-rule:nonzero;stroke:none"
         d="m 9026.76,11460.5 c 8.36,-8.7 16.53,-17.2 26.41,-25.2 366.41,-341.5 859.88,-643.4 1123.93,-709.9 173.6,-44.4 556.5,15.1 874.5,80.5 211.8,41.7 396.3,88 472.4,106 24.2,5.7 37.8,10 37.8,10 l -33.2,214.4 c 0,0 -190.6,15.1 -427.4,41.8 -329.8,38.8 -747.9,98.3 -855,161.6 -248.39,147.6 -684.29,766.7 -1033.98,1155.9 -18.32,21.2 -36.5,41.6 -54.49,61.6 -13.17,14.7 -26.34,29 -39.39,43.1 -2.68,2.7 -6.01,7.4 -10.34,9.7 -16.07,15.5 -29.74,29.9 -42.95,42.5 -0.51,1.5 -2.79,2.7 -5.03,4 -62.15,62.4 -171.14,138.2 -171.14,138.2 -61.1,34.8 -111.44,41.5 -146.85,11.8 0,0 -45.71,-44.6 -90.53,-129 -9.53,-17.6 -18.91,-37.1 -27.83,-58.2 -7.42,-11.6 -11.08,-23.9 -14.69,-36.3 -29.65,-77.8 -51.26,-175.7 -47.39,-289.7 2.74,-86.4 19.24,-181.7 57.56,-286.8 61.11,-172.4 215.46,-364.2 407.61,-546" /><path
         id="path64"
         style="fill:#ffb27d;fill-opacity:1;fill-rule:nonzero;stroke:none"
         d="m 8707.71,12364.8 c -124.23,-81.1 -278.97,-146.5 -472.01,-185.4 -723.6,-145.8 -981.99,469.6 -1073.7,889.6 99.62,53.3 192.21,63.1 245.68,68 52.13,4.6 106.89,7.2 152.21,8.1 82.47,59.6 209.9,309.3 247.57,701.4 l 33.57,-10 562.22,-171.1 c 0,0 -31.03,-179.3 -48.55,-349.2 -13.59,-132.9 -18.72,-260.2 5.63,-292.1 43.94,-10.8 70.3,-17.8 70.3,-17.8 l 0.27,-0.5 c 7.26,-12.7 164.01,-287.7 276.81,-641" /><path
         id="path66"
         style="fill:#ff9843;fill-opacity:1;fill-rule:nonzero;stroke:none"
         d="m 8959.6,11912.8 c -3.34,-15.5 -7.36,-30.5 -11.86,-46.1 -127.02,-424.7 -229.77,-2122.4 -229.77,-2122.4 67.31,-212.2 -1166.38,-255.7 -1846.74,-157.6 -247.39,35.5 -421.59,89.8 -433.56,161.5 -121.73,274.4 176.16,786.9 348.18,1047.4 21.63,32.7 40.16,67.1 55.46,102.8 38.89,89.6 57.65,187.2 53.73,285.6 -5.18,134.6 -16.68,265.3 -30.72,387.7 -26.35,230.9 -61.56,432.5 -79.96,575.2 v 0.1 c 35.78,35.6 70.64,68.6 103.09,100 49.47,48.4 92.85,93.2 123.35,136.7 33.48,47.4 52.12,93.7 47.97,142.2 -3.22,36.7 -9.78,73.9 -18.98,110.6 -4.26,17.4 -9.09,34.6 -14.27,51.9 -55.23,181 -156.94,337.6 -156.94,337.6 184.21,107.7 539.07,111 539.07,111 0,0 2.41,-19.4 6.9,-51.1 17.26,-127.2 65.81,-453.5 115.52,-509.3 62.13,-69.7 1043.26,-271.4 1077.44,-159.8 33.6,109.7 -169.03,571.4 -176.62,588.9 l -0.23,0.6 c 314.23,-74.7 450.7,-159.1 456.91,-164.1 l -0.35,0.1 c -170.52,-149.3 161.9,-522.6 72.38,-929.5" /><path
         id="path68"
         style="fill:#ed985f;fill-opacity:1;fill-rule:nonzero;stroke:none"
         d="m 8403.28,13665.4 c 0,0 -31.13,-179.3 -48.54,-349.3 -320.1,41.2 -460.46,351 -513.73,520.3 l 562.27,-171" /><path
         id="path70"
         style="fill:#ffb27d;fill-opacity:1;fill-rule:nonzero;stroke:none"
         d="m 8494.36,13493.6 c 0,0 -760.75,63.5 -713.9,536.6 46.84,473.2 -19.79,800 467.9,779.5 487.69,-20.6 564.04,-210.4 586.82,-372.2 22.77,-161.7 -141.73,-948.2 -340.82,-943.9" /><path
         id="path72"
         style="fill:#2c3a64;fill-opacity:1;fill-rule:nonzero;stroke:none"
         d="m 8838.93,14702.8 c -103.15,154.1 -194.99,131.7 -248.98,93.9 -392.28,269.8 -693.55,-40.8 -693.55,-40.8 -84.79,-334.4 -349.05,-504.3 -349.05,-504.3 0,0 129.87,-99.4 457.22,-49.3 99.99,15.3 193.96,75.9 276.35,152.5 -150.82,-203.5 -342.23,-341.9 -342.23,-341.9 398.84,138 605,652.9 625.86,707.4 42.2,-46.3 124.53,-145.9 143.52,-237.3 25.8,-124.2 17.99,-374 91.12,-372.8 0,0 194.44,361.6 39.74,592.6" /><path
         id="path74"
         style="fill:#ffb27d;fill-opacity:1;fill-rule:nonzero;stroke:none"
         d="m 12233.1,11164.6 c -76.1,-72.5 -153.1,-253.7 -387.4,-250.3 -167.1,1.4 -336.4,-17.4 -418.3,-27.5 -31.9,-5.5 -50.5,-7.8 -50.5,-7.8 l -8.3,265.5 c 0,0 3.4,-0.4 11,0.9 56.6,8.5 344,52.7 457.8,128.2 127.8,85.6 426.4,6.2 426.4,6.2 0,0 45.9,-44.1 -30.7,-115.2" /><path
         id="path76"
         style="fill:#233862;fill-opacity:1;fill-rule:nonzero;stroke:none"
         d="M 7286.69,2303.5 H 6105.66 c 0,0 -28.3,180 33.39,316.5 59.1,131.1 151.69,190.6 129.52,349.2 75.04,-77.3 197.36,-163.8 368.1,-140.9 20.92,-33.9 135.04,-215.4 204.92,-265.6 77.18,-55.4 421.33,-35.7 445.1,-259.2" /><path
         id="path78"
         style="fill:#233862;fill-opacity:1;fill-rule:nonzero;stroke:none"
         d="M 9822.51,2303.5 H 8641.48 c 0,0 -44.15,188.4 33.38,316.5 68.64,113.5 42.34,178.1 -8.5,271.9 53.5,-21.9 122.72,-41.8 198.92,-37.5 58.84,3.4 121.06,30.1 175.63,61.8 50.83,-57.9 268.49,-304.6 336.5,-353.5 77.18,-55.4 421.33,-35.7 445.1,-259.2" /><path
         id="path80"
         style="fill:#ffffff;fill-opacity:1;fill-rule:nonzero;stroke:none"
         d="m 8312.92,13767.2 c 0,0 10.65,-62.6 164.79,-62.8 0,0 129.41,-0.1 129.73,68 0,0 -121.96,56.1 -294.52,-5.2" /><path
         id="path82"
         style="fill:#ed7d2b;fill-opacity:1;fill-rule:nonzero;stroke:none"
         d="m 7032.43,10759.9 c -46.72,-295.9 -260.73,-889.6 -161.2,-1173.2 -247.39,35.5 -421.59,89.8 -433.56,161.5 -121.73,274.4 176.16,786.9 348.18,1047.4 21.63,32.7 40.16,67.1 55.46,102.8 38.89,89.6 57.65,187.2 53.73,285.6 -5.18,134.6 -16.68,265.3 -30.72,387.7 0,0 217.81,-497.3 168.11,-811.8" /><path
         id="path84"
         style="fill:#ff9843;fill-opacity:1;fill-rule:nonzero;stroke:none"
         d="m 8704.17,12756.4 c 8.22,-263 198.43,-985 243.55,-889.7 51.56,108.7 251.27,521.9 345.07,537.1 -4.94,19.1 -388.83,443.5 -405.62,438.6 0,0 -104.29,-31.8 -183,-86" /><path
         id="path86"
         style="fill:#ffb27d;fill-opacity:1;fill-rule:nonzero;stroke:none"
         d="m 6893.26,9025.6 -195.93,-130.4 c 0,0 -49.57,61.9 -128.07,161 -23.45,29.8 -36.02,47.8 -36.02,47.8 -62.12,80 -134.31,178.2 -213.26,284.6 l -1.33,1.3 c -132.32,185.8 -277.65,397.2 -388.88,588.3 -77.29,135.4 -137.47,260.9 -166.87,359.5 -3.24,9.8 -5.01,18.5 -7.02,29.7 -57.51,250.1 47.97,746.6 215.86,1231.1 23.05,66.9 47.43,132.8 70.72,197.3 89.31,237.6 189.67,460.8 290.48,641.3 59.1,108.5 118.02,203.1 174.79,273.7 19.68,25.2 38.18,49.1 58.19,69.4 10.82,12.2 21.64,24.1 32.3,35.4 117.69,-10 364.61,-56.6 547.86,-268.3 -3.12,-11.1 -6.38,-22.2 -9.71,-33.6 -74.1,-239 -188.53,-532.3 -307.13,-819.7 -64.54,-157.9 -130.55,-314.6 -188.35,-462 -36.66,-88.1 -69.84,-172.1 -99.77,-249.6 -56.39,-148.6 -98.25,-272.2 -114.89,-358.8 -11.26,-56.2 4.79,-162 35.13,-292 52.02,-226.5 151.04,-531.6 243.05,-790.7 37.64,-108.1 74.7,-208.7 105.66,-292.1 49.54,-135 83.19,-223.2 83.19,-223.2" /><path
         id="path88"
         style="fill:#ff9843;fill-opacity:1;fill-rule:nonzero;stroke:none"
         d="m 6978.92,11799.3 c -195.7,295.4 -756.62,422.5 -756.62,422.5 316.51,1004.3 1147.48,911.2 1147.48,911.2 0,0 -302.29,-1044.8 -390.86,-1333.7" /><path
         id="path90"
         style="fill:#ffb27d;fill-opacity:1;fill-rule:nonzero;stroke:none"
         d="m 6697.33,8895.2 c 0,0 51.47,-76 57.22,-130.6 5.76,-54.7 54.66,-235.9 117.94,-293.5 63.29,-57.5 207.11,-172.6 227.25,-155.3 20.13,17.3 78.4,152.9 24.39,248.8 -24.38,43.3 -57.47,164 -101.1,193.2 -52.95,35.5 -129.77,267.8 -129.77,267.8 l -195.93,-130.4" /><path
         id="path92"
         style="fill:#ffb27d;fill-opacity:1;fill-rule:nonzero;stroke:none"
         d="m 6894.06,8996.1 c 0,0 155.82,-79.1 176.91,-142.4 21.1,-63.3 108.16,-190.9 99.24,-205.7 -9.55,-15.8 -145.01,70.6 -191.04,149.2 -46.03,78.6 -85.11,198.9 -85.11,198.9" /><g
         transform="scale(1.41325)"
         id="g94"><path
           id="path96"
           style="fill:#ed7d2b;fill-opacity:1;fill-rule:nonzero;stroke:none"
           d="m 7501.78,6886.32 4037.52,2417.11 c 222.6,133.3 500.5,133.3 723.2,0 L 16300,6886.32 V 2946.75 l -8798.22,441.11 v 3498.46" /></g><g
         transform="scale(1.34759)"
         id="g98"><path
           id="path100"
           style="fill:#fcecdb;fill-opacity:1;fill-rule:nonzero;stroke:none"
           d="M 16300,2451.27 H 8661.54 V 9052.41 H 16300 V 2451.27" /></g><path
         id="path102"
         style="fill:#efcbab;fill-opacity:1;fill-rule:nonzero;stroke:none"
         d="m 11986.4,11810.8 c 0,58.5 47.4,105.8 105.8,105.8 58.5,0 105.9,-47.3 105.9,-105.8 0,-58.4 -47.4,-105.8 -105.9,-105.8 -58.4,0 -105.8,47.4 -105.8,105.8" /><g
         transform="scale(1.32793)"
         id="g104"><path
           id="path106"
           style="fill:#efcbab;fill-opacity:1;fill-rule:nonzero;stroke:none"
           d="m 16140.6,8894.18 c 0,44.01 35.7,79.69 79.7,79.69 44,0 79.7,-35.68 79.7,-79.69 0,-44.02 -35.7,-79.7 -79.7,-79.7 -44,0 -79.7,35.68 -79.7,79.7" /></g><g
         transform="scale(1.32143)"
         id="g108"><path
           id="path110"
           style="fill:#efcbab;fill-opacity:1;fill-rule:nonzero;stroke:none"
           d="M 16300,8929.2 H 9150.85 v 17.41 H 16300 v -17.41" /></g><path
         id="path112"
         style="fill:#efcbab;fill-opacity:1;fill-rule:nonzero;stroke:none"
         d="m 12080.7,2405.8 v 9447.1 h 23 V 2405.8 h -23" /><g
         transform="scale(1.32236)"
         id="g114"><path
           id="path116"
           style="fill:#efcbab;fill-opacity:1;fill-rule:nonzero;stroke:none"
           d="m 16282.6,1819.32 v 7144.1 h 17.4 v -7144.1 h -17.4" /></g><g
         transform="scale(1.41325)"
         id="g118"><path
           id="path120"
           style="fill:#ff9843;fill-opacity:1;fill-rule:nonzero;stroke:none"
           d="M 16300,6897.15 V 1629.93 H 7501.78 V 6897.15 L 11900.9,4263.5 16300,6897.15" /></g><g
         transform="scale(1.41325)"
         id="g122"><path
           id="path124"
           style="fill:#ed7d2b;fill-opacity:1;fill-rule:nonzero;stroke:none"
           d="m 7501.78,1629.93 4029.82,2889.08 c 220.7,158.29 517.8,158.29 738.5,0 L 16300,1629.93 H 7501.78" /></g><g
         transform="scale(1.15436)"
         id="g126"><path
           id="path128"
           style="fill:#efcbab;fill-opacity:1;fill-rule:nonzero;stroke:none"
           d="M 16214.1,9500.14 H 12963 c -47.2,0 -85.9,38.62 -85.9,85.83 0,47.21 38.7,85.84 85.9,85.84 h 3251.1 c 47.3,0 85.9,-38.63 85.9,-85.84 0,-47.21 -38.6,-85.83 -85.9,-85.83" /></g><g
         transform="scale(1.21366)"
         id="g130"><path
           id="path132"
           style="fill:#efcbab;fill-opacity:1;fill-rule:nonzero;stroke:none"
           d="M 16218.3,8708.34 H 11533 c -44.9,0 -81.6,36.74 -81.6,81.64 0,44.9 36.7,81.64 81.6,81.64 h 4685.3 c 45,0 81.7,-36.74 81.7,-81.64 0,-44.9 -36.7,-81.64 -81.7,-81.64" /></g><g
         transform="scale(1.16674)"
         id="g134"><path
           id="path136"
           style="fill:#efcbab;fill-opacity:1;fill-rule:nonzero;stroke:none"
           d="m 16238.5,8001.68 h -3526.3 c -33.8,0 -61.4,27.68 -61.4,61.45 0,33.77 27.6,61.46 61.4,61.46 h 3526.3 c 33.8,0 61.5,-27.69 61.5,-61.46 0,-33.77 -27.7,-61.45 -61.5,-61.45" /></g><path
         id="path138"
         style="fill:#efcbab;fill-opacity:1;fill-rule:nonzero;stroke:none"
         d="m 15245,8961.5 h -1160.1 c -39.4,0 -71.7,32.3 -71.7,71.7 0,39.4 32.3,71.7 71.7,71.7 H 15245 c 39.4,0 71.7,-32.3 71.7,-71.7 0,-39.4 -32.3,-71.7 -71.7,-71.7" /><g
         transform="scale(1.04701)"
         id="g140"><path
           id="path142"
           style="fill:#efcbab;fill-opacity:1;fill-rule:nonzero;stroke:none"
           d="m 16231.5,8559.12 h -1338.6 c -37.7,0 -68.4,30.85 -68.4,68.48 0,37.63 30.7,68.48 68.4,68.48 h 1338.6 c 37.6,0 68.5,-30.85 68.5,-68.48 0,-37.63 -30.9,-68.48 -68.5,-68.48" /></g><g
         transform="scale(1.21256)"
         id="g144"><path
           id="path146"
           style="fill:#efcbab;fill-opacity:1;fill-rule:nonzero;stroke:none"
           d="m 16240.9,7390.53 h -1998.2 c -32.5,0 -59.1,26.64 -59.1,59.14 0,32.49 26.6,59.13 59.1,59.13 h 1998.2 c 32.5,0 59.1,-26.64 59.1,-59.13 0,-32.5 -26.6,-59.14 -59.1,-59.14" /></g><g
         transform="scale(1.04758)"
         id="g148"><path
           id="path150"
           style="fill:#efcbab;fill-opacity:1;fill-rule:nonzero;stroke:none"
           d="m 16231.6,8138.97 h -2151.3 c -37.6,0 -68.3,30.74 -68.3,68.45 0,37.61 30.7,68.44 68.3,68.44 h 2151.3 c 37.6,0 68.4,-30.83 68.4,-68.44 0,-37.71 -30.8,-68.45 -68.4,-68.45" /></g><g
         transform="scale(1.17175)"
         id="g152"><path
           id="path154"
           style="fill:#efcbab;fill-opacity:1;fill-rule:nonzero;stroke:none"
           d="M 16238.8,7276.48 H 14724 c -33.6,0 -61.1,27.47 -61.1,61.19 0,33.62 27.5,61.19 61.1,61.19 h 1514.8 c 33.6,0 61.2,-27.57 61.2,-61.19 0,-33.72 -27.6,-61.19 -61.2,-61.19" /></g><g
         transform="scale(1.08576)"
         id="g156"><path
           id="path158"
           style="fill:#f99746;fill-opacity:1;fill-rule:nonzero;stroke:none"
           d="m 15714.9,6540.57 c -20.5,38.32 8.8,85.57 42.3,116.79 -13.1,-39.24 -27.3,-78.2 -42.3,-116.79 z m -61.7,561.64 c -0.5,19.52 9.8,55.08 32.2,54.71 -10.1,-21.92 -20.5,-43.66 -31.5,-65.12 -0.4,3.5 -0.6,7 -0.7,10.41 z m 590.6,-64.75 c -124.9,-103.61 -258.4,-190 -399.2,-268.84 11.9,37.3 21.9,75.98 20,110.52 -2.5,47.52 -40.4,68.34 -78.3,88.05 -9.4,4.88 -18.2,10.04 -26.9,15.19 14.7,14.46 22.3,34.45 12.6,56.37 -16,35.92 -61,30.12 -76.2,-3.13 -2.8,-6.17 -4.5,-12.16 -5.1,-18.05 -6.2,3.22 -10.8,6.72 -14.9,11.7 23.1,43.19 45,87.12 65.1,132.07 4.5,10.13 -1.2,22.1 -9.4,28.18 -33.4,25.14 -78.9,17.04 -105.7,-14.55 -31.8,-37.49 -23.7,-94.5 -8.5,-137.05 1.1,-3.04 2.3,-5.98 3.5,-8.93 -29.5,-53.14 -61.6,-104.9 -95.9,-155.19 -3.2,3.22 -6.5,6.45 -9.7,9.67 -8.9,8.65 -18.5,19.89 -26.8,32.23 15.8,40.99 25.8,84 29.6,128.85 1.6,19.99 -18.4,29.85 -35,23.67 -46.3,-17.13 -71.2,-64.1 -65.2,-112.45 2.1,-16.58 7.4,-32.42 15.1,-47.07 -10.4,-22.38 -22.6,-44.11 -37.1,-65.02 -9.4,-13.54 -2.6,-27.36 8.3,-33.8 -15.1,-50.38 -35.5,-102.05 -70.3,-138.43 -28.5,-29.65 -81.5,-52.22 -116.2,-16.95 -21.9,22.29 -24.7,59.6 -27.7,89.06 -7.4,72.67 -12.8,148.1 -10.2,221.23 1.3,34.63 5,69.82 16.8,102.51 7.4,20.36 17.6,51.21 27.6,16.12 4.8,-17.13 -1.9,-43.84 -3.6,-61.34 -3.2,-31.22 45.3,-34.81 48.4,-3.68 3.7,36.56 20.1,113.47 -21.3,136.4 -34.4,19.06 -66,-8.29 -81.9,-36.84 -57.2,-102.7 -34.5,-243.88 -25.8,-355.51 6.8,-89.07 40.1,-198.39 153.9,-170.02 107,26.61 146.3,161.54 170.9,254.38 1.6,5.8 1.1,11.05 -0.7,15.57 l 1.3,2.3 c 4.4,-4.42 8.9,-8.84 13.4,-13.35 6.3,-5.53 12.4,-11.52 18.2,-17.6 -11.3,-15.56 -22.8,-31.03 -34.5,-46.32 -6.6,-8.66 -4.7,-21.65 2,-29.66 36,-43.29 100.7,-11.15 99.4,42.09 -0.2,12.34 -3.3,23.3 -8.1,33.34 33.8,48.63 65.4,98.74 94.7,150.13 15.3,-14.92 34.6,-24.5 58.4,-23.4 1.6,0.09 3.2,0.28 4.9,0.46 12.4,-13.17 28.1,-24.13 42.3,-32.14 13.9,-7.83 29.8,-12.62 42.2,-22.75 23.1,-18.88 16.2,-40.43 11.2,-67.23 -6.7,-35.28 -18,-70.55 -28.3,-104.91 -48.9,-28.09 -97.2,-63.82 -113.7,-120.1 -15,-51.39 -1.6,-105.45 42.4,-137.32 13.3,-9.67 30.9,-1.94 36.6,12.06 27.6,67.89 52.5,136.87 73.9,206.96 0.7,2.21 1.4,4.51 2.2,6.72 43.1,24.59 88.4,46.24 131,71.47 113.5,67.14 221.1,143.68 322.4,227.86 24.1,19.99 -8,56.55 -32.1,36.47" /></g><g
         transform="scale(1.05109)"
         id="g160"><path
           id="path162"
           style="fill:#dce9fb;fill-opacity:1;fill-rule:nonzero;stroke:none"
           d="m 14420.6,13104.6 -509.9,1125.2 1101.8,-194.3 c 12.1,-2.1 24.2,-3.1 36.2,-3.1 72.8,0 141.5,38.1 179.5,102.2 l 561.9,947 509.9,-1125.1 -1879.4,-851.9" /></g><g
         transform="scale(1.0182)"
         id="g164"><path
           id="path166"
           style="fill:#cee1f6;fill-opacity:1;fill-rule:nonzero;stroke:none"
           d="m 15534.7,14485.5 c -12.3,0 -24.9,1.1 -37.4,3.3 l -1137.4,200.5 1940.1,879.4 -580,-977.6 c -39.2,-66.2 -110.1,-105.6 -185.3,-105.6" /></g><path
         id="path168"
         style="fill:#dce9fb;fill-opacity:1;fill-rule:nonzero;stroke:none"
         d="m 4002.23,6902.8 -281.97,756.2 709.37,-176 c 10.91,-2.7 21.93,-4 32.84,-4 44.12,0 86.38,21.5 112.22,58.9 l 408.63,592.1 281.96,-756.2 -1263.05,-471" /><path
         id="path170"
         style="fill:#cee1f6;fill-opacity:1;fill-rule:nonzero;stroke:none"
         d="m 4462.47,7479 c -10.91,0 -21.93,1.3 -32.84,4 l -709.37,176 1263.06,471 -408.63,-592.1 c -25.84,-37.4 -68.1,-58.9 -112.22,-58.9" /><g
         transform="scale(1.63271)"
         id="g172"><path
           id="path174"
           style="fill:#dce9fb;fill-opacity:1;fill-rule:nonzero;stroke:none"
           d="m 16057.3,6826.53 -1519,405.37 242.6,909.4 555.6,-646.46 c 30.8,-35.84 75.2,-55.39 120.7,-55.39 18.2,0 36.6,3.13 54.4,9.6 l 788.4,286.88 -242.7,-909.4" /></g><g
         transform="scale(1.63271)"
         id="g176"><path
           id="path178"
           style="fill:#cee1f6;fill-opacity:1;fill-rule:nonzero;stroke:none"
           d="m 15457.2,7439.45 c -45.5,0 -89.9,19.55 -120.7,55.39 l -555.6,646.46 1519.1,-405.37 -788.4,-286.88 c -17.8,-6.47 -36.2,-9.6 -54.4,-9.6" /></g><path
         id="path180"
         style="fill:#afcdfb;fill-opacity:1;fill-rule:nonzero;stroke:none"
         d="m 5191.33,5933.6 c -5.95,0 -10.99,4.6 -11.46,10.6 -0.49,6.4 4.26,11.9 10.59,12.4 106.91,8.2 173.44,11.1 174.1,11.1 6.37,0.5 11.7,-4.7 11.97,-11 0.27,-6.4 -4.66,-11.7 -11.01,-12 -0.65,0 -66.83,-2.8 -173.29,-11 z m -344.57,-34 c -5.74,0 -10.71,4.2 -11.41,10.1 -0.77,6.3 3.73,12 10.04,12.8 56.7,6.8 114.67,13.2 172.3,18.9 6.28,0.5 11.96,-4 12.58,-10.3 0.62,-6.3 -4,-12 -10.32,-12.6 -57.46,-5.7 -115.26,-12 -171.8,-18.9 z m -342.49,-49.8 c -5.51,0 -10.37,3.9 -11.33,9.5 -1.08,6.3 3.12,12.2 9.39,13.3 55.17,9.5 112.78,18.6 171.22,27.1 6.38,1 12.13,-3.5 13.04,-9.7 0.91,-6.3 -3.45,-12.2 -9.73,-13.1 -58.25,-8.4 -115.65,-17.5 -170.62,-27 z m -338.93,-69.9 c -5.17,0 -9.88,3.5 -11.17,8.8 -1.51,6.1 2.27,12.4 8.44,13.9 53.79,13.2 110.75,26 169.31,38 6.24,1.2 12.31,-2.8 13.58,-9 1.28,-6.2 -2.74,-12.3 -8.96,-13.6 -58.28,-11.9 -114.95,-24.6 -168.44,-37.8 -0.93,-0.2 -1.85,-0.3 -2.76,-0.3 z M 11800.7,5759 c -5.4,0 -10.3,3.8 -11.3,9.3 -1.2,6.3 2.9,12.3 9.1,13.5 11.7,2.2 18.4,3.5 19.7,3.7 6.8,1.6 14.1,-3.9 14.1,-11.2 0,-9.5 -1.1,-9.7 -29.5,-15.1 z m -341.2,-64 c -5.4,0 -10.3,3.9 -11.3,9.4 -1.1,6.2 3,12.2 9.2,13.4 65,12 122,22.6 170.5,31.7 6.2,1.2 12.2,-2.9 13.4,-9.2 1.2,-6.2 -2.9,-12.2 -9.2,-13.4 -48.5,-9.1 -105.5,-19.7 -170.5,-31.7 z m -7625.19,-14.9 c -4.66,0 -9.06,2.8 -10.78,7.5 -2.22,5.9 0.81,12.5 6.77,14.8 50.97,19 106.42,37.4 164.78,54.9 6.12,1.8 12.51,-1.7 14.32,-7.8 1.82,-6.1 -1.64,-12.5 -7.73,-14.3 -57.88,-17.3 -112.83,-35.6 -163.34,-54.4 -1.32,-0.5 -2.68,-0.7 -4.02,-0.7 z m 7284.59,-47.4 c -5.5,0 -10.3,3.9 -11.3,9.5 -1.2,6.2 3,12.2 9.2,13.4 60.1,10.8 117,21.2 170.3,30.9 6.3,1.2 12.3,-3 13.4,-9.2 1.1,-6.3 -3,-12.3 -9.2,-13.4 -53.4,-9.8 -110.3,-20.1 -170.4,-31 z m -340.6,-60.9 c -5.5,0 -10.3,3.9 -11.3,9.5 -1.1,6.3 3,12.2 9.3,13.3 58.8,10.5 115.6,20.6 170.3,30.3 6.2,1.2 12.2,-3 13.3,-9.3 1.1,-6.2 -3,-12.2 -9.3,-13.3 -54.7,-9.8 -111.5,-19.9 -170.3,-30.3 z M 3525.91,5526 c -3.63,0 -7.21,1.8 -9.45,5 -3.63,5.2 -2.36,12.3 2.86,16 43.46,30.3 94.23,59.7 150.89,87.3 5.7,2.8 12.6,0.5 15.39,-5.3 2.78,-5.7 0.41,-12.6 -5.3,-15.3 -55.59,-27.2 -105.32,-55.9 -147.82,-85.6 -2,-1.4 -4.3,-2.1 -6.57,-2.1 z m 6911.69,-13.9 c -5.5,0 -10.3,4 -11.3,9.6 -1.1,6.2 3.1,12.2 9.4,13.3 58.1,10.1 114.9,20 170.3,29.7 6.3,1 12.2,-3.1 13.3,-9.4 1.1,-6.2 -3.1,-12.2 -9.3,-13.3 -55.4,-9.7 -112.2,-19.6 -170.4,-29.7 z m -340.7,-58.4 c -5.5,0 -10.4,3.9 -11.3,9.6 -1.1,6.2 3.1,12.1 9.4,13.2 57.8,9.8 114.6,19.5 170.4,29.1 6.2,1.1 12.2,-3.1 13.2,-9.4 1.1,-6.3 -3.1,-12.2 -9.4,-13.3 -55.7,-9.6 -112.6,-19.3 -170.4,-29.1 z m -340.91,-57.3 c -5.53,0 -10.41,4 -11.34,9.6 -1.05,6.3 3.2,12.2 9.46,13.3 57.58,9.5 114.42,19 170.46,28.4 6.35,1.1 12.2,-3.1 13.25,-9.4 1.05,-6.3 -3.18,-12.2 -9.44,-13.3 -56.06,-9.4 -112.91,-18.9 -170.49,-28.4 z m -341.09,-55.9 c -5.53,0 -10.42,4 -11.34,9.6 -1.02,6.3 3.25,12.2 9.52,13.2 57.42,9.3 114.29,18.6 170.54,27.8 6.26,1.1 12.19,-3.2 13.22,-9.4 1.02,-6.3 -3.23,-12.2 -9.5,-13.3 -56.27,-9.2 -113.14,-18.5 -170.58,-27.8 z m -341.25,-54.7 c -5.57,0 -10.46,4 -11.36,9.7 -0.98,6.3 3.3,12.2 9.58,13.2 57.3,9 114.19,18.1 170.62,27.1 6.23,1 12.17,-3.2 13.18,-9.5 1,-6.3 -3.26,-12.2 -9.54,-13.2 -56.43,-9 -113.35,-18.1 -170.67,-27.2 z m -5749.96,-27 -2.28,0.2 c -6.23,1.3 -10.26,7.3 -9.01,13.5 11.06,54.9 37,107.8 77.11,157.2 4.02,4.9 11.25,5.7 16.19,1.7 4.93,-4 5.68,-11.3 1.68,-16.2 -37.74,-46.5 -62.11,-96 -72.42,-147.2 -1.1,-5.5 -5.9,-9.2 -11.27,-9.2 z m 5408.49,-26.2 c -5.57,0 -10.48,4 -11.35,9.7 -0.97,6.3 3.34,12.2 9.62,13.1 57.23,8.8 114.16,17.7 170.73,26.5 6.27,0.9 12.16,-3.3 13.15,-9.6 0.98,-6.3 -3.32,-12.2 -9.6,-13.2 -56.59,-8.8 -113.53,-17.6 -170.78,-26.4 z m -341.66,-51.8 c -5.61,0 -10.52,4.1 -11.37,9.8 -0.94,6.3 3.4,12.2 9.68,13.1 57.17,8.5 114.12,17.1 170.83,25.7 6.34,0.9 12.15,-3.4 13.1,-9.7 0.96,-6.3 -3.37,-12.1 -9.64,-13.1 -56.74,-8.6 -113.72,-17.1 -170.9,-25.6 z m -341.92,-50 c -5.62,0 -10.55,4.1 -11.37,9.8 -0.91,6.3 3.46,12.1 9.75,13.1 57.11,8.2 114.11,16.4 170.95,24.8 6.28,1 12.13,-3.4 13.05,-9.8 0.92,-6.2 -3.43,-12.1 -9.72,-13 -56.86,-8.3 -113.88,-16.6 -171,-24.8 z m -342.16,-48.4 c -5.65,0 -10.59,4.2 -11.39,10 -0.87,6.3 3.53,12.1 9.82,12.9 57.08,7.9 114.12,15.9 171.09,23.9 6.2,1 12.12,-3.4 13,-9.7 0.89,-6.3 -3.49,-12.2 -9.79,-13 -56.99,-8.1 -114.05,-16.1 -171.14,-24 z M 7363.53,5036 c -5.68,0 -10.63,4.3 -11.39,10 -0.83,6.4 3.59,12.1 9.9,13 57.06,7.5 114.17,15.1 171.29,22.9 6.39,0.8 12.09,-3.6 12.94,-9.9 0.85,-6.3 -3.56,-12.1 -9.85,-12.9 -57.15,-7.8 -114.29,-15.4 -171.37,-22.9 z m -341.91,-43.9 c -5.71,0 -10.67,4.2 -11.4,10 -0.79,6.3 3.68,12.1 9.99,12.9 56.8,7.1 113.75,14.3 170.79,21.7 6.27,0.7 12.07,-3.7 12.88,-10 0.81,-6.3 -3.64,-12.1 -9.94,-12.9 -57.07,-7.3 -114.04,-14.6 -170.87,-21.7 z m -343.05,-41.7 c -5.75,0 -10.72,4.4 -11.41,10.2 -0.74,6.3 3.78,12 10.09,12.8 56.96,6.7 114.15,13.5 171.51,20.4 6.3,0.8 12.05,-3.7 12.81,-10 0.77,-6.3 -3.73,-12.1 -10.04,-12.8 -57.39,-7 -114.61,-13.8 -171.6,-20.5 z m -3250.67,-2.6 c -2.35,0 -4.72,0.7 -6.77,2.2 -33.33,24.3 -57.39,51.7 -71.52,81.6 -10.32,21.9 -18.93,43.8 -25.58,65.1 -1.89,6.1 1.5,12.5 7.57,14.4 6.03,1.9 12.52,-1.5 14.4,-7.6 6.33,-20.3 14.55,-41.2 24.42,-62 12.46,-26.4 34.08,-50.9 64.27,-72.9 5.13,-3.8 6.26,-11 2.52,-16.1 -2.25,-3.1 -5.75,-4.7 -9.31,-4.7 z m 2907.27,-36.1 c -5.79,0 -10.79,4.4 -11.42,10.3 -0.68,6.3 3.89,12 10.21,12.7 56.91,6.1 114.16,12.5 171.68,19 6.32,0.6 12.02,-3.9 12.73,-10.2 0.71,-6.3 -3.83,-12 -10.15,-12.7 -57.57,-6.5 -114.84,-12.8 -171.79,-19 z m -343.77,-35.2 c -5.85,0 -10.86,4.4 -11.43,10.3 -0.62,6.4 4,12 10.33,12.6 56.86,5.5 114.17,11.3 171.88,17.2 6.28,0.5 11.97,-3.9 12.62,-10.3 0.65,-6.3 -3.95,-11.9 -10.27,-12.6 -57.74,-5.9 -115.1,-11.7 -172.01,-17.2 z m -344.19,-31.3 c -5.93,0 -10.96,4.6 -11.46,10.6 -0.54,6.3 4.17,11.9 10.5,12.4 56.79,4.8 114.17,9.8 172.07,15.1 6.39,0.5 11.93,-4.1 12.51,-10.5 0.57,-6.3 -4.09,-11.9 -10.42,-12.5 -57.96,-5.2 -115.39,-10.3 -172.23,-15 z m -1896.06,-10.6 -2.04,0.2 c -63.5,11.4 -120.43,25 -169.2,40.5 -6.05,1.9 -9.4,8.4 -7.48,14.4 1.92,6.1 8.4,9.5 14.45,7.5 47.82,-15.2 103.77,-28.6 166.29,-39.8 6.26,-1.1 10.42,-7.1 9.3,-13.3 -1.01,-5.6 -5.85,-9.5 -11.32,-9.5 z M 5302.57,4819 c -6,0 -11.06,4.6 -11.47,10.7 -0.43,6.4 4.36,11.8 10.71,12.3 56.67,3.8 114.11,8 172.28,12.4 6.33,0.5 11.86,-4.3 12.35,-10.6 0.48,-6.3 -4.27,-11.9 -10.6,-12.4 -58.23,-4.4 -115.74,-8.5 -172.48,-12.4 z m -345.1,-19.8 c -6.11,0 -11.21,4.8 -11.49,10.9 -0.29,6.4 4.61,11.8 10.96,12.1 55.38,2.5 113.42,5.6 172.47,9 6.34,0.1 11.79,-4.5 12.16,-10.9 0.36,-6.3 -4.49,-11.8 -10.83,-12.1 -59.14,-3.4 -117.26,-6.5 -172.73,-9 z m -863.39,-2.6 h -0.71 c -60.86,3.7 -118.91,8.4 -172.54,14.1 -6.32,0.7 -10.89,6.4 -10.22,12.7 0.67,6.3 6.36,10.9 12.66,10.2 53.28,-5.7 110.98,-10.4 171.49,-14 6.34,-0.4 11.17,-5.9 10.79,-12.2 -0.36,-6.1 -5.43,-10.8 -11.47,-10.8 z m 517.85,-8.7 c -6.27,0 -11.39,5 -11.5,11.3 -0.11,6.4 4.96,11.6 11.31,11.7 55.27,1 113.35,2.4 172.63,4.4 6.62,0.5 11.67,-4.8 11.88,-11.1 0.21,-6.4 -4.77,-11.7 -11.13,-11.9 -59.39,-2 -117.6,-3.4 -172.99,-4.4 z m -172.83,-1.3 h -0.03 c -59.93,0.2 -118.09,1 -172.87,2.5 -6.36,0.2 -11.36,5.5 -11.19,11.9 0.17,6.3 5.28,11.3 11.82,11.1 54.59,-1.5 112.56,-2.3 172.3,-2.5 6.35,0 11.5,-5.1 11.48,-11.5 -0.02,-6.3 -5.17,-11.5 -11.51,-11.5" /><path
         id="path182"
         style="fill:#afcdfb;fill-opacity:1;fill-rule:nonzero;stroke:none"
         d="m 12185.3,5152.9 1417.5,803.3 -1293.1,-76.4 99.8,-218.4 -267.1,-295.9 42.9,-212.6" /><path
         id="path184"
         style="fill:#ffffff;fill-opacity:1;fill-rule:nonzero;stroke:none"
         d="M 13602.8,5956.2 12117.4,5684 11035.5,4932.6 Z" /><path
         id="path186"
         style="fill:#ffffff;fill-opacity:1;fill-rule:nonzero;stroke:none"
         d="m 12309.7,5879.8 1293.1,76.4 -1352.6,396.4 z" /><g
         transform="scale(1.31667)"
         id="g188"><path
           id="path190"
           style="fill:#afcdfb;fill-opacity:1;fill-rule:nonzero;stroke:none"
           d="m 15077.8,11929.6 1222.2,-193.4 -804.3,566.4 -44,-177 -298.8,-49.4 -75.1,-146.6" /></g><g
         transform="scale(1.31667)"
         id="g192"><path
           id="path194"
           style="fill:#ffffff;fill-opacity:1;fill-rule:nonzero;stroke:none"
           d="m 16300,11736.2 -1011.2,541.1 -998.3,65.5 2009.5,-606.6" /></g><g
         transform="scale(1.31667)"
         id="g196"><path
           id="path198"
           style="fill:#ffffff;fill-opacity:1;fill-rule:nonzero;stroke:none"
           d="m 15495.7,12302.6 804.3,-566.4 -615.9,875.4 -188.4,-309" /></g><g
         transform="scale(1.64654)"
         id="g200"><path
           id="path202"
           style="fill:#233862;fill-opacity:1;fill-rule:nonzero;stroke:none"
           d="m 15016.6,5579.82 c 0,0 -199.3,-13.84 -346.4,-372.72 -148.4,-361.97 183.5,-358.39 71.7,-588.99 -111.8,-230.61 160.9,-368.17 243.8,-556.99 82.7,-188.76 500,-644.26 533.1,-851.97 33,-207.7 404,215.97 404,215.97 0,0 377.2,402.3 242,636 -222.9,385.24 -29.8,468.93 -36.8,684.1 -7,215.12 -415.4,1062.84 -1111.4,834.6" /></g><g
         transform="scale(1.52921)"
         id="g204"><path
           id="path206"
           style="fill:#ffad76;fill-opacity:1;fill-rule:nonzero;stroke:none"
           d="m 16052.2,4621.65 c 0,0 -830.7,-362.08 -988.5,-355.15 -157.8,6.87 -1130.1,296.17 -1130.1,296.17 l 24.8,-167.28 c 0,0 750.4,-431.59 1012.7,-456.05 258.3,-24.13 1141.4,231.82 1226.7,285.83 85.3,54.02 102.2,341.82 -145.6,396.48" /></g><g
         transform="scale(1.59164)"
         id="g208"><path
           id="path210"
           style="fill:#ffb27d;fill-opacity:1;fill-rule:nonzero;stroke:none"
           d="m 15358.3,4059.03 c 73.3,-50.9 165.3,-92.87 280.7,-119.5 432.9,-100.03 598.7,265.76 661,516.88 -59,33.81 -114.5,41.22 -146.6,45.05 -31.3,3.71 -64.2,6.16 -91.5,7.48 -48.5,37.26 -121,189.61 -137,426.17 l -20.3,-5.47 -341.1,-93.36 c 0,0 15.6,-108.45 23.3,-210.92 5.9,-80.23 16.3,-126.79 1.1,-145.51 -26.6,-5.78 -52.1,-39.65 -52.1,-39.65 l -0.2,-0.31 c -4.6,-7.54 -103.5,-170.26 -177.3,-380.86" /></g><g
         transform="scale(1.55302)"
         id="g212"><path
           id="path214"
           style="fill:#ed985f;fill-opacity:1;fill-rule:nonzero;stroke:none"
           d="m 15950.4,4956.46 c 0,0 16.1,-111.08 23.9,-216.16 198,19.83 290,208.37 325.7,311.84 l -349.6,-95.68" /></g><g
         transform="scale(1.55939)"
         id="g216"><path
           id="path218"
           style="fill:#ffb27d;fill-opacity:1;fill-rule:nonzero;stroke:none"
           d="m 15826.4,4832.33 c 0,0 468.1,25.84 447.6,317.11 -20.6,291.33 26,490.83 -273.8,486.67 -299.8,-4.17 -349.9,-119.41 -366.7,-218.36 -16.8,-98.88 70.6,-584.65 192.9,-585.42" /></g><g
         transform="scale(1.62963)"
         id="g220"><path
           id="path222"
           style="fill:#739af0;fill-opacity:1;fill-rule:nonzero;stroke:none"
           d="m 16047.7,3053.52 c 40.4,206.8 172.3,1033.12 40.4,1299.01 -47.4,95.55 -233.2,104.14 -437.2,95.79 -63.5,-40.99 -305.4,-195.81 -404.6,-176.48 -1.1,0.18 -3,0.61 -5.6,1.29 -46.8,11.72 -55.2,73.94 -16.2,102.29 0.1,0.06 -110.2,-19.63 -235.7,-43.26 -70.8,-13.38 -262,-112.24 -262,-112.24 0,0 96.2,-173.9 238.2,-233.91 -24.1,-215.88 11.8,-311.12 235.7,-809.7 189.2,-421.45 -25.6,-800.92 -25.6,-800.92 0,0 1114,-895.6 1120.2,-439.61 4.7,343.33 -299.4,853.39 -247.6,1117.74" /></g><g
         transform="scale(1.60637)"
         id="g224"><path
           id="path226"
           style="fill:#233862;fill-opacity:1;fill-rule:nonzero;stroke:none"
           d="m 15338.8,1421.78 c -61.4,6.97 -116.8,40.59 -151.1,92.01 -5.4,8.22 -11.3,16.93 -17.5,26.33 -128.6,194.73 -178.7,791.1 -468,1426.45 -70.5,154.7 -323.5,182.52 -392.5,357.39 0,0 -169.8,566.74 325,583.43 494.8,16.74 1325.1,-1576.91 1338.2,-1744.06 12.7,-161.92 327.1,-850 -634.1,-741.55" /></g><g
         transform="scale(1.38984)"
         id="g228"><path
           id="path230"
           style="fill:#172b4c;fill-opacity:1;fill-rule:nonzero;stroke:none"
           d="m 15455.7,1658.39 h 813.9 c 0,0 30.4,129.8 -23.1,218.16 -47.2,78.14 -29.1,122.67 5.9,187.36 -36.8,-15.11 -84.5,-28.85 -137,-25.83 -40.6,2.3 -83.5,20.72 -121.1,42.59 -35.1,-40 -185,-209.95 -231.9,-243.63 -53.2,-38.27 -290.3,-24.6 -306.7,-178.65" /></g><g
         transform="scale(1.60612)"
         id="g232"><path
           id="path234"
           style="fill:#5486d6;fill-opacity:1;fill-rule:nonzero;stroke:none"
           d="m 16208.3,4196.52 c 0,0 91.7,-834.06 -502.8,-1008.77 -594.5,-174.77 -763.3,767.32 -283.3,835.12 480,67.74 786.1,173.65 786.1,173.65" /></g><g
         transform="scale(1.46918)"
         id="g236"><path
           id="path238"
           style="fill:#233862;fill-opacity:1;fill-rule:nonzero;stroke:none"
           d="m 15628.3,4093.17 c -46.3,-347.6 -227.4,-1444.68 -546.7,-1979.95 -103,-172.54 259.4,-269.26 261.3,-268.79 48.6,12.73 129.6,90.19 166.9,123.88 259.4,233.67 785.7,895.33 785.7,1425.83 0,258.72 4.5,752.74 -183.6,878.25 -115.8,77.32 -465.1,-41.18 -483.6,-179.22" /></g><g
         transform="scale(1.65934)"
         id="g240"><path
           id="path242"
           style="fill:#2b478b;fill-opacity:1;fill-rule:nonzero;stroke:none"
           d="m 15255.7,1389.04 c 0,0 -25.3,35.14 -69.4,101.91 -52.4,79.43 -110.4,235.7 -180.8,436.02 -73.9,210.26 -161.7,468.98 -271.3,738.18 -33.8,83.11 -69.7,167.18 -107.9,251.18 -68.3,149.7 -256,129.03 -322.8,298.31 0,0 -260.5,586.8 218.4,603.01 479,16.21 1389.1,-1569.77 1441.5,-1723.39 57.2,-168.14 336.6,-866.36 -707.7,-705.22" /></g><g
         transform="scale(1.44079)"
         id="g244"><path
           id="path246"
           style="fill:#233862;fill-opacity:1;fill-rule:nonzero;stroke:none"
           d="m 15485.5,1599.75 h 785.1 c 0,0 29.4,125.21 -22.2,210.44 -45.6,75.38 -28.1,118.34 5.7,180.74 -35.6,-14.58 -81.5,-27.83 -132.2,-24.92 -39.1,2.22 -80.5,19.99 -116.8,41.09 -33.8,-38.59 -178.5,-202.53 -223.7,-235.01 -51.3,-36.93 -280.1,-23.74 -295.9,-172.34" /></g><g
         transform="scale(1.54537)"
         id="g248"><path
           id="path250"
           style="fill:#23407a;fill-opacity:1;fill-rule:nonzero;stroke:none"
           d="m 16112.2,2069.09 c -79.4,225.77 -173.6,503.57 -291.3,792.62 30.7,218.98 97.1,410.58 208.5,487.78 0,0 270.6,-837.99 82.8,-1280.4" /></g><g
         transform="scale(1.51972)"
         id="g252"><path
           id="path254"
           style="fill:#2b478b;fill-opacity:1;fill-rule:nonzero;stroke:none"
           d="m 15543.2,3980.8 c -44.9,-335.98 -108,-1420.39 -416.8,-1937.86 -99.5,-166.8 250.8,-260.31 252.7,-259.85 47,12.31 125.3,87.19 161.4,119.76 250.6,225.9 759.5,865.56 759.5,1378.42 0,250.11 -293.5,707.63 -475.4,828.97 -111.9,74.75 -263.7,4.08 -281.4,-129.44" /></g><g
         transform="scale(1.39402)"
         id="g256"><path
           id="path258"
           style="fill:#ebf3fa;fill-opacity:1;fill-rule:nonzero;stroke:none"
           d="m 15939.8,5300.48 c 0,0 -41.5,105.59 -117.1,98.78 -75.7,-6.89 -762.9,-98.78 -762.9,-98.78 0,0 80,-19.15 110.2,-71.59 l 317,-934.06 h 813 l -360.2,1005.65" /></g><g
         transform="scale(1.61489)"
         id="g260"><path
           id="path262"
           style="fill:#ffbf94;fill-opacity:1;fill-rule:nonzero;stroke:none"
           d="m 16065.3,4392.25 c 0,0 -994.2,-366.15 -1143.6,-358.66 -96.5,4.89 -899.1,287.02 -899.1,287.02 l -72.1,-136.3 c 0,0 781.2,-502.14 995.9,-499.6 424.1,4.89 1139.5,265.16 1220.2,316.31 80.7,51.15 133.4,339.46 -101.3,391.23" /></g><g
         transform="scale(1.38926)"
         id="g264"><path
           id="path266"
           style="fill:#ffbf94;fill-opacity:1;fill-rule:nonzero;stroke:none"
           d="m 16300,5022.32 c 0,0 -83.8,128.85 -167.1,132.66 -83.5,3.82 -227.5,-56.86 -276.8,-66.36 -49.2,-9.43 -189.5,-54.92 -147.8,-123.16 41.7,-68.24 235,-83.43 318.4,-68.24 83.4,15.19 189.5,-33.33 189.5,-33.33 l 83.8,158.43" /></g><g
         transform="scale(1.37694)"
         id="g268"><path
           id="path270"
           style="fill:#ffbf94;fill-opacity:1;fill-rule:nonzero;stroke:none"
           d="m 16300,5197.09 c 0,0 -133.8,61.36 -172,72.84 -38.3,11.47 -30.6,-0.22 -19.1,-36.46 11.4,-36.24 80.3,-70.81 80.3,-82.21 0,-11.4 110.8,45.83 110.8,45.83" /></g><g
         transform="scale(1.52185)"
         id="g272"><path
           id="path274"
           style="fill:#ffffff;fill-opacity:1;fill-rule:nonzero;stroke:none"
           d="m 16127.1,5123.18 c 0,0 45.3,17.94 172.9,7.63 0,0 -6.8,-49.81 -100.9,-54.74 -53.3,-2.76 -72,47.11 -72,47.11" /></g><g
         transform="scale(1.62992)"
         id="g276"><path
           id="path278"
           style="fill:#739af0;fill-opacity:1;fill-rule:nonzero;stroke:none"
           d="m 15409.6,4172.84 c 0,0 88.2,-278.91 390.7,-342.35 0,0 499.7,153.94 250.9,494.32 0,0 -245.9,182.77 -641.6,-151.97" /></g><g
         transform="scale(1.35269)"
         id="g280"><path
           id="path282"
           style="fill:#ffffff;fill-opacity:1;fill-rule:nonzero;stroke:none"
           d="m 15520.1,5462.46 c 0,0 -78.7,-30.09 -19.2,-132.18 l 765.6,102.09 c 0,0 -26.6,118.36 33.5,131.22 l -779.9,-101.13" /></g><g
         transform="scale(1.31223)"
         id="g284"><path
           id="path286"
           style="fill:#ffad76;fill-opacity:1;fill-rule:nonzero;stroke:none"
           d="m 16281.3,5371.84 c 18.7,75.06 17.6,93.2 -24.8,138.99 -28.1,30.26 -71,-44.8 -93.1,-90.07 -8.2,19.97 -22.1,52.5 -26.8,54.11 -6.8,2.36 9.5,-100.82 9.5,-100.82 v 0.07 c -0.4,-4.27 -0.6,-8.61 -0.5,-12.95 l -0.1,0.07 c 0,0 -34.2,-151.65 115,-233.57 l -28.5,83.6 c 17.3,2.82 30.3,84.43 49.3,160.57" /></g><g
         transform="scale(1.56979)"
         id="g288"><path
           id="path290"
           style="fill:#233862;fill-opacity:1;fill-rule:nonzero;stroke:none"
           d="m 15703.9,5534.81 c 0,0 98,34.4 145.5,-65.8 47.5,-100.14 62.6,-339.6 252.9,-359.16 190.4,-19.56 197.7,405.6 197.7,405.6 l -476.4,188.11 -251.6,-158.81 131.9,-9.94" /></g><g
         transform="scale(1.51238)"
         id="g292"><path
           id="path294"
           style="fill:#233862;fill-opacity:1;fill-rule:nonzero;stroke:none"
           d="m 16300,5744.92 c 0,0 -111.4,-2.38 -136.9,-96.21 -25.4,-93.82 14.3,-268.78 -47.4,-281.48 -61.7,-12.69 -117.7,291.66 1.6,390.52 119.3,98.91 182.7,-12.83 182.7,-12.83" /></g><path
         id="path296"
         style="fill:#ffb27d;fill-opacity:1;fill-rule:nonzero;stroke:none"
         d="m 11424.2,11152.4 c 0,0 168.7,63.9 187.9,108 19.2,44.1 74.8,63.3 141.9,94 67.1,30.7 107.4,86.3 117,78.6 9.6,-7.6 11.5,-46 -15.4,-74.8 -26.8,-28.7 -140.5,-230.1 -183.4,-253.1 -42.9,-23 -248,47.3 -248,47.3" /><g
         transform="scale(1.78453)"
         id="g298"><path
           id="path300"
           style="fill:#82b378;fill-opacity:1;fill-rule:nonzero;stroke:none"
           d="m 16210.1,1296.14 h -607.7 c -32.5,27.63 22.6,90.39 80.2,94.59 25,1.91 56.6,-3.36 92.7,-10.98 8.4,111.07 56.1,610.3 236.1,590.24 202.3,-22.47 0,-219.89 -57.2,-336.73 -42.4,-86.58 -87.1,-210.7 -107.5,-269.26 16.4,-3.58 33.4,-7.06 50.8,-10.25 26.8,82.32 126.6,359.31 253.5,343.17 149,-18.88 89.1,-129.95 -16.5,-195.85 -77.5,-48.47 -172.6,-117.4 -217.8,-150.68 38.3,-6.23 78.2,-10.48 118.8,-9.53 104.1,2.46 154.9,-28.19 174.6,-44.72" /></g><path
         id="path302"
         style="fill:#82b378;fill-opacity:1;fill-rule:nonzero;stroke:none"
         d="m 4627.52,2291 c 0,0 -412.14,1131.9 -701.51,1035.4 C 3636.63,3229.9 4627.52,2291 4627.52,2291" /><path
         id="path304"
         style="fill:#82b378;fill-opacity:1;fill-rule:nonzero;stroke:none"
         d="m 4469.68,2291 c -35.08,0 -692.75,682.5 -736.59,503.8 -43.85,-178.7 736.59,-503.8 736.59,-503.8" /><path
         id="path306"
         style="fill:#82b378;fill-opacity:1;fill-rule:nonzero;stroke:none"
         d="m 5171.19,2291 c 0,0 -271.99,249.4 -616.36,184.5 -344.37,-65 -491.45,-136.1 -707.75,-86.9 -216.3,49.2 -326.8,-97.6 -326.8,-97.6 h 1650.91" /><g
         transform="scale(1.87428)"
         id="g308"><path
           id="path310"
           style="fill:#2e3552;fill-opacity:1;fill-rule:nonzero;stroke:none"
           d="M 16282.5,1188.09 H 883.439 c -9.618,0 -17.484,7.84 -17.484,17.44 v 5.98 c 0,9.6 7.866,17.5 17.484,17.5 H 16282.5 c 9.6,0 17.5,-7.9 17.5,-17.5 v -5.98 c 0,-9.6 -7.9,-17.44 -17.5,-17.44" /></g><path
         id="path312"
         style="fill:#fcecdb;fill-opacity:1;fill-rule:nonzero;stroke:none"
         d="m 13563,2742.9 h -2142.3 c -119.7,0 -216.7,97 -216.7,216.7 v 584.2 c 0,119.6 97,216.6 216.7,216.6 H 13563 c 119.7,0 216.6,-97 216.6,-216.6 v -584.2 c 0,-119.7 -96.9,-216.7 -216.6,-216.7" /><path
         id="path314"
         style="fill:#efcbab;fill-opacity:1;fill-rule:nonzero;stroke:none"
         d="m 13127.2,3507.5 h -1613.7 c -18.1,0 -32.8,14.7 -32.8,32.7 0,18 14.7,32.8 32.8,32.8 h 1613.7 c 18,0 32.8,-14.8 32.8,-32.8 0,-18 -14.8,-32.7 -32.8,-32.7" /><path
         id="path316"
         style="fill:#efcbab;fill-opacity:1;fill-rule:nonzero;stroke:none"
         d="m 11799.7,3366.1 h -286.2 c -18.1,0 -32.8,14.8 -32.8,32.8 0,18 14.7,32.8 32.8,32.8 h 286.2 c 18,0 32.7,-14.8 32.7,-32.8 0,-18 -14.7,-32.8 -32.7,-32.8" /><path
         id="path318"
         style="fill:#efcbab;fill-opacity:1;fill-rule:nonzero;stroke:none"
         d="m 12701.3,3366.1 h -788.5 c -18,0 -32.8,14.8 -32.8,32.8 0,18 14.8,32.8 32.8,32.8 h 788.5 c 18,0 32.7,-14.8 32.7,-32.8 0,-18 -14.7,-32.8 -32.7,-32.8" /><path
         id="path320"
         style="fill:#efcbab;fill-opacity:1;fill-rule:nonzero;stroke:none"
         d="m 13127.2,3104.4 h -1613.7 c -18.1,0 -32.8,14.8 -32.8,32.8 0,18 14.7,32.8 32.8,32.8 h 1613.7 c 18,0 32.8,-14.8 32.8,-32.8 0,-18 -14.8,-32.8 -32.8,-32.8" /><path
         id="path322"
         style="fill:#efcbab;fill-opacity:1;fill-rule:nonzero;stroke:none"
         d="m 12099.2,2963.1 h -585.7 c -18.1,0 -32.8,14.8 -32.8,32.8 0,18 14.7,32.8 32.8,32.8 h 585.7 c 18,0 32.7,-14.8 32.7,-32.8 0,-18 -14.7,-32.8 -32.7,-32.8" /><path
         id="path324"
         style="fill:#efcbab;fill-opacity:1;fill-rule:nonzero;stroke:none"
         d="m 12811.8,2963.1 h -585.7 c -18,0 -32.7,14.8 -32.7,32.8 0,18 14.7,32.8 32.7,32.8 h 585.7 c 18.1,0 32.8,-14.8 32.8,-32.8 0,-18 -14.7,-32.8 -32.8,-32.8" /></g></g></svg>