<svg xmlns="http://www.w3.org/2000/svg" width="67.186" height="67.204" viewBox="0 0 67.186 67.204">
  <path id="news" d="M30.25,54.063a2.624,2.624,0,0,1,2.624-2.624h5.38a2.624,2.624,0,0,1,0,5.249h-5.38A2.624,2.624,0,0,1,30.25,54.063Zm23.882-23.1h-5.38a2.624,2.624,0,0,0,0,5.249h5.38A2.624,2.624,0,0,0,54.132,30.968Zm0,10.235h-5.38a2.624,2.624,0,0,0,0,5.249h5.38A2.624,2.624,0,0,0,54.132,41.2ZM67.255,2.624v52.1A12.48,12.48,0,0,1,54.788,67.186s-42.64.041-42.824,0c-6.919,0-11.9-5.909-11.9-12.639V33.593a2.624,2.624,0,0,1,2.624-2.624H19.752V2.624A2.624,2.624,0,0,1,22.377,0H64.63a2.624,2.624,0,0,1,2.624,2.624Zm-47.5,33.593H5.318v18.33a7.275,7.275,0,0,0,7.217,7.259,7.156,7.156,0,0,0,7.217-7.135ZM62.006,5.249H25V54.67a12.37,12.37,0,0,1-2.333,7.266h32.12a7.225,7.225,0,0,0,7.217-7.217Zm-7.873,46.19h-5.38a2.624,2.624,0,0,0,0,5.249h5.38A2.624,2.624,0,0,0,54.132,51.439ZM32.874,46.452h5.38a2.624,2.624,0,0,0,0-5.249h-5.38A2.624,2.624,0,0,0,32.874,46.452Zm0-30.706H54.132a2.624,2.624,0,0,0,0-5.249H32.874A2.624,2.624,0,0,0,32.874,15.747Zm0,20.471h5.38a2.624,2.624,0,0,0,0-5.249h-5.38A2.624,2.624,0,0,0,32.874,36.217Zm0-10.5H54.264a2.624,2.624,0,0,0,0-5.249H32.874A2.624,2.624,0,0,0,32.874,25.719Z" transform="translate(-0.069)" fill="#8758fa"/>
</svg>
