<?xml version="1.0" encoding="UTF-8" standalone="no"?>
<svg
   xmlns:dc="http://purl.org/dc/elements/1.1/"
   xmlns:cc="http://creativecommons.org/ns#"
   xmlns:rdf="http://www.w3.org/1999/02/22-rdf-syntax-ns#"
   xmlns:svg="http://www.w3.org/2000/svg"
   xmlns="http://www.w3.org/2000/svg"
   xmlns:sodipodi="http://sodipodi.sourceforge.net/DTD/sodipodi-0.dtd"
   xmlns:inkscape="http://www.inkscape.org/namespaces/inkscape"
   version="1.1"
   id="svg2"
   xml:space="preserve"
   width="4000"
   height="2666.6667"
   viewBox="0 0 4000 2666.6667"
   sodipodi:docname="11229.eps"><metadata
     id="metadata8"><rdf:RDF><cc:Work
         rdf:about=""><dc:format>image/svg+xml</dc:format><dc:type
           rdf:resource="http://purl.org/dc/dcmitype/StillImage" /></cc:Work></rdf:RDF></metadata><defs
     id="defs6"><clipPath
       clipPathUnits="userSpaceOnUse"
       id="clipPath88"><path
         d="m 6867.54,2016.4 h 16265 v 16062.9 h -16265 z"
         id="path86" /></clipPath><clipPath
       clipPathUnits="userSpaceOnUse"
       id="clipPath188"><path
         d="m 10131.5,6259.2 v 0 l 3150.4,889.5 v 0 l -3150.4,-889.5"
         id="path186" /></clipPath><clipPath
       clipPathUnits="userSpaceOnUse"
       id="clipPath198"><path
         d="m 6867.54,2016.4 h 16265 v 16062.9 h -16265 z"
         id="path196" /></clipPath></defs><sodipodi:namedview
     pagecolor="transparent"
     bordercolor="#666666"
     borderopacity="1"
     objecttolerance="10"
     gridtolerance="10"
     guidetolerance="10"
     inkscape:pageopacity="0"
     inkscape:pageshadow="2"
     inkscape:window-width="640"
     inkscape:window-height="480"
     id="namedview4" /><g
     id="g10"
     inkscape:groupmode="layer"
     inkscape:label="ink_ext_XXXXXX"
     transform="matrix(1.3333333,0,0,-1.3333333,0,2666.6667)"><g
       id="g12"
       transform="scale(0.1)"><path
         d="M 0,0 H 30000 V 20000 H 0 Z"
         style="fill:transparent;fill-opacity:1;fill-rule:nonzero;stroke:none"
         id="path14" /><path
         d="m 5830.22,1999.9 c 0,0 -2402.56,2752.5 -1399.32,5987.9 900.42,2903.8 4971.61,4783.2 7134.9,3345 1046.5,-695.7 1892,2100.6 5365.2,3124.3 2568.4,757 6366.3,-940.7 5401.7,-6139.8 -733.4,-3952.8 2904.4,-1982 2110,-6348.8 l -18612.48,31.4"
         style="fill:#ebf3fa;fill-opacity:1;fill-rule:nonzero;stroke:none"
         id="path16" /><path
         d="m 23532.5,2011.3 -2484.8,-39 c -89.2,75.7 401.2,311.3 1039.4,298.1 68.7,-1.4 155.1,-9.2 254.1,-30.1 22.9,304.3 153.7,1672.3 646.8,1617.4 554.5,-61.6 0,-602.5 -156.7,-922.7 -116.1,-237.2 -238.6,-577.4 -294.5,-737.9 44.9,-9.8 91.6,-19.3 139.2,-28.1 73.5,225.7 346.9,984.7 694.6,940.4 408.3,-51.7 244.2,-356 -45.2,-536.7 -212.3,-132.8 -473,-321.6 -596.8,-412.8 104.9,-17.2 214.4,-28.7 325.6,-26.1 285.2,6.8 424.4,-77.3 478.3,-122.5"
         style="fill:#a8d29f;fill-opacity:1;fill-rule:nonzero;stroke:none"
         id="path18" /><path
         d="m 5641.04,2069.4 c -59.08,92.8 -236.87,333.7 -473.7,301.8 -258,-34.7 284.97,-204.8 451.22,-302.5 -36.92,-0.5 -68.67,2.5 -91.97,10.8 -111.14,39.6 -301.47,-36.4 -362.32,-63.1 h 1058.02 c -7.32,25.4 -26.37,66.7 -75.65,96.8 -17.36,10.6 -52.29,12.1 -97.37,8.7 62.91,74.1 106.6,311 -68.54,250.1 -127.94,-44.6 -127.6,-189.3 -115.04,-274.9 -27.2,-4.3 -54.82,-8.6 -82.08,-12.5 -52.67,268.4 -238.99,1055.2 -616.63,1076.2 -382.84,21.3 324.64,-816 560.21,-1083.8 -30.19,-3.6 -59.25,-6.3 -86.15,-7.6"
         style="fill:#a8d29f;fill-opacity:1;fill-rule:nonzero;stroke:none"
         id="path20" /><path
         d="m 10761.8,2295.4 v -202.1 c 0,-16.1 -4.9,-31.1 -13.4,-43.5 -8.8,-13.1 -21.6,-23.4 -36.5,-29.2 -3.6,-1.4 -7.3,-2.5 -11.1,-3.3 h -0.1 c -1.1,-0.3 -2.1,-0.5 -3.1,-0.7 -4.5,-0.8 -9,-1.2 -13.7,-1.2 l -3220.17,0.5 c -3.4,0 -6.81,0.2 -10.08,0.7 -1.29,0.1 -2.58,0.3 -3.83,0.6 -35.02,6.3 -62.07,36.3 -63.91,72.6 -0.04,1.3 -0.08,2.7 -0.08,4 l 0.03,202.1 c 0,1.4 0.04,2.7 0.09,4.1 2.11,41 36.32,73.9 77.84,73.9 l 3220.11,-0.5 c 2.1,0 4.2,-0.1 6.2,-0.3 l 2.6,-0.2 c 1,-0.1 1.9,-0.3 2.9,-0.4 l 2.1,-0.4 c 4.9,-0.8 9.7,-2.2 14.2,-4 l 2,-0.8 2,-0.9 c 1.4,-0.6 2.6,-1.2 3.9,-1.9 1.5,-0.7 2.9,-1.5 4.3,-2.4 1.2,-0.7 2.4,-1.5 3.6,-2.3 1.4,-1 2.7,-1.9 4,-3 1.1,-0.7 2.1,-1.6 3,-2.4 l 0.2,-0.2 2,-1.8 c 2,-1.8 3.9,-3.8 5.6,-5.8 l 1.6,-1.8 1.5,-1.9 c 1,-1.3 2,-2.6 2.9,-3.9 8.4,-12.5 13.3,-27.4 13.3,-43.6"
         style="fill:#ffb93e;fill-opacity:1;fill-rule:nonzero;stroke:none"
         id="path22" /><path
         d="m 9180.52,2015.6 -1725.15,0.3 c -1.38,0 -2.75,0 -4.09,0.1 -1.5,0.1 -2.96,0.2 -4.44,0.5 -33.16,4.5 -59.21,35.5 -60.93,73.3 -0.04,1.3 -0.08,2.7 -0.08,4 l 0.03,202.1 c 0,1.4 0.04,2.7 0.09,4.1 1.9,41 32.39,73.8 69.47,73.8 l 1513.26,-0.2 c 0.69,-2.9 1.38,-5.8 2.11,-8.8 25.05,-103.7 81.07,-243 206.64,-346.6 1.02,-0.9 2.06,-1.7 3.09,-2.6"
         style="fill:#ffa412;fill-opacity:1;fill-rule:nonzero;stroke:none"
         id="path24" /><path
         d="m 10370,2015.4 h -36.7 l 0.1,358 h 36.6 v -358"
         style="fill:#ffa412;fill-opacity:1;fill-rule:nonzero;stroke:none"
         id="path26" /><path
         d="m 10246.1,2015.4 h -36.6 v 358 h 36.6 v -358"
         style="fill:#ffa412;fill-opacity:1;fill-rule:nonzero;stroke:none"
         id="path28" /><path
         d="m 10097.5,2015.5 h -36.6 l 0.1,358 36.5,-0.1 v -357.9"
         style="fill:#ffa412;fill-opacity:1;fill-rule:nonzero;stroke:none"
         id="path30" /><path
         d="m 9869.78,2015.5 h -36.6 l 0.06,358 h 36.58 l -0.04,-358"
         style="fill:#ffa412;fill-opacity:1;fill-rule:nonzero;stroke:none"
         id="path32" /><path
         d="m 9628.99,2015.5 h -36.61 l 0.06,358 h 36.6 l -0.05,-358"
         style="fill:#ffa412;fill-opacity:1;fill-rule:nonzero;stroke:none"
         id="path34" /><path
         d="m 9259.83,2015.6 h -36.6 l 0.05,358 h 36.6 l -0.05,-358"
         style="fill:#ffa412;fill-opacity:1;fill-rule:nonzero;stroke:none"
         id="path36" /><path
         d="m 8914.18,2015.6 h -36.59 l 0.04,358 h 36.6 l -0.05,-358"
         style="fill:#ffa412;fill-opacity:1;fill-rule:nonzero;stroke:none"
         id="path38" /><path
         d="m 8605.54,2015.7 h -36.6 l 0.05,358 h 36.62 l -0.07,-358"
         style="fill:#ffa412;fill-opacity:1;fill-rule:nonzero;stroke:none"
         id="path40" /><path
         d="m 10487.9,2015.4 h -36.6 v 358 h 36.6 v -358"
         style="fill:#ffa412;fill-opacity:1;fill-rule:nonzero;stroke:none"
         id="path42" /><path
         d="m 10565.8,2015.4 h -36.6 v 358 h 36.6 v -358"
         style="fill:#ffa412;fill-opacity:1;fill-rule:nonzero;stroke:none"
         id="path44" /><path
         d="m 10641,2015.4 h -36.6 l 0.1,358 h 36.5 v -358"
         style="fill:#ffa412;fill-opacity:1;fill-rule:nonzero;stroke:none"
         id="path46" /><path
         d="m 10697.7,2372.1 -0.1,-355.5 c -4.5,-0.8 -9,-1.2 -13.7,-1.2 h -22.9 v 358 h 22.9 c 4.7,0 9.3,-0.5 13.8,-1.3"
         style="fill:#ffa412;fill-opacity:1;fill-rule:nonzero;stroke:none"
         id="path48" /><path
         d="m 10748.5,2338.9 -0.1,-289.1 c -8.8,-13.1 -21.6,-23.4 -36.5,-29.2 v 347.5 c 15,-5.8 27.7,-16.1 36.6,-29.2"
         style="fill:#ffa412;fill-opacity:1;fill-rule:nonzero;stroke:none"
         id="path50" /><path
         d="m 10928.3,2644.6 -0.1,-202.2 c 0,-16.1 -4.9,-31 -13.3,-43.5 -8.9,-13.1 -21.6,-23.4 -36.6,-29.1 -4.6,-1.8 -9.3,-3.2 -14.3,-4 -4.5,-0.8 -9,-1.3 -13.7,-1.3 l -3220.14,0.5 c -12.93,0 -25.16,3.2 -35.92,8.8 -22.79,12 -39.06,34.9 -41.64,61.6 -0.12,1.2 -0.21,2.4 -0.25,3.5 -0.06,1.4 -0.09,2.7 -0.09,4 l 0.02,202.2 c 0.01,1.3 0.04,2.7 0.09,4 2.12,41 36.32,73.9 77.84,73.9 l 3220.09,-0.5 c 4.7,0 9.3,-0.4 13.8,-1.3 4.9,-0.8 9.7,-2.1 14.2,-4 15,-5.7 27.7,-16 36.6,-29.1 8.4,-12.5 13.4,-27.4 13.4,-43.5"
         style="fill:#ffb93e;fill-opacity:1;fill-rule:nonzero;stroke:none"
         id="path52" /><path
         d="m 9346.94,2364.7 -1725.15,0.3 c -11.54,0 -22.42,3.2 -32.04,8.8 -20.37,12 -34.88,34.9 -37.15,61.6 -0.12,1.2 -0.21,2.4 -0.25,3.5 -0.06,1.4 -0.09,2.7 -0.09,4 l 0.02,202.2 c 0.01,1.3 0.04,2.7 0.09,4 1.9,41 32.45,73.9 69.47,73.9 l 1513.32,-0.2 c 23.5,-102.6 77.38,-243.3 201.21,-349.2 3.48,-3 7,-5.9 10.57,-8.9"
         style="fill:#ffa412;fill-opacity:1;fill-rule:nonzero;stroke:none"
         id="path54" /><path
         d="m 10536.4,2364.6 h -36.6 v 357.9 h 36.6 v -357.9"
         style="fill:#ffa412;fill-opacity:1;fill-rule:nonzero;stroke:none"
         id="path56" /><path
         d="m 10412.5,2364.6 h -36.6 v 358 h 36.7 l -0.1,-358"
         style="fill:#ffa412;fill-opacity:1;fill-rule:nonzero;stroke:none"
         id="path58" /><path
         d="m 10263.9,2364.6 h -36.6 l 0.1,358 h 36.6 l -0.1,-358"
         style="fill:#ffa412;fill-opacity:1;fill-rule:nonzero;stroke:none"
         id="path60" /><path
         d="m 10036.2,2364.6 h -36.58 l 0.04,358 h 36.64 l -0.1,-358"
         style="fill:#ffa412;fill-opacity:1;fill-rule:nonzero;stroke:none"
         id="path62" /><path
         d="m 9795.41,2364.7 h -36.59 l 0.04,358 36.62,-0.1 -0.07,-357.9"
         style="fill:#ffa412;fill-opacity:1;fill-rule:nonzero;stroke:none"
         id="path64" /><path
         d="m 9426.25,2364.7 h -36.59 l 0.04,358 h 36.62 l -0.07,-358"
         style="fill:#ffa412;fill-opacity:1;fill-rule:nonzero;stroke:none"
         id="path66" /><path
         d="m 9080.62,2364.8 h -36.61 l 0.06,358 36.61,-0.1 -0.06,-357.9"
         style="fill:#ffa412;fill-opacity:1;fill-rule:nonzero;stroke:none"
         id="path68" /><path
         d="m 8771.98,2364.8 h -36.59 l 0.04,358 h 36.6 l -0.05,-358"
         style="fill:#ffa412;fill-opacity:1;fill-rule:nonzero;stroke:none"
         id="path70" /><path
         d="m 10654.3,2364.5 h -36.6 l 0.1,358 h 36.6 l -0.1,-358"
         style="fill:#ffa412;fill-opacity:1;fill-rule:nonzero;stroke:none"
         id="path72" /><path
         d="m 10732.2,2364.5 h -36.6 l 0.1,358 h 36.6 l -0.1,-358"
         style="fill:#ffa412;fill-opacity:1;fill-rule:nonzero;stroke:none"
         id="path74" /><path
         d="m 10807.4,2364.5 h -36.6 l 0.1,358 h 36.6 l -0.1,-358"
         style="fill:#ffa412;fill-opacity:1;fill-rule:nonzero;stroke:none"
         id="path76" /><path
         d="m 10864.1,2721.2 -0.1,-355.4 c -4.4,-0.8 -9,-1.3 -13.7,-1.3 h -22.9 l 0.1,358 h 22.9 c 4.6,0 9.2,-0.4 13.7,-1.3"
         style="fill:#ffa412;fill-opacity:1;fill-rule:nonzero;stroke:none"
         id="path78" /><path
         d="m 10914.9,2688.1 v -289.2 c -8.9,-13.1 -21.6,-23.4 -36.6,-29.1 v 347.4 c 15,-5.7 27.7,-16 36.6,-29.1"
         style="fill:#ffa412;fill-opacity:1;fill-rule:nonzero;stroke:none"
         id="path80" /><g
         id="g82"><g
           id="g84"
           clip-path="url(#clipPath88)"><path
             d="m 14331,1254.2 -49.8,-17.3 c -206,431 -515.8,747.3 -816.4,1011.8 -321.9,283.4 -955.8,630.3 -1746,565.8 -325.8,-26.6 -566.5,-93.6 -683.8,-132.1 l -25.6,57.3 c 1527.1,634.5 2426.8,-56.9 2896.5,-693.3 300.7,-407.4 425.1,-792.2 425.1,-792.2"
             style="fill:#82b378;fill-opacity:1;fill-rule:nonzero;stroke:none"
             id="path90" /><path
             d="m 16064,2188.2 -1733,-933.9 c -132.7,271.8 -332.4,525.1 -498.9,710.4 -166.4,185.2 -299.8,302.5 -299.8,302.5 -1061.5,935.1 -2522.9,472.6 -2522.9,472.6 l 1260.4,1321.9 c 770.6,277.3 1453.6,153.1 2020.4,-132.8 C 15400.3,3368.8 16064,2188.2 16064,2188.2"
             style="fill:#a8d29f;fill-opacity:1;fill-rule:nonzero;stroke:none"
             id="path92" /><path
             d="m 16064,2188.2 -1733,-933.9 c -132.7,271.8 -332.4,525.1 -498.9,710.4 -166.4,185.2 -299.8,302.5 -299.8,302.5 C 12470.8,3202.3 11654,3415.8 11654,3415.8 l 800.9,-15.2 c 298.5,-5.7 493.6,189.4 742.9,353.8 56.9,37.5 114.2,187.5 164,223.1 286,204.7 571,131.7 928.4,-48.6 C 15400.3,3368.8 16064,2188.2 16064,2188.2"
             style="fill:#82b378;fill-opacity:1;fill-rule:nonzero;stroke:none"
             id="path94" /><path
             d="m 14303.1,1668.7 c -79.4,170.6 -222.2,424.3 -451.8,663.6 -258.3,269.3 -571.3,465.9 -930.3,584.3 -383,126.4 -819.4,163.6 -1300,111 -52.8,-5.8 -83.9,57.6 -46.9,95.7 l 710.3,730.2 c 52.1,53.6 116.6,93.4 187.9,116 135.7,43 377.7,100.5 687.9,93.5 285.8,-6.5 572.9,-65.7 853.3,-175.9 350.9,-138 692.3,-356.8 1015.1,-650.6 1.5,-1.4 157.6,-141.1 332.1,-329.5 229.7,-248 386.4,-466.9 453.1,-633.1 l -1416.2,-813.5 c -14.7,49.8 -32.8,75.9 -94.5,208.3 m 1591.8,568.1 c -166.9,416.1 -801.8,1020.1 -827.4,1042.9 -328.4,299 -676.5,521.9 -1034.8,662.4 -287.2,112.7 -581.4,172.9 -874.5,179.2 -500,10.6 -818.9,-137.8 -832.3,-144.2 l -4.7,-2.2 -1024.8,-1053.6 87.6,14.6 c 568.6,95.1 1079,70.2 1517.1,-74 349.7,-115.1 654.6,-306.2 906.3,-568 429.6,-446.8 574.8,-894.1 576,-899.2 l 1511.5,842.1"
             style="fill:#82b378;fill-opacity:1;fill-rule:nonzero;stroke:none"
             id="path96" /><path
             d="m 14304.7,3438 c 117.7,-263.1 34.6,-491 -228.5,-608.7 -263.2,-117.6 -606.7,-80.5 -724.4,182.7 -117.6,263.1 -42.3,485.6 220.9,603.3 263.1,117.7 614.3,85.9 732,-177.3"
             style="fill:#82b378;fill-opacity:1;fill-rule:nonzero;stroke:none"
             id="path98" /><path
             d="m 12689.3,126.199 -55.5,-18 c -218.3,481.301 -554.1,838 -880.8,1137.201 -349.7,320.6 -1043.3,718.3 -1918.67,664.4 -360.94,-22.2 -628.67,-91 -759.27,-131.1 l -27.1,64.1 c 1703.14,668 2683.04,-116.6 3188.54,-830.9 323.6,-457.298 452.8,-885.701 452.8,-885.701"
             style="fill:#82b378;fill-opacity:1;fill-rule:nonzero;stroke:none"
             id="path100" /><path
             d="M 14626.7,1121.1 12689.3,126.301 C 12548.5,430 12333.2,714.5 12153.1,923.102 c -180,208.598 -324.9,341.298 -324.9,341.298 -1153.5,1057.7 -2780.23,578.4 -2780.23,578.4 l 1423.43,1434.4 c 858.4,289.6 1611.2,137.2 2231.8,-191.6 1215.5,-644 1923.5,-1964.5 1923.5,-1964.5"
             style="fill:#a8d29f;fill-opacity:1;fill-rule:nonzero;stroke:none"
             id="path102" /><path
             d="m 12767.4,352.902 1584.5,868.498 c -70.1,185.3 -238.6,430.9 -487.1,710.3 -188.9,212.3 -358.5,370.2 -360.2,371.7 -350.5,332.2 -723.3,581.8 -1108.5,742.1 -307.6,128.2 -623.9,199.9 -939.9,213.4 -342.9,14.6 -611.9,-43.6 -762.9,-88.2 -79.4,-23.4 -151.7,-66.1 -210.5,-124.2 l -801.7,-792 c -41.82,-41.3 -8.83,-112.1 49.74,-106.8 532.76,47.5 1014.66,-3.2 1435.56,-151.5 394.4,-139 736.3,-363.3 1016,-666.9 248.7,-269.8 401.1,-553.499 485.2,-743.999 65.2,-147.801 84.7,-177 99.8,-232.399 m -17.1,-72.402 c -1.2,5.602 -151.9,503.602 -617.2,1007.3 -272.6,295.1 -605.7,513.2 -990,648.3 -481.4,169.2 -1045.4,208 -1676.41,115.4 l -97.23,-14.3 1156.74,1142.8 5.3,2.4 c 14.9,6.7 371,163.8 923.8,141 324.1,-13.3 648.1,-86.5 963.3,-217.4 393.2,-163.4 773.4,-417.6 1130.1,-755.6 27.8,-25.8 716.7,-707.8 892,-1171.8 L 12750.3,280.5"
             style="fill:#82b378;fill-opacity:1;fill-rule:nonzero;stroke:none"
             id="path104" /><path
             d="m 12708.4,2542.4 c 124.3,-293.6 27.4,-543.9 -266.2,-668.2 -293.7,-124.4 -672.9,-75.7 -797.2,217.9 -124.3,293.7 -36.1,538.2 257.6,662.5 293.6,124.3 681.4,81.4 805.8,-212.2"
             style="fill:#82b378;fill-opacity:1;fill-rule:nonzero;stroke:none"
             id="path106" /><path
             d="m 13951.3,3493.1 c 0,0 -96.7,-684.1 13.8,-1119.1 h -1618.9 c 0,0 774.6,2835.6 2360.8,4458.6 455.3,466 874.1,1129.5 1278.4,1858.9 1003.7,1810.9 1917,4027.9 3074,4632.8 0,0 -2285.5,-3358.1 -2728.1,-5294.5 -442.5,-1936.4 -2020.3,-1881.1 -2380,-4536.7"
             style="fill:#4c85d8;fill-opacity:1;fill-rule:nonzero;stroke:none"
             id="path108" /><path
             d="m 15786.1,8029.8 c 47.1,206.3 115.2,428.8 199.3,661.7 -404.3,-729.4 -823.1,-1392.9 -1278.4,-1858.9 -233.7,-239.1 -449.7,-504.5 -648.3,-783.3 -1.1,9.7 -71.8,626.1 -322.7,1252.2 -249.3,622.4 -676.4,1254.2 -1389.8,1309.2 0,0 1726.9,-1323.1 850.7,-4036.1 C 12627.1,3402.2 12203.1,2374 12203.1,2374 h 1245.4 c -110.7,435 -13.7,1119.1 -13.7,1119.1 359.6,2655.6 1908.6,2600.3 2351.3,4536.7"
             style="fill:#699ff0;fill-opacity:1;fill-rule:nonzero;stroke:none"
             id="path110" /><path
             d="m 14058.7,6049.1 c 0,0 -2.3,-4.1 -6.5,-11.2 -45.3,-75.6 -305.7,-502.3 -282.4,-239.8 25.6,287.1 -297.5,1369.4 -297.5,1369.4 l 263.7,134 c 252.9,-631.1 322.7,-1252.4 322.7,-1252.4"
             style="fill:#4c85d8;fill-opacity:1;fill-rule:nonzero;stroke:none"
             id="path112" /><path
             d="m 21887,10973.3 0.3,-0.4 -47.9,-72.9 c -152.2,78.9 -467.3,224.4 -908,333.2 -799,197.3 -1529.5,60.1 -2057.9,-154.1 -178.5,-72.3 -334.1,-153.6 -461.4,-233.6 -470.9,-295.9 -966,-660.6 -1344.1,-1205.8 l -64.5,34.9 -1788.9,1374.2 -379.2,291.2 c 0,0 253.9,318.9 691.7,712.2 502.5,451.8 1246.8,1001.5 2126.7,1280.1 507.4,160.6 1060,230.9 1637,140.3 378.7,-59.7 768.1,-188.7 1162.3,-407.1 l 1434.2,-2092.4 -0.3,0.2"
             style="fill:#82b378;fill-opacity:1;fill-rule:nonzero;stroke:none"
             id="path114" /><path
             d="m 13443.9,189.902 49.8,-17.3 c 206,431 515.9,747.3 816.5,1011.798 321.8,283.4 955.8,630.3 1745.9,565.8 325.8,-26.6 566.5,-93.6 683.8,-132.1 l 25.7,57.3 c -1527.1,634.5 -2426.8,-56.9 -2896.6,-693.298 -300.7,-407.403 -425.1,-792.2 -425.1,-792.2"
             style="fill:#82b378;fill-opacity:1;fill-rule:nonzero;stroke:none"
             id="path116" /><path
             d="m 11710.9,1123.9 1733,-933.9 c 132.7,271.898 332.4,525.102 498.9,710.402 166.5,185.198 299.8,302.498 299.8,302.498 1061.5,935.1 2522.9,472.6 2522.9,472.6 l -1260.4,1321.9 c -770.5,277.3 -1453.6,153.1 -2020.4,-132.8 -1110.1,-560 -1773.8,-1740.7 -1773.8,-1740.7"
             style="fill:#a8d29f;fill-opacity:1;fill-rule:nonzero;stroke:none"
             id="path118" /><path
             d="m 13471.8,604.398 c 79.4,170.602 222.3,424.302 451.9,663.602 258.2,269.3 571.2,465.9 930.2,584.3 383,126.5 819.4,163.6 1300,111 52.9,-5.8 83.9,57.6 46.9,95.7 l -710.2,730.2 c -52.1,53.6 -116.7,93.4 -187.9,116 -135.8,43.1 -377.8,100.5 -687.9,93.5 -285.9,-6.5 -573,-65.7 -853.3,-175.9 -351,-137.9 -692.4,-356.8 -1015.1,-650.6 -1.6,-1.4 -157.7,-141.1 -332.2,-329.5 -229.7,-248 -386.4,-466.9 -453.1,-633.1 l 1416.3,-813.498 c 14.6,49.8 32.8,75.898 94.4,208.296 M 11880.1,1172.5 c 166.8,416.1 801.7,1020.1 827.3,1042.9 328.4,299 676.6,521.9 1034.9,662.4 287.1,112.7 581.4,173 874.4,179.2 500,10.6 818.9,-137.8 832.3,-144.2 l 4.7,-2.2 1024.8,-1053.6 -87.6,14.6 c -568.6,95.2 -1079,70.2 -1517.1,-74 -349.7,-115.1 -654.6,-306.2 -906.3,-568 -429.6,-446.799 -574.7,-894.1 -576,-899.1 l -1511.4,842"
             style="fill:#82b378;fill-opacity:1;fill-rule:nonzero;stroke:none"
             id="path120" /><path
             d="m 13470.2,2373.8 c -117.6,-263.2 -34.6,-491.1 228.5,-608.7 263.2,-117.7 606.7,-80.5 724.4,182.6 117.6,263.1 42.3,485.6 -220.8,603.3 -263.2,117.7 -614.4,85.9 -732.1,-177.2"
             style="fill:#82b378;fill-opacity:1;fill-rule:nonzero;stroke:none"
             id="path122" /><path
             d="m 17438,504.902 -49.8,-17.3 c -206,431 -515.9,747.298 -816.5,1011.798 -321.8,283.4 -955.8,630.3 -1746,565.8 -325.7,-26.6 -566.4,-93.6 -683.7,-132.1 l -25.7,57.3 c 1527.1,634.5 2426.8,-56.9 2896.5,-693.3 300.7,-407.401 425.2,-792.198 425.2,-792.198"
             style="fill:#82b378;fill-opacity:1;fill-rule:nonzero;stroke:none"
             id="path124" /><path
             d="M 19170.9,1438.9 17438,505 c -132.8,271.898 -332.5,525.1 -498.9,710.4 -166.5,185.2 -299.8,302.5 -299.8,302.5 -1061.5,935.1 -2522.9,472.6 -2522.9,472.6 l 1260.4,1321.9 c 770.5,277.3 1453.6,153.1 2020.4,-132.8 1110,-560.1 1773.7,-1740.7 1773.7,-1740.7"
             style="fill:#a8d29f;fill-opacity:1;fill-rule:nonzero;stroke:none"
             id="path126" /><path
             d="M 17410.1,919.398 C 17330.7,1090 17187.8,1343.7 16958.2,1583 c -258.3,269.3 -571.2,465.9 -930.2,584.3 -383.1,126.5 -819.4,163.6 -1300.1,111 -52.8,-5.8 -83.9,57.6 -46.8,95.7 l 710.2,730.2 c 52.1,53.6 116.6,93.4 187.9,116 135.7,43.1 377.7,100.5 687.9,93.5 285.8,-6.5 572.9,-65.7 853.3,-175.9 350.9,-138 692.4,-356.8 1015.1,-650.6 1.6,-1.4 157.7,-141.1 332.2,-329.5 229.7,-248 386.4,-466.9 453,-633.1 L 17504.5,711.102 c -14.7,49.8 -32.8,75.898 -94.4,208.296 m 1591.7,568.102 c -166.9,416.1 -801.7,1020.1 -827.3,1042.9 -328.4,299 -676.6,521.9 -1034.9,662.4 -287.2,112.7 -581.4,172.9 -874.5,179.2 -500,10.6 -818.9,-137.8 -832.2,-144.2 l -4.8,-2.2 -1024.7,-1053.6 87.6,14.6 c 568.5,95.1 1079,70.2 1517.1,-74 349.7,-115.1 654.6,-306.2 906.3,-568 429.6,-446.8 574.7,-894.1 576,-899.1 l 1511.4,842"
             style="fill:#82b378;fill-opacity:1;fill-rule:nonzero;stroke:none"
             id="path128" /><path
             d="m 17411.6,2688.7 c 117.7,-263.1 34.7,-491 -228.5,-608.6 -263.1,-117.7 -606.7,-80.5 -724.3,182.6 -117.7,263.1 -42.3,485.6 220.8,603.3 263.1,117.7 614.4,85.9 732,-177.3"
             style="fill:#82b378;fill-opacity:1;fill-rule:nonzero;stroke:none"
             id="path130" /><path
             d="m 18873.5,11079.1 c -178.5,-72.3 -334.1,-153.6 -461.4,-233.6 -470.9,-295.9 -966,-660.6 -1344.1,-1205.8 l -64.5,34.9 -1788.9,1374.2 c 91.6,367.6 196.8,702 312.5,1003.4 502.5,451.8 1246.8,1001.5 2126.7,1280.1 507.4,160.6 1060,230.9 1637,140.3 19.4,-12.6 29.7,-19.6 29.7,-19.6 0,0 -899.8,-1093.1 -447,-2373.9"
             style="fill:#719e67;fill-opacity:1;fill-rule:nonzero;stroke:none"
             id="path132" /><path
             d="m 16558,11609.9 -2716.3,-310.6 -73.1,3.3 c -16.1,246.7 -59,480.2 -119.8,701.9 -101.9,373.1 -253.7,712.6 -411.3,1023.9 -96,189.7 -239.3,410.5 -431.5,630.6 -346.2,396.4 -851.8,790.9 -1528.3,999.3 -433.7,133.7 -778.6,171.5 -949.7,182.3 l -3.7,87.2 h 0.2 l 2307,1054.7 c 432.8,-15.2 818.9,-98.6 1163.7,-233 561,-218.4 1011.8,-570.7 1373.2,-980.2 527.7,-597.8 864.3,-1317.1 1073.8,-1918.5 244.3,-700.7 315.8,-1240.9 315.8,-1240.9"
             style="fill:#82b378;fill-opacity:1;fill-rule:nonzero;stroke:none"
             id="path134" /><path
             d="m 16242.2,12850.8 c -39.1,-504.5 -296.1,-916.1 -826.6,-1066.3 -579.9,-164.1 -1220.2,-33.8 -1766.8,220 -101.9,373.1 -253.7,712.6 -411.3,1023.9 -96,189.7 -239.3,410.5 -431.5,630.6 1200.9,280.8 989.2,2090.5 989.2,2090.5 561,-218.4 1011.8,-570.7 1373.2,-980.2 527.7,-597.8 864.3,-1317.1 1073.8,-1918.5"
             style="fill:#719e67;fill-opacity:1;fill-rule:nonzero;stroke:none"
             id="path136" /><path
             d="m 13046.9,13162.7 c 0,0 -49.1,514.6 -1011,306.6 0,0 379.8,-465 1011,-306.6"
             style="fill:#82b378;fill-opacity:1;fill-rule:nonzero;stroke:none"
             id="path138" /><path
             d="m 20466.5,8188.6 0.6,-0.4 -1434.3,2092.4 c -994.7,551.3 -1958.7,532.9 -2799.2,266.8 -1646.3,-521.1 -2818.5,-1992.2 -2818.5,-1992.2 l 2168.2,-1665.4 v -0.1 l 64.4,-34.8 c 378.2,545.1 873.3,909.8 1344.2,1205.7 504.2,317 1450.3,651.7 2519.2,387.7 440.8,-108.8 755.9,-254.2 908.1,-333.1 l 47.9,73 -0.6,0.4"
             style="fill:#82b378;fill-opacity:1;fill-rule:nonzero;stroke:none"
             id="path140" /><path
             d="m 9889.65,10538.5 -0.59,-0.3 1434.24,2092.4 c 994.7,551.3 1958.7,532.8 2799.3,266.8 1646.3,-521.1 2818.5,-1992.2 2818.5,-1992.2 L 14772.8,9239.7 h 0.1 l -64.5,-34.8 c -378.2,545.1 -873.2,909.8 -1344.1,1205.7 -504.2,317 -1450.4,651.7 -2519.3,387.7 -440.7,-108.9 -755.8,-254.2 -908.05,-333.1 l -47.92,72.9 0.62,0.4"
             style="fill:#719e67;fill-opacity:1;fill-rule:nonzero;stroke:none"
             id="path142" /><path
             d="m 14565.2,11634.2 -64.8,34.1 c 241,618.1 267,1232.5 249.5,1788.3 -18.7,595.3 -269.4,1567.1 -1085.4,2306.3 -336.4,304.8 -633,485 -783.5,567.2 l 33.8,80.5 c 2093.5,-944.4 2247.6,-2512.7 2049.2,-3593.1 -127.1,-691.6 -398.8,-1183.3 -398.8,-1183.3"
             style="fill:#82b378;fill-opacity:1;fill-rule:nonzero;stroke:none"
             id="path144" /><path
             d="m 17157.7,10765.8 -2592.4,868.5 c 149.4,392.8 216.2,835.7 245.8,1180.3 29.5,344.6 21.7,591.1 21.7,591.1 -61.1,1963.7 -1917.9,3005 -1917.9,3005 l 2536.6,-21.2 c 1012.9,-517.3 1536,-1327.2 1784.7,-2173.1 487.1,-1656.6 -78.5,-3450.6 -78.5,-3450.6"
             style="fill:#a8d29f;fill-opacity:1;fill-rule:nonzero;stroke:none"
             id="path146" /><path
             d="m 14837.3,11762.7 2169.6,-662 c 105,225.5 178,592.2 211,1060.4 25.1,355.8 18.3,646.6 18.2,649.5 -8.9,606.1 -111.6,1159.9 -305.1,1646.5 -154.7,388.8 -367.5,735.8 -632.4,1031.6 -287.6,320.9 -575.7,511.5 -748.2,608.1 -90.6,50.7 -192.3,78.3 -296.1,80.2 l -1414.4,25.9 c -73.8,1.3 -108.5,-90.4 -52.5,-138.5 509.9,-436.9 886.8,-914.3 1122.6,-1422.4 221,-476.3 319.1,-980.1 291.7,-1497.6 -24.4,-459.9 -145.6,-845.6 -243,-1088.2 -75.6,-188.2 -84.8,-231.3 -121.4,-293.5 z m -79.9,-48 c 3.9,6 319.2,578 363.7,1437.7 26.1,503.6 -69.9,994.1 -285.5,1457.7 -270,580.9 -729.7,1121.7 -1366.1,1607.4 l -98.1,74.8 2040.9,-37.3 6.8,-2.7 c 19.1,-7.5 472.4,-189.6 936.6,-706.3 272.1,-302.8 490.6,-658.1 649.2,-1056.1 198,-496.5 303,-1060.9 312.1,-1677.7 1.1,-47.6 -7.7,-1264.5 -270.7,-1828.9 l -2288.9,731.4"
             style="fill:#82b378;fill-opacity:1;fill-rule:nonzero;stroke:none"
             id="path148" /><path
             d="m 16236.8,14645.5 c -369.1,154.8 -666.2,19.7 -821,-349.4 -154.8,-369.2 134,-752.5 503.1,-907.3 369.2,-154.9 679,-22.5 833.8,346.7 154.8,369.2 -146.7,755.2 -515.9,910"
             style="fill:#82b378;fill-opacity:1;fill-rule:nonzero;stroke:none"
             id="path150" /><path
             d="m 13217,8871.7 -69.7,-22.6 c -274.1,604.2 -695.5,1051.9 -1105.6,1427.6 -439.1,402.4 -1309.7,901.7 -2408.66,834 -453.1,-27.9 -789.19,-114.3 -953.13,-164.5 l -34.04,80.3 c 2138.03,838.7 3368.13,-146.3 4002.73,-1042.9 406.2,-574.1 568.4,-1111.9 568.4,-1111.9"
             style="fill:#82b378;fill-opacity:1;fill-rule:nonzero;stroke:none"
             id="path152" /><path
             d="M 15649.1,10120.6 13216.9,8871.8 c -176.7,381.3 -447,738.4 -673,1000.3 -226,261.9 -407.9,428.4 -407.9,428.4 -1448,1327.8 -3490.09,726.1 -3490.09,726.1 l 1786.89,1800.7 c 1077.5,363.5 2022.6,172.2 2801.6,-240.5 1525.9,-808.4 2414.7,-2466.2 2414.7,-2466.2"
             style="fill:#a8d29f;fill-opacity:1;fill-rule:nonzero;stroke:none"
             id="path154" /><path
             d="m 13315.1,9156.2 1989,1090.3 c -88,232.7 -299.5,541 -611.5,891.7 -237.1,266.5 -450,464.7 -452.1,466.7 -440,416.9 -908.1,730.2 -1391.5,931.5 -386.3,160.9 -783.2,251 -1180,267.9 -430.5,18.4 -768.1,-54.7 -957.7,-110.7 -99.6,-29.4 -190.3,-82.9 -264.2,-155.9 l -1006.41,-994.2 c -52.48,-51.9 -11.07,-140.8 62.43,-134.2 668.88,59.7 1273.68,-4 1802.08,-190.1 495.2,-174.5 924.3,-456.1 1275.5,-837.2 312.1,-338.7 503.5,-694.8 609,-934 81.9,-185.5 106.4,-222.2 125.4,-291.8 m -21.5,-90.8 c -1.6,7.1 -190.7,632.2 -774.9,1264.5 -342.2,370.5 -760.3,644.3 -1242.7,813.8 -604.3,212.4 -1312.36,261.2 -2104.49,144.9 l -122.03,-17.9 1452.12,1434.5 6.7,3 c 18.7,8.4 465.6,205.7 1159.6,177.1 406.8,-16.8 813.6,-108.6 1209.3,-273 493.6,-205.1 970.9,-524.2 1418.6,-948.5 34.9,-32.4 899.7,-888.6 1119.8,-1471 l -2122,-1127.4"
             style="fill:#82b378;fill-opacity:1;fill-rule:nonzero;stroke:none"
             id="path156" /><path
             d="m 13240.9,11904.8 c -156.1,368.6 -642.9,422.5 -1011.5,266.4 -368.6,-156.1 -479.4,-463 -323.4,-831.6 156.1,-368.6 632.1,-429.7 1000.7,-273.6 368.7,156 490.3,470.2 334.2,838.8"
             style="fill:#82b378;fill-opacity:1;fill-rule:nonzero;stroke:none"
             id="path158" /><path
             d="m 17251.4,10766.5 73.1,-4.2 c 111.9,654 405.9,1194 707.3,1661.4 322.6,500.6 1038.1,1204.4 2118.3,1417.7 445.3,88 792.4,89.7 963.7,82.7 l 12.5,86.3 c -2280.9,268.9 -3220.8,-996 -3607.2,-2024.2 -247.3,-658.4 -267.7,-1219.7 -267.7,-1219.7"
             style="fill:#82b378;fill-opacity:1;fill-rule:nonzero;stroke:none"
             id="path160" /><path
             d="m 14582,11357.5 2669.4,-590.9 c 74.3,413.6 245.1,827.7 397.2,1138.3 152.2,310.6 285.9,517.9 285.9,517.9 1063.8,1651.6 3191.8,1587.7 3191.8,1587.7 l -2185.2,1288.4 c -1134.6,78.4 -2000.2,-346.4 -2649,-943.3 -1270.9,-1169 -1710.1,-2998.1 -1710.1,-2998.1"
             style="fill:#a8d29f;fill-opacity:1;fill-rule:nonzero;stroke:none"
             id="path162" /><path
             d="m 17131.5,11330.9 c 41.5,258.1 136.2,651.1 352.2,1057.9 243,457.7 586.7,839 1021.4,1133.4 463.9,314.1 1032.8,529.1 1694.9,641 72.8,12.3 90.3,108.8 26.4,145.7 l -1225.7,706.3 c -90,51.9 -191.3,80.6 -295.1,83.8 -197.7,6.1 -542.8,-8.9 -954.5,-135.9 -379.5,-117 -740.6,-304.8 -1073.4,-558.4 -416.6,-317.4 -789.9,-739.2 -1109.7,-1254.1 -1.5,-2.4 -157.2,-248.2 -318.9,-566.1 -212.9,-418.4 -339.2,-770.3 -365.3,-1017.6 l 2200.5,-550 c 0.8,72.1 15.1,113.8 47.2,314 z m -2342,155.7 v 0 c 65.2,619.2 684.5,1666.8 710,1707 325.5,524 706.2,953.8 1131.6,1277.3 341,259.4 711.3,451.4 1100.5,570.9 664,203.7 1146.4,126.3 1166.6,122.9 l 7.2,-1.2 1768.6,-1019.3 -122.6,-13.6 c -795.7,-88.5 -1468.3,-315.2 -1998.9,-674 -423.6,-286.4 -758.6,-657.3 -995.6,-1102.4 -404.6,-759.9 -429,-1412.5 -428.8,-1419.7 l -2338.6,552.1"
             style="fill:#82b378;fill-opacity:1;fill-rule:nonzero;stroke:none"
             id="path164" /><path
             d="m 17369.6,14208.6 c -396.1,57.5 -853.4,-118.1 -910.8,-514.3 -57.5,-396.1 139.9,-669.2 536,-726.6 396.2,-57.5 841.1,122.4 898.6,518.5 57.4,396.2 -127.6,664.9 -523.8,722.4"
             style="fill:#82b378;fill-opacity:1;fill-rule:nonzero;stroke:none"
             id="path166" /><path
             d="m 14730.5,11575.9 c 240,988.2 1235.7,1594.6 2223.8,1354.6 988.2,-240.1 1594.6,-1235.7 1354.6,-2223.9 -240.1,-988.1 -1235.7,-1594.5 -2223.9,-1354.5 -988.1,240.1 -1594.6,1235.7 -1354.5,2223.8"
             style="fill:#e2810e;fill-opacity:1;fill-rule:nonzero;stroke:none"
             id="path168" /><path
             d="m 14574.4,11613.9 c 240.1,988.1 1235.7,1594.5 2223.8,1354.5 988.2,-240.1 1594.6,-1235.7 1354.6,-2223.8 C 17912.7,9756.4 16917.1,9150 15929,9390 c -988.2,240.1 -1594.6,1235.7 -1354.6,2223.9"
             style="fill:#ffb93e;fill-opacity:1;fill-rule:nonzero;stroke:none"
             id="path170" /><path
             d="m 16355.6,12736.2 c -286,0 -567.3,-78.4 -817.7,-230.9 -359.9,-219.2 -612.9,-565.4 -712.3,-974.9 -99.5,-409.4 -33.6,-833.1 185.6,-1192.9 219.2,-359.9 565.4,-612.9 974.9,-712.3 409.5,-99.5 833.1,-33.5 1193,185.6 359.8,219.2 612.8,565.5 712.2,974.9 205.4,845.2 -315.2,1699.9 -1160.5,1905.2 -124.5,30.3 -250.3,45.3 -375.2,45.3 z m 5.9,-3256.3 c -132.8,0 -266.6,15.9 -399,48 -435.5,105.8 -803.7,374.8 -1036.7,757.5 -233.1,382.7 -303.2,833.2 -197.5,1268.7 105.8,435.4 374.8,803.6 757.5,1036.7 382.7,233.1 833.2,303.1 1268.7,197.4 898.8,-218.4 1452.5,-1127.3 1234.1,-2026.1 -105.8,-435.5 -374.8,-803.6 -757.5,-1036.7 -266.3,-162.2 -565.5,-245.5 -869.6,-245.5"
             style="fill:#ffa412;fill-opacity:1;fill-rule:nonzero;stroke:none"
             id="path172" /><path
             d="m 16467.9,10630.4 c 12.8,34.2 19.1,66 19.2,95.6 0,29.6 -6.9,59.1 -20.9,88.3 -14,29.3 -35,59.3 -62.9,90.1 -27.9,30.7 -63.6,63.9 -107.2,99.6 -74.5,62 -140.7,122.5 -198.4,181.5 -57.8,59 -103.6,119.3 -137.4,180.9 -33.9,61.7 -53.8,126.5 -59.9,194.5 -6.1,68 5.7,141.8 35.4,221.5 25.7,69.1 61.4,127.5 107.1,175.3 45.7,47.7 99.2,84.3 160.4,109.7 61.3,25.3 128.5,39.3 201.8,42.1 73.3,2.8 150.7,-6.8 232.2,-28.8 l 97.1,261 210,-78.2 -98.5,-264.6 c 71.6,-37.8 132.5,-83.1 182.5,-136 50.1,-52.9 87.6,-111.3 112.7,-175.2 25,-64 36.9,-133 35.7,-207 -1.2,-74.1 -16.9,-151.8 -47.1,-233.1 l -379.4,141.3 c 36.3,97.5 41.8,178.5 16.5,243 -25.3,64.5 -74.3,110.3 -146.9,137.3 -39.4,14.7 -75.3,21.8 -107.8,21.4 -32.6,-0.3 -61.6,-6.7 -87.1,-18.9 -25.5,-12.3 -47.4,-29.8 -65.8,-52.6 -18.5,-22.7 -33.3,-49.1 -44.5,-79.2 -11.2,-30.1 -17,-58.9 -17.3,-86.6 -0.3,-27.6 6.4,-55.8 20.1,-84.5 13.7,-28.7 34.9,-58.8 63.5,-90.3 28.6,-31.5 65.6,-66.8 110.8,-105.8 73.1,-63.3 138.2,-124.6 195.4,-183.8 57.2,-59.3 102.6,-119.9 136.3,-182 33.7,-62 53.6,-127.1 59.6,-195 6.1,-68 -5.6,-141.4 -34.9,-220.3 -26.6,-71.5 -63,-131.1 -109.1,-178.7 -46.2,-47.6 -99.7,-83.7 -160.6,-108.2 -61,-24.5 -128.3,-37.4 -202,-38.7 -73.7,-1.2 -151.3,9.2 -232.8,31.2 l -90.3,-242.7 -208.7,77.7 89.9,241.5 c -70,34.3 -134.3,76.3 -193,125.9 -58.8,49.7 -105.8,107.2 -141.2,172.7 -35.4,65.5 -55.9,139 -61.4,220.7 -5.4,81.6 10,171.2 46.3,268.8 l 379.4,-141.3 c -21.5,-57.7 -31.4,-108.9 -29.6,-153.5 1.8,-44.6 12,-83.6 30.5,-116.9 18.5,-33.2 43.3,-61 74.4,-83.2 31.1,-22.2 64.6,-40 100.5,-53.3 41.1,-15.3 79.1,-23.5 114.1,-24.5 35,-1 66.5,3.9 94.5,14.8 28,10.9 52,27.2 72,48.9 20,21.7 35.6,47.5 46.8,77.6"
             style="fill:#ffa412;fill-opacity:1;fill-rule:nonzero;stroke:none"
             id="path174" /><path
             d="M 14716.4,10682.9 15534.6,7784.7 8623.78,5833.5 7805.55,8731.7 14716.4,10682.9"
             style="fill:#a8d29f;fill-opacity:1;fill-rule:nonzero;stroke:none"
             id="path176" /><path
             d="m 14816.2,8411.8 c 55.5,-196.6 -58.7,-400.7 -255.4,-456.2 L 9305.32,6471.8 c -175.91,-49.7 -358.74,52.6 -408.42,228.6 l -414.24,1467.1 c -54.71,193.9 57.93,395.1 251.75,449.9 l 5235.89,1478.2 c 189.4,53.5 386.5,-56.8 440,-246.3 l 405.9,-1437.5 M 8271.81,8580.9 8924.25,6270 15028.4,7993.4 14376,10304.3 8271.81,8580.9"
             style="fill:#82b378;fill-opacity:1;fill-rule:nonzero;stroke:none"
             id="path178" /><path
             d="m 12380.4,8493.4 c -112.1,397.3 -525.2,628.5 -922.5,516.3 -397.3,-112.2 -628.5,-525.2 -516.3,-922.6 112.2,-397.3 525.2,-628.4 922.5,-516.3 397.4,112.2 628.5,525.2 516.3,922.6"
             style="fill:#82b378;fill-opacity:1;fill-rule:nonzero;stroke:none"
             id="path180" /></g></g><g
         id="g182"><g
           id="g184"
           clip-path="url(#clipPath188)"><path
             d="m 10131.5,6259.2 h 3150.4 v 889.5 h -3150.4 z"
             style="fill:#b6d3b9;fill-opacity:1;fill-rule:nonzero;stroke:none"
             id="path190" /></g></g><g
         id="g192"><g
           id="g194"
           clip-path="url(#clipPath198)"><path
             d="m 13281.9,7148.7 v 0 l 345.1,97.4 v 0 l -345.1,-97.4"
             style="fill:#76a9b4;fill-opacity:1;fill-rule:nonzero;stroke:none"
             id="path200" /><path
             d="m 13744.8,7279.4 v 0 l 973.5,274.8 -973.5,-274.8"
             style="fill:#b6d3b9;fill-opacity:1;fill-rule:nonzero;stroke:none"
             id="path202" /><path
             d="m 13627,7246.1 v 0 l 117.8,33.3 v 0 l -117.8,-33.3"
             style="fill:#679ca8;fill-opacity:1;fill-rule:nonzero;stroke:none"
             id="path204" /><path
             d="m 13277.5,10276.6 v 0 l 1322.3,373.3 v 0 l -1322.3,-373.3"
             style="fill:#95c28b;fill-opacity:1;fill-rule:nonzero;stroke:none"
             id="path206" /><path
             d="m 10131.5,6259.2 c 151,94.7 1045.8,407 1834.6,869.6 l 3062.3,864.6 -652.4,2310.9 -1022,-288.5 c -40.3,142.8 -80.2,230 -76.5,260.8 l 1322.3,373.3 116.6,33 818.2,-2898.2 -816.3,-230.5 -973.5,-274.8 -117.8,-33.3 -345.1,-97.4 -3150.4,-889.5 m 2111.8,1042.1 c 402.9,266.8 746,574.5 898.6,912.7 362.3,803.2 315.1,1376.4 234.9,1714.1 l 593.5,167.5 c 32.3,9.1 64.9,13.5 97,13.5 155.6,0 298.6,-102.7 343,-259.8 l 405.9,-1437.5 c 55.5,-196.6 -58.7,-400.7 -255.4,-456.2 l -2317.5,-654.3"
             style="fill:#95c28b;fill-opacity:1;fill-rule:nonzero;stroke:none"
             id="path208" /><path
             d="m 11966.1,7128.8 c 94.4,55.4 187.3,112.9 277.2,172.5 l 2317.5,654.3 c 196.7,55.5 310.9,259.6 255.4,456.2 l -405.9,1437.5 c -44.4,157.1 -187.4,259.8 -343,259.8 -32.1,0 -64.7,-4.4 -97,-13.5 l -593.5,-167.5 c -7.4,31.2 -15.1,60.4 -22.8,87.7 l 1022,288.5 652.4,-2310.9 -3062.3,-864.6"
             style="fill:#82b378;fill-opacity:1;fill-rule:nonzero;stroke:none"
             id="path210" /><path
             d="m 22751.6,9870.1 13.2,-3011.4 -7180.9,-31.4 -13.2,3011.4 7180.9,31.4"
             style="fill:#a8d29f;fill-opacity:1;fill-rule:nonzero;stroke:none"
             id="path212" /><path
             d="m 22240.3,7655.1 c 0.9,-204.3 -163.8,-370.4 -368.1,-371.3 l -5460.9,-23.9 c -182.8,-0.8 -331.6,146.7 -332.4,329.5 l -6.7,1524.6 c -0.8,201.3 161.6,365.2 362.9,366 l 5440.5,23.8 c 196.9,0.9 357.3,-158.1 358.1,-355 l 6.6,-1493.7 m -6260.6,1913.6 10.5,-2401.2 6342.7,27.7 -10.5,2401.2 -6342.7,-27.7"
             style="fill:#82b378;fill-opacity:1;fill-rule:nonzero;stroke:none"
             id="path214" /><path
             d="m 19164.3,9129.5 c -412.8,-1.8 -746,-337.9 -744.2,-750.8 1.8,-412.9 337.9,-746.1 750.8,-744.3 412.8,1.8 746,338 744.2,750.8 -1.8,412.9 -337.9,746.1 -750.8,744.3"
             style="fill:#82b378;fill-opacity:1;fill-rule:nonzero;stroke:none"
             id="path216" /><path
             d="m 22274.6,6856.5 v 0 l 490.2,2.2 -490.2,-2.2"
             style="fill:#c0d9bb;fill-opacity:1;fill-rule:nonzero;stroke:none"
             id="path218" /><path
             d="m 17150.5,6834.1 c 0.1,0 0.1,0 0.1,0 l 5124,22.4 v 0 l -5124.1,-22.4"
             style="fill:#b6d3b9;fill-opacity:1;fill-rule:nonzero;stroke:none"
             id="path220" /><path
             d="m 17150.6,6834.1 c 170.9,50.8 1116.6,112.4 2000.4,347.2 l 3181.9,13.9 -10.5,2401.2 -1061.9,-4.7 c -0.7,148.5 -15.8,243.2 -4,271.9 l 1495.1,6.5 13.2,-3011.4 -490.2,-2.2 -5124,-22.4 m 2313.6,439.2 c 459.5,149.3 872.5,354 1109.9,639.1 564,677 671.8,1241.9 684.9,1588.7 l 616.6,2.7 c 0.6,0 1.1,0 1.6,0 196.2,0 355.7,-158.7 356.5,-355 l 6.6,-1493.7 c 0.9,-204.3 -163.8,-370.4 -368.1,-371.3 l -2408,-10.5"
             style="fill:#95c28b;fill-opacity:1;fill-rule:nonzero;stroke:none"
             id="path222" /><path
             d="m 19151,7181.3 c 105.8,28.1 210.6,58.6 313.2,92 l 2408,10.5 c 204.3,0.9 369,167 368.1,371.3 l -6.6,1493.7 c -0.8,196.3 -160.3,355 -356.5,355 -0.5,0 -1,0 -1.6,0 l -616.6,-2.7 c 1.2,32.1 1.6,62.3 1.5,90.6 l 1061.9,4.7 10.5,-2401.2 -3181.9,-13.9"
             style="fill:#82b378;fill-opacity:1;fill-rule:nonzero;stroke:none"
             id="path224" /><path
             d="m 18380.7,7690.4 c -490.9,890.5 -1610.8,1214.5 -2501.3,723.6 -890.6,-491 -1214.5,-1610.8 -723.6,-2501.4 490.9,-890.5 1610.8,-1214.4 2501.3,-723.5 890.5,490.9 1214.5,1610.8 723.6,2501.3"
             style="fill:#e2810e;fill-opacity:1;fill-rule:nonzero;stroke:none"
             id="path226" /><path
             d="m 18240,7612.8 c -490.9,890.6 -1610.8,1214.5 -2501.3,723.6 -890.5,-490.9 -1214.5,-1610.8 -723.6,-2501.3 490.9,-890.5 1610.8,-1214.5 2501.3,-723.6 890.6,490.9 1214.5,1610.8 723.6,2501.3"
             style="fill:#ffb93e;fill-opacity:1;fill-rule:nonzero;stroke:none"
             id="path228" /><path
             d="m 16635.8,8283.1 c -262.8,0 -522.7,-66.3 -759.3,-196.7 -761.7,-419.9 -1039.8,-1381.3 -619.9,-2143 203.4,-369 538.4,-636.7 943.1,-753.8 404.8,-117.1 830.9,-69.6 1199.9,133.8 761.8,420 1039.9,1381.3 620,2143.1 -203.5,368.9 -538.4,636.7 -943.2,753.8 -145.3,42 -293.4,62.8 -440.6,62.8 z m 4.7,-3256.5 c -156.6,0 -314,22.1 -468.6,66.9 -430.4,124.5 -786.6,409.1 -1002.9,801.5 -216.4,392.5 -266.9,845.6 -142.4,1276.1 124.5,430.4 409.2,786.6 801.6,1002.9 392.4,216.4 845.6,266.9 1276,142.4 430.5,-124.5 786.7,-409.2 1003,-801.6 446.5,-810.1 150.8,-1832.4 -659.3,-2279 -251.5,-138.6 -528,-209.2 -807.4,-209.2"
             style="fill:#ffa412;fill-opacity:1;fill-rule:nonzero;stroke:none"
             id="path230" /><path
             d="m 17075.4,6390 c -13.7,33.8 -30.6,61.6 -50.5,83.4 -20,21.9 -45,38.9 -75.1,51 -30.2,12.1 -65.9,20 -107.2,23.9 -41.4,3.7 -90.1,4.1 -146.3,0.9 -96.9,-4.7 -186.6,-4.8 -269,-0.3 -82.4,4.4 -156.9,17.9 -223.5,40.5 -66.6,22.6 -125.2,56.8 -175.6,102.8 -50.4,46 -91.6,108.4 -123.6,187.2 -27.7,68.3 -40.9,135.5 -39.5,201.6 1.4,66.1 16.1,129.2 44.1,189.2 28,60.1 68.1,115.9 120.2,167.5 52.1,51.6 115.7,96.8 190.6,135.7 l -104.8,258 207.7,84.3 106.2,-261.6 c 78.3,20.5 153.8,28.2 226.4,23.1 72.6,-5.2 139.8,-22.8 201.5,-53 61.6,-30.3 117,-73 166.2,-128.4 49.2,-55.4 90.1,-123.3 122.8,-203.7 l -375.1,-152.2 c -39.2,96.4 -89.9,159.8 -152.1,190.3 -62.2,30.4 -129.3,31 -201.1,1.9 -38.9,-15.8 -70.3,-34.9 -93.9,-57.1 -23.8,-22.3 -40.9,-46.6 -51.4,-72.8 -10.5,-26.3 -14.8,-54 -13,-83.3 1.8,-29.2 8.7,-58.7 20.8,-88.4 12,-29.8 27.3,-54.9 45.7,-75.5 18.5,-20.6 42.4,-36.9 72,-48.8 29.5,-11.9 65.4,-19.7 107.8,-23.6 42.4,-3.8 93.5,-4.9 153.2,-3.1 96.6,2.8 186.1,1.6 268.2,-3.4 82.2,-5 156.7,-19 223.4,-42 66.8,-23 125.4,-57.5 175.8,-103.4 50.5,-46.1 91.5,-108 123.1,-186 28.8,-70.7 42.3,-139.2 40.4,-205.5 -1.8,-66.3 -16.9,-129 -45.2,-188.3 -28.4,-59.2 -69.3,-114.2 -122.8,-165 -53.4,-50.7 -117.7,-95.5 -192.6,-134.3 l 97.4,-239.9 -206.3,-83.8 -96.9,238.7 c -74.8,-22 -150.6,-34.5 -227.4,-37.6 -76.9,-3.1 -150.4,7.5 -220.8,31.8 -70.4,24.4 -135.1,64.8 -194.4,121.3 -59.1,56.4 -108.3,132.9 -147.5,229.3 l 375,152.3 c 23.2,-57.1 50.6,-101.5 82.1,-133.1 31.5,-31.7 65.3,-53.5 101.4,-65.6 36.1,-12 73.1,-15.7 111.1,-11 37.9,4.6 74.6,14.1 110.1,28.5 40.6,16.6 74.2,36.2 100.7,59.2 26.5,22.9 46.3,47.8 59.6,74.7 13.3,26.9 19.9,55.2 20,84.7 0.1,29.6 -5.8,59.2 -17.9,88.9"
             style="fill:#ffa412;fill-opacity:1;fill-rule:nonzero;stroke:none"
             id="path232" /><path
             d="m 14873.3,9382.2 c -65.8,761.2 -736.3,1324.9 -1497.5,1259.1 -761.3,-65.9 -1324.9,-736.4 -1259.1,-1497.6 65.9,-761.2 736.4,-1324.9 1497.6,-1259 761.2,65.8 1324.9,736.3 1259,1497.5"
             style="fill:#e2810e;fill-opacity:1;fill-rule:nonzero;stroke:none"
             id="path234" /><path
             d="m 14753.1,9371.8 c -65.9,761.2 -736.4,1324.9 -1497.6,1259.1 -761.2,-65.9 -1324.9,-736.4 -1259,-1497.6 65.9,-761.2 736.3,-1324.9 1497.6,-1259 761.2,65.8 1324.9,736.3 1259,1497.5"
             style="fill:#ffb93e;fill-opacity:1;fill-rule:nonzero;stroke:none"
             id="path236" /><path
             d="m 12195.3,9134.1 c 56.4,-651.2 632.1,-1135.2 1283.1,-1078.7 651.1,56.3 1135,631.9 1078.7,1283.1 -27.3,315.4 -175.8,601.3 -418.1,805 -242.4,203.8 -549.7,300.9 -865,273.6 -651.1,-56.3 -1135,-631.9 -1078.7,-1283 z m 1180,-1158.4 c -646.4,0 -1198.1,496.2 -1254.9,1151.9 -59.9,692.4 454.7,1304.5 1147.1,1364.5 335.5,29 662.1,-74.4 919.8,-291 257.7,-216.7 415.7,-520.7 444.7,-856.2 59.9,-692.4 -454.7,-1304.5 -1147.1,-1364.4 -36.8,-3.2 -73.4,-4.8 -109.6,-4.8"
             style="fill:#ffa412;fill-opacity:1;fill-rule:nonzero;stroke:none"
             id="path238" /><path
             d="m 13580.6,8886.8 c 0.9,27.3 -2.2,51.5 -9.3,72.6 -7,21.1 -19,40.4 -36,57.9 -17,17.5 -39.1,33.8 -66.4,49.1 -27.2,15.2 -60.6,30.3 -100.2,45.2 -67.9,26.3 -129.5,53.5 -184.8,81.7 -55.3,28.2 -102.3,60.1 -141.2,95.9 -38.9,35.8 -68.6,77.2 -89.2,124.1 -20.7,47 -30,102.4 -27.9,166.3 1.7,55.3 13.2,105.5 34.2,150.5 21.1,44.9 50.4,83.8 88,116.5 37.5,32.7 82,58.8 133.6,78.4 51.5,19.6 108.9,31.3 172.2,35.1 l 6.7,209.1 168.3,-5.3 -6.8,-212 c 60.1,-9.8 114.3,-27.5 162.6,-53.2 48.3,-25.6 89,-58.2 122.2,-97.7 33.1,-39.6 58.2,-85.8 75.1,-138.9 16.9,-53 24.3,-112.1 22.2,-177.2 l -304,9.6 c 2.5,78.2 -13,137.2 -46.4,177.1 -33.5,39.8 -79.4,60.7 -137.6,62.6 -31.5,1 -58.9,-2.6 -81.9,-10.7 -23.1,-8 -42.2,-19.5 -57.5,-34.3 -15.2,-14.9 -26.6,-32.6 -34.3,-53.2 -7.7,-20.6 -11.9,-43 -12.7,-67.1 -0.7,-24.1 2.1,-46 8.5,-65.8 6.4,-19.8 17.9,-38.2 34.6,-55.4 16.6,-17.1 38.9,-33.5 66.8,-49 28,-15.6 62.7,-31.9 104.3,-48.9 67.2,-27.5 128.3,-55.6 183.2,-84 54.9,-28.5 101.8,-60.8 140.6,-96.9 38.9,-36.2 68.6,-77.7 89.3,-124.6 20.6,-47 29.9,-102.1 27.9,-165.3 -1.8,-57.3 -13.5,-108.5 -34.9,-153.4 -21.4,-45 -50.9,-83.5 -88.4,-115.5 -37.6,-32.1 -82.4,-57.4 -134.6,-76 -52.2,-18.5 -109.9,-29.7 -173.2,-33.6 l -6.2,-194.4 -167.3,5.3 6.2,193.5 c -58.1,7.6 -113.9,22.2 -167.6,43.4 -53.8,21.3 -101.1,51 -142,89.1 -40.9,38.2 -73.1,85.7 -96.6,142.5 -23.4,56.8 -33.9,124.3 -31.4,202.5 l 304,-9.7 c -1.5,-46.2 3.8,-85 15.8,-116.4 11.9,-31.3 28.5,-56.7 49.7,-75.9 21.1,-19.3 45.4,-33.1 72.9,-41.4 27.4,-8.4 55.5,-13.1 84.3,-14 33,-1 62,2.3 87.2,10 25.1,7.6 46.4,18.7 63.7,33.2 17.3,14.4 30.5,31.8 39.6,52 9,20.3 14,42.4 14.7,66.6"
             style="fill:#ffa412;fill-opacity:1;fill-rule:nonzero;stroke:none"
             id="path240" /><path
             d="m 14469.3,13101.9 c -205.4,342.4 -649.6,453.4 -992,248 -342.4,-205.4 -453.5,-649.6 -248,-992 205.4,-342.4 649.5,-453.5 992,-248 342.4,205.4 453.4,649.5 248,992"
             style="fill:#e2810e;fill-opacity:1;fill-rule:nonzero;stroke:none"
             id="path242" /><path
             d="m 14415.2,13069.4 c -205.4,342.4 -649.6,453.5 -992,248.1 -342.4,-205.5 -453.5,-649.6 -248,-992.1 205.4,-342.4 649.5,-453.4 992,-248 342.4,205.5 453.5,649.6 248,992"
             style="fill:#ffb93e;fill-opacity:1;fill-rule:nonzero;stroke:none"
             id="path244" /><path
             d="m 13268.4,12371.4 c 175.7,-292.9 557,-388.2 849.9,-212.5 141.9,85.1 242.1,220.4 282.3,380.9 40.1,160.6 15.3,327.1 -69.8,469 -175.7,292.9 -557,388.2 -849.9,212.5 -292.9,-175.7 -388.2,-557 -212.5,-849.9 z m 532.3,-339.9 c -224,0 -442.6,114.1 -566,319.7 -186.9,311.5 -85.5,716.9 226,903.8 311.5,186.9 716.9,85.5 903.8,-226 90.5,-150.9 116.9,-328 74.2,-498.7 -42.7,-170.7 -149.3,-314.6 -300.2,-405.1 -105.8,-63.5 -222.5,-93.7 -337.8,-93.7"
             style="fill:#ffa412;fill-opacity:1;fill-rule:nonzero;stroke:none"
             id="path246" /><path
             d="m 13975.7,12572.8 c -5.8,13.1 -12.8,23.7 -21,32 -8.1,8.3 -18.2,14.6 -30.2,18.9 -12,4.4 -26.1,7 -42.4,7.9 -16.3,0.9 -35.4,0.3 -57.4,-1.8 -38,-3.2 -73.2,-4.5 -105.6,-4 -32.4,0.6 -61.8,4.8 -88.3,12.7 -26.5,7.9 -49.9,20.6 -70.4,37.9 -20.4,17.3 -37.5,41.2 -51.2,71.7 -11.8,26.3 -18,52.5 -18.4,78.5 -0.4,26 4.5,50.9 14.6,74.9 10.2,24 25.1,46.4 44.8,67.4 19.7,21 44,39.7 72.8,56 l -44.8,99.8 80.3,36 45.4,-101.1 c 30.5,9.2 60,13.3 88.6,12.3 28.5,-1 55.2,-6.9 79.8,-17.9 24.6,-11 47,-27 67.1,-48 20.1,-21 37.1,-47.1 51.1,-78.2 l -145,-65.1 c -16.8,37.3 -37.6,61.5 -62.4,72.5 -24.9,11 -51.2,10.4 -79,-2.1 -15,-6.8 -27.1,-14.7 -36.1,-23.8 -8.9,-9.1 -15.3,-18.9 -19,-29.3 -3.8,-10.5 -5.1,-21.4 -4,-32.9 1.1,-11.4 4.3,-22.9 9.5,-34.4 5.1,-11.5 11.5,-21.1 19,-28.9 7.5,-7.9 17.2,-13.9 28.9,-18.1 11.8,-4.3 26,-6.9 42.7,-7.7 16.7,-1 36.8,-0.6 60.2,0.9 37.8,2.5 73,3.3 105.3,2.5 32.3,-0.8 61.7,-5.2 88.2,-13.2 26.6,-8.1 50.1,-20.8 70.5,-38.1 20.5,-17.3 37.5,-41.1 51,-71.2 12.3,-27.4 18.6,-54.1 18.8,-80.1 0.2,-26 -4.8,-50.9 -15.1,-74.5 -10.2,-23.7 -25.5,-45.9 -45.8,-66.5 -20.2,-20.7 -44.8,-39.2 -73.6,-55.5 l 41.7,-92.8 -79.8,-35.8 -41.5,92.3 c -29,-9.7 -58.6,-15.7 -88.7,-18.1 -30.1,-2.3 -59.1,0.8 -87.1,9.4 -27.9,8.5 -53.9,23.4 -78,44.8 -24,21.3 -44.4,50.6 -61.2,87.8 l 145,65.2 c 9.9,-22.1 21.3,-39.1 34.1,-51.1 12.8,-11.9 26.4,-20 40.8,-24.2 14.3,-4.2 28.9,-5.1 43.7,-2.8 14.8,2.4 29.1,6.6 42.8,12.8 15.7,7.1 28.6,15.3 38.7,24.7 10,9.3 17.5,19.4 22.3,30.2 4.8,10.7 7,21.9 6.6,33.5 -0.3,11.6 -3.1,23.1 -8.3,34.6"
             style="fill:#ffa412;fill-opacity:1;fill-rule:nonzero;stroke:none"
             id="path248" /><path
             d="m 17075.3,15650.7 c -386.5,100.1 -781.1,-132.1 -881.2,-518.7 -100.1,-386.5 132.1,-781.1 518.6,-881.2 386.6,-100.1 781.1,132.1 881.3,518.6 100.1,386.6 -132.1,781.1 -518.7,881.3"
             style="fill:#e2810e;fill-opacity:1;fill-rule:nonzero;stroke:none"
             id="path250" /><path
             d="m 17014.3,15666.5 c -386.6,100.1 -781.1,-132.1 -881.3,-518.6 -100.1,-386.6 132.1,-781.2 518.7,-881.3 386.5,-100.1 781.1,132.1 881.2,518.6 100.1,386.6 -132.1,781.2 -518.6,881.3"
             style="fill:#ffb93e;fill-opacity:1;fill-rule:nonzero;stroke:none"
             id="path252" /><path
             d="m 16829.8,15578 c -109.1,0 -216.7,-29.1 -313.2,-85.8 -142.6,-84 -243.9,-218.4 -285.4,-378.6 -41.5,-160.2 -18.2,-326.9 65.8,-469.5 83.9,-142.6 218.3,-244 378.5,-285.5 51.9,-13.4 104,-19.9 155.2,-19.9 275.5,0 527.6,185.5 599.8,464.2 85.7,330.7 -113.7,669.4 -444.3,755 -51.8,13.5 -104.3,20.1 -156.4,20.1 z m 0.9,-1278.6 c -54.5,0 -109.9,6.9 -165.1,21.2 -170.3,44.1 -313.3,151.9 -402.5,303.5 -89.3,151.7 -114.1,329 -70,499.4 44.1,170.3 152,313.3 303.6,402.5 151.6,89.3 329,114.1 499.3,70 170.4,-44.1 313.3,-151.9 402.6,-303.6 89.2,-151.6 114.1,-329 70,-499.3 -76.8,-296.5 -344.9,-493.7 -637.9,-493.7"
             style="fill:#ffa412;fill-opacity:1;fill-rule:nonzero;stroke:none"
             id="path254" /><path
             d="m 16870.7,14750.4 c 5.2,13.4 7.9,25.9 8.1,37.5 0.1,11.6 -2.4,23.2 -7.7,34.8 -5.3,11.6 -13.4,23.5 -24.2,35.7 -10.8,12.2 -24.6,25.5 -41.5,39.8 -28.9,24.7 -54.5,48.9 -76.8,72.4 -22.3,23.5 -39.9,47.5 -52.9,71.9 -12.9,24.4 -20.3,49.9 -22.3,76.7 -2,26.7 3,55.6 15.2,86.7 10.5,27 24.9,49.7 43.1,68.2 18.2,18.5 39.4,32.6 63.6,42.1 24.2,9.6 50.7,14.7 79.5,15.4 28.8,0.7 59.1,-3.6 91,-12.7 l 39.7,101.9 82,-32 -40.3,-103.3 c 27.9,-15.2 51.5,-33.4 70.9,-54.5 19.3,-21 33.7,-44.2 43.2,-69.4 9.4,-25.3 13.7,-52.4 12.8,-81.5 -0.9,-29.1 -7.6,-59.5 -19.9,-91.2 l -148.1,57.7 c 14.8,38.1 17.5,69.8 7.9,95.3 -9.6,25.5 -28.5,43.8 -56.9,54.8 -15.3,6 -29.4,9 -42.2,9 -12.8,0.1 -24.2,-2.2 -34.3,-6.9 -10.1,-4.6 -18.8,-11.4 -26.2,-20.2 -7.3,-8.8 -13.3,-19.1 -17.9,-30.9 -4.6,-11.7 -7,-23 -7.3,-33.9 -0.3,-10.8 2.2,-21.9 7.4,-33.3 5.2,-11.3 13.3,-23.3 24.4,-35.8 11.1,-12.5 25.3,-26.6 42.9,-42.2 28.3,-25.3 53.5,-49.8 75.6,-73.3 22.1,-23.6 39.6,-47.7 52.4,-72.3 12.9,-24.6 20.3,-50.2 22.3,-77 2,-26.7 -3,-55.4 -15,-86.2 -10.9,-27.9 -25.6,-51.1 -43.9,-69.5 -18.4,-18.5 -39.7,-32.3 -63.7,-41.6 -24.1,-9.2 -50.6,-13.9 -79.6,-14 -28.9,0 -59.3,4.5 -91.2,13.7 l -36.9,-94.8 -81.5,31.8 36.7,94.2 c -27.2,13.9 -52.2,30.8 -75,50.7 -22.8,19.8 -40.9,42.7 -54.4,68.6 -13.5,25.9 -21.1,54.9 -22.8,87 -1.7,32.1 4.9,67.2 19.8,105.3 l 148.1,-57.7 c -8.8,-22.6 -13,-42.6 -12.5,-60.2 0.4,-17.5 4.2,-32.8 11.3,-46 7,-13.2 16.6,-24.2 28.7,-33.1 12,-9 25.1,-16.1 39.1,-21.6 16,-6.2 31,-9.7 44.7,-10.3 13.7,-0.6 26.1,1.2 37.2,5.3 11,4.1 20.5,10.3 28.5,18.7 8,8.4 14.3,18.5 18.9,30.2"
             style="fill:#ffa412;fill-opacity:1;fill-rule:nonzero;stroke:none"
             id="path256" /><path
             d="m 18484.5,9559 c -161.8,269.6 -74.3,619.4 195.3,781.2 269.7,161.7 619.5,74.3 781.3,-195.4 161.8,-269.6 74.3,-619.4 -195.4,-781.2 -269.6,-161.8 -619.4,-74.3 -781.2,195.4"
             style="fill:#e2810e;fill-opacity:1;fill-rule:nonzero;stroke:none"
             id="path258" /><path
             d="m 18441.9,9533.4 c -161.8,269.7 -74.3,619.4 195.4,781.2 269.6,161.8 619.4,74.3 781.2,-195.3 161.8,-269.7 74.3,-619.4 -195.4,-781.2 -269.6,-161.8 -619.4,-74.4 -781.2,195.3"
             style="fill:#ffb93e;fill-opacity:1;fill-rule:nonzero;stroke:none"
             id="path260" /><path
             d="m 18515.3,9569.6 c 138.4,-230.7 438.7,-305.8 669.3,-167.4 230.7,138.4 305.8,438.7 167.4,669.3 -138.4,230.7 -438.7,305.8 -669.3,167.4 -230.7,-138.4 -305.8,-438.6 -167.4,-669.3 z m 419.2,-267.7 c -176.4,0 -348.6,89.8 -445.7,251.8 -147.2,245.3 -67.3,564.6 178,711.7 245.3,147.2 564.6,67.4 711.7,-177.9 147.2,-245.3 67.3,-564.6 -177.9,-711.8 -83.4,-50 -175.3,-73.8 -266.1,-73.8"
             style="fill:#ffa412;fill-opacity:1;fill-rule:nonzero;stroke:none"
             id="path262" /><path
             d="m 19072.4,9728.2 c -4.7,10.3 -10.2,18.7 -16.6,25.2 -6.4,6.5 -14.3,11.5 -23.8,14.9 -9.4,3.4 -20.6,5.4 -33.4,6.2 -12.8,0.7 -27.9,0.2 -45.2,-1.4 -29.9,-2.5 -57.6,-3.6 -83.1,-3.1 -25.5,0.4 -48.7,3.7 -69.6,10 -20.8,6.2 -39.3,16.1 -55.4,29.7 -16.1,13.7 -29.5,32.5 -40.3,56.5 -9.3,20.8 -14.2,41.4 -14.5,61.8 -0.3,20.5 3.5,40.1 11.5,59 8,18.9 19.7,36.6 35.3,53.1 15.5,16.6 34.6,31.3 57.3,44.1 l -35.3,78.6 63.2,28.4 35.8,-79.7 c 24,7.3 47.2,10.5 69.8,9.7 22.5,-0.7 43.4,-5.4 62.8,-14.1 19.4,-8.6 37,-21.2 52.9,-37.8 15.8,-16.5 29.2,-37.1 40.2,-61.5 l -114.2,-51.3 c -13.2,29.3 -29.6,48.4 -49.2,57.1 -19.6,8.7 -40.3,8.1 -62.1,-1.7 -11.9,-5.3 -21.4,-11.6 -28.4,-18.7 -7.1,-7.2 -12.1,-14.9 -15.1,-23.1 -2.9,-8.2 -3.9,-16.9 -3.1,-25.9 0.9,-9 3.4,-18 7.5,-27.1 4,-9 9,-16.6 15,-22.8 5.9,-6.1 13.5,-10.9 22.7,-14.2 9.3,-3.4 20.5,-5.4 33.7,-6.1 13.1,-0.7 28.9,-0.5 47.3,0.8 29.8,1.9 57.5,2.6 83,1.9 25.4,-0.6 48.6,-4.1 69.5,-10.4 20.9,-6.4 39.4,-16.4 55.5,-30 16.1,-13.7 29.5,-32.3 40.1,-56.1 9.7,-21.5 14.6,-42.5 14.8,-63 0.2,-20.5 -3.7,-40.1 -11.8,-58.7 -8.1,-18.7 -20.1,-36.1 -36.1,-52.4 -16,-16.3 -35.3,-30.8 -58,-43.7 l 32.8,-73.1 -62.8,-28.2 -32.7,72.7 c -22.8,-7.6 -46.1,-12.4 -69.8,-14.2 -23.7,-1.8 -46.6,0.6 -68.6,7.4 -22,6.7 -42.5,18.4 -61.4,35.2 -19,16.8 -35,39.9 -48.2,69.2 l 114.2,51.3 c 7.8,-17.3 16.7,-30.7 26.8,-40.2 10.1,-9.4 20.8,-15.8 32.1,-19.1 11.3,-3.3 22.8,-4 34.5,-2.2 11.6,1.9 22.8,5.3 33.7,10.1 12.3,5.6 22.5,12.1 30.4,19.4 7.9,7.4 13.8,15.4 17.6,23.8 3.8,8.5 5.5,17.3 5.2,26.4 -0.3,9.1 -2.5,18.2 -6.5,27.3"
             style="fill:#ffa412;fill-opacity:1;fill-rule:nonzero;stroke:none"
             id="path264" /><path
             d="m 11985,10111.9 c 0,0 -397,279.6 -694.5,224.8 C 10993,10281.9 10671,9899 10671,9899 c 0,0 594,-65.7 814.2,17.7 220.2,83.3 499.8,195.2 499.8,195.2"
             style="fill:#ffa412;fill-opacity:1;fill-rule:nonzero;stroke:none"
             id="path266" /><path
             d="m 18529.8,10688.3 c 0,0 677.2,368.2 935.6,246.2 258.3,-122 395.3,-411.7 395.3,-411.7 0,0 -313.2,-31.3 -555.8,-19.6 -242.7,11.8 -407.1,229.2 -775.1,185.1"
             style="fill:#82b378;fill-opacity:1;fill-rule:nonzero;stroke:none"
             id="path268" /><path
             d="m 19610.2,13512.6 c 0,0 452.5,224 655.6,171.8 203,-52.2 408.2,-171.8 408.2,-171.8 0,0 -252.2,-151.8 -497.5,-141.4 -245.3,10.5 -566.3,141.4 -566.3,141.4"
             style="fill:#ffa412;fill-opacity:1;fill-rule:nonzero;stroke:none"
             id="path270" /><path
             d="m 16658.7,15819 c 0,0 -233.6,289.7 -152,501.1 81.5,211.4 152,321 152,321 0,0 213.9,-242.7 204.8,-411 -9.1,-168.4 -204.8,-411.1 -204.8,-411.1"
             style="fill:#ffa412;fill-opacity:1;fill-rule:nonzero;stroke:none"
             id="path272" /><path
             d="m 17617.3,15308.3 c 0,0 -54.7,364.6 114.4,469 169.2,104.4 440.6,104.4 440.6,104.4 0,0 -41.8,-308 -156.6,-375.8 -114.8,-67.9 -348,-105 -398.4,-197.6"
             style="fill:#82b378;fill-opacity:1;fill-rule:nonzero;stroke:none"
             id="path274" /><path
             d="m 15010.3,5594.5 c 0,0 228.8,-323.6 239.2,-438.4 10.4,-114.8 -322.8,-407.1 -322.8,-407.1 0,0 -107.8,281.8 -60.8,422.8 47,140.9 144.4,422.7 144.4,422.7"
             style="fill:#82b378;fill-opacity:1;fill-rule:nonzero;stroke:none"
             id="path276" /><path
             d="m 14585,7443.1 c 0,0 -340,-114.8 -387,-302.7 -47,-187.9 -31.3,-322.4 -31.3,-322.4 0,0 492.2,238.9 418.3,625.1"
             style="fill:#82b378;fill-opacity:1;fill-rule:nonzero;stroke:none"
             id="path278" /><path
             d="m 14688.6,7443.1 c 0,0 105,-120.1 107.3,-203.6 2.3,-83.5 -53.6,-156.2 -53.6,-156.2 0,0 -123.9,99.6 -53.7,359.8"
             style="fill:#82b378;fill-opacity:1;fill-rule:nonzero;stroke:none"
             id="path280" /></g></g><path
         d="m 18994,2296 v -202.1 c 0,-16.1 -4.9,-31.1 -13.4,-43.5 -8.9,-13.1 -21.6,-23.4 -36.5,-29.2 -4.6,-1.8 -9.4,-3.1 -14.3,-4 -4.5,-0.8 -9,-1.2 -13.7,-1.2 l -3220.2,0.4 c -12.9,0 -25.1,3.2 -35.9,8.9 -22.8,11.9 -39.1,34.8 -41.6,61.6 -0.2,1.1 -0.2,2.3 -0.3,3.5 0,1.3 -0.1,2.6 -0.1,4 l 0.1,202.1 c 0,1.4 0,2.7 0,4 2.2,41 36.4,73.9 77.9,73.9 l 3220.1,-0.5 c 4.7,0 9.3,-0.4 13.8,-1.2 4.9,-0.9 9.6,-2.2 14.2,-4 15,-5.8 27.7,-16.1 36.6,-29.2 8.4,-12.4 13.3,-27.4 13.3,-43.5"
         style="fill:#ffb93e;fill-opacity:1;fill-rule:nonzero;stroke:none"
         id="path282" /><path
         d="m 17412.7,2016.2 -1725.1,0.2 c -11.6,0 -22.5,3.2 -32.1,8.9 -20.3,11.9 -34.9,34.8 -37.1,61.6 -0.2,1.1 -0.2,2.3 -0.3,3.5 0,1.3 -0.1,2.6 -0.1,4 l 0.1,202.1 c 0,1.4 0,2.7 0,4 1.9,41 32.5,73.9 69.5,73.9 l 1513.3,-0.2 c 23.5,-102.5 77.4,-243.2 201.2,-349.2 3.5,-3 7,-5.9 10.6,-8.8"
         style="fill:#ffa412;fill-opacity:1;fill-rule:nonzero;stroke:none"
         id="path284" /><path
         d="m 18602.1,2016 h -36.6 l 0.1,358 h 36.6 l -0.1,-358"
         style="fill:#ffa412;fill-opacity:1;fill-rule:nonzero;stroke:none"
         id="path286" /><path
         d="m 18478.3,2016 h -36.6 v 358 h 36.6 v -358"
         style="fill:#ffa412;fill-opacity:1;fill-rule:nonzero;stroke:none"
         id="path288" /><path
         d="m 18329.7,2016 h -36.6 v 358 h 36.7 l -0.1,-358"
         style="fill:#ffa412;fill-opacity:1;fill-rule:nonzero;stroke:none"
         id="path290" /><path
         d="m 18102,2016.1 h -36.6 v 358 h 36.6 v -358"
         style="fill:#ffa412;fill-opacity:1;fill-rule:nonzero;stroke:none"
         id="path292" /><path
         d="m 17861.2,2016.1 h -36.6 v 358 h 36.6 v -358"
         style="fill:#ffa412;fill-opacity:1;fill-rule:nonzero;stroke:none"
         id="path294" /><path
         d="m 17492,2016.2 h -36.6 l 0.1,358 36.6,-0.1 -0.1,-357.9"
         style="fill:#ffa412;fill-opacity:1;fill-rule:nonzero;stroke:none"
         id="path296" /><path
         d="m 17146.4,2016.2 h -36.6 v 358 h 36.6 v -358"
         style="fill:#ffa412;fill-opacity:1;fill-rule:nonzero;stroke:none"
         id="path298" /><path
         d="m 16837.7,2016.3 h -36.5 v 357.9 h 36.6 l -0.1,-357.9"
         style="fill:#ffa412;fill-opacity:1;fill-rule:nonzero;stroke:none"
         id="path300" /><path
         d="m 18720.1,2016 h -36.6 v 358 h 36.6 v -358"
         style="fill:#ffa412;fill-opacity:1;fill-rule:nonzero;stroke:none"
         id="path302" /><path
         d="m 18798,2016 h -36.6 v 358 l 36.6,-0.1 V 2016"
         style="fill:#ffa412;fill-opacity:1;fill-rule:nonzero;stroke:none"
         id="path304" /><path
         d="m 18873.2,2015.9 -36.6,0.1 0.1,357.9 h 36.6 l -0.1,-358"
         style="fill:#ffa412;fill-opacity:1;fill-rule:nonzero;stroke:none"
         id="path306" /><path
         d="m 18929.9,2372.7 -0.1,-355.5 c -4.5,-0.8 -9,-1.2 -13.7,-1.2 h -22.9 l 0.1,358 h 22.8 c 4.7,-0.1 9.3,-0.5 13.8,-1.3"
         style="fill:#ffa412;fill-opacity:1;fill-rule:nonzero;stroke:none"
         id="path308" /><path
         d="m 18980.7,2339.5 -0.1,-289.1 c -8.9,-13.1 -21.6,-23.4 -36.5,-29.2 v 347.5 c 15,-5.8 27.7,-16.1 36.6,-29.2"
         style="fill:#ffa412;fill-opacity:1;fill-rule:nonzero;stroke:none"
         id="path310" /><path
         d="m 18641.7,2654 v -202.2 c -0.1,-16.1 -5,-31 -13.4,-43.5 -8.9,-13.1 -21.6,-23.3 -36.6,-29.1 -4.6,-1.8 -9.3,-3.2 -14.2,-4 -4.5,-0.8 -9.1,-1.3 -13.8,-1.3 l -3220.1,0.5 c -41.5,0 -75.7,32.9 -77.8,73.9 -0.1,1.4 -0.1,2.7 -0.1,4 v 202.2 c 0,1.3 0.1,2.7 0.1,4 1.9,37.9 31.4,68.9 68.6,73.3 3,0.4 6.1,0.6 9.2,0.6 l 3220.2,-0.5 c 4.7,0 9.2,-0.4 13.7,-1.2 4.9,-0.9 9.7,-2.2 14.3,-4 14.9,-5.8 27.7,-16.1 36.5,-29.2 8.5,-12.5 13.4,-27.4 13.4,-43.5"
         style="fill:#ffb93e;fill-opacity:1;fill-rule:nonzero;stroke:none"
         id="path312" /><path
         d="m 17060.4,2374.2 -1725.2,0.2 c -37,0 -67.6,32.9 -69.4,73.9 -0.1,1.4 -0.1,2.7 -0.1,4 v 202.2 c 0,1.3 0.1,2.7 0.1,4 1.7,37.9 28,68.9 61.3,73.3 2.6,0.4 5.4,0.6 8.2,0.6 l 1513.3,-0.2 0.1,-0.6 c 24.2,-105.3 80.5,-250.7 211.7,-357.4"
         style="fill:#ffa412;fill-opacity:1;fill-rule:nonzero;stroke:none"
         id="path314" /><path
         d="m 18249.8,2374 h -36.6 l 0.1,358 h 36.5 v -358"
         style="fill:#ffa412;fill-opacity:1;fill-rule:nonzero;stroke:none"
         id="path316" /><path
         d="m 18125.9,2374 h -36.6 l 0.1,358 h 36.6 l -0.1,-358"
         style="fill:#ffa412;fill-opacity:1;fill-rule:nonzero;stroke:none"
         id="path318" /><path
         d="m 17977.4,2374 h -36.6 v 358 h 36.6 v -358"
         style="fill:#ffa412;fill-opacity:1;fill-rule:nonzero;stroke:none"
         id="path320" /><path
         d="m 17749.6,2374.1 h -36.6 l 0.1,358 36.6,-0.1 -0.1,-357.9"
         style="fill:#ffa412;fill-opacity:1;fill-rule:nonzero;stroke:none"
         id="path322" /><path
         d="m 17508.8,2374.1 h -36.6 l 0.1,358 h 36.6 l -0.1,-358"
         style="fill:#ffa412;fill-opacity:1;fill-rule:nonzero;stroke:none"
         id="path324" /><path
         d="m 17139.7,2374.1 -36.6,0.1 v 357.9 h 36.6 v -358"
         style="fill:#ffa412;fill-opacity:1;fill-rule:nonzero;stroke:none"
         id="path326" /><path
         d="m 16794,2374.2 h -36.6 l 0.1,358 h 36.6 l -0.1,-358"
         style="fill:#ffa412;fill-opacity:1;fill-rule:nonzero;stroke:none"
         id="path328" /><path
         d="m 16485.4,2374.2 h -36.6 l 0.1,358 h 36.6 l -0.1,-358"
         style="fill:#ffa412;fill-opacity:1;fill-rule:nonzero;stroke:none"
         id="path330" /><path
         d="m 18367.7,2374 h -36.6 l 0.1,358 36.6,-0.1 -0.1,-357.9"
         style="fill:#ffa412;fill-opacity:1;fill-rule:nonzero;stroke:none"
         id="path332" /><path
         d="m 18445.6,2373.9 -36.6,0.1 0.1,358 36.6,-0.1 -0.1,-358"
         style="fill:#ffa412;fill-opacity:1;fill-rule:nonzero;stroke:none"
         id="path334" /><path
         d="m 18520.8,2373.9 -36.5,0.1 v 357.9 h 36.6 l -0.1,-358"
         style="fill:#ffa412;fill-opacity:1;fill-rule:nonzero;stroke:none"
         id="path336" /><path
         d="m 18577.5,2730.7 v -355.5 c -4.5,-0.8 -9.1,-1.3 -13.8,-1.3 l -22.9,0.1 0.1,357.9 h 22.9 c 4.7,0 9.2,-0.4 13.7,-1.2"
         style="fill:#ffa412;fill-opacity:1;fill-rule:nonzero;stroke:none"
         id="path338" /><path
         d="m 18628.3,2697.5 v -289.1 c -8.9,-13.1 -21.6,-23.4 -36.6,-29.2 l 0.1,347.5 c 14.9,-5.8 27.7,-16.1 36.5,-29.2"
         style="fill:#ffa412;fill-opacity:1;fill-rule:nonzero;stroke:none"
         id="path340" /><path
         d="m 18977.7,3011.4 v -202.1 c 0,-16.1 -4.9,-31.1 -13.4,-43.5 -8.9,-13.1 -21.6,-23.4 -36.6,-29.2 -4.5,-1.8 -9.3,-3.1 -14.2,-4 -1.5,-0.2 -3,-0.5 -4.5,-0.6 l -2.6,-0.3 -2.5,-0.2 c -1.4,-0.1 -2.8,-0.1 -4.2,-0.1 l -3220.1,0.5 c -41.5,0 -75.7,32.9 -77.8,73.9 -0.1,1.3 -0.1,2.7 -0.1,4 V 3012 c 0,1.3 0.1,2.6 0.1,4 0.1,1.1 0.1,2.1 0.2,3.2 3.1,33 27.1,60.2 58.4,68.2 l 2.4,0.6 c 5.4,1.2 11.1,1.9 16.8,1.9 l 3220.2,-0.5 c 2.3,0 4.7,-0.2 7,-0.3 1,-0.2 2,-0.2 3.1,-0.4 v 0 c 1.2,-0.2 2.4,-0.4 3.6,-0.6 4.9,-0.8 9.7,-2.2 14.3,-4 14.9,-5.8 27.7,-16.1 36.6,-29.1 8.4,-12.5 13.3,-27.4 13.3,-43.6"
         style="fill:#ffb93e;fill-opacity:1;fill-rule:nonzero;stroke:none"
         id="path342" /><path
         d="m 17396.4,2731.6 -1725.2,0.3 c -37,0 -67.5,32.9 -69.4,73.9 -0.1,1.3 -0.1,2.7 -0.1,4 V 3012 c 0,1.3 0.1,2.6 0.1,4 0.1,1.1 0.1,2.1 0.2,3.2 2.8,33.7 25.1,61.4 54,68.7 1,0.3 2,0.5 3,0.7 4,0.8 8.1,1.3 12.3,1.3 l 1513.3,-0.3 0.6,-2.5 c 24.4,-105 80.7,-249 210.5,-354.9 l 0.7,-0.6"
         style="fill:#ffa412;fill-opacity:1;fill-rule:nonzero;stroke:none"
         id="path344" /><path
         d="m 18585.8,2731.4 h -36.6 l 0.1,358 h 36.6 l -0.1,-358"
         style="fill:#ffa412;fill-opacity:1;fill-rule:nonzero;stroke:none"
         id="path346" /><path
         d="m 18461.9,2731.5 h -36.6 l 0.1,358 36.6,-0.1 -0.1,-357.9"
         style="fill:#ffa412;fill-opacity:1;fill-rule:nonzero;stroke:none"
         id="path348" /><path
         d="m 18313.4,2731.5 h -36.6 v 358 h 36.6 v -358"
         style="fill:#ffa412;fill-opacity:1;fill-rule:nonzero;stroke:none"
         id="path350" /><path
         d="m 18085.6,2731.5 h -36.5 v 358 h 36.6 l -0.1,-358"
         style="fill:#ffa412;fill-opacity:1;fill-rule:nonzero;stroke:none"
         id="path352" /><path
         d="m 17844.8,2731.5 -36.5,0.1 v 358 l 36.6,-0.1 -0.1,-358"
         style="fill:#ffa412;fill-opacity:1;fill-rule:nonzero;stroke:none"
         id="path354" /><path
         d="m 17475.7,2731.6 h -36.6 l 0.1,358 h 36.6 l -0.1,-358"
         style="fill:#ffa412;fill-opacity:1;fill-rule:nonzero;stroke:none"
         id="path356" /><path
         d="m 17130,2731.7 h -36.5 v 357.9 h 36.6 l -0.1,-357.9"
         style="fill:#ffa412;fill-opacity:1;fill-rule:nonzero;stroke:none"
         id="path358" /><path
         d="m 16821.4,2731.7 h -36.6 l 0.1,358 h 36.6 l -0.1,-358"
         style="fill:#ffa412;fill-opacity:1;fill-rule:nonzero;stroke:none"
         id="path360" /><path
         d="m 18703.8,2731.4 h -36.7 l 0.1,358 h 36.6 v -358"
         style="fill:#ffa412;fill-opacity:1;fill-rule:nonzero;stroke:none"
         id="path362" /><path
         d="m 18781.7,2731.4 h -36.7 l 0.1,358 h 36.6 v -358"
         style="fill:#ffa412;fill-opacity:1;fill-rule:nonzero;stroke:none"
         id="path364" /><path
         d="m 18856.9,2731.4 h -36.6 v 358 h 36.6 v -358"
         style="fill:#ffa412;fill-opacity:1;fill-rule:nonzero;stroke:none"
         id="path366" /><path
         d="m 18913.5,3088.1 v -355.4 c -4.5,-0.9 -9.1,-1.3 -13.8,-1.3 h -22.8 v 358 h 22.9 c 4.7,0 9.3,-0.4 13.7,-1.3"
         style="fill:#ffa412;fill-opacity:1;fill-rule:nonzero;stroke:none"
         id="path368" /><path
         d="m 18964.3,3055 v -289.2 c -8.9,-13.1 -21.6,-23.4 -36.6,-29.2 l 0.1,347.5 c 14.9,-5.7 27.7,-16 36.5,-29.1"
         style="fill:#ffa412;fill-opacity:1;fill-rule:nonzero;stroke:none"
         id="path370" /><path
         d="M 8971.05,2274.9 H 7591.78 v 116.9 h 1379.27 v -116.9"
         style="fill:#ffa412;fill-opacity:1;fill-rule:nonzero;stroke:none"
         id="path372" /><path
         d="m 15671.7,2214.1 h 1176.5 v 527.301 h -1176.5 z"
         style="fill:#ffa412;fill-opacity:1;fill-rule:nonzero;stroke:none"
         id="path374" /><path
         d="m 17026.4,2404.2 77.1,-70.8 -10.7,-102.6 -451,13.1 -43,190.9 427.6,-30.6"
         style="fill:#ffa412;fill-opacity:1;fill-rule:nonzero;stroke:none"
         id="path376" /><path
         d="m 9582.1,11622.4 c -0.86,23.5 -19.06,277 -405.26,290.3 0,0 142.32,-21.2 211.09,-97.5 0,0 -117.68,94.5 -222.98,61.4 -105.31,-33.2 -167.16,-217.7 -167.78,-278.4 -0.62,-60.7 57.89,-256.3 124.71,-272.9 25.32,-6.3 54.48,-4.7 80.95,-0.1 -17.77,-27.8 -35.2,-58.4 -51.87,-92.6 -154.1,-316.4 4.82,-625.5 135.28,-591.4 83.67,21.9 107.34,-120.8 107.34,-120.8 l 812.92,658 c 0,0 -298.6,617.9 -624.4,444"
         style="fill:#2c3a64;fill-opacity:1;fill-rule:nonzero;stroke:none"
         id="path378" /><path
         d="m 16326.6,2013.2 -2530,3.2 h 1890.1 c 0.3,0 0.6,0 0.9,0 l 638.3,-0.1 c 0.3,-1.1 0.5,-2 0.7,-3.1 M 15271,3201.5 c -267.8,267 -597.7,534.1 -980.8,727.4 -0.7,0.3 -1.3,0.7 -2,1 -56.3,28.3 -110.7,54 -163.6,76.3 -24.8,10.7 -49.8,21 -75,31 162.3,703.9 424.1,1183 716.2,1574.9 56.9,-72 114.3,-148.2 171.9,-228.7 -25.7,-75 -52.9,-154.8 -71.8,-211.6 -47,-141 60.8,-422.8 60.8,-422.8 0,0 161.3,141.5 255.9,266.2 261.3,-422.3 518.1,-938.7 742.5,-1568 -177.2,-23.3 -360.2,-67.1 -548.3,-134.8 L 15271,3201.5 m -1212.3,2847.8 c -0.1,0.9 -0.5,4.4 -1.2,10.2 -4.4,35.7 -21.1,160.8 -56.8,337.9 60.6,-49.1 124.8,-104 192.1,-165.5 -45.6,-60.2 -90.2,-120.9 -134.1,-182.6"
         style="fill:#cde0fb;fill-opacity:1;fill-rule:nonzero;stroke:none"
         id="path380" /><path
         d="m 15271,3201.5 c -267.8,267 -597.7,534.1 -980.8,727.4 -0.7,0.3 -1.4,0.7 -2,1 0.7,-0.3 1.3,-0.7 2,-1 383.1,-193.3 713,-460.4 980.8,-727.4 v 0 m -1146.4,804.7 c -25.4,10.7 -50.5,20.7 -75.3,29.8 0.1,0.4 0.2,0.7 0.3,1.2 25.2,-10 50.2,-20.3 75,-31"
         style="fill:#accfcd;fill-opacity:1;fill-rule:nonzero;stroke:none"
         id="path382" /><path
         d="m 15169.3,3094.8 c -180.9,39.9 -356.5,58.1 -526.1,58.1 -100.1,0 -198.2,-6.4 -294.1,-18.3 18.6,91.5 4.3,194.5 -44.4,303.4 -61,136.5 -184.9,210.7 -326.6,234.2 12,73.3 24.9,144.5 38.8,213.5 349.7,-138 690,-356.4 1011.7,-649.2 0.9,-0.9 59.6,-53.4 145,-137.2 l -4.3,-4.5 m 41.6,43.7 c -80.2,81.9 -136.1,134.8 -143.4,141.2 -328.4,299 -676.5,521.9 -1034.8,662.4 -1.3,0.5 -2.6,1 -3.8,1.5 6.6,31.2 13.4,62 20.4,92.4 24.8,-9.1 49.9,-19.1 75.3,-29.8 52.9,-22.3 107.3,-48 163.6,-76.3 0.6,-0.3 1.3,-0.7 2,-1 383.1,-193.3 713,-460.4 980.8,-727.4 l -60.1,-63"
         style="fill:#99c0ba;fill-opacity:1;fill-rule:nonzero;stroke:none"
         id="path384" /><path
         d="m 15173.6,3099.3 c -85.4,83.8 -144.1,136.3 -145,137.2 -321.7,292.8 -662,511.2 -1011.7,649.2 4,19.6 7.9,38.7 12,57.9 1.2,-0.5 2.5,-1 3.8,-1.5 358.3,-140.5 706.4,-363.4 1034.8,-662.4 7.3,-6.4 63.2,-59.3 143.4,-141.2 l -37.3,-39.2"
         style="fill:#99c0ba;fill-opacity:1;fill-rule:nonzero;stroke:none"
         id="path386" /><path
         d="m 13914.5,3039.8 c 8.5,252.9 36.8,453.3 36.8,453.3 8.3,61.1 17.2,120.8 26.8,179.1 141.7,-23.5 265.6,-97.7 326.6,-234.2 48.7,-108.9 63,-211.9 44.4,-303.4 -150.2,-18.7 -295.1,-51.2 -434.6,-94.8"
         style="fill:#99c0ba;fill-opacity:1;fill-rule:nonzero;stroke:none"
         id="path388" /><path
         d="m 13782.6,2994.8 c 38.1,525.9 65.5,1204 26.1,1881.7 195.7,436.6 436.8,762.1 685.1,1055.1 88.4,-96.1 179.5,-202.3 272,-319.5 -292.1,-391.9 -553.9,-871 -716.2,-1574.9 -0.1,-0.5 -0.2,-0.8 -0.3,-1.2 -7,-30.4 -13.8,-61.2 -20.4,-92.4 -4.1,-19.2 -8,-38.3 -12,-57.9 -13.9,-69 -26.8,-140.2 -38.8,-213.5 -9.6,-58.3 -18.5,-118 -26.8,-179.1 0,0 -28.3,-200.4 -36.8,-453.3 -44.6,-13.9 -88.5,-28.9 -131.9,-45 m 276.1,3054.5 v 0 c 43.9,61.7 88.5,122.4 134.1,182.6 v 0 c -45.5,-60.1 -90.2,-121 -134.1,-182.6"
         style="fill:#7ea9ea;fill-opacity:1;fill-rule:nonzero;stroke:none"
         id="path390" /><path
         d="m 13808.7,4876.5 c -36.3,625 -129.5,1249.7 -323.6,1753.6 l -18.8,119.3 c 0,0 52.2,-22.7 143.2,-76.5 84.5,-325.1 174.3,-718.2 160.3,-874.8 -5.3,-60.5 4.4,-84.4 23,-84.4 62.3,0 224.5,266 259.4,324.2 4.2,7.1 6.5,11.2 6.5,11.2 0,0 0,0 0,0.2 43.9,61.6 88.6,122.5 134.1,182.6 95.1,-86.8 196.2,-186.5 301,-300.3 -248.3,-293 -489.4,-618.5 -685.1,-1055.1 m 248.8,1183 c -4.5,35.8 -21.1,160.9 -56.8,337.9 v 0 c 35.7,-177.1 52.4,-302.2 56.8,-337.9"
         style="fill:#8cb6f6;fill-opacity:1;fill-rule:nonzero;stroke:none"
         id="path392" /><path
         d="m 13792.8,5713.7 c -18.6,0 -28.3,23.9 -23,84.4 14,156.6 -75.8,549.7 -160.3,874.8 93.9,-55.6 229.2,-144.3 391.2,-275.5 35.7,-177 52.3,-302.1 56.8,-337.9 0.7,-5.8 1.1,-9.3 1.2,-10.2 v 0 c 0,-0.2 0,-0.2 0,-0.2 0,0 -2.3,-4.1 -6.5,-11.2 -34.9,-58.2 -197.1,-324.2 -259.4,-324.2"
         style="fill:#7ea9ea;fill-opacity:1;fill-rule:nonzero;stroke:none"
         id="path394" /><path
         d="m 15530.7,2016.4 h -1062.3 c 102.8,20 222.8,37.8 357.3,48.8 65.1,5.3 129,7.9 191.9,7.9 181.2,0 353,-21 513.1,-56.7 m -1087.4,317 c -41.7,90 -122.3,164.5 -241,217.6 -94.4,42.2 -200,65.2 -302.2,65.2 -51.6,0 -102.3,-5.9 -150.3,-18.1 6.6,70.9 13.3,147.1 19.8,227.9 277.8,108.2 562.1,166.3 845.2,172.7 17.5,0.4 34.8,0.6 51.9,0.6 144.2,0 272.5,-13.7 380.6,-32.5 l -604,-633.4 m -668.6,556.9 c 2.7,34.1 5.3,69 7.9,104.5 43.4,16.1 87.3,31.1 131.9,45 139.5,43.6 284.4,76.1 434.6,94.8 95.9,11.9 194,18.3 294.1,18.3 169.6,0 345.2,-18.2 526.1,-58.1 l -73.4,-77 c -118,22.5 -262.2,39.7 -428,39.7 -16.8,0 -33.9,-0.2 -51.2,-0.5 -282,-6 -565.1,-62.1 -842,-166.7"
         style="fill:#accfcd;fill-opacity:1;fill-rule:nonzero;stroke:none"
         id="path396" /><path
         d="m 13769.6,2826 c 1.7,21.2 3.4,42.6 5.1,64.3 276.9,104.6 560,160.7 842,166.7 17.3,0.3 34.4,0.5 51.2,0.5 165.8,0 310,-17.2 428,-39.7 l -48.6,-51 c -108.1,18.8 -236.4,32.5 -380.6,32.5 -17.1,0 -34.4,-0.2 -51.9,-0.6 -283.1,-6.4 -567.4,-64.5 -845.2,-172.7"
         style="fill:#99c0ba;fill-opacity:1;fill-rule:nonzero;stroke:none"
         id="path398" /><path
         d="m 14141.1,2016.4 h -344.5 l -104.2,0.2 c -3.8,12.5 25.3,233.3 57.4,581.5 48,12.2 98.7,18.1 150.3,18.1 102.2,0 207.8,-23 302.2,-65.2 118.7,-53.1 199.3,-127.6 241,-217.6 l -302.2,-317"
         style="fill:#99c0ba;fill-opacity:1;fill-rule:nonzero;stroke:none"
         id="path400" /><path
         d="m 15686.7,2016.4 h -156 c -160.1,35.7 -331.9,56.7 -513.1,56.7 -62.9,0 -126.8,-2.6 -191.9,-7.9 -134.5,-11 -254.5,-28.8 -357.3,-48.8 h -255.6 c 139.2,33.8 417.3,88.5 758.9,88.5 209.8,0 443.5,-20.7 683.6,-79.5 0.1,0 0.1,-0.1 0.2,-0.1 9.4,-5.5 20,-8.7 31.2,-8.9"
         style="fill:#99c0ba;fill-opacity:1;fill-rule:nonzero;stroke:none"
         id="path402" /><path
         d="m 14212.8,2016.4 h -71.7 l 302.2,317 604,633.4 48.6,51 73.4,77 4.3,4.5 37.3,39.2 60.1,63 105.8,110.9 c 188.1,67.7 371.1,111.5 548.3,134.8 10.5,-29.2 21,-59.1 31.2,-88.8 -319.3,-35.4 -513.1,-125.7 -523.4,-130.6 l -4.8,-2.2 -1024.7,-1053.6 87.6,14.6 c 225.5,37.8 441.9,56.6 648.2,56.6 166.3,0 326.1,-12.2 478.8,-36.7 v -112.1 0 c 0,-1.4 0.1,-2.7 0.1,-4 0.1,-1.2 0.1,-2.4 0.3,-3.5 2.2,-26.7 16.6,-49.5 36.9,-61.5 -240.1,58.8 -473.8,79.5 -683.6,79.5 -341.6,0 -619.7,-54.7 -758.9,-88.5 m 1405.3,249.1 c -153.1,23.9 -312.9,35.9 -478.9,35.9 -133.2,0 -270.3,-7.7 -411.3,-23.1 -2.2,-0.3 -4.5,-0.4 -6.7,-0.4 -48.6,0 -75.6,59.7 -40.1,96.1 l 710.2,730.2 c 52.1,53.6 116.6,93.4 187.9,116 89.6,28.4 225.4,63.1 396.6,81.4 23.5,-69.3 46.6,-139.9 69.3,-211.8 l -373.8,0.1 c -4.2,0 -8.3,-0.5 -12.3,-1.3 -1,-0.2 -2,-0.4 -3,-0.7 -28.9,-7.3 -51.2,-35 -54,-68.7 v 0 c -0.1,-1.1 -0.1,-2.1 -0.2,-3.2 0,-1.4 -0.1,-2.7 -0.1,-4 v -202.2 0 c 0,-1.3 0,-2.7 0.1,-4 1.7,-38.1 28.3,-69.3 61.7,-73.5 l -319.9,0.1 c -0.1,0 -0.2,0 -0.3,0 h -8 c -0.1,0 -0.2,0 -0.3,0 -2.7,0 -5.4,-0.2 -7.9,-0.6 -33.3,-4.4 -59.6,-35.4 -61.3,-73.3 v 0 c 0,-1.3 -0.1,-2.7 -0.1,-4 v -202.2 0 c 0,-1.3 0,-2.6 0.1,-4 1.8,-41 32.4,-73.9 69.4,-73.9 h 336.5 v -2 c -29.5,-7.9 -51.9,-36.9 -53.6,-71.9 v 0 c 0,-1.3 0,-2.6 0,-4 v -31"
         style="fill:#accfcd;fill-opacity:1;fill-rule:nonzero;stroke:none"
         id="path404" /><path
         d="m 14403.4,2172 1024.7,1053.6 4.8,2.2 c 10.3,4.9 204.1,95.2 523.4,130.6 6.6,-18.9 13,-37.8 19.5,-56.8 -171.2,-18.3 -307,-53 -396.6,-81.4 -71.3,-22.6 -135.8,-62.4 -187.9,-116 L 14681.1,2374 c -35.5,-36.4 -8.5,-96.1 40.1,-96.1 2.2,0 4.5,0.1 6.7,0.4 141,15.4 278.1,23.1 411.3,23.1 166,0 325.8,-12 478.9,-35.9 l -0.1,-59 c -152.7,24.5 -312.5,36.7 -478.8,36.7 -206.3,0 -422.7,-18.8 -648.2,-56.6 l -87.6,-14.6"
         style="fill:#99c0ba;fill-opacity:1;fill-rule:nonzero;stroke:none"
         id="path406" /><path
         d="m 14926.7,4749 c 0,0 -107.8,281.8 -60.8,422.8 18.9,56.8 46.1,136.6 71.8,211.6 81.4,-113.8 163.5,-236.5 244.9,-368.2 -94.6,-124.7 -255.9,-266.2 -255.9,-266.2"
         style="fill:#99c0ba;fill-opacity:1;fill-rule:nonzero;stroke:none"
         id="path408" /><path
         d="m 16325.9,2016.3 -638.3,0.1 c -0.3,0 -0.6,0 -0.9,0 -11.2,0.2 -21.8,3.4 -31.2,8.9 -0.1,0 -0.1,0.1 -0.2,0.1 -20.3,12 -34.7,34.8 -36.9,61.5 -0.2,1.1 -0.2,2.3 -0.3,3.5 0,1.3 -0.1,2.6 -0.1,4 v 0 l 0.1,202.1 c 0,1.4 0,2.7 0,4 v 0 c 1.7,35 24.1,64 53.6,71.9 v -158.3 h 610.5 c 14.9,-64.9 29.6,-131.1 43.7,-197.8"
         style="fill:#d7b987;fill-opacity:1;fill-rule:nonzero;stroke:none"
         id="path410" /><path
         d="m 15663.6,2732.3 -320.3,0.1 c 0.1,0 0.2,0 0.3,0 l 319.9,-0.1 c 0.1,0 0.1,0 0.1,0"
         style="fill:#d7c39d;fill-opacity:1;fill-rule:nonzero;stroke:none"
         id="path412" /><path
         d="m 15671.7,2374.4 h -336.5 c -37,0 -67.6,32.9 -69.4,73.9 -0.1,1.4 -0.1,2.7 -0.1,4 v 0 202.2 c 0,1.3 0.1,2.7 0.1,4 v 0 c 1.7,37.9 28,68.9 61.3,73.3 2.5,0.4 5.2,0.6 7.9,0.6 0.1,0 0.2,0 0.3,0 h 8 l 320.3,-0.1 c 2.5,-0.3 5,-0.4 7.6,-0.4 h 0.5 v -357.5"
         style="fill:#d7b987;fill-opacity:1;fill-rule:nonzero;stroke:none"
         id="path414" /><path
         d="m 15671.7,2731.9 h -0.5 c -2.6,0 -5.1,0.1 -7.6,0.4 0,0 0,0 -0.1,0 -33.4,4.2 -60,35.4 -61.7,73.5 -0.1,1.3 -0.1,2.7 -0.1,4 v 0 202.2 c 0,1.3 0.1,2.6 0.1,4 0.1,1.1 0.1,2.1 0.2,3.2 v 0 c 2.8,33.7 25.1,61.4 54,68.7 1,0.3 2,0.5 3,0.7 4,0.8 8.1,1.3 12.3,1.3 l 373.8,-0.1 c 35.6,-113 70,-228.7 103.4,-348.4 h -476.8 v -9.5"
         style="fill:#d7b987;fill-opacity:1;fill-rule:nonzero;stroke:none"
         id="path416" /><path
         d="m 16282.2,2214.1 h -610.5 v 527.3 h 476.8 c 47.1,-168.9 91.8,-344.8 133.7,-527.3"
         style="fill:#d7b987;fill-opacity:1;fill-rule:nonzero;stroke:none"
         id="path418" /><path
         d="m 9865.12,2303 -172.66,-64.3 c 0,0 -749.96,1040.2 -842.3,1955.4 -16.49,163.3 -10.99,321.6 24.68,467.8 0,0 -7.33,41.9 -20.16,115.9 -5.93,34.5 -13.25,76.1 -21.57,123.8 -24.38,139.7 -57.93,330.8 -96.28,548.5 -88.24,500.8 -202.57,1141.1 -291.38,1611.8 l 46.52,14.9 503.4,162.4 104.02,330.4 374.84,98.7 c 0,0 83.72,-163.8 158.58,-937.5 13.82,-101.5 26.36,-213.5 35.81,-334.8 29.19,-370.5 31.3,-830.1 -35.66,-1355.4 -17.2,-134.5 -38.91,-273.4 -65.83,-416 -19.75,-104.6 -22.7,-247.1 -14.39,-410.8 37.8,-748.1 312.38,-1910.8 312.38,-1910.8"
         style="fill:#2b478b;fill-opacity:1;fill-rule:nonzero;stroke:none"
         id="path420" /><path
         d="M 9668.62,6396 8854.68,4777.8 c -5.93,34.5 -13.25,76.1 -21.57,123.8 -24.38,139.7 -57.93,330.8 -96.28,548.5 -88.24,500.8 -202.57,1141.1 -291.38,1611.8 l 46.52,14.9 503.4,162.4 104.02,330.4 374.84,98.7 c 0,0 83.72,-163.8 158.58,-937.5 13.82,-101.5 26.36,-213.5 35.81,-334.8"
         style="fill:#233862;fill-opacity:1;fill-rule:nonzero;stroke:none"
         id="path422" /><path
         d="m 9310.56,7460.7 -18.85,161.5 c -315.68,-83.8 -1159.13,234.3 -1159.13,234.3 0,0 -305.81,-268.8 -265.66,-913.2 19.6,-314.5 55.4,-1650.9 92.79,-2046.4 13.51,-143.4 25.34,-245.4 30.19,-286.1 l 0.09,-0.4 c 1.47,-12.4 -2.87,-24.2 -9.18,-35 -55.04,-93.4 -100.61,-190.7 -138,-290.2 -366.98,-978 56.53,-2182.3 56.53,-2182.3 l 109.88,44.3 c 0,0 241,1340.3 436.82,1932.4 33.25,100.4 65.11,179.3 94.32,226.5 85.13,137.4 164.14,361.9 235.86,628.9 135.56,504.9 244.64,1161.7 317.26,1668.7 10.01,-0.5 217.08,857 217.08,857"
         style="fill:#2b478b;fill-opacity:1;fill-rule:nonzero;stroke:none"
         id="path424" /><path
         d="m 9743.44,9459.8 c 22.2,81 58.79,145.1 96.68,193.4 5.24,7.9 10.47,15.7 18.3,22.2 62.72,74.5 124.14,105.9 124.14,105.9 31.34,13.1 65.34,-2.7 100.64,-40.5 v -1.3 c 28.7,-30.1 60.1,-75.8 90.1,-133.3 1.3,-1.3 2.6,-2.6 2.6,-3.9 6.6,-11.8 13.1,-24.9 21,-39.2 2.6,-2.7 3.9,-6.6 5.2,-9.2 14.4,-30 28.7,-61.4 43.1,-94.1 160.7,-350.2 331.9,-880.7 474.3,-1038.8 61.4,-67.9 342.4,-201.2 565.8,-300.5 160.7,-70.6 291.4,-122.8 291.4,-122.8 0,0 161.1,31.4 197.9,0 36.8,-31.5 211.5,-208.9 174.1,-267.2 -37.4,-58.2 -216.7,48.2 -254,58.3 -37.3,10 -141.5,50.8 -141.5,50.8 0,0 -10.5,0 -28.8,1.3 -57.5,3.9 -197.3,11.7 -355.4,28.7 -237.8,23.5 -520,65.4 -632.4,134.6 -171.2,104.5 -452.1,424.7 -635.06,744.8 -5.23,7.8 -9.14,15.7 -13.06,23.5 -95.39,169.9 -162.04,338.5 -167.25,473 -3.93,82.4 5.21,152.9 22.21,214.3"
         style="fill:#ffb27d;fill-opacity:1;fill-rule:nonzero;stroke:none"
         id="path426" /><path
         d="m 9913.62,9420.5 c -99.1,-45.9 -218.78,-77.2 -363.55,-85.1 -542.73,-29.8 -665.93,446 -688.34,761.8 78.25,28.3 146.74,25.6 186.21,23.5 38.48,-2.1 78.67,-6 111.8,-10.1 66.37,34.6 185.65,203.1 254.59,484.9 l 23.39,-10.9 391.61,-184.1 c 0,0 -41.59,-127.4 -72.32,-249.3 -23.97,-95.5 -41.17,-187.7 -26.79,-213.5 30.88,-12.5 49.35,-20.4 49.35,-20.4 l 0.14,-0.4 c 3.94,-10 89.08,-227 133.91,-496.4"
         style="fill:#ffb27d;fill-opacity:1;fill-rule:nonzero;stroke:none"
         id="path428" /><path
         d="m 9829.34,10400.4 c 0,0 -41.64,-127.3 -72.32,-249.3 -228.9,63.8 -298.41,304.5 -319.32,433.5 l 391.64,-184.2"
         style="fill:#ed985f;fill-opacity:1;fill-rule:nonzero;stroke:none"
         id="path430" /><path
         d="m 9877.53,10265.6 c 0,0 -547.64,126.8 -463.46,466.6 84.18,339.9 70.2,585.1 423.4,518.5 353.23,-66.5 388.73,-213 388.23,-333.2 -0.5,-120.3 -203.5,-676.1 -348.17,-651.9"
         style="fill:#ffb27d;fill-opacity:1;fill-rule:nonzero;stroke:none"
         id="path432" /><path
         d="m 10256.5,11110.4 c -58.8,123.2 -128.1,116.6 -171.5,94.8 -257.3,238 -688.55,178.4 -688.55,178.4 -97.14,-234.7 -128.84,-465.4 -128.84,-465.4 0,0 84.14,-86.2 327.97,-84.3 74.48,0.6 149.38,34.8 217.51,81.9 -131.43,-132.4 -285.55,-212.9 -285.55,-212.9 305.24,58.4 509.96,411.7 530.86,449.3 25.9,-38.2 75.4,-119.5 79.5,-188.1 5.7,-93.3 -26.4,-274.5 27,-281.3 0,0 179.9,242.9 91.6,427.6"
         style="fill:#2c3a64;fill-opacity:1;fill-rule:nonzero;stroke:none"
         id="path434" /><path
         d="m 10246.5,9460.4 c -15.1,45.5 -96.7,192.1 -133.5,257.3 -13.4,23.6 -31.8,43.8 -54.1,59.2 -44,30.2 -131.38,82.3 -279.33,140.4 l 0.14,-0.4 c 3.66,-13.6 102.48,-371.5 66.38,-447.9 -36.65,-77.6 -730.34,173.1 -768.26,230.4 -30.31,45.9 -31.16,288.8 -30.31,383.4 0.15,23.5 0.42,37.9 0.42,37.9 0,0 -258.96,35.1 -404.57,-23.8 0,0 57.51,-124.9 78.65,-262.6 1.98,-13.1 3.67,-26.2 4.94,-39.4 2.83,-27.7 3.67,-55.5 2.12,-82.6 -2.12,-35.8 -20.58,-67.5 -50.05,-98.5 -26.77,-28.5 -63.16,-56.5 -104.31,-86.6 -26.92,-19.4 -55.83,-39.9 -85.71,-62 H 8489 c -2.53,-162.2 8.9,-428.8 -21.13,-713.4 -7.62,-72.2 -31.58,-141.3 -69.36,-202.4 -14.94,-24.4 -32.14,-47.6 -51.31,-69.1 -152.95,-171.6 -424.17,-513.5 -364.55,-726.4 4.39,-200.7 1697.53,-464.5 1661.31,-244 0,0 254.43,1226.2 391.84,1522.3 5,10.8 9.5,21.4 13.6,32.3 44,116.8 36.6,236.9 21.7,344.5 77.6,55.1 175.4,51.4 175.4,51.4"
         style="fill:#699dee;fill-opacity:1;fill-rule:nonzero;stroke:none"
         id="path436" /><path
         d="m 9188.07,7921.9 c -333.96,3.5 -616.73,350.3 -789.56,627.5 37.78,61.1 61.74,130.2 69.36,202.4 30.03,284.6 18.61,551.2 21.13,713.4 h 0.01 c 29.88,22.1 58.79,42.6 85.71,62 41.15,30.1 77.54,58.1 104.31,86.6 273.48,-462.2 961.82,-1696.7 509.04,-1691.9"
         style="fill:#4a75cb;fill-opacity:1;fill-rule:nonzero;stroke:none"
         id="path438" /><path
         d="m 8538.25,2013.2 h -869.63 c 0,0 -20.86,132.5 24.58,233 43.52,96.5 111.68,140.4 95.37,257.1 55.26,-56.9 145.33,-120.6 271.04,-103.7 15.42,-24.9 99.44,-158.6 150.91,-195.6 56.82,-40.8 310.24,-26.2 327.73,-190.8"
         style="fill:#233862;fill-opacity:1;fill-rule:nonzero;stroke:none"
         id="path440" /><path
         d="m 10405.5,2013.2 h -869.66 c 0,0 -32.52,138.7 24.59,233 50.53,83.6 31.17,131.1 -6.26,200.2 39.39,-16.1 90.35,-30.8 146.46,-27.6 43.33,2.5 89.15,22.2 129.34,45.5 37.42,-42.6 197.73,-224.3 247.73,-260.3 56.9,-40.8 310.3,-26.2 327.8,-190.8"
         style="fill:#233862;fill-opacity:1;fill-rule:nonzero;stroke:none"
         id="path442" /><path
         d="m 11621,7374 235,-96.5 c 63.9,-26.1 97.5,-95.6 81.1,-160.8 l 25.2,-10.3 c 95.6,332.1 -21.1,667.1 -283.5,774.7 -36.8,15.1 -74.7,25 -113,29.8 -120.8,16 -246.7,-16.6 -359.9,-87.2 -107.5,-66.9 -203.4,-168.3 -272.5,-295.6 l 34.6,-14.2 c 34.1,57.9 106.7,83.9 170.5,57.8 l 235.2,-96.5 c 18.4,44.9 62.1,72.1 107.9,72.1 14.4,0 29.3,-2.8 43.5,-8.6 l 32.5,-13.4 c 59.1,-24.2 87.6,-92.3 63.4,-151.3 z m -1118.9,-408.6 206.6,504.1 c 27,65.7 99.2,99.9 166.1,81.4 68.5,128.7 162.8,233.3 269.6,306.7 112.7,77.6 239.1,120.3 363.9,119.8 65.9,-0.3 131.6,-12.8 194.2,-38.5 293.9,-120.4 425.6,-491.7 317.7,-856.2 l 16.1,-6.6 c 0,0 50.2,3.5 134.5,3.5 266.1,0 871.1,-35.4 1295.6,-330.2 0,0 26.6,-28.4 27.7,-71.7 0.5,-14.4 -1.9,-30.5 -9,-47.6 0,0 -681.3,441.2 -1311.5,-12.2 -38.7,-27.7 -76.2,-53.4 -112.8,-77.3 l -56.5,-137.9 c -93.7,-228.8 -357.5,-339.1 -586.2,-245.4 l -577.2,236.5 -120.2,49.3 c -203.8,83.5 -302.2,318.5 -218.6,522.3"
         style="fill:#c94c43;fill-opacity:1;fill-rule:nonzero;stroke:none"
         id="path444" /><path
         d="m 12060.8,6540.6 c 36.6,23.9 74.1,49.6 112.8,77.3 630.2,453.4 1311.5,12.2 1311.5,12.2 7.1,17.1 9.5,33.2 9,47.6 -95.4,62.8 -452.9,271.7 -895.8,200.3 -519,-83.7 -612.9,-155.9 -537.5,-337.4"
         style="fill:#b23b38;fill-opacity:1;fill-rule:nonzero;stroke:none"
         id="path446" /><path
         d="m 10720.7,6443.1 120.2,-49.3 c -180.3,98.5 43,514.4 173.6,788.9 130.6,274.6 328.2,149.1 328.2,149.1 45.2,92 142.2,87 142.2,87 5.1,88.7 72.7,106.5 72.7,106.5 l -32.5,13.4 c -14.2,5.8 -29.1,8.6 -43.5,8.6 -45.8,0 -89.5,-27.2 -107.9,-72.1 l -235.2,96.5 c -63.8,26.1 -136.4,0.1 -170.5,-57.8 l -34.6,14.2 c 69.1,127.3 165,228.7 272.5,295.6 113.2,70.6 239.1,103.2 359.9,87.2 -18.9,15.3 -39.2,36.6 -57.5,66.5 -124.8,0.5 -251.2,-42.2 -363.9,-119.8 -106.8,-73.4 -201.1,-178 -269.6,-306.7 -66.9,18.5 -139.1,-15.7 -166.1,-81.4 l -206.6,-504.1 c -83.6,-203.8 14.8,-438.8 218.6,-522.3"
         style="fill:#b23b38;fill-opacity:1;fill-rule:nonzero;stroke:none"
         id="path448" /><path
         d="m 8452.44,9666.3 c 2.62,378.9 190.78,431.2 190.78,431.2 3.91,1.3 7.83,2.6 13.06,3.9 32.67,5.2 66.64,-17 101.92,-60.1 44.43,-53.6 91.48,-141.1 139.82,-246.9 74.47,-168.6 152.88,-386.8 226.05,-603.8 40.51,-118.9 79.7,-237.8 118.91,-347.5 22.21,-66.7 44.43,-129.4 65.34,-186.9 40.5,-109.7 77.09,-198.6 109.75,-254.8 20.9,-36.6 81.02,-87.5 160.72,-145 138.51,-100.6 341.05,-222.2 517.41,-321.4 73.2,-41.9 142.5,-79.8 200,-111.1 48.3,-10.5 294,-62.7 408.9,-36.6 129.4,30 346.3,-125.5 346.3,-125.5 0,0 23.5,-49.6 -60.1,-83.6 -83.6,-35.3 -201.2,-158.1 -389.4,-83.6 -134.6,52.3 -277,88.8 -346.3,105.8 -27.4,5.3 -43.1,9.2 -43.1,9.2 -73.1,14.3 -160.7,33.9 -256.07,54.9 h -1.32 c -163.33,39.2 -346.26,86.2 -500.46,138.5 -108.45,37.9 -202.52,78.4 -266.54,118.9 -6.55,3.9 -11.77,7.8 -18.31,13.1 -152.87,111 -334.5,437.7 -475.62,787.9 -19.61,48.3 -37.9,96.7 -56.19,143.7 -65.34,175.1 -117.6,347.6 -148.95,496.5 -19.62,88.9 -32.68,169.9 -35.3,236.5 -1.3,23.6 -2.61,45.8 -1.3,66.7"
         style="fill:#ffb27d;fill-opacity:1;fill-rule:nonzero;stroke:none"
         id="path450" /><path
         d="m 8940.2,9776.1 c -251.55,69.3 -488.24,-109.4 -488.24,-109.4 3.16,378.4 191.49,430.2 191.49,430.2 94.25,54.2 206.2,-117.6 296.75,-320.8"
         style="fill:#699dee;fill-opacity:1;fill-rule:nonzero;stroke:none"
         id="path452" /><path
         d="m 14584.4,2296.5 v -202.1 c 0,-16.2 -4.9,-31.1 -13.3,-43.5 -8.9,-13.1 -21.7,-23.4 -36.6,-29.2 -4.6,-1.8 -9.4,-3.1 -14.3,-4 -4.5,-0.8 -9,-1.2 -13.7,-1.2 l -3220.2,0.4 c -41.5,0 -75.7,33 -77.8,73.9 0,1.4 -0.1,2.7 -0.1,4.1 l 0.1,202.1 c 0,1.4 0,2.7 0,4 2,37.9 31.4,68.9 68.7,73.4 3,0.3 6.1,0.5 9.2,0.5 l 3220.1,-0.5 c 4.7,0.1 9.3,-0.4 13.8,-1.2 4.9,-0.9 9.7,-2.2 14.2,-4 15,-5.8 27.7,-16.1 36.6,-29.2 8.4,-12.4 13.3,-27.4 13.3,-43.5"
         style="fill:#ffb93e;fill-opacity:1;fill-rule:nonzero;stroke:none"
         id="path454" /><path
         d="m 13003.1,2016.7 -1725.1,0.2 c -37.1,0 -67.6,33 -69.5,73.9 0,1.4 -0.1,2.7 -0.1,4.1 l 0.1,202.1 c 0,1.4 0,2.7 0,4 1.8,37.9 28.1,68.9 61.3,73.4 2.7,0.3 5.4,0.5 8.2,0.5 l 1513.3,-0.2 0.2,-0.6 c 24.2,-105.3 80.5,-250.7 211.6,-357.4"
         style="fill:#ffa412;fill-opacity:1;fill-rule:nonzero;stroke:none"
         id="path456" /><path
         d="m 14192.6,2016.5 h -36.6 v 358 h 36.6 v -358"
         style="fill:#ffa412;fill-opacity:1;fill-rule:nonzero;stroke:none"
         id="path458" /><path
         d="m 14068.7,2016.5 h -36.6 v 358 h 36.6 v -358"
         style="fill:#ffa412;fill-opacity:1;fill-rule:nonzero;stroke:none"
         id="path460" /><path
         d="m 13920.1,2016.5 h -36.6 l 0.1,358 h 36.6 l -0.1,-358"
         style="fill:#ffa412;fill-opacity:1;fill-rule:nonzero;stroke:none"
         id="path462" /><path
         d="m 13692.4,2016.6 h -36.6 l 0.1,358 h 36.6 l -0.1,-358"
         style="fill:#ffa412;fill-opacity:1;fill-rule:nonzero;stroke:none"
         id="path464" /><path
         d="m 13451.6,2016.6 h -36.6 l 0.1,358 h 36.6 l -0.1,-358"
         style="fill:#ffa412;fill-opacity:1;fill-rule:nonzero;stroke:none"
         id="path466" /><path
         d="m 13082.4,2016.7 h -36.5 v 358 l 36.6,-0.1 -0.1,-357.9"
         style="fill:#ffa412;fill-opacity:1;fill-rule:nonzero;stroke:none"
         id="path468" /><path
         d="m 12736.8,2016.7 h -36.6 l 0.1,358 h 36.6 l -0.1,-358"
         style="fill:#ffa412;fill-opacity:1;fill-rule:nonzero;stroke:none"
         id="path470" /><path
         d="m 12428.2,2016.7 -36.6,0.1 v 358 l 36.6,-0.1 v -358"
         style="fill:#ffa412;fill-opacity:1;fill-rule:nonzero;stroke:none"
         id="path472" /><path
         d="m 14310.5,2016.5 h -36.6 l 0.1,358 h 36.6 l -0.1,-358"
         style="fill:#ffa412;fill-opacity:1;fill-rule:nonzero;stroke:none"
         id="path474" /><path
         d="m 14388.4,2016.5 h -36.6 l 0.1,358 h 36.6 l -0.1,-358"
         style="fill:#ffa412;fill-opacity:1;fill-rule:nonzero;stroke:none"
         id="path476" /><path
         d="m 14463.6,2016.5 -36.6,-0.1 0.1,358.1 36.6,-0.1 -0.1,-357.9"
         style="fill:#ffa412;fill-opacity:1;fill-rule:nonzero;stroke:none"
         id="path478" /><path
         d="m 14520.3,2373.2 -0.1,-355.5 c -4.4,-0.8 -9,-1.2 -13.7,-1.2 h -22.9 l 0.1,358 22.9,-0.1 c 4.6,0.1 9.2,-0.4 13.7,-1.2"
         style="fill:#ffa412;fill-opacity:1;fill-rule:nonzero;stroke:none"
         id="path480" /><path
         d="m 14571.1,2340 v -289.1 c -8.9,-13.1 -21.7,-23.4 -36.6,-29.2 v 347.5 c 15,-5.8 27.7,-16.1 36.6,-29.2"
         style="fill:#ffa412;fill-opacity:1;fill-rule:nonzero;stroke:none"
         id="path482" /><path
         d="m 14018.5,2654 v -202.2 c 0,-16.1 -4.9,-31 -13.3,-43.4 -8.9,-13.1 -21.7,-23.4 -36.6,-29.2 -4.6,-1.8 -9.4,-3.1 -14.3,-4 -1.5,-0.3 -3,-0.5 -4.5,-0.7 -1.2,-0.2 -2.4,-0.3 -3.6,-0.3 l -1.8,-0.2 c -1.3,0 -2.5,-0.1 -3.8,-0.1 l -3220.2,0.5 c -41.5,0 -75.7,32.9 -77.8,73.9 0,1.4 0,2.7 -0.1,4 l 0.1,202.2 c 0,1.3 0,2.7 0.1,4 2.1,41 36.3,73.9 77.8,73.9 l 3220.2,-0.5 c 1.3,0 2.7,0 4.1,-0.1 3.3,-0.2 6.4,-0.6 9.6,-1.1 4.9,-0.9 9.7,-2.2 14.2,-4 2.4,-0.9 4.6,-1.9 6.8,-3 1.4,-0.7 2.7,-1.4 4,-2.2 l 0.4,-0.3 c 1.4,-0.7 2.7,-1.6 4,-2.4 l 0.6,-0.4 c 1.2,-0.8 2.4,-1.7 3.5,-2.6 2.8,-2.1 5.3,-4.3 7.7,-6.7 l 2.2,-2.3 0.4,-0.5 1.4,-1.4 0.2,-0.3 c 0.8,-0.9 1.6,-1.9 2.3,-2.9 1.1,-1.3 2.1,-2.7 3.1,-4.2 8.4,-12.4 13.4,-27.4 13.3,-43.5"
         style="fill:#ffb93e;fill-opacity:1;fill-rule:nonzero;stroke:none"
         id="path484" /><path
         d="m 12437.2,2374.2 -1725.1,0.2 c -37,0 -67.6,32.9 -69.5,73.9 0,1.4 0,2.7 -0.1,4 l 0.1,202.2 c 0,1.3 0,2.7 0.1,4 1.9,41 32.4,73.9 69.4,73.9 l 1513.3,-0.2 c 0.6,-2.7 1.3,-5.5 2,-8.3 25.1,-104.4 81.7,-245.1 209.2,-349.2 l 0.6,-0.5"
         style="fill:#ffa412;fill-opacity:1;fill-rule:nonzero;stroke:none"
         id="path486" /><path
         d="m 13626.7,2374 h -36.6 v 358 h 36.6 v -358"
         style="fill:#ffa412;fill-opacity:1;fill-rule:nonzero;stroke:none"
         id="path488" /><path
         d="m 13502.8,2374 h -36.6 l 0.1,358 h 36.5 v -358"
         style="fill:#ffa412;fill-opacity:1;fill-rule:nonzero;stroke:none"
         id="path490" /><path
         d="m 13354.2,2374 h -36.6 l 0.1,358 h 36.6 l -0.1,-358"
         style="fill:#ffa412;fill-opacity:1;fill-rule:nonzero;stroke:none"
         id="path492" /><path
         d="m 13126.5,2374.1 h -36.6 l 0.1,357.9 36.6,0.1 -0.1,-358"
         style="fill:#ffa412;fill-opacity:1;fill-rule:nonzero;stroke:none"
         id="path494" /><path
         d="m 12885.7,2374.1 h -36.6 l 0.1,358 h 36.6 l -0.1,-358"
         style="fill:#ffa412;fill-opacity:1;fill-rule:nonzero;stroke:none"
         id="path496" /><path
         d="m 12516.6,2374.1 -36.6,0.1 v 357.9 h 36.6 v -358"
         style="fill:#ffa412;fill-opacity:1;fill-rule:nonzero;stroke:none"
         id="path498" /><path
         d="m 12170.9,2374.2 h -36.6 l 0.1,358 h 36.6 l -0.1,-358"
         style="fill:#ffa412;fill-opacity:1;fill-rule:nonzero;stroke:none"
         id="path500" /><path
         d="m 11862.3,2374.2 -36.6,0.1 v 357.9 h 36.6 v -358"
         style="fill:#ffa412;fill-opacity:1;fill-rule:nonzero;stroke:none"
         id="path502" /><path
         d="m 13744.6,2374 h -36.6 l 0.1,357.9 36.6,0.1 -0.1,-358"
         style="fill:#ffa412;fill-opacity:1;fill-rule:nonzero;stroke:none"
         id="path504" /><path
         d="m 13822.5,2374 h -36.6 l 0.1,357.9 h 36.6 l -0.1,-357.9"
         style="fill:#ffa412;fill-opacity:1;fill-rule:nonzero;stroke:none"
         id="path506" /><path
         d="m 13897.7,2373.9 h -36.6 l 0.1,358 h 36.6 l -0.1,-358"
         style="fill:#ffa412;fill-opacity:1;fill-rule:nonzero;stroke:none"
         id="path508" /><path
         d="m 13954.4,2730.7 -0.1,-355.5 c -4.4,-0.8 -9,-1.3 -13.7,-1.3 h -22.9 l 0.1,358 h 22.9 c 4.6,0 9.2,-0.4 13.7,-1.2"
         style="fill:#ffa412;fill-opacity:1;fill-rule:nonzero;stroke:none"
         id="path510" /><path
         d="m 14005.2,2697.5 v -289.1 c -8.9,-13.1 -21.7,-23.4 -36.6,-29.2 l 0.1,347.5 c 14.9,-5.8 27.6,-16.1 36.5,-29.2"
         style="fill:#ffa412;fill-opacity:1;fill-rule:nonzero;stroke:none"
         id="path512" /><path
         d="m 14455.4,3003.7 -0.1,-202.2 c 0,-16.1 -4.9,-31 -13.3,-43.5 -8.9,-13.1 -21.7,-23.4 -36.6,-29.1 -4.6,-1.8 -9.3,-3.2 -14.3,-4 -4.4,-0.8 -9,-1.3 -13.7,-1.3 l -3220.2,0.5 c -12.4,0 -24.3,3 -34.8,8.3 -23.4,11.7 -40.2,35.1 -42.7,62.4 -0.1,1.1 -0.2,2.1 -0.3,3.2 0,1.4 0,2.7 0,4 v 202.2 c 0,1.3 0,2.7 0.1,4 1.9,37.9 31.3,68.9 68.6,73.3 3,0.4 6.1,0.6 9.2,0.6 l 3220.2,-0.5 c 4.6,0 9.2,-0.4 13.7,-1.2 4.9,-0.9 9.7,-2.2 14.2,-4.1 15,-5.7 27.7,-16 36.6,-29.1 8.4,-12.5 13.4,-27.4 13.4,-43.5"
         style="fill:#ffb93e;fill-opacity:1;fill-rule:nonzero;stroke:none"
         id="path514" /><path
         d="m 12874.1,2723.8 -1725.2,0.3 c -11.2,0 -21.7,3 -31.1,8.3 -20.9,11.7 -35.9,35.1 -38.1,62.4 -0.1,1.1 -0.2,2.1 -0.3,3.2 0,1.4 0,2.7 0,4 v 202.2 c 0,1.3 0,2.7 0.1,4 1.7,37.9 28,68.9 61.2,73.3 2.7,0.4 5.5,0.6 8.3,0.6 l 1513.2,-0.2 0.2,-0.6 c 23.6,-102.6 77.7,-243.4 201.7,-349.2 3.3,-2.8 6.6,-5.5 10,-8.3"
         style="fill:#ffa412;fill-opacity:1;fill-rule:nonzero;stroke:none"
         id="path516" /><path
         d="m 14063.5,2723.7 h -36.6 v 358 h 36.6 v -358"
         style="fill:#ffa412;fill-opacity:1;fill-rule:nonzero;stroke:none"
         id="path518" /><path
         d="m 13939.6,2723.7 h -36.6 v 358 h 36.6 v -358"
         style="fill:#ffa412;fill-opacity:1;fill-rule:nonzero;stroke:none"
         id="path520" /><path
         d="m 13791,2723.7 h -36.6 l 0.1,358 h 36.6 l -0.1,-358"
         style="fill:#ffa412;fill-opacity:1;fill-rule:nonzero;stroke:none"
         id="path522" /><path
         d="m 13563.3,2723.8 -36.6,-0.1 0.1,358 h 36.6 l -0.1,-357.9"
         style="fill:#ffa412;fill-opacity:1;fill-rule:nonzero;stroke:none"
         id="path524" /><path
         d="m 13322.5,2723.8 h -36.6 l 0.1,358 h 36.6 l -0.1,-358"
         style="fill:#ffa412;fill-opacity:1;fill-rule:nonzero;stroke:none"
         id="path526" /><path
         d="m 12953.3,2723.8 h -36.5 v 358 h 36.6 l -0.1,-358"
         style="fill:#ffa412;fill-opacity:1;fill-rule:nonzero;stroke:none"
         id="path528" /><path
         d="m 12607.7,2723.9 h -36.6 l 0.1,358 h 36.6 l -0.1,-358"
         style="fill:#ffa412;fill-opacity:1;fill-rule:nonzero;stroke:none"
         id="path530" /><path
         d="m 12299.1,2723.9 h -36.6 v 358 h 36.6 v -358"
         style="fill:#ffa412;fill-opacity:1;fill-rule:nonzero;stroke:none"
         id="path532" /><path
         d="m 14181.4,2723.7 h -36.6 l 0.1,357.9 h 36.6 l -0.1,-357.9"
         style="fill:#ffa412;fill-opacity:1;fill-rule:nonzero;stroke:none"
         id="path534" /><path
         d="m 14259.3,2723.7 -36.6,-0.1 0.1,358 h 36.6 l -0.1,-357.9"
         style="fill:#ffa412;fill-opacity:1;fill-rule:nonzero;stroke:none"
         id="path536" /><path
         d="m 14334.5,2723.6 h -36.6 l 0.1,358 h 36.6 l -0.1,-358"
         style="fill:#ffa412;fill-opacity:1;fill-rule:nonzero;stroke:none"
         id="path538" /><path
         d="m 14391.2,3080.4 -0.1,-355.5 c -4.4,-0.8 -9,-1.3 -13.7,-1.3 h -22.9 l 0.1,358 h 22.9 c 4.6,0 9.2,-0.4 13.7,-1.2"
         style="fill:#ffa412;fill-opacity:1;fill-rule:nonzero;stroke:none"
         id="path540" /><path
         d="M 14442,3047.2 V 2758 c -8.9,-13.1 -21.7,-23.3 -36.6,-29.1 v 347.5 c 15,-5.8 27.7,-16.1 36.6,-29.2"
         style="fill:#ffa412;fill-opacity:1;fill-rule:nonzero;stroke:none"
         id="path542" /><path
         d="m 14218.7,3361.2 -0.1,-202.2 c 0,-16.1 -4.9,-31.1 -13.3,-43.5 -8.9,-13.1 -21.7,-23.4 -36.6,-29.2 -4.6,-1.8 -9.3,-3.1 -14.3,-4 -1.5,-0.2 -3,-0.5 -4.5,-0.6 l -2.5,-0.3 -2.6,-0.2 c -1.3,-0.1 -2.7,-0.1 -4.1,-0.1 l -3220.1,0.5 c -41.6,0 -75.8,32.9 -77.9,73.9 0,1.3 0,2.7 0,4 v 202.2 c 0,1.3 0,2.6 0.1,4 2.1,41 36.3,73.9 77.8,73.9 l 3220.2,-0.5 c 4.7,0 9.2,-0.4 13.7,-1.3 4.9,-0.8 9.7,-2.2 14.3,-4 14.9,-5.8 27.6,-16.1 36.5,-29.1 8.5,-12.5 13.4,-27.4 13.4,-43.5"
         style="fill:#ffb93e;fill-opacity:1;fill-rule:nonzero;stroke:none"
         id="path544" /><path
         d="m 12637.4,3081.3 -1725.2,0.3 c -37,0 -67.6,32.9 -69.5,73.9 0,1.3 0,2.7 0,4 v 202.2 c 0,1.3 0,2.6 0.1,4 1.9,41 32.4,73.9 69.5,73.9 l 1513.2,-0.3 c 24.1,-105.2 80.3,-250.6 211.2,-357.4 l 0.7,-0.6"
         style="fill:#ffa412;fill-opacity:1;fill-rule:nonzero;stroke:none"
         id="path546" /><path
         d="m 13826.8,3081.1 h -36.6 v 358 h 36.6 v -358"
         style="fill:#ffa412;fill-opacity:1;fill-rule:nonzero;stroke:none"
         id="path548" /><path
         d="m 13702.9,3081.2 h -36.6 l 0.1,357.9 h 36.5 v -357.9"
         style="fill:#ffa412;fill-opacity:1;fill-rule:nonzero;stroke:none"
         id="path550" /><path
         d="m 13554.3,3081.2 h -36.6 l 0.1,358 h 36.6 l -0.1,-358"
         style="fill:#ffa412;fill-opacity:1;fill-rule:nonzero;stroke:none"
         id="path552" /><path
         d="m 13326.6,3081.2 h -36.6 l 0.1,358 h 36.6 l -0.1,-358"
         style="fill:#ffa412;fill-opacity:1;fill-rule:nonzero;stroke:none"
         id="path554" /><path
         d="m 13085.8,3081.2 h -36.6 l 0.1,358 h 36.6 l -0.1,-358"
         style="fill:#ffa412;fill-opacity:1;fill-rule:nonzero;stroke:none"
         id="path556" /><path
         d="m 12716.7,3081.3 h -36.6 v 358 h 36.6 v -358"
         style="fill:#ffa412;fill-opacity:1;fill-rule:nonzero;stroke:none"
         id="path558" /><path
         d="m 12371,3081.3 -36.6,0.1 0.1,357.9 h 36.6 l -0.1,-358"
         style="fill:#ffa412;fill-opacity:1;fill-rule:nonzero;stroke:none"
         id="path560" /><path
         d="m 12062.4,3439.4 v -358 h -36.6 v 358 h 36.6"
         style="fill:#ffa412;fill-opacity:1;fill-rule:nonzero;stroke:none"
         id="path562" /><path
         d="m 13944.7,3081.1 h -36.6 l 0.1,358 h 36.6 l -0.1,-358"
         style="fill:#ffa412;fill-opacity:1;fill-rule:nonzero;stroke:none"
         id="path564" /><path
         d="m 14022.6,3081.1 h -36.6 l 0.1,358 h 36.6 l -0.1,-358"
         style="fill:#ffa412;fill-opacity:1;fill-rule:nonzero;stroke:none"
         id="path566" /><path
         d="m 14097.8,3081.1 h -36.5 v 358 h 36.6 l -0.1,-358"
         style="fill:#ffa412;fill-opacity:1;fill-rule:nonzero;stroke:none"
         id="path568" /><path
         d="m 14154.5,3437.8 -0.1,-355.5 c -4.4,-0.8 -9,-1.2 -13.7,-1.2 h -22.9 l 0.1,358 h 22.9 c 4.7,0 9.2,-0.4 13.7,-1.3"
         style="fill:#ffa412;fill-opacity:1;fill-rule:nonzero;stroke:none"
         id="path570" /><path
         d="m 14205.3,3404.7 v -289.2 c -8.9,-13.1 -21.6,-23.4 -36.6,-29.2 l 0.1,347.5 c 14.9,-5.8 27.6,-16 36.5,-29.1"
         style="fill:#ffa412;fill-opacity:1;fill-rule:nonzero;stroke:none"
         id="path572" /><path
         d="m 12236.7,2764.7 255.9,77 -42.9,239.4 c 0,0 -192.3,155.9 -224.2,358.2 l -1270.3,-316.7 v -724.8 h 322.2 v -288.1 h 1220.9 v 264.2 c 0,0 -173.9,34.6 -261.6,390.8"
         style="fill:#ffa412;fill-opacity:1;fill-rule:nonzero;stroke:none"
         id="path574" /><path
         d="m 13879.5,6393.8 c 0,0 1238.2,-991.5 1673.2,-2431.5 0,0 -296.5,1103.1 -1673.2,2431.5"
         style="fill:#ffffff;fill-opacity:1;fill-rule:nonzero;stroke:none"
         id="path576" /><path
         d="m 14370.1,5242.3 c 0,0 617.2,-1640 629.9,-2807.5 0,0 177.7,797.5 -629.9,2807.5"
         style="fill:#ffffff;fill-opacity:1;fill-rule:nonzero;stroke:none"
         id="path578" /><path
         d="m 13962.7,5334 c 0,0 293.3,-1166.7 316.7,-1626.7 0,0 16.6,626.7 -316.7,1626.7"
         style="fill:#ffffff;fill-opacity:1;fill-rule:nonzero;stroke:none"
         id="path580" /><path
         d="m 9815.51,10490.5 c 0,0 120.11,-6.7 181.02,-43.5 0,0 -88.93,-67.5 -181.02,43.5"
         style="fill:#ffffff;fill-opacity:1;fill-rule:nonzero;stroke:none"
         id="path582" /><path
         d="M 26115,1920.7 H 3885 c -26.27,0 -47.77,21.5 -47.77,47.8 v 0 c 0,26.3 21.5,47.8 47.77,47.8 h 22230 c 26.3,0 47.8,-21.5 47.8,-47.8 0,-26.3 -21.5,-47.8 -47.8,-47.8"
         style="fill:#2e3552;fill-opacity:1;fill-rule:nonzero;stroke:none"
         id="path584" /></g></g></svg>
