<?xml version="1.0" encoding="UTF-8" standalone="no"?>
<svg
   xmlns:dc="http://purl.org/dc/elements/1.1/"
   xmlns:cc="http://creativecommons.org/ns#"
   xmlns:rdf="http://www.w3.org/1999/02/22-rdf-syntax-ns#"
   xmlns:svg="http://www.w3.org/2000/svg"
   xmlns="http://www.w3.org/2000/svg"
   xmlns:sodipodi="http://sodipodi.sourceforge.net/DTD/sodipodi-0.dtd"
   xmlns:inkscape="http://www.inkscape.org/namespaces/inkscape"
   version="1.1"
   id="svg2"
   xml:space="preserve"
   width="4266.6665"
   height="2666.6667"
   viewBox="0 0 4266.6665 2666.6667"
   sodipodi:docname="7849.eps"><metadata
     id="metadata8"><rdf:RDF><cc:Work
         rdf:about=""><dc:format>image/svg+xml</dc:format><dc:type
           rdf:resource="http://purl.org/dc/dcmitype/StillImage" /></cc:Work></rdf:RDF></metadata><defs
     id="defs6" /><sodipodi:namedview
     pagecolor="transparent"
     bordercolor="#666666"
     borderopacity="1"
     objecttolerance="10"
     gridtolerance="10"
     guidetolerance="10"
     inkscape:pageopacity="0"
     inkscape:pageshadow="2"
     inkscape:window-width="640"
     inkscape:window-height="480"
     id="namedview4" /><g
     id="g10"
     inkscape:groupmode="layer"
     inkscape:label="ink_ext_XXXXXX"
     transform="matrix(1.3333333,0,0,-1.3333333,0,2666.6667)"><g
       id="g12"
       transform="scale(0.1)"><path
         d="M 0,0 H 32000 V 20000 H 0 Z"
         style="fill:transparent;fill-opacity:1;fill-rule:nonzero;stroke:none"
         id="path14" /><path
         d="m 4261.66,1894.8 c 0,0 -3328.105,4105.3 -1701.59,8331.6 1060.2,2754.9 5037.17,4264.4 7281.59,2754.9 955.94,-643 4022.74,-21.7 5660.34,2640 3182,5172.5 15513.8,2138.4 12265.8,-5910.3 -1484,-3677.5 2977.8,-3982.8 961.9,-7824.3 l -24468.04,8.1"
         style="fill:#ebf3fa;fill-opacity:1;fill-rule:nonzero;stroke:none"
         id="path16" /><path
         d="m 14608.8,9187.6 -2932.6,-3169.7 -4225.69,3909.6 -0.05,0.1 -1780.5,1647.3 2932.46,3169.6 3324.58,-3075.7 2681.8,-2481.2"
         style="fill:#cfe7ff;fill-opacity:1;fill-rule:nonzero;stroke:none"
         id="path18" /><path
         d="m 11865.2,7061.4 1716.9,1855.8 c 116.5,126 108.9,322.6 -17.1,439.1 l -4788.31,4430.1 c -128.24,118.7 -328.37,110.9 -447.01,-17.3 L 6619.59,11920.7 c -117.65,-127.2 -109.94,-325.7 17.23,-443.3 L 11428.3,7044.5 c 125.3,-116 320.9,-108.4 436.9,16.9 z m 2072.3,2089.5 -2276.7,-2460.8 -5398.58,4994.7 2276.67,2460.8 5398.61,-4994.7"
         style="fill:#c0d8fb;fill-opacity:1;fill-rule:nonzero;stroke:none"
         id="path20" /><path
         d="m 9487.28,9755.8 c -365.65,338.2 -387.83,908.9 -49.54,1274.5 338.29,365.7 908.96,387.9 1274.56,49.6 365.7,-338.3 387.8,-909 49.6,-1274.6 -338.3,-365.7 -908.98,-387.8 -1274.62,-49.5"
         style="fill:#c0d8fb;fill-opacity:1;fill-rule:nonzero;stroke:none"
         id="path22" /><path
         d="m 15759.2,9778.6 -4212,-952.3 -1269.3,5615.3 v 0.1 l -534.87,2365.9 4211.77,952.1 998.7,-4417.6 805.7,-3563.5"
         style="fill:#dceaff;fill-opacity:1;fill-rule:nonzero;stroke:none"
         id="path24" /><path
         d="m 12293.8,9579.5 2466,557.5 c 167.4,37.8 272.4,204.2 234.6,371.6 L 13556,16871.4 c -38.5,170.4 -207.9,277.3 -378.3,238.8 l -2456.1,-555.3 c -169,-38.2 -275,-206.1 -236.8,-375.1 l 1439.3,-6366.9 c 37.6,-166.5 203.2,-271 369.7,-233.4 z m 2891.3,548.9 -3269.9,-739.2 -1621.7,7173.7 3269.9,739.2 1621.7,-7173.7"
         style="fill:#c0d8fb;fill-opacity:1;fill-rule:nonzero;stroke:none"
         id="path26" /><path
         d="m 11859.4,13146.7 c -109.8,485.9 195,968.8 680.9,1078.7 485.9,109.8 968.8,-195 1078.6,-680.9 109.9,-485.9 -195,-968.8 -680.8,-1078.6 -485.9,-109.9 -968.8,195 -1078.7,680.8"
         style="fill:#c0d8fb;fill-opacity:1;fill-rule:nonzero;stroke:none"
         id="path28" /><path
         d="m 24143,5129.1 -4491.3,1575.2 2100.1,5987.6 0.1,0.1 884.8,2522.9 4491.1,-1575.2 L 25475.7,8929 24143,5129.1"
         style="fill:#dceaff;fill-opacity:1;fill-rule:nonzero;stroke:none"
         id="path30" /><path
         d="m 20789.8,6971 2629.5,-922.3 c 178.5,-62.6 373.9,31.3 436.5,209.8 l 2379.7,6784.8 c 63.7,181.7 -31.9,380.6 -213.6,444.4 l -2619,918.6 c -180.2,63.1 -377.5,-31.7 -440.7,-211.9 L 20581,7405.3 c -62.3,-177.6 31.2,-372.1 208.8,-434.3 z m 3021.7,-1179.2 -3486.8,1223 2682.9,7649.4 3486.8,-1222.9 -2682.9,-7649.5"
         style="fill:#c0d8fb;fill-opacity:1;fill-rule:nonzero;stroke:none"
         id="path32" /><path
         d="m 22471.4,10557.1 c 181.7,518.1 749,790.7 1267.1,609 518.1,-181.7 790.8,-749 609.1,-1267.1 -181.8,-518.1 -749.1,-790.8 -1267.2,-609.1 -518,181.8 -790.7,749.1 -609,1267.2"
         style="fill:#c0d8fb;fill-opacity:1;fill-rule:nonzero;stroke:none"
         id="path34" /><path
         d="M 11301.2,8595 V 7312.9 c 0,-245.4 -200.9,-446.2 -446.3,-446.2 h -918.68 c -245.36,0 -446.28,200.8 -446.28,446.2 V 8595 c 0,245.4 200.92,446.2 446.28,446.2 h 918.68 c 245.4,0 446.3,-200.8 446.3,-446.2"
         style="fill:#ed7d2b;fill-opacity:1;fill-rule:nonzero;stroke:none"
         id="path36" /><path
         d="m 11301.2,8595 v -714.3 c 0,-245.3 -200.9,-446.2 -446.3,-446.2 h -918.68 c -245.36,0 -446.28,200.9 -446.28,446.2 V 8595 c 0,245.4 200.92,446.2 446.28,446.2 h 918.68 c 245.4,0 446.3,-200.8 446.3,-446.2"
         style="fill:#f99746;fill-opacity:1;fill-rule:nonzero;stroke:none"
         id="path38" /><path
         d="m 21480.1,7954 c 0,-656.1 -134.2,-1282.2 -376.5,-1852.5 -726.9,-1710.9 -2426.5,-2918.6 -4394.5,-2918.6 h -1364 c -1741.3,0 -3272.5,945.5 -4105.7,2348.4 -422.3,711.2 -665.3,1539.9 -665.3,2422.7 0,656 134.2,1282.1 376.5,1852.5 726.8,1710.8 2426.5,2918.4 4394.5,2918.4 h 1364 c 1789.6,0 3357.4,-998.6 4173.3,-2466.2 380.6,-684.3 597.7,-1470.4 597.7,-2304.7"
         style="fill:#ed7d2b;fill-opacity:1;fill-rule:nonzero;stroke:none"
         id="path40" /><path
         d="m 20882.4,10258.7 c 113.2,-550.3 24.2,-1336.8 -120.6,-1753.3 -962.8,-2769.2 -3226,-3269.2 -5539.4,-3479.7 -1645,-149.7 -3983,505.6 -3983,505.6 -422.3,711.2 -665.3,1539.9 -665.3,2422.7 0,656 134.2,1282.1 376.5,1852.5 726.8,1710.8 2426.5,2918.4 4394.5,2918.4 h 1364 c 1789.6,0 3357.4,-998.6 4173.3,-2466.2"
         style="fill:#f99746;fill-opacity:1;fill-rule:nonzero;stroke:none"
         id="path42" /><path
         d="m 14782.6,11529.7 h -1876.5 c -189.3,0 -342.6,114.9 -342.6,256.6 v 2562.2 c 0,43.7 13.7,83.5 37.4,118 91.8,133.2 333,188.1 512.5,86.4 712.5,-403.8 1879.7,-1281.6 2011,-2749.1 13.4,-148.3 -143.5,-274.1 -341.8,-274.1"
         style="fill:#f99746;fill-opacity:1;fill-rule:nonzero;stroke:none"
         id="path44" /><path
         d="m 12982.4,11529.7 h -76.3 c -189.3,0 -342.6,114.9 -342.6,256.6 v 2562.2 c 0,43.7 13.7,83.5 37.4,118 8.1,-6.9 15.9,-14.5 23.2,-22.6 407.6,-453.8 995.1,-1345.3 829.6,-2594.2 -24,-181.5 -227.7,-320 -471.3,-320"
         style="fill:#ed7d2b;fill-opacity:1;fill-rule:nonzero;stroke:none"
         id="path46" /><path
         d="m 11993.3,9816.9 c 0,154.4 125.2,279.6 279.6,279.6 154.4,0 279.6,-125.2 279.6,-279.6 0,-154.4 -125.2,-279.6 -279.6,-279.6 -154.4,0 -279.6,125.2 -279.6,279.6"
         style="fill:#2b478b;fill-opacity:1;fill-rule:nonzero;stroke:none"
         id="path48" /><path
         d="m 17516.4,5208.5 -445,-2889.7 c -59.1,-223.9 109.7,-443 341.2,-443 h 1169.5 c 250.7,0 480.4,140 595.3,362.9 L 20995,5864.3 17516.4,5208.5"
         style="fill:#ed7d2b;fill-opacity:1;fill-rule:nonzero;stroke:none"
         id="path50" /><path
         d="m 14853.5,5158.8 357,-2840 c 59.1,-223.9 -109.7,-443 -341.3,-443 h -1169.5 c -250.7,0 -480.4,140 -595.2,362.9 l -1865.1,3292.6 3614.1,-372.5"
         style="fill:#ed7d2b;fill-opacity:1;fill-rule:nonzero;stroke:none"
         id="path52" /><path
         d="m 20995.6,7955.7 -0.6,-1.7 z m 2055.4,484.4 c -106.3,-78.5 -202,-169.7 -285.5,-272.6 -204.4,-252 -329.7,-566.5 -343.8,-862.9 -11.1,-235.3 56.3,-419.5 164.2,-447.9 108.9,-28.6 265.6,117.8 380.9,356.3 126.3,261.1 186.7,589.5 161.6,878.6 -9,103.8 -30.8,225.3 -77.4,348.5 z m -434.4,-1782.9 c -27,0 -53.8,3.4 -80.5,10.4 -207.4,54.6 -326,302.2 -309.7,646.2 16,337.2 157.1,693.3 387.3,976.9 101.8,125.5 219.4,235.3 350.6,328.2 -61.9,102.1 -145.5,200 -257.9,284.4 -191.1,143.3 -388.6,184.6 -603.7,126.3 -578.2,-157 -1068.2,-983.4 -1107.9,-1076.3 -18,-49.7 -72.4,-76.2 -122.8,-59.4 -51.3,17 -79,72.4 -61.9,123.6 17.2,51.6 160.4,298.3 360.2,542.6 348.1,425.8 651.4,587.2 844.6,647.5 286.5,89.5 558.7,39.7 808.8,-147.9 124.2,-93.1 226.8,-206.2 306.4,-336.4 198.4,110.5 421.9,187.3 665,227.1 53.4,8.8 103.6,-27.4 112.3,-80.6 8.8,-53.3 -27.4,-103.6 -80.6,-112.3 -223.1,-36.6 -427.5,-107.2 -608,-208.8 55.4,-133.7 90.6,-281.2 104.4,-440.2 28.4,-327.5 -37.3,-684.9 -180.3,-980.7 -145.7,-301.2 -337.6,-470.6 -526.3,-470.6"
         style="fill:#ed7d2b;fill-opacity:1;fill-rule:nonzero;stroke:none"
         id="path54" /><path
         d="m 14703.1,2226.3 v -186.2 c 0,-14.7 -5.4,-28.5 -14.7,-40 -9.7,-12 -23.7,-21.5 -40,-26.8 -5.1,-1.8 -10.3,-3 -15.7,-3.7 -4.9,-0.8 -9.9,-1.2 -15.1,-1.2 h -3529.9 c -42.7,0 -78.3,26.6 -84.6,61 -0.3,2.3 -0.7,4.7 -0.8,7.1 0,1.2 -0.1,2.4 -0.1,3.6 v 186.2 c 0,1.2 0.1,2.4 0.1,3.6 0.1,2.4 0.5,4.7 0.8,7.1 6.3,34.4 41.9,60.9 84.6,60.9 h 3529.9 c 5.2,0 10.2,-0.3 15.1,-1.1 5.4,-0.7 10.6,-2.1 15.7,-3.7 16.3,-5.3 30.3,-14.8 40,-26.8 9.3,-11.5 14.7,-25.3 14.7,-40"
         style="fill:#ffb93e;fill-opacity:1;fill-rule:nonzero;stroke:none"
         id="path56" /><path
         d="m 12969.7,1968.4 h -1891.2 c -35,0 -64.5,22.7 -73.3,53.1 -0.9,2.6 -1.6,5.2 -2.1,7.9 -0.3,2.3 -0.7,4.7 -0.8,7.1 0,1.2 -0.1,2.4 -0.1,3.6 v 186.2 c 0,1.2 0.1,2.4 0.1,3.6 0.1,2.4 0.5,4.7 0.8,7.1 0.5,2.7 1.2,5.3 2.1,7.9 8.8,30.4 38.3,53 73.3,53 h 1659 c 26.4,-97 88.2,-231.1 232.2,-329.5"
         style="fill:#ffa412;fill-opacity:1;fill-rule:nonzero;stroke:none"
         id="path58" /><path
         d="m 14273.5,1968.4 h -40.1 V 2298 h 40.1 v -329.6"
         style="fill:#ffa412;fill-opacity:1;fill-rule:nonzero;stroke:none"
         id="path60" /><path
         d="m 14137.7,1968.4 h -40.1 V 2298 h 40.1 v -329.6"
         style="fill:#ffa412;fill-opacity:1;fill-rule:nonzero;stroke:none"
         id="path62" /><path
         d="m 13974.9,1968.4 h -40.1 V 2298 h 40.1 v -329.6"
         style="fill:#ffa412;fill-opacity:1;fill-rule:nonzero;stroke:none"
         id="path64" /><path
         d="m 13725.2,1968.4 h -40.1 V 2298 h 40.1 v -329.6"
         style="fill:#ffa412;fill-opacity:1;fill-rule:nonzero;stroke:none"
         id="path66" /><path
         d="m 13461.3,1968.4 h -40.1 V 2298 h 40.1 v -329.6"
         style="fill:#ffa412;fill-opacity:1;fill-rule:nonzero;stroke:none"
         id="path68" /><path
         d="m 13056.6,1968.4 h -40.1 V 2298 h 40.1 v -329.6"
         style="fill:#ffa412;fill-opacity:1;fill-rule:nonzero;stroke:none"
         id="path70" /><path
         d="m 12677.7,1968.4 h -40.1 V 2298 h 40.1 v -329.6"
         style="fill:#ffa412;fill-opacity:1;fill-rule:nonzero;stroke:none"
         id="path72" /><path
         d="m 12339.4,1968.4 h -40.2 V 2298 h 40.2 v -329.6"
         style="fill:#ffa412;fill-opacity:1;fill-rule:nonzero;stroke:none"
         id="path74" /><path
         d="m 14402.8,1968.4 h -40.1 V 2298 h 40.1 v -329.6"
         style="fill:#ffa412;fill-opacity:1;fill-rule:nonzero;stroke:none"
         id="path76" /><path
         d="m 14488.2,1968.4 h -40.1 V 2298 h 40.1 v -329.6"
         style="fill:#ffa412;fill-opacity:1;fill-rule:nonzero;stroke:none"
         id="path78" /><path
         d="m 14570.7,1968.4 h -40.1 V 2298 h 40.1 v -329.6"
         style="fill:#ffa412;fill-opacity:1;fill-rule:nonzero;stroke:none"
         id="path80" /><path
         d="m 14632.7,2296.8 v -327.2 c -4.9,-0.8 -9.9,-1.2 -15,-1.2 h -25.1 V 2298 h 25.1 c 5.1,0 10.1,-0.4 15,-1.2"
         style="fill:#ffa412;fill-opacity:1;fill-rule:nonzero;stroke:none"
         id="path82" /><path
         d="m 14688.4,2266.3 v -266.2 c -9.7,-12.1 -23.7,-21.5 -40.1,-26.8 v 319.8 c 16.4,-5.3 30.4,-14.8 40.1,-26.8"
         style="fill:#ffa412;fill-opacity:1;fill-rule:nonzero;stroke:none"
         id="path84" /><path
         d="m 14325.6,2555.8 v -186.1 c 0,-14.9 -5.4,-28.6 -14.5,-40.1 -2.5,-3 -5.2,-5.8 -8.1,-8.5 -8.8,-7.9 -19.7,-14.3 -32.1,-18.3 -4.9,-1.7 -10.2,-2.9 -15.6,-3.6 -4.9,-0.8 -9.9,-1.3 -15,-1.3 h -3530.1 c -42.5,0 -78.2,26.7 -84.5,61.1 -0.3,2.3 -0.6,4.7 -0.7,7 -0.1,1.2 -0.1,2.4 -0.1,3.7 v 186.1 c 0,1.2 0,2.5 0.1,3.7 0.1,2.3 0.4,4.6 0.7,7 6.3,34.4 42,61 84.5,61 h 3530.1 c 2.2,0 4.5,-0.1 6.7,-0.3 l 2.4,-0.2 h 0.5 c 1,0 2.1,-0.1 3.2,-0.3 l 2.2,-0.4 c 5.4,-0.7 10.7,-1.9 15.6,-3.6 3,-1 5.9,-2.1 8.6,-3.3 h 0.1 c 1.9,-0.9 3.8,-1.8 5.6,-2.7 1,-0.5 2.1,-1.2 3,-1.7 1,-0.6 2,-1.1 2.9,-1.8 3.8,-2.2 7.2,-4.7 10.4,-7.6 1.1,-0.9 2,-1.9 3,-2.7 l 1.7,-1.7 0.9,-1 0.8,-0.8 c 1.1,-1.1 2.2,-2.3 3.2,-3.6 9.1,-11.5 14.5,-25.2 14.5,-40"
         style="fill:#ffb93e;fill-opacity:1;fill-rule:nonzero;stroke:none"
         id="path86" /><path
         d="m 12592.2,2297.9 h -1891.1 c -35.1,0 -64.5,22.8 -73.3,53.3 -0.8,2.6 -1.6,5.2 -2.1,7.8 -0.3,2.3 -0.6,4.7 -0.7,7 -0.1,1.2 -0.1,2.4 -0.1,3.7 v 186.1 c 0,1.2 0,2.5 0.1,3.7 0.1,2.3 0.4,4.6 0.7,7 0.5,2.6 1.3,5.3 2.1,7.8 8.8,30.5 38.2,53.2 73.3,53.2 H 12360 c 0.7,-2.7 1.4,-5.4 2.3,-8.1 27.7,-96.3 89.9,-225.8 229.9,-321.5"
         style="fill:#ffa412;fill-opacity:1;fill-rule:nonzero;stroke:none"
         id="path88" /><path
         d="m 13896.1,2298 h -40.1 v 329.5 h 40.1 V 2298"
         style="fill:#ffa412;fill-opacity:1;fill-rule:nonzero;stroke:none"
         id="path90" /><path
         d="m 13760.3,2298 h -40.1 v 329.5 h 40.1 V 2298"
         style="fill:#ffa412;fill-opacity:1;fill-rule:nonzero;stroke:none"
         id="path92" /><path
         d="m 13597.5,2298 h -40.2 v 329.5 h 40.2 V 2298"
         style="fill:#ffa412;fill-opacity:1;fill-rule:nonzero;stroke:none"
         id="path94" /><path
         d="m 13347.8,2298 h -40.1 v 329.5 h 40.1 V 2298"
         style="fill:#ffa412;fill-opacity:1;fill-rule:nonzero;stroke:none"
         id="path96" /><path
         d="m 13083.9,2298 h -40.2 v 329.5 h 40.2 V 2298"
         style="fill:#ffa412;fill-opacity:1;fill-rule:nonzero;stroke:none"
         id="path98" /><path
         d="m 12679.2,2298 h -40.1 v 329.5 h 40.1 V 2298"
         style="fill:#ffa412;fill-opacity:1;fill-rule:nonzero;stroke:none"
         id="path100" /><path
         d="m 12300.3,2298 h -40.1 v 329.5 h 40.1 V 2298"
         style="fill:#ffa412;fill-opacity:1;fill-rule:nonzero;stroke:none"
         id="path102" /><path
         d="m 11961.9,2298 h -40.1 v 329.5 h 40.1 V 2298"
         style="fill:#ffa412;fill-opacity:1;fill-rule:nonzero;stroke:none"
         id="path104" /><path
         d="m 14025.4,2298 h -40.1 v 329.5 h 40.1 V 2298"
         style="fill:#ffa412;fill-opacity:1;fill-rule:nonzero;stroke:none"
         id="path106" /><path
         d="m 14110.8,2298 h -40.1 v 329.5 h 40.1 V 2298"
         style="fill:#ffa412;fill-opacity:1;fill-rule:nonzero;stroke:none"
         id="path108" /><path
         d="m 14193.3,2298 h -40.2 v 329.5 h 40.2 V 2298"
         style="fill:#ffa412;fill-opacity:1;fill-rule:nonzero;stroke:none"
         id="path110" /><path
         d="m 14255.3,2626.4 v -327.3 c -4.9,-0.7 -9.9,-1.1 -15.1,-1.1 h -25 v 329.5 h 25 c 5.2,0 10.2,-0.4 15.1,-1.1"
         style="fill:#ffa412;fill-opacity:1;fill-rule:nonzero;stroke:none"
         id="path112" /><path
         d="m 14311,2595.8 v -266.2 c -9.7,-12 -23.7,-21.5 -40.1,-26.8 v 319.9 c 16.4,-5.3 30.4,-14.8 40.1,-26.9"
         style="fill:#ffa412;fill-opacity:1;fill-rule:nonzero;stroke:none"
         id="path114" /><path
         d="m 14508,2877.2 v -186.1 c 0,-14.8 -5.4,-28.6 -14.7,-40.1 -9.6,-12 -23.5,-21.5 -40,-26.8 -4.9,-1.6 -10.2,-2.8 -15.6,-3.7 -4.9,-0.7 -10,-1.1 -15,-1.1 h -3530.1 c -14.1,0 -27.6,3 -39.4,8.1 -23.3,10.3 -40.5,29.5 -44.9,52.1 -0.4,1.5 -0.5,3.1 -0.7,4.6 -0.1,1 -0.2,2.1 -0.2,3.2 -0.1,1.2 -0.1,2.5 -0.1,3.7 v 186.1 c 0,1.2 0,2.4 0.1,3.7 0.1,2.3 0.3,4.7 0.7,6.9 6.3,34.5 41.9,61.1 84.5,61.1 h 3530.1 c 5,0 10.1,-0.3 15,-1.1 5.4,-0.8 10.7,-2 15.6,-3.7 16.5,-5.4 30.4,-14.8 40,-26.9 9.3,-11.4 14.7,-25.2 14.7,-40"
         style="fill:#ffb93e;fill-opacity:1;fill-rule:nonzero;stroke:none"
         id="path116" /><path
         d="m 12774.6,2619.4 h -1891.1 c -12.7,0 -24.6,3 -35.1,8.1 -21,10.3 -36.3,29.5 -40.1,52.1 -0.4,1.5 -0.5,3.1 -0.7,4.6 -0.1,1 -0.2,2.1 -0.2,3.2 -0.1,1.2 -0.1,2.5 -0.1,3.7 v 186.1 c 0,1.2 0,2.4 0.1,3.7 0.1,2.3 0.3,4.7 0.7,6.9 0.5,2.6 1.2,5.2 2,7.7 8.6,30.6 38.2,53.4 73.4,53.4 h 1658.9 c 25.8,-94.3 84.9,-223.9 220.7,-321.4 3.7,-2.7 7.6,-5.5 11.5,-8.1"
         style="fill:#ffa412;fill-opacity:1;fill-rule:nonzero;stroke:none"
         id="path118" /><path
         d="m 14078.5,2619.4 h -40.1 v 329.5 h 40.1 v -329.5"
         style="fill:#ffa412;fill-opacity:1;fill-rule:nonzero;stroke:none"
         id="path120" /><path
         d="m 13942.7,2619.4 h -40.1 v 329.5 h 40.1 v -329.5"
         style="fill:#ffa412;fill-opacity:1;fill-rule:nonzero;stroke:none"
         id="path122" /><path
         d="m 13779.8,2619.4 h -40.1 v 329.5 h 40.1 v -329.5"
         style="fill:#ffa412;fill-opacity:1;fill-rule:nonzero;stroke:none"
         id="path124" /><path
         d="m 13530.2,2619.4 h -40.1 v 329.5 h 40.1 v -329.5"
         style="fill:#ffa412;fill-opacity:1;fill-rule:nonzero;stroke:none"
         id="path126" /><path
         d="m 13266.2,2619.4 h -40.1 v 329.5 h 40.1 v -329.5"
         style="fill:#ffa412;fill-opacity:1;fill-rule:nonzero;stroke:none"
         id="path128" /><path
         d="m 12861.6,2619.4 h -40.1 v 329.5 h 40.1 v -329.5"
         style="fill:#ffa412;fill-opacity:1;fill-rule:nonzero;stroke:none"
         id="path130" /><path
         d="m 12482.7,2619.4 h -40.2 v 329.5 h 40.2 v -329.5"
         style="fill:#ffa412;fill-opacity:1;fill-rule:nonzero;stroke:none"
         id="path132" /><path
         d="m 12144.3,2619.4 h -40.1 v 329.5 h 40.1 v -329.5"
         style="fill:#ffa412;fill-opacity:1;fill-rule:nonzero;stroke:none"
         id="path134" /><path
         d="m 14207.8,2619.4 h -40.1 v 329.5 h 40.1 v -329.5"
         style="fill:#ffa412;fill-opacity:1;fill-rule:nonzero;stroke:none"
         id="path136" /><path
         d="m 14293.2,2619.4 h -40.1 v 329.5 h 40.1 v -329.5"
         style="fill:#ffa412;fill-opacity:1;fill-rule:nonzero;stroke:none"
         id="path138" /><path
         d="m 14375.6,2619.4 h -40.1 v 329.5 h 40.1 v -329.5"
         style="fill:#ffa412;fill-opacity:1;fill-rule:nonzero;stroke:none"
         id="path140" /><path
         d="m 14437.7,2947.8 v -327.3 c -4.9,-0.7 -9.9,-1.1 -15.1,-1.1 h -25 v 329.5 h 25 c 5.2,0 10.2,-0.4 15.1,-1.1"
         style="fill:#ffa412;fill-opacity:1;fill-rule:nonzero;stroke:none"
         id="path142" /><path
         d="m 14493.4,2917.3 v -266.2 c -9.7,-12.1 -23.7,-21.6 -40.1,-26.9 v 319.9 c 16.4,-5.3 30.4,-14.8 40.1,-26.8"
         style="fill:#ffa412;fill-opacity:1;fill-rule:nonzero;stroke:none"
         id="path144" /><path
         d="m 14592.6,3206.7 v -186 c 0,-14.9 -5.4,-28.6 -14.7,-40.1 -1.2,-1.5 -2.5,-2.9 -3.8,-4.4 -6.8,-7.1 -15,-13.2 -24.4,-17.7 -3.7,-1.8 -7.7,-3.4 -11.8,-4.8 -5.1,-1.6 -10.3,-2.8 -15.7,-3.6 -2.4,-0.3 -4.8,-0.7 -7.3,-0.9 -2.6,-0.2 -5.2,-0.3 -7.8,-0.3 h -3529.9 c -42.7,0 -78.3,26.7 -84.6,61.1 -0.3,2.3 -0.7,4.6 -0.8,6.9 v 193.6 c 2.2,34.9 34.4,63.4 75.2,67.4 3.4,0.4 6.8,0.6 10.2,0.6 h 3529.9 c 2.6,0 5.2,-0.1 7.8,-0.3 2.5,-0.3 4.9,-0.5 7.3,-0.9 5.4,-0.8 10.6,-2 15.7,-3.7 16.3,-5.2 30.3,-14.7 40,-26.8 9.3,-11.4 14.7,-25.2 14.7,-40.1"
         style="fill:#ffb93e;fill-opacity:1;fill-rule:nonzero;stroke:none"
         id="path146" /><path
         d="M 12859.2,2948.9 H 10968 c -35,0 -64.5,22.7 -73.3,53.2 -0.9,2.6 -1.6,5.2 -2.1,7.9 -0.3,2.3 -0.7,4.6 -0.8,6.9 v 193.6 c 2,34.8 30.8,63.4 67.2,67.4 3,0.4 6,0.6 9,0.6 h 1659 l 0.1,-0.6 c 26.6,-96.9 88.3,-230.8 232.1,-329"
         style="fill:#ffa412;fill-opacity:1;fill-rule:nonzero;stroke:none"
         id="path148" /><path
         d="m 14163.1,2948.9 h -40.2 v 329.6 h 40.2 v -329.6"
         style="fill:#ffa412;fill-opacity:1;fill-rule:nonzero;stroke:none"
         id="path150" /><path
         d="m 14027.3,2948.9 h -40.2 v 329.6 h 40.2 v -329.6"
         style="fill:#ffa412;fill-opacity:1;fill-rule:nonzero;stroke:none"
         id="path152" /><path
         d="m 13864.4,2948.9 h -40.1 v 329.6 h 40.1 v -329.6"
         style="fill:#ffa412;fill-opacity:1;fill-rule:nonzero;stroke:none"
         id="path154" /><path
         d="m 13614.8,2948.9 h -40.2 v 329.6 h 40.2 v -329.6"
         style="fill:#ffa412;fill-opacity:1;fill-rule:nonzero;stroke:none"
         id="path156" /><path
         d="m 13350.8,2948.9 h -40.1 v 329.6 h 40.1 v -329.6"
         style="fill:#ffa412;fill-opacity:1;fill-rule:nonzero;stroke:none"
         id="path158" /><path
         d="m 12946.1,2948.9 h -40.1 v 329.6 h 40.1 v -329.6"
         style="fill:#ffa412;fill-opacity:1;fill-rule:nonzero;stroke:none"
         id="path160" /><path
         d="m 12567.2,2948.9 h -40.1 v 329.6 h 40.1 v -329.6"
         style="fill:#ffa412;fill-opacity:1;fill-rule:nonzero;stroke:none"
         id="path162" /><path
         d="m 12188.8,2948.9 h 40.102 v 329.598 h -40.102 z"
         style="fill:#ffa412;fill-opacity:1;fill-rule:nonzero;stroke:none"
         id="path164" /><path
         d="m 14292.3,2948.9 h -40.1 v 329.6 h 40.1 v -329.6"
         style="fill:#ffa412;fill-opacity:1;fill-rule:nonzero;stroke:none"
         id="path166" /><path
         d="m 14377.7,2948.9 h -40.1 v 329.6 h 40.1 v -329.6"
         style="fill:#ffa412;fill-opacity:1;fill-rule:nonzero;stroke:none"
         id="path168" /><path
         d="m 14460.2,2948.9 h -40.1 v 329.6 h 40.1 v -329.6"
         style="fill:#ffa412;fill-opacity:1;fill-rule:nonzero;stroke:none"
         id="path170" /><path
         d="m 14522.2,3277.3 v -327.2 c -4.9,-0.8 -9.9,-1.2 -15,-1.2 h -25.1 v 329.6 h 25.1 c 5.1,0 10.1,-0.4 15,-1.2"
         style="fill:#ffa412;fill-opacity:1;fill-rule:nonzero;stroke:none"
         id="path172" /><path
         d="m 14578,3246.8 v -266.2 c -9.8,-12 -23.7,-21.5 -40.1,-26.8 v 319.9 c 16.4,-5.4 30.3,-14.8 40.1,-26.9"
         style="fill:#ffa412;fill-opacity:1;fill-rule:nonzero;stroke:none"
         id="path174" /><path
         d="m 14333,3535.8 v -186.1 c 0,-14.9 -5.3,-28.5 -14.5,-40 -9.7,-12.1 -23.8,-21.6 -40.2,-26.9 -4.9,-1.7 -10.2,-2.9 -15.5,-3.6 -1.7,-0.4 -3.3,-0.6 -5,-0.7 h -0.7 l -2.6,-0.2 -2.3,-0.3 c -1.6,0 -3,-0.1 -4.5,-0.1 h -3530 c -45.5,0 -83,30.4 -85.3,68.1 -0.1,1.2 -0.1,2.4 -0.1,3.7 v 186.1 c 0,1.2 0,2.5 0.1,3.7 0,1 0.1,2 0.2,3 3.4,30.3 29.7,55.5 64.1,62.7 l 2.5,0.6 c 5.9,1.1 12.1,1.7 18.5,1.7 h 3530 c 2.6,0 5,-0.1 7.6,-0.3 1.1,-0.1 2.2,-0.2 3.2,-0.3 h 0.2 0.1 c 1.3,-0.1 2.6,-0.3 4,-0.6 5.3,-0.7 10.6,-2 15.5,-3.6 16.4,-5.3 30.5,-14.8 40.2,-26.9 9.2,-11.5 14.5,-25.2 14.5,-40"
         style="fill:#ffb93e;fill-opacity:1;fill-rule:nonzero;stroke:none"
         id="path176" /><path
         d="m 12599.6,3277.9 h -1891 c -40.7,0 -74.1,30.4 -76.2,68.1 -0.1,1.2 -0.1,2.4 -0.1,3.7 v 186.1 c 0,1.2 0,2.5 0.1,3.7 0,1 0.1,2 0.2,3 3.1,31.1 27.5,56.4 59.2,63.2 1,0.3 2.1,0.5 3.2,0.6 4.4,0.8 8.9,1.2 13.6,1.2 h 1658.8 l 0.7,-2.4 c 26.8,-96.6 88.5,-229.1 230.8,-326.6 l 0.7,-0.6"
         style="fill:#ffa412;fill-opacity:1;fill-rule:nonzero;stroke:none"
         id="path178" /><path
         d="m 13903.5,3278 h -40.1 v 329.5 h 40.1 V 3278"
         style="fill:#ffa412;fill-opacity:1;fill-rule:nonzero;stroke:none"
         id="path180" /><path
         d="m 13767.7,3278 h -40.1 v 329.5 h 40.1 V 3278"
         style="fill:#ffa412;fill-opacity:1;fill-rule:nonzero;stroke:none"
         id="path182" /><path
         d="m 13604.9,3278 h -40.1 v 329.5 h 40.1 V 3278"
         style="fill:#ffa412;fill-opacity:1;fill-rule:nonzero;stroke:none"
         id="path184" /><path
         d="m 13355.2,3278 h -40.1 v 329.5 h 40.1 V 3278"
         style="fill:#ffa412;fill-opacity:1;fill-rule:nonzero;stroke:none"
         id="path186" /><path
         d="m 13091.3,3278 h -40.1 v 329.5 h 40.1 V 3278"
         style="fill:#ffa412;fill-opacity:1;fill-rule:nonzero;stroke:none"
         id="path188" /><path
         d="m 12686.6,3278 h -40.1 v 329.5 h 40.1 V 3278"
         style="fill:#ffa412;fill-opacity:1;fill-rule:nonzero;stroke:none"
         id="path190" /><path
         d="m 12307.7,3278 h -40.1 v 329.5 h 40.1 V 3278"
         style="fill:#ffa412;fill-opacity:1;fill-rule:nonzero;stroke:none"
         id="path192" /><path
         d="m 11929.2,3278 h 40.199 v 329.5 h -40.199 z"
         style="fill:#ffa412;fill-opacity:1;fill-rule:nonzero;stroke:none"
         id="path194" /><path
         d="m 14032.8,3278 h -40.1 v 329.5 h 40.1 V 3278"
         style="fill:#ffa412;fill-opacity:1;fill-rule:nonzero;stroke:none"
         id="path196" /><path
         d="m 14118.2,3278 h -40.1 v 329.5 h 40.1 V 3278"
         style="fill:#ffa412;fill-opacity:1;fill-rule:nonzero;stroke:none"
         id="path198" /><path
         d="m 14200.7,3278 h -40.1 v 329.5 h 40.1 V 3278"
         style="fill:#ffa412;fill-opacity:1;fill-rule:nonzero;stroke:none"
         id="path200" /><path
         d="m 14262.7,3606.4 v -327.3 c -4.9,-0.7 -9.9,-1.1 -15,-1.1 h -25.1 v 329.5 h 25.1 c 5.1,0 10.1,-0.4 15,-1.1"
         style="fill:#ffa412;fill-opacity:1;fill-rule:nonzero;stroke:none"
         id="path202" /><path
         d="m 14318.4,3575.8 v -266.2 c -9.7,-12 -23.7,-21.5 -40.1,-26.8 v 319.9 c 16.4,-5.3 30.4,-14.8 40.1,-26.9"
         style="fill:#ffa412;fill-opacity:1;fill-rule:nonzero;stroke:none"
         id="path204" /><path
         d="m 14325.6,3862.9 v -186 c 0,-14.9 -5.4,-28.6 -14.5,-40 -2.5,-3 -5.2,-5.9 -8.1,-8.6 -8.8,-8 -19.7,-14.3 -32.1,-18.3 -3.9,-1.3 -8,-2.3 -12.1,-3.1 h -0.1 -0.2 c -1.1,-0.2 -2.1,-0.5 -3.2,-0.6 -4.9,-0.7 -9.9,-1.2 -15,-1.2 h -3530.1 c -3.6,0 -7.4,0.2 -11,0.7 -1.4,0.1 -2.9,0.3 -4.2,0.5 -35.9,5.5 -64.3,30.1 -69.4,60.7 -0.3,2.1 -0.5,4.1 -0.6,6.2 -0.1,1.3 -0.1,2.5 -0.1,3.7 v 186 c 0,1.4 0,2.6 0.1,3.8 0.1,2.3 0.4,4.6 0.7,6.9 6.3,34.4 42,61.1 84.5,61.1 h 3530.1 c 2.2,0 4.5,-0.1 6.7,-0.2 l 0.9,-0.1 2,-0.1 c 1,-0.1 2.1,-0.2 3.2,-0.5 l 2.2,-0.3 c 5.4,-0.8 10.7,-2 15.6,-3.6 3,-1 5.9,-2.1 8.6,-3.3 h 0.1 c 11.1,-4.9 20.7,-11.7 28.3,-19.9 1.1,-1.2 2.2,-2.4 3.2,-3.6 9.1,-11.5 14.5,-25.3 14.5,-40.2"
         style="fill:#ffb93e;fill-opacity:1;fill-rule:nonzero;stroke:none"
         id="path206" /><path
         d="m 12592.2,3605.1 h -1891.1 c -1.5,0 -3,0.1 -4.4,0.1 -1.7,0.1 -3.3,0.4 -4.9,0.5 -34.2,4.1 -61.5,29.4 -66.2,61.3 -0.3,2.1 -0.5,4.1 -0.6,6.2 -0.1,1.3 -0.1,2.5 -0.1,3.7 v 186 c 0,1.4 0,2.6 0.1,3.8 0.1,2.3 0.4,4.6 0.7,6.9 0.5,2.7 1.3,5.3 2.1,7.9 8.8,30.5 38.2,53.2 73.3,53.2 H 12360 c 0.7,-2.7 1.4,-5.4 2.3,-8.1 27.5,-95.5 88.9,-223.7 226.5,-319.1 1.1,-0.8 2.3,-1.5 3.4,-2.4"
         style="fill:#ffa412;fill-opacity:1;fill-rule:nonzero;stroke:none"
         id="path208" /><path
         d="m 13896.1,3605.2 h -40.1 v 329.5 h 40.1 v -329.5"
         style="fill:#ffa412;fill-opacity:1;fill-rule:nonzero;stroke:none"
         id="path210" /><path
         d="m 13760.3,3605.2 h -40.1 v 329.5 h 40.1 v -329.5"
         style="fill:#ffa412;fill-opacity:1;fill-rule:nonzero;stroke:none"
         id="path212" /><path
         d="m 13597.5,3605.2 h -40.2 v 329.5 h 40.2 v -329.5"
         style="fill:#ffa412;fill-opacity:1;fill-rule:nonzero;stroke:none"
         id="path214" /><path
         d="m 13347.8,3605.2 h -40.1 v 329.5 h 40.1 v -329.5"
         style="fill:#ffa412;fill-opacity:1;fill-rule:nonzero;stroke:none"
         id="path216" /><path
         d="m 13083.9,3605.2 h -40.2 v 329.5 h 40.2 v -329.5"
         style="fill:#ffa412;fill-opacity:1;fill-rule:nonzero;stroke:none"
         id="path218" /><path
         d="m 12679.2,3605.2 h -40.1 v 329.5 h 40.1 v -329.5"
         style="fill:#ffa412;fill-opacity:1;fill-rule:nonzero;stroke:none"
         id="path220" /><path
         d="m 12260.2,3605.2 h 40.102 v 329.5 h -40.102 z"
         style="fill:#ffa412;fill-opacity:1;fill-rule:nonzero;stroke:none"
         id="path222" /><path
         d="m 11921.8,3605.2 h 40.098 v 329.5 h -40.098 z"
         style="fill:#ffa412;fill-opacity:1;fill-rule:nonzero;stroke:none"
         id="path224" /><path
         d="m 14025.4,3605.2 h -40.1 v 329.5 h 40.1 v -329.5"
         style="fill:#ffa412;fill-opacity:1;fill-rule:nonzero;stroke:none"
         id="path226" /><path
         d="m 14110.8,3605.2 h -40.1 v 329.5 h 40.1 v -329.5"
         style="fill:#ffa412;fill-opacity:1;fill-rule:nonzero;stroke:none"
         id="path228" /><path
         d="m 14193.3,3605.2 h -40.2 v 329.5 h 40.2 v -329.5"
         style="fill:#ffa412;fill-opacity:1;fill-rule:nonzero;stroke:none"
         id="path230" /><path
         d="m 14255.3,3933.6 v -327.3 c -4.9,-0.7 -9.9,-1.1 -15.1,-1.1 h -25 v 329.5 h 25 c 5.2,0 10.2,-0.4 15.1,-1.1"
         style="fill:#ffa412;fill-opacity:1;fill-rule:nonzero;stroke:none"
         id="path232" /><path
         d="m 14311,3903 v -266.2 c -9.7,-12 -23.7,-21.5 -40.1,-26.8 v 319.9 c 16.4,-5.3 30.4,-14.8 40.1,-26.9"
         style="fill:#ffa412;fill-opacity:1;fill-rule:nonzero;stroke:none"
         id="path234" /><path
         d="m 14508,4184.4 v -186 c 0,-14.9 -5.4,-28.7 -14.7,-40.2 -9.6,-12 -23.5,-21.5 -40,-26.8 -4.9,-1.6 -10.2,-2.8 -15.6,-3.6 -4.9,-0.8 -10,-1.2 -15,-1.2 h -3530.1 c -14.1,0 -27.6,2.9 -39.4,8.1 -23.3,10.3 -40.5,29.5 -44.9,52.1 -0.4,1.5 -0.5,3.1 -0.7,4.6 -0.1,1.1 -0.2,2.1 -0.2,3.2 -0.1,1.2 -0.1,2.4 -0.1,3.8 v 186 c 0,1.2 0,2.5 0.1,3.7 0.1,2.4 0.3,4.7 0.7,7 6.3,34.4 41.9,61.1 84.5,61.1 h 3530.1 c 5,0 10.1,-0.5 15,-1.2 5.4,-0.8 10.7,-2 15.6,-3.7 16.5,-5.3 30.4,-14.8 40,-26.9 9.3,-11.5 14.7,-25.1 14.7,-40"
         style="fill:#ffb93e;fill-opacity:1;fill-rule:nonzero;stroke:none"
         id="path236" /><path
         d="m 12774.6,3926.6 h -1891.1 c -12.7,0 -24.6,2.9 -35.1,8.1 -21,10.3 -36.3,29.5 -40.1,52.1 -0.4,1.5 -0.5,3.1 -0.7,4.6 -0.1,1.1 -0.2,2.1 -0.2,3.2 -0.1,1.2 -0.1,2.4 -0.1,3.8 v 186 c 0,1.2 0,2.5 0.1,3.7 0.1,2.4 0.3,4.7 0.7,7 0.5,2.6 1.2,5.1 2,7.6 8.6,30.6 38.2,53.5 73.4,53.5 h 1658.9 c 25.8,-94.4 84.9,-224 220.7,-321.5 3.7,-2.7 7.6,-5.4 11.5,-8.1"
         style="fill:#ffa412;fill-opacity:1;fill-rule:nonzero;stroke:none"
         id="path238" /><path
         d="m 14078.5,3926.6 h -40.1 v 329.5 h 40.1 v -329.5"
         style="fill:#ffa412;fill-opacity:1;fill-rule:nonzero;stroke:none"
         id="path240" /><path
         d="m 13942.7,3926.6 h -40.1 v 329.5 h 40.1 v -329.5"
         style="fill:#ffa412;fill-opacity:1;fill-rule:nonzero;stroke:none"
         id="path242" /><path
         d="m 13779.8,3926.6 h -40.1 v 329.5 h 40.1 v -329.5"
         style="fill:#ffa412;fill-opacity:1;fill-rule:nonzero;stroke:none"
         id="path244" /><path
         d="m 13530.2,3926.6 h -40.1 v 329.5 h 40.1 v -329.5"
         style="fill:#ffa412;fill-opacity:1;fill-rule:nonzero;stroke:none"
         id="path246" /><path
         d="m 13266.2,3926.6 h -40.1 v 329.5 h 40.1 v -329.5"
         style="fill:#ffa412;fill-opacity:1;fill-rule:nonzero;stroke:none"
         id="path248" /><path
         d="m 12861.6,3926.6 h -40.1 v 329.5 h 40.1 v -329.5"
         style="fill:#ffa412;fill-opacity:1;fill-rule:nonzero;stroke:none"
         id="path250" /><path
         d="m 12482.7,3926.6 h -40.2 v 329.5 h 40.2 v -329.5"
         style="fill:#ffa412;fill-opacity:1;fill-rule:nonzero;stroke:none"
         id="path252" /><path
         d="m 12104.2,3926.6 h 40.102 v 329.5 h -40.102 z"
         style="fill:#ffa412;fill-opacity:1;fill-rule:nonzero;stroke:none"
         id="path254" /><path
         d="m 14207.8,3926.6 h -40.1 v 329.5 h 40.1 v -329.5"
         style="fill:#ffa412;fill-opacity:1;fill-rule:nonzero;stroke:none"
         id="path256" /><path
         d="m 14293.2,3926.6 h -40.1 v 329.5 h 40.1 v -329.5"
         style="fill:#ffa412;fill-opacity:1;fill-rule:nonzero;stroke:none"
         id="path258" /><path
         d="m 14375.6,3926.6 h -40.1 v 329.5 h 40.1 v -329.5"
         style="fill:#ffa412;fill-opacity:1;fill-rule:nonzero;stroke:none"
         id="path260" /><path
         d="m 14437.7,4255 v -327.3 c -4.9,-0.7 -9.9,-1.1 -15.1,-1.1 h -25 v 329.5 h 25 c 5.2,0 10.2,-0.4 15.1,-1.1"
         style="fill:#ffa412;fill-opacity:1;fill-rule:nonzero;stroke:none"
         id="path262" /><path
         d="m 14493.4,4224.4 v -266.1 c -9.7,-12.1 -23.7,-21.6 -40.1,-26.9 v 319.9 c 16.4,-5.3 30.4,-14.8 40.1,-26.9"
         style="fill:#ffa412;fill-opacity:1;fill-rule:nonzero;stroke:none"
         id="path264" /><path
         d="m 14796.5,4514 v -186.1 c 0,-14.8 -5.4,-28.5 -14.6,-40 l -0.1,-0.1 c -1.2,-1.5 -2.5,-3 -3.8,-4.4 -5.4,-5.7 -11.7,-10.7 -18.9,-14.8 -3.5,-1.9 -7.3,-3.8 -11.2,-5.4 l -0.1,-0.1 c -1.9,-0.8 -3.9,-1.5 -6,-2.2 -5,-1.6 -10.3,-2.9 -15.7,-3.6 -4.8,-0.8 -9.9,-1.1 -15,-1.1 h -3530 c -42.6,0 -78.2,26.5 -84.5,61 -0.4,2.3 -0.6,4.6 -0.8,7 -0.1,1.2 -0.1,2.4 -0.1,3.7 V 4514 c 0,1.2 0,2.4 0.1,3.6 2.1,34.9 34.3,63.4 75.2,67.5 3.4,0.5 6.7,0.6 10.1,0.6 h 3530 c 5.1,0 10.2,-0.5 15,-1.1 5.4,-0.9 10.7,-2.1 15.7,-3.8 14.3,-4.6 26.7,-12.4 36.2,-22.4 1.3,-1.4 2.6,-2.8 3.8,-4.4 l 0.1,-0.1 c 9.2,-11.5 14.6,-25.1 14.6,-39.9"
         style="fill:#ffb93e;fill-opacity:1;fill-rule:nonzero;stroke:none"
         id="path266" /><path
         d="m 13063.1,4256.2 h -1891.2 c -35.1,0 -64.7,22.7 -73.3,53.3 -0.8,2.5 -1.5,5 -2,7.7 -0.4,2.3 -0.6,4.6 -0.8,7 -0.1,1.2 -0.1,2.4 -0.1,3.7 V 4514 c 0,1.2 0,2.4 0.1,3.6 1.9,34.9 30.7,63.4 67.1,67.5 3,0.5 5.9,0.6 9,0.6 h 1659 l 0.1,-0.6 c 26.6,-96.9 88.3,-230.8 232.1,-328.9"
         style="fill:#ffa412;fill-opacity:1;fill-rule:nonzero;stroke:none"
         id="path268" /><path
         d="m 14367,4256.1 h -40.1 v 329.6 h 40.1 v -329.6"
         style="fill:#ffa412;fill-opacity:1;fill-rule:nonzero;stroke:none"
         id="path270" /><path
         d="m 14231.2,4256.1 h -40.1 v 329.6 h 40.1 v -329.6"
         style="fill:#ffa412;fill-opacity:1;fill-rule:nonzero;stroke:none"
         id="path272" /><path
         d="m 14068.3,4256.1 h -40.1 v 329.6 h 40.1 v -329.6"
         style="fill:#ffa412;fill-opacity:1;fill-rule:nonzero;stroke:none"
         id="path274" /><path
         d="m 13818.7,4256.1 h -40.1 v 329.6 h 40.1 v -329.6"
         style="fill:#ffa412;fill-opacity:1;fill-rule:nonzero;stroke:none"
         id="path276" /><path
         d="m 13554.7,4256.1 h -40.1 v 329.6 h 40.1 v -329.6"
         style="fill:#ffa412;fill-opacity:1;fill-rule:nonzero;stroke:none"
         id="path278" /><path
         d="m 13150,4256.1 h -40.1 v 329.6 h 40.1 v -329.6"
         style="fill:#ffa412;fill-opacity:1;fill-rule:nonzero;stroke:none"
         id="path280" /><path
         d="m 12771.2,4256.1 h -40.2 v 329.6 h 40.2 v -329.6"
         style="fill:#ffa412;fill-opacity:1;fill-rule:nonzero;stroke:none"
         id="path282" /><path
         d="m 12432.8,4256.1 h -40.1 v 329.6 h 40.1 v -329.6"
         style="fill:#ffa412;fill-opacity:1;fill-rule:nonzero;stroke:none"
         id="path284" /><path
         d="m 14496.3,4256.1 h -40.2 v 329.6 h 40.2 v -329.6"
         style="fill:#ffa412;fill-opacity:1;fill-rule:nonzero;stroke:none"
         id="path286" /><path
         d="m 14581.7,4256.1 h -40.2 v 329.6 h 40.2 v -329.6"
         style="fill:#ffa412;fill-opacity:1;fill-rule:nonzero;stroke:none"
         id="path288" /><path
         d="m 14664.1,4256.1 h -40.1 v 329.6 h 40.1 v -329.6"
         style="fill:#ffa412;fill-opacity:1;fill-rule:nonzero;stroke:none"
         id="path290" /><path
         d="m 14726.2,4584.5 v -327.2 c -4.9,-0.8 -9.9,-1.2 -15.1,-1.2 h -25.1 v 329.6 h 25.1 c 5.2,0 10.2,-0.4 15.1,-1.2"
         style="fill:#ffa412;fill-opacity:1;fill-rule:nonzero;stroke:none"
         id="path292" /><path
         d="m 14781.9,4554 v -266.2 c -9.7,-12 -23.7,-21.5 -40.1,-26.8 v 319.8 c 16.4,-5.3 30.4,-14.7 40.1,-26.8"
         style="fill:#ffa412;fill-opacity:1;fill-rule:nonzero;stroke:none"
         id="path294" /><path
         d="m 14333,4842.9 v -186 c 0,-14.9 -5.3,-28.6 -14.5,-40 -9.7,-12.2 -23.8,-21.6 -40.2,-26.9 -4.9,-1.7 -10.2,-2.9 -15.5,-3.7 -1.7,-0.2 -3.3,-0.4 -5,-0.6 h -0.7 c -1.1,-0.2 -2.2,-0.2 -3.3,-0.4 l -1.9,-0.1 c -1.5,0 -2.8,-0.1 -4.2,-0.1 h -3530 c -30.6,0 -57.6,13.7 -72.7,34.2 -7.3,9.9 -11.9,21.5 -12.6,33.9 -0.1,1.3 -0.1,2.5 -0.1,3.7 v 186 c 0,1.4 0,2.6 0.1,3.8 1.8,30.5 26.9,56.2 60.5,64.8 7.8,2.1 16.2,3.2 24.8,3.2 h 3530 c 1.5,0 2.9,-0.1 4.5,-0.1 l 2.2,-0.2 c 2.9,-0.1 5.6,-0.5 8.4,-0.9 5.3,-0.8 10.6,-2 15.5,-3.6 2.6,-0.8 5,-1.7 7.3,-2.8 h 0.1 c 9.4,-3.8 17.8,-9.1 24.7,-15.5 l 0.3,-0.5 1,-0.9 c 2.5,-2.2 4.7,-4.6 6.8,-7.1 9.2,-11.5 14.5,-25.3 14.5,-40.2"
         style="fill:#ffb93e;fill-opacity:1;fill-rule:nonzero;stroke:none"
         id="path296" /><path
         d="m 12599.6,4585.1 h -1891 c -26.6,0 -50.2,13 -63.8,32.5 -7.3,10.4 -11.8,22.5 -12.4,35.6 -0.1,1.3 -0.1,2.5 -0.1,3.7 v 186 c 0,1.4 0,2.6 0.1,3.8 1.8,32.9 27.3,60 60.7,66.5 5,1 10.2,1.5 15.5,1.5 h 1658.8 c 0.7,-2.5 1.4,-5 2.2,-7.6 27.5,-96.1 89.5,-225.6 229.3,-321.4 l 0.7,-0.6"
         style="fill:#ffa412;fill-opacity:1;fill-rule:nonzero;stroke:none"
         id="path298" /><path
         d="m 13903.5,4585.2 h -40.1 v 329.5 h 40.1 v -329.5"
         style="fill:#ffa412;fill-opacity:1;fill-rule:nonzero;stroke:none"
         id="path300" /><path
         d="m 13767.7,4585.2 h -40.1 v 329.5 h 40.1 v -329.5"
         style="fill:#ffa412;fill-opacity:1;fill-rule:nonzero;stroke:none"
         id="path302" /><path
         d="m 13604.9,4585.2 h -40.1 v 329.5 h 40.1 v -329.5"
         style="fill:#ffa412;fill-opacity:1;fill-rule:nonzero;stroke:none"
         id="path304" /><path
         d="m 13355.2,4585.2 h -40.1 v 329.5 h 40.1 v -329.5"
         style="fill:#ffa412;fill-opacity:1;fill-rule:nonzero;stroke:none"
         id="path306" /><path
         d="m 13091.3,4585.2 h -40.1 v 329.5 h 40.1 v -329.5"
         style="fill:#ffa412;fill-opacity:1;fill-rule:nonzero;stroke:none"
         id="path308" /><path
         d="m 12686.6,4585.2 h -40.1 v 329.5 h 40.1 v -329.5"
         style="fill:#ffa412;fill-opacity:1;fill-rule:nonzero;stroke:none"
         id="path310" /><path
         d="m 12307.7,4585.2 h -40.1 v 329.5 h 40.1 v -329.5"
         style="fill:#ffa412;fill-opacity:1;fill-rule:nonzero;stroke:none"
         id="path312" /><path
         d="m 11929.2,4585.2 h 40.199 v 329.5 h -40.199 z"
         style="fill:#ffa412;fill-opacity:1;fill-rule:nonzero;stroke:none"
         id="path314" /><path
         d="m 14032.8,4585.2 h -40.1 v 329.5 h 40.1 v -329.5"
         style="fill:#ffa412;fill-opacity:1;fill-rule:nonzero;stroke:none"
         id="path316" /><path
         d="m 14118.2,4585.2 h -40.1 v 329.5 h 40.1 v -329.5"
         style="fill:#ffa412;fill-opacity:1;fill-rule:nonzero;stroke:none"
         id="path318" /><path
         d="m 14200.7,4585.2 h -40.1 v 329.5 h 40.1 v -329.5"
         style="fill:#ffa412;fill-opacity:1;fill-rule:nonzero;stroke:none"
         id="path320" /><path
         d="m 14262.7,4913.6 v -327.3 c -4.9,-0.7 -9.9,-1.1 -15,-1.1 h -25.1 v 329.5 h 25.1 c 5.1,0 10.1,-0.4 15,-1.1"
         style="fill:#ffa412;fill-opacity:1;fill-rule:nonzero;stroke:none"
         id="path322" /><path
         d="m 14318.4,4883 v -266.2 c -9.7,-12 -23.7,-21.5 -40.1,-26.8 v 319.9 c 16.4,-5.3 30.4,-14.8 40.1,-26.9"
         style="fill:#ffa412;fill-opacity:1;fill-rule:nonzero;stroke:none"
         id="path324" /><path
         d="m 14592.6,5164.9 v -186.1 c 0,-14.8 -5.4,-28.6 -14.6,-40 -9.8,-12.1 -23.7,-21.6 -40.1,-26.9 -5,-1.6 -10.3,-2.9 -15.7,-3.7 -4.9,-0.7 -9.9,-1.1 -15,-1.1 h -3530 c -13.7,0 -26.7,2.7 -38.1,7.6 -25.8,10.8 -44.2,32.4 -47,57.5 -0.1,0.9 -0.2,1.9 -0.2,2.9 -0.1,1.3 -0.1,2.5 -0.1,3.7 v 186.1 c 0,1.2 0,2.5 0.1,3.7 2.1,34.9 34.4,63.4 75.2,67.5 3.3,0.4 6.7,0.5 10.1,0.5 h 3530 c 5.1,0 10.1,-0.4 15,-1.1 5.4,-0.8 10.7,-2 15.7,-3.7 16.4,-5.3 30.3,-14.8 40.1,-26.8 9.2,-11.5 14.6,-25.3 14.6,-40.1"
         style="fill:#ffb93e;fill-opacity:1;fill-rule:nonzero;stroke:none"
         id="path326" /><path
         d="M 12859.2,4907.1 H 10968 c -12.2,0 -23.8,2.7 -34,7.6 -23,10.8 -39.4,32.4 -41.9,57.5 -0.1,0.9 -0.2,1.9 -0.2,2.9 -0.1,1.3 -0.1,2.5 -0.1,3.7 v 186.1 c 0,1.2 0,2.5 0.1,3.7 1.9,34.9 30.7,63.4 67.1,67.5 2.9,0.4 6,0.5 9,0.5 h 1659 l 0.1,-0.5 c 25.9,-94.5 85.2,-224 221.2,-321.4 3.6,-2.6 7.2,-5.1 10.9,-7.6"
         style="fill:#ffa412;fill-opacity:1;fill-rule:nonzero;stroke:none"
         id="path328" /><path
         d="m 14163.1,4907.1 h -40.2 v 329.5 h 40.2 v -329.5"
         style="fill:#ffa412;fill-opacity:1;fill-rule:nonzero;stroke:none"
         id="path330" /><path
         d="m 14027.3,4907.1 h -40.2 v 329.5 h 40.2 v -329.5"
         style="fill:#ffa412;fill-opacity:1;fill-rule:nonzero;stroke:none"
         id="path332" /><path
         d="m 13864.4,4907.1 h -40.1 v 329.5 h 40.1 v -329.5"
         style="fill:#ffa412;fill-opacity:1;fill-rule:nonzero;stroke:none"
         id="path334" /><path
         d="m 13614.8,4907.1 h -40.2 v 329.5 h 40.2 v -329.5"
         style="fill:#ffa412;fill-opacity:1;fill-rule:nonzero;stroke:none"
         id="path336" /><path
         d="m 13350.8,4907.1 h -40.1 v 329.5 h 40.1 v -329.5"
         style="fill:#ffa412;fill-opacity:1;fill-rule:nonzero;stroke:none"
         id="path338" /><path
         d="m 12946.1,4907.1 h -40.1 v 329.5 h 40.1 v -329.5"
         style="fill:#ffa412;fill-opacity:1;fill-rule:nonzero;stroke:none"
         id="path340" /><path
         d="m 12567.2,4907.1 h -40.1 v 329.5 h 40.1 v -329.5"
         style="fill:#ffa412;fill-opacity:1;fill-rule:nonzero;stroke:none"
         id="path342" /><path
         d="m 12228.9,4907.1 h -40.1 v 329.5 h 40.1 v -329.5"
         style="fill:#ffa412;fill-opacity:1;fill-rule:nonzero;stroke:none"
         id="path344" /><path
         d="m 14292.3,4907.1 h -40.1 v 329.5 h 40.1 v -329.5"
         style="fill:#ffa412;fill-opacity:1;fill-rule:nonzero;stroke:none"
         id="path346" /><path
         d="m 14377.7,4907.1 h -40.1 v 329.5 h 40.1 v -329.5"
         style="fill:#ffa412;fill-opacity:1;fill-rule:nonzero;stroke:none"
         id="path348" /><path
         d="m 14460.2,4907.1 h -40.1 v 329.5 h 40.1 v -329.5"
         style="fill:#ffa412;fill-opacity:1;fill-rule:nonzero;stroke:none"
         id="path350" /><path
         d="m 14522.2,5235.5 v -327.2 c -4.9,-0.8 -9.9,-1.2 -15,-1.2 h -25.1 v 329.6 h 25.1 c 5.1,0 10.1,-0.5 15,-1.2"
         style="fill:#ffa412;fill-opacity:1;fill-rule:nonzero;stroke:none"
         id="path352" /><path
         d="m 14578,5205 v -266.2 c -9.8,-12.1 -23.7,-21.5 -40.1,-26.9 v 319.9 c 16.4,-5.3 30.3,-14.8 40.1,-26.8"
         style="fill:#ffa412;fill-opacity:1;fill-rule:nonzero;stroke:none"
         id="path354" /><path
         d="m 14703.1,5493.9 v -186.1 c 0,-14.8 -5.4,-28.5 -14.7,-40 -9.7,-12 -23.7,-21.5 -40.1,-26.8 -4.9,-1.7 -10.2,-2.9 -15.6,-3.7 -1.6,-0.3 -3.3,-0.5 -4.9,-0.7 -0.9,0 -1.9,-0.1 -2.8,-0.2 -0.9,-0.1 -1.9,-0.1 -2.8,-0.2 -1.5,0 -3,-0.1 -4.5,-0.1 h -3530 c -45.5,0 -83,30.3 -85.3,68.1 -0.1,1.2 -0.1,2.4 -0.1,3.6 v 186.1 c 0,1.3 0,2.5 0.1,3.7 2.3,37.8 39.8,68.1 85.3,68.1 h 3530 c 5.1,0 10.1,-0.4 15,-1.2 5.4,-0.8 10.7,-2 15.6,-3.7 16.4,-5.3 30.4,-14.8 40.1,-26.8 9.3,-11.5 14.7,-25.2 14.7,-40.1"
         style="fill:#ffb93e;fill-opacity:1;fill-rule:nonzero;stroke:none"
         id="path356" /><path
         d="m 12969.7,5236.1 h -1891.2 c -40.6,0 -74.1,30.3 -76.1,68.1 -0.1,1.2 -0.1,2.4 -0.1,3.6 v 186.1 c 0,1.3 0,2.5 0.1,3.7 2,37.8 35.5,68.1 76.1,68.1 h 1658.9 c 26.5,-96.9 88,-230.7 231.5,-329.1 l 0.8,-0.5"
         style="fill:#ffa412;fill-opacity:1;fill-rule:nonzero;stroke:none"
         id="path358" /><path
         d="m 14273.5,5236.1 h -40.1 v 329.6 h 40.1 v -329.6"
         style="fill:#ffa412;fill-opacity:1;fill-rule:nonzero;stroke:none"
         id="path360" /><path
         d="m 14137.7,5236.1 h -40.1 v 329.6 h 40.1 v -329.6"
         style="fill:#ffa412;fill-opacity:1;fill-rule:nonzero;stroke:none"
         id="path362" /><path
         d="m 13974.9,5236.1 h -40.1 v 329.6 h 40.1 v -329.6"
         style="fill:#ffa412;fill-opacity:1;fill-rule:nonzero;stroke:none"
         id="path364" /><path
         d="m 13725.2,5236.1 h -40.1 v 329.6 h 40.1 v -329.6"
         style="fill:#ffa412;fill-opacity:1;fill-rule:nonzero;stroke:none"
         id="path366" /><path
         d="m 13461.3,5236.1 h -40.1 v 329.6 h 40.1 v -329.6"
         style="fill:#ffa412;fill-opacity:1;fill-rule:nonzero;stroke:none"
         id="path368" /><path
         d="m 13056.6,5236.1 h -40.1 v 329.6 h 40.1 v -329.6"
         style="fill:#ffa412;fill-opacity:1;fill-rule:nonzero;stroke:none"
         id="path370" /><path
         d="m 12677.7,5236.1 h -40.1 v 329.6 h 40.1 v -329.6"
         style="fill:#ffa412;fill-opacity:1;fill-rule:nonzero;stroke:none"
         id="path372" /><path
         d="m 12339.4,5565.7 v -329.6 h -40.2 v 329.6 h 40.2"
         style="fill:#ffa412;fill-opacity:1;fill-rule:nonzero;stroke:none"
         id="path374" /><path
         d="m 14402.8,5236.1 h -40.1 v 329.6 h 40.1 v -329.6"
         style="fill:#ffa412;fill-opacity:1;fill-rule:nonzero;stroke:none"
         id="path376" /><path
         d="m 14488.2,5236.1 h -40.1 v 329.6 h 40.1 v -329.6"
         style="fill:#ffa412;fill-opacity:1;fill-rule:nonzero;stroke:none"
         id="path378" /><path
         d="m 14570.7,5236.1 h -40.1 v 329.6 h 40.1 v -329.6"
         style="fill:#ffa412;fill-opacity:1;fill-rule:nonzero;stroke:none"
         id="path380" /><path
         d="m 14632.7,5564.5 v -327.2 c -4.9,-0.8 -9.9,-1.2 -15,-1.2 h -25.1 v 329.6 h 25.1 c 5.1,0 10.1,-0.4 15,-1.2"
         style="fill:#ffa412;fill-opacity:1;fill-rule:nonzero;stroke:none"
         id="path382" /><path
         d="m 14688.4,5534 v -266.2 c -9.7,-12 -23.7,-21.5 -40,-26.8 v 319.8 c 16.3,-5.3 30.3,-14.7 40,-26.8"
         style="fill:#ffa412;fill-opacity:1;fill-rule:nonzero;stroke:none"
         id="path384" /><path
         d="m 13584.1,7443.7 c 0,0 -185.4,-261.1 -355.3,-264.7 -170,-3.6 -428.6,121 -428.6,121 0,0 -156.1,347.8 -50.2,483.9 0,0 106.1,46.6 217.1,-35.7 19.1,-14.2 38.4,-32 57.5,-55 26.9,-32.4 57.2,-50.8 89.2,-60.5 121.3,-36.9 265.3,49.9 319.1,-33.9 31.5,-48.7 65.6,-85.3 93.8,-111 33.2,-29.6 57.4,-44.1 57.4,-44.1"
         style="fill:#ffeddc;fill-opacity:1;fill-rule:nonzero;stroke:none"
         id="path386" /><path
         d="m 11167,5560.8 c 0,0 655.3,1587.9 1834.9,1618.2 0,0 1088.9,-121 1149.4,-1618.2 H 11167"
         style="fill:#ffeddc;fill-opacity:1;fill-rule:nonzero;stroke:none"
         id="path388" /><path
         d="m 12678.8,7130.5 c 0,0 472.8,-105.1 618.7,-43.3 0,0 22,197.7 -177.1,169.9 -136.3,-18.9 -225.1,46.6 -277.3,73.1 -73.9,37.6 -184,-117 -164.3,-199.7"
         style="fill:#db6a1d;fill-opacity:1;fill-rule:nonzero;stroke:none"
         id="path390" /><path
         d="m 13090.2,7428.5 c -30.2,-22.7 -123.1,319.7 -123.1,319.7 19.1,-14.2 38.4,-32 57.5,-55 26.9,-32.4 57.2,-50.8 89.2,-60.5 0.3,-10 5.8,-182.1 -23.6,-204.2"
         style="fill:#e5c1a1;fill-opacity:1;fill-rule:nonzero;stroke:none"
         id="path392" /><path
         d="m 13526.7,7487.8 c -6.7,-3.9 -225.4,-134.9 -255,-134.9 -30.2,0 161.2,245.9 161.2,245.9 31.5,-48.7 65.6,-85.3 93.8,-111"
         style="fill:#e5c1a1;fill-opacity:1;fill-rule:nonzero;stroke:none"
         id="path394" /><path
         d="m 11807.2,6004.4 c -12.1,10.4 463.8,700.7 594.8,705.8 131.1,5 425.6,-151.2 638.8,-171.4 213.2,-20.2 419.8,40.3 460.2,-85.7 40.3,-126 151.2,-572.8 83.1,-644.3 -68,-71.5 -1515.2,-27.9 -1776.9,195.6"
         style="fill:#f9ddbf;fill-opacity:1;fill-rule:nonzero;stroke:none"
         id="path396" /><path
         d="m 16416.5,11800.6 c -30.1,-23.3 -61.9,-45.1 -95,-65.3 -12.9,-7.9 -26,-15.4 -39.3,-22.8 -33.7,-18.6 -68.1,-35.2 -103,-49.7 -10.1,1.7 -20.3,3.5 -30.3,5.1 -63.4,10.6 -126.1,20.3 -187.6,29.2 -30.5,4.4 -60.8,8.6 -90.7,12.5 -126.1,16.8 -247.4,30.1 -362.5,40.6 -31,3 -61.5,5.6 -91.7,8.1 -23.9,1.9 -47.4,3.7 -70.6,5.5 -56.9,4.2 -112,7.7 -164.9,10.7 -74.4,52.7 -142.6,115.7 -202.1,188.4 -39.5,48.2 -75.2,100.8 -106.4,157.4 -276.7,502 -94.2,1133.3 407.8,1409.9 13.2,7.3 26.5,14.4 40,20.9 495,246 1100.5,60 1369.9,-428.8 250.4,-454.2 124.6,-1014.3 -273.6,-1321.7"
         style="fill:#ffb93e;fill-opacity:1;fill-rule:nonzero;stroke:none"
         id="path398" /><path
         d="m 16601.6,13059.5 c -247.6,449.1 -814.3,613 -1263.3,365.5 -307.1,-169.2 -480.9,-487.8 -480.9,-815.9 0,-151.7 37.1,-305.4 115.4,-447.5 42.4,-76.7 94,-145.1 152.6,-204.6 84.5,-85.4 183.6,-152.3 291,-198.7 30.2,-2.5 60.7,-5.1 91.7,-8.1 -127.3,41.4 -245.6,110.5 -344.7,204.8 -65.5,62.3 -122.8,135.5 -168.6,218.8 -241,436.9 -81.4,988.3 355.5,1229.2 437,240.9 988.4,81.4 1229.2,-355.5 236.4,-428.9 87.2,-967.8 -331.3,-1215.4 -8,-4.7 -16.1,-9.3 -24.2,-13.8 -112.6,-62.1 -232.9,-97.6 -353.4,-108.7 29.9,-3.9 60.2,-8.1 90.7,-12.5 94,17.8 186.6,50.6 274.8,99.1 16.9,9.2 33.3,19.1 49.4,29.2 411.3,260.8 554.2,801.9 316.1,1234.1"
         style="fill:#ffa412;fill-opacity:1;fill-rule:nonzero;stroke:none"
         id="path400" /><path
         d="m 16244.5,12520.2 c -17.9,44 -41,79 -69.4,104.9 -28.4,25.9 -61.5,45.3 -99.1,58.3 -37.6,13 -79.6,20.9 -125.9,23.7 -46.4,2.8 -96.8,3.5 -151.2,1.9 -33.7,-1 -62.4,-0.4 -86.4,1.8 -23.9,2.1 -44.1,6.6 -60.7,13.2 -16.7,6.8 -30.2,15.9 -40.6,27.6 -10.4,11.6 -19,25.7 -25.8,42.5 -6.9,16.7 -10.7,33.4 -11.7,49.9 -1,16.4 1.4,32.1 7.4,46.9 5.8,14.7 15.5,28.4 28.9,41 13.3,12.6 31,23.3 52.9,32.2 40.5,16.4 78.3,16.1 113.4,-1.1 35,-17.1 63.6,-52.8 85.8,-107.2 l 211.4,85.8 c -18.5,45.3 -41.5,83.6 -69.3,114.8 -27.7,31.2 -58.9,55.4 -93.7,72.3 -34.8,17.1 -72.6,27.1 -113.5,29.9 -40.9,2.9 -83.5,-1.4 -127.7,-13 l -59.9,147.4 -117,-47.5 59,-145.3 c -42.2,-22 -77.9,-47.4 -107.4,-76.6 -29.3,-29.1 -51.9,-60.5 -67.7,-94.3 -15.8,-33.9 -24.1,-69.4 -24.9,-106.7 -0.8,-37.3 6.7,-75.2 22.3,-113.7 18,-44.3 41.3,-79.5 69.7,-105.4 28.4,-25.9 61.4,-45.3 99,-58 37.5,-12.7 79.5,-20.4 125.9,-22.8 46.5,-2.6 97.1,-2.5 151.6,0.2 31.7,1.8 59.1,1.5 82.5,-0.6 23.3,-2.2 43.5,-6.7 60.5,-13.4 16.9,-6.8 31,-16.4 42.3,-28.8 11.2,-12.3 20.7,-28 28.4,-47 6.9,-16.7 10.2,-33.5 10.2,-50.2 -0.1,-16.6 -3.9,-32.5 -11.4,-47.6 -7.5,-15.2 -18.6,-29.3 -33.5,-42.2 -15,-12.9 -33.8,-24.1 -56.8,-33.3 -20,-8.2 -40.7,-13.5 -62.1,-16.1 -21.4,-2.7 -42.2,-0.6 -62.6,6.3 -20.3,6.7 -39.4,19 -57.1,36.9 -17.8,17.8 -33.2,42.8 -46.2,75 l -211.5,-85.8 c 22.1,-54.4 49.8,-97.5 83.2,-129.3 33.3,-31.9 69.8,-54.6 109.5,-68.3 39.7,-13.8 81.2,-19.7 124.5,-18 43.3,1.8 86,8.8 128.2,21.2 l 54.5,-134.5 116.4,47.2 -54.9,135.2 c 42.2,21.9 78.4,47.1 108.6,75.7 30.1,28.7 53.1,59.7 69.1,93.1 16,33.3 24.5,68.7 25.5,106.1 1.1,37.3 -6.5,75.9 -22.7,115.7"
         style="fill:#ffa412;fill-opacity:1;fill-rule:nonzero;stroke:none"
         id="path402" /><path
         d="m 11002.2,2081.4 v 144.9 c 0,1.2 0.1,2.4 0.1,3.6 0.1,2.4 0.5,4.7 0.8,7.1 0.5,2.7 1.2,5.3 2.1,7.9 8.8,30.4 38.3,53 73.3,53 v 0 0 h 394.5 c -147.5,-96.4 -307,-169.9 -470.8,-216.5"
         style="fill:#f09210;fill-opacity:1;fill-rule:nonzero;stroke:none"
         id="path404" /><path
         d="m 11473,2297.9 h -771.9 c -35.1,0 -64.5,22.8 -73.3,53.3 -0.8,2.6 -1.6,5.2 -2.1,7.8 -0.3,2.3 -0.6,4.7 -0.7,7 -0.1,1.1 -0.1,2.3 -0.1,3.5 0,0.1 0,0.2 0,0.2 v 186.1 c 0,1.2 0,2.5 0.1,3.7 0.1,2.3 0.4,4.6 0.7,7 0.5,2.6 1.3,5.3 2.1,7.8 8.8,30.5 38.2,53.2 73.3,53.2 h 147.3 v 0 0 c 10.5,-5.1 22.4,-8.1 35.1,-8.1 h 960 c -109,-124.4 -234.6,-232.6 -370.5,-321.5"
         style="fill:#f09210;fill-opacity:1;fill-rule:nonzero;stroke:none"
         id="path406" /><path
         d="m 11843.5,2619.4 h -960 c -12.7,0 -24.6,3 -35.1,8.1 v 0 c -21,10.3 -36.3,29.5 -40.1,52.1 -0.4,1.5 -0.5,3.1 -0.7,4.6 -0.1,1 -0.2,2.1 -0.2,3.2 -0.1,1.2 -0.1,2.3 -0.1,3.4 0,0.1 0,0.2 0,0.3 v 186.1 c 0,1.2 0,2.4 0.1,3.7 0.1,2.3 0.3,4.7 0.7,6.9 0.5,2.6 1.2,5.2 2,7.7 8.6,30.6 38.2,53.4 73.4,53.4 h 84.5 v 0 0 h 1103.2 c -63,-119.2 -140,-229.5 -227.7,-329.5"
         style="fill:#f09210;fill-opacity:1;fill-rule:nonzero;stroke:none"
         id="path408" /><path
         d="M 12071.2,2948.9 H 10968 v 0 c -35,0 -64.5,22.7 -73.3,53.2 -0.9,2.6 -1.6,5.2 -2.1,7.9 -0.3,2.3 -0.7,4.6 -0.8,6.9 v 193.6 c 2,34.8 30.8,63.4 67.2,67.4 v 0 0 h 1229.8 v -45 c -5.5,-17.9 -11.3,-35.7 -17.4,-53.5 -27.6,-79.9 -61.2,-156.9 -100.2,-230.5"
         style="fill:#f09210;fill-opacity:1;fill-rule:nonzero;stroke:none"
         id="path410" /><path
         d="m 12188.8,3232.9 v 45 h 13 c -4.1,-15 -8.4,-30.1 -13,-45"
         style="fill:#f09210;fill-opacity:1;fill-rule:nonzero;stroke:none"
         id="path412" /><path
         d="m 12201.8,3277.9 h -1493.2 c -40.7,0 -74.1,30.4 -76.2,68.1 -0.1,1.1 -0.1,2.3 -0.1,3.5 0,0.1 0,0.1 0,0.2 v 186.1 c 0,1.2 0,2.5 0.1,3.7 0,1 0.1,2 0.2,3 3.1,31.1 27.5,56.4 59.2,63.2 v 0 0 0 c 1.6,-0.1 3.2,-0.4 4.9,-0.5 1.4,0 2.9,-0.1 4.4,-0.1 h 1228.1 V 3278 h 40.2 v 327.1 h 285.8 c -6.2,-109.8 -23.9,-219.5 -53.4,-327.2"
         style="fill:#f09210;fill-opacity:1;fill-rule:nonzero;stroke:none"
         id="path414" /><path
         d="m 11929.2,3278 h 40.199 v 327.102 h -40.199 z"
         style="fill:#f09210;fill-opacity:1;fill-rule:nonzero;stroke:none"
         id="path416" /><path
         d="m 12255.2,3605.1 h -1554.1 c -1.5,0 -3,0.1 -4.4,0.1 -1.7,0.1 -3.3,0.4 -4.9,0.5 v 0 c -34.2,4.1 -61.5,29.4 -66.2,61.3 -0.3,2.1 -0.5,4.1 -0.6,6.2 -0.1,1.2 -0.1,2.3 -0.1,3.5 0,0.1 0,0.1 0,0.2 v 186 c 0,1.4 0,2.6 0.1,3.8 0.1,2.3 0.4,4.6 0.7,6.9 0.5,2.7 1.3,5.3 2.1,7.9 8.8,30.5 38.2,53.2 73.3,53.2 h 147.3 v 0 0 c 10.5,-5.2 22.4,-8.1 35.1,-8.1 h 1038.3 v -321.4 h 40.1 v 321.4 h 278.4 c 1.7,-11.3 3.3,-22.5 4.7,-33.8 12.2,-95.2 15.6,-191.5 10.2,-287.7"
         style="fill:#f09210;fill-opacity:1;fill-rule:nonzero;stroke:none"
         id="path418" /><path
         d="m 11921.8,3605.2 h 40.098 v 321.402 h -40.098 z"
         style="fill:#f09210;fill-opacity:1;fill-rule:nonzero;stroke:none"
         id="path420" /><path
         d="m 12240.3,3926.6 h -1356.8 c -12.7,0 -24.6,2.9 -35.1,8.1 v 0 c -21,10.3 -36.3,29.5 -40.1,52.1 -0.4,1.5 -0.5,3.1 -0.7,4.6 -0.1,1.1 -0.2,2.1 -0.2,3.2 -0.1,1.1 -0.1,2.3 -0.1,3.5 0,0.1 0,0.2 0,0.3 v 186 c 0,1.2 0,2.5 0.1,3.7 0.1,2.4 0.3,4.7 0.7,7 0.5,2.6 1.2,5.1 2,7.6 8.6,30.6 38.2,53.5 73.4,53.5 h 288.4 v 0 0 h 981.7 c 40.4,-105.7 69.7,-216.1 86.7,-329.6 m -136.1,329.5 v -329.5 h 40.1 v 329.5 h -40.1"
         style="fill:#f09210;fill-opacity:1;fill-rule:nonzero;stroke:none"
         id="path422" /><path
         d="m 12104.2,3926.6 h 40.102 v 329.5 h -40.102 z"
         style="fill:#f09210;fill-opacity:1;fill-rule:nonzero;stroke:none"
         id="path424" /><path
         d="m 12153.6,4256.2 h -981.7 v 0 c -35.1,0 -64.7,22.7 -73.3,53.3 -0.8,2.5 -1.5,5 -2,7.7 -0.4,2.3 -0.6,4.6 -0.8,7 -0.1,1.1 -0.1,2.3 -0.1,3.4 0,0.1 0,0.2 0,0.3 V 4514 c 0,1.2 0,2.4 0.1,3.6 1.9,34.9 30.7,63.4 67.1,67.5 v 0 0 h 819.5 c 69.4,-102.8 127,-213 171.2,-328.9"
         style="fill:#f09210;fill-opacity:1;fill-rule:nonzero;stroke:none"
         id="path426" /><path
         d="m 10693.1,4913.2 68.2,416.9 c 84.8,-11.3 167.3,-28.3 247.2,-50.5 10.6,-23 33.6,-39.9 60.9,-43 h -92.2 v 0 h -9.2 c -3,0 -6.1,-0.1 -9,-0.5 -36.4,-4.1 -65.2,-32.6 -67.1,-67.5 v 0 c -0.1,-1.2 -0.1,-2.5 -0.1,-3.7 v -186.1 0 c 0,-1.2 0,-2.4 0.1,-3.7 0,-1 0.1,-2 0.2,-2.9 2.5,-25.1 18.9,-46.6 41.9,-57.5 h -216.3 v 0 h -9.1 c -5.3,0 -10.5,-0.5 -15.5,-1.5"
         style="fill:#e6ba84;fill-opacity:1;fill-rule:nonzero;stroke:none"
         id="path428" /><path
         d="m 11982.4,4585.1 h -1273.8 c -26.6,0 -50.2,13 -63.8,32.5 l 0.2,1.7 47.9,292.2 0.2,1.7 c 5,1 10.2,1.5 15.5,1.5 h 9.1 216.3 v 0 c 10.2,-4.9 21.8,-7.6 34,-7.6 h 731 c 85.3,-75.1 162.4,-158.2 230.2,-247.6 v -74.3 h 40.2 v 19 c 4.4,-6.3 8.7,-12.7 13,-19.1"
         style="fill:#f09210;fill-opacity:1;fill-rule:nonzero;stroke:none"
         id="path430" /><path
         d="m 11969.4,4585.2 h -40.2 v 74.3 c 13.8,-18.2 27.2,-36.6 40.2,-55.3 v -19"
         style="fill:#f09210;fill-opacity:1;fill-rule:nonzero;stroke:none"
         id="path432" /><path
         d="m 11699,4907.1 h -731 c -12.2,0 -23.8,2.7 -34,7.6 v 0 0 c -23,10.9 -39.4,32.4 -41.9,57.5 -0.1,0.9 -0.2,1.9 -0.2,2.9 -0.1,1.3 -0.1,2.5 -0.1,3.7 v 0 186.1 c 0,1.2 0,2.5 0.1,3.7 v 0 c 1.9,34.9 30.7,63.4 67.1,67.5 2.9,0.4 6,0.5 9,0.5 h 9.2 92.2 c 3,-0.3 6,-0.5 9.1,-0.5 h 65.3 c 208.5,-76.2 396.1,-188.9 555.2,-329"
         style="fill:#f09210;fill-opacity:1;fill-rule:nonzero;stroke:none"
         id="path434" /><path
         d="m 11143.8,5236.1 h -65.3 c -3.1,0 -6.1,0.2 -9.1,0.5 v 0 c -27.3,3.1 -50.3,20 -60.9,43 46,-12.8 91.1,-27.3 135.3,-43.5"
         style="fill:#f09210;fill-opacity:1;fill-rule:nonzero;stroke:none"
         id="path436" /><path
         d="m 8609.03,2939.4 c -462.93,839.8 -157.43,1895.9 682.37,2358.8 839.8,462.9 1895.9,157.4 2358.8,-682.4 C 12113.1,3776 11807.6,2720 10967.8,2257 10128,1794.1 9071.97,2099.6 8609.03,2939.4"
         style="fill:#e2810e;fill-opacity:1;fill-rule:nonzero;stroke:none"
         id="path438" /><path
         d="m 10900.4,2221.8 c -21.4,-13.1 -43.1,-25.7 -65.2,-37.9 -7.5,-4.1 -15,-8.2 -22.5,-12.1 -17.1,-9.2 -34.2,-17.9 -51.5,-26.5 -826.82,-406.1 -1835.35,-94.4 -2284.85,721 -428.75,777.7 -198.29,1741 505.19,2246.8 56.12,40.4 115.16,77.8 177.2,112 22.24,12.3 44.7,24 67.24,35.2 21.89,10.9 43.99,21.3 66.17,31.1 67.95,30.3 137.04,55.8 206.78,76.7 103.67,31.3 208.92,52.3 314.38,63.4 327.09,34.7 656.19,-25.1 947.89,-167.8 309.6,-151.4 577.3,-396.3 756.4,-721 450.7,-817.7 172.9,-1840.4 -617.2,-2320.9"
         style="fill:#ffb93e;fill-opacity:1;fill-rule:nonzero;stroke:none"
         id="path440" /><path
         d="m 10004.3,5200.1 c -246.91,0 -497.12,-60.5 -728.24,-187.9 -354.1,-195.2 -611,-516.6 -723.36,-905 -112.37,-388.4 -66.75,-797.4 128.46,-1151.5 195.2,-354.1 516.62,-611 905.04,-723.4 388.42,-112.3 797.3,-66.7 1151.5,128.5 731,403 997.8,1325.5 594.9,2056.5 -275.6,499.9 -794.2,782.8 -1328.3,782.8 z m 4.8,-3070.1 c -145.2,0 -291.23,20.6 -434.56,62 -399.19,115.5 -729.53,379.5 -930.14,743.5 -200.61,363.9 -247.5,784.2 -132.02,1183.3 115.48,399.2 379.5,729.6 743.43,930.2 751.29,414.1 1699.39,139.8 2113.49,-611.4 414.2,-751.3 139.9,-1699.4 -611.4,-2113.5 -233.2,-128.6 -489.7,-194.1 -748.8,-194.1"
         style="fill:#ffa412;fill-opacity:1;fill-rule:nonzero;stroke:none"
         id="path442" /><path
         d="m 10772,3535.4 c -3.4,8.6 -7.1,16.8 -10.8,25 -28.1,61.8 -63.2,112 -105.3,150.4 -47.6,43.4 -102.8,75.9 -165.8,97.5 -62.9,21.7 -133.2,34.9 -210.6,39.6 -77.5,4.8 -161.9,5.9 -253,3.3 -56.32,-1.7 -104.45,-0.7 -144.45,2.9 -39.94,3.7 -73.88,11.1 -101.68,22.3 -27.88,11.2 -50.49,26.5 -67.88,46 -17.4,19.4 -31.74,43.1 -43.14,71.1 -11.41,28.1 -17.9,55.9 -19.61,83.5 -1.71,27.5 2.42,53.6 12.33,78.5 9.91,24.7 26.03,47.6 48.42,68.6 22.32,21 51.83,39 88.56,53.9 67.74,27.5 130.98,26.8 189.67,-1.8 58.68,-28.8 106.48,-88.6 143.38,-179.5 l 353.7,143.6 c -30.8,75.7 -69.3,139.8 -115.7,192 -46.4,52.2 -98.7,92.6 -156.8,121.1 -58.2,28.5 -121.5,45.1 -190,50 -68.45,4.8 -139.69,-2.4 -213.49,-21.8 l -100.18,246.7 -195.8,-79.5 98.76,-243.3 c -70.67,-36.7 -130.56,-79.3 -179.76,-127.9 -49.13,-48.7 -86.92,-101.4 -113.3,-158 -26.46,-56.7 -40.29,-116.1 -41.64,-178.4 -1.29,-62.4 11.12,-125.8 37.29,-190.1 30.16,-74.3 69.02,-133.2 116.58,-176.5 47.56,-43.4 102.75,-75.7 165.57,-97 62.82,-21.3 133.05,-34.1 210.78,-38.2 77.72,-4.2 162.28,-4.1 253.59,0.3 53,3 99,2.7 138,-1 39,-3.5 72.7,-11 101.1,-22.4 28.4,-11.5 52,-27.5 70.8,-48.1 18.8,-20.6 34.7,-46.8 47.7,-78.6 11.4,-28.1 17,-56 16.9,-83.9 -0.1,-27.8 -6.4,-54.5 -18.9,-79.8 -12.5,-25.4 -31.3,-48.9 -56.2,-70.5 -25,-21.7 -56.6,-40.2 -95,-55.8 -33.5,-13.6 -68,-22.5 -103.8,-27 -35.8,-4.3 -70.7,-0.8 -104.8,10.5 -34.1,11.4 -65.93,32 -95.6,61.8 -29.73,29.8 -55.54,71.7 -77.36,125.5 l -353.67,-143.6 c 36.86,-90.9 83.29,-163.1 139.12,-216.2 55.83,-53.3 116.93,-91.5 183.25,-114.3 66.38,-23 135.76,-33.1 208.16,-30.1 72.5,3 144,14.7 214.5,35.5 l 91.4,-225.1 194.6,79 -91.9,226.1 c 70.7,36.7 131.2,79 181.6,126.8 46.7,44.3 83.2,91.9 109.6,143.1 2.2,4.2 4.2,8.3 6.2,12.5 26.7,55.9 41,115 42.7,177.6 1.7,62.4 -11,127 -38.1,193.7"
         style="fill:#ffa412;fill-opacity:1;fill-rule:nonzero;stroke:none"
         id="path444" /><path
         d="m 8706.85,9817.2 c 5.29,21.3 -462.47,-211.4 -486.2,-237.7 -219.38,-243.3 -156.82,-560.9 -31.29,-563.9 80.5,-2 64.9,-135.8 64.9,-135.8 l 896.88,379.4 c 0,0 -107.99,629.7 -444.29,558"
         style="fill:#2c3a64;fill-opacity:1;fill-rule:nonzero;stroke:none"
         id="path446" /><path
         d="m 8817.29,9768.1 c 0,0 32.05,349.4 -358.33,349.4 0,0 118.29,-32.1 179.48,-96.3 0,0 -248.98,146.2 -519.94,-78.4 -270.96,-224.6 -102.6,-787.9 -184.99,-894.9 -82.4,-106.9 -403.27,-128.3 -364.05,-474.1 39.22,-345.9 1018.35,-779 955.48,-1065.1 0,0 383.71,564 109.33,821.4 0,0 133.74,-125.9 147.36,-275.7 0,0 36.29,292.4 -149.74,385.9 -164.62,82.7 -299.48,385.4 -285.22,439.5 14.27,54 470.62,888.3 470.62,888.3"
         style="fill:#2c3a64;fill-opacity:1;fill-rule:nonzero;stroke:none"
         id="path448" /><path
         d="m 8462.82,8124.4 c -60.2,289.8 -436.06,379.7 -613.88,143 -31.98,-42.5 -54.5,-92.9 -61.83,-152.3 -40.6,-329 485.5,-1669.2 560.84,-1790.6 137.16,-220.9 944.85,-978.2 944.85,-978.2 l 148.86,90.2 c 0,0 -572.9,969.9 -661.6,1060.6 -102.57,105 -202.96,1076.9 -317.24,1627.3"
         style="fill:#ed985f;fill-opacity:1;fill-rule:nonzero;stroke:none"
         id="path450" /><path
         d="m 9236.19,5436.1 c 0,0 217.26,142.6 299.5,133.4 82.24,-9.1 320.28,-77.6 323.18,-112.6 2.9,-35 -265.23,-56.9 -283.23,-76 -17.99,-19.1 -200.06,-140.7 -266.07,-102.5 -66,38.1 -73.38,157.7 -73.38,157.7"
         style="fill:#ed985f;fill-opacity:1;fill-rule:nonzero;stroke:none"
         id="path452" /><path
         d="m 7720.77,2213.4 -194.1,28.5 c 0,0 -652.57,518.6 -749.76,1486.3 -9.91,98.5 -11.98,198.4 -4.63,299.2 0.85,11.6 -0.43,23.2 -6.78,33 l -0.21,0.3 c -20.9,32 -72.87,112.2 -143.25,226.3 -69.38,112.4 -188.1,324.9 -318.73,563.3 -235.31,429.4 -509.26,943 -603.24,1106.5 -299.41,521.3 -155.08,871.9 -155.08,871.9 0,0 835.25,82.5 1064.14,282.8 l 82.43,-127.1 c 0,0 180.97,-801.2 172.41,-804.9 8.92,-27.2 17.97,-55 27.17,-83.2 142.82,-440.8 307.11,-991.8 396.67,-1440.5 50.33,-252.5 77,-472.5 62.67,-622.3 -4.92,-51.4 1.07,-130.5 14.76,-228 80.86,-575 355.53,-1592.1 355.53,-1592.1"
         style="fill:#2b478b;fill-opacity:1;fill-rule:nonzero;stroke:none"
         id="path454" /><path
         d="m 8127.89,1967.9 h -809.74 c 0,0 -19.4,123.4 22.89,217 40.53,89.8 98.29,92.7 7.38,233.5 51.45,-53 216.85,-74.9 333.91,-59.1 14.34,-23.3 92.47,-179.3 140.38,-213.7 52.92,-38 288.88,-24.5 305.18,-177.7"
         style="fill:#233862;fill-opacity:1;fill-rule:nonzero;stroke:none"
         id="path456" /><path
         d="m 6891.14,6096.3 c -70.73,-390.1 -237.8,-1039.3 -587.83,-1246 -235.31,429.4 -509.26,943 -603.24,1106.5 -299.41,521.3 -155.08,871.9 -155.08,871.9 0,0 835.25,82.5 1064.14,282.8 l 82.43,-127.1 c 0,0 180.97,-801.2 172.41,-804.9 8.92,-27.2 17.97,-55 27.17,-83.2"
         style="fill:#233862;fill-opacity:1;fill-rule:nonzero;stroke:none"
         id="path458" /><path
         d="m 8376.19,8304.2 c 0,0 114.49,-119 166.78,-261.7 0,0 -182.64,-524.4 -609.46,-590.2 0,0 337.7,852.1 442.68,851.9"
         style="fill:#ed7d2b;fill-opacity:1;fill-rule:nonzero;stroke:none"
         id="path460" /><path
         d="m 6323.24,6768.4 2.75,151.5 c -301.74,-38.1 -1040.4,360.5 -1040.4,360.5 0,0 -315.67,-209.9 -358.88,-809.5 -21.09,-292.7 -154.53,-1530.4 -169.29,-1899.9 -5.38,-134 -7.16,-229.6 -7.78,-267.8 l 0.05,-0.4 c -0.19,-11.6 -5.66,-21.9 -12.83,-31.1 -62.43,-79.4 -116.6,-163.4 -163.5,-250.6 -460.43,-856.7 -219.65,-2020.7 -219.65,-2020.7 l 106.92,27.2 c 0,0 389.32,1206.7 643.75,1728.6 43.19,88.5 82.42,157.4 115.24,197.3 95.67,116.2 196.55,313.5 295.99,551 187.96,449 370.44,1041.4 500.59,1500.2 9.18,-1.7 307.04,763.7 307.04,763.7"
         style="fill:#2b478b;fill-opacity:1;fill-rule:nonzero;stroke:none"
         id="path462" /><path
         d="m 8088.99,7779.2 c -493.27,113.2 -178.14,806.3 -149.55,794.1 68.34,14 218.45,134 352.73,368.3 l 18.14,-15.7 302.96,-265.6 c 0,0 -70.04,-103.3 -128.95,-204.5 -46.03,-79.2 -85.17,-157.3 -78.95,-184.1 24.39,-19.2 -184.81,-522.8 -316.38,-492.5"
         style="fill:#ffb27d;fill-opacity:1;fill-rule:nonzero;stroke:none"
         id="path464" /><path
         d="m 8613.26,8660.2 c 0,0 -70.06,-103.2 -128.94,-204.5 -188.36,116.1 -188.57,349.3 -174.06,470.1 l 303,-265.6"
         style="fill:#ed985f;fill-opacity:1;fill-rule:nonzero;stroke:none"
         id="path466" /><path
         d="m 8621.66,8527.2 c 0,0 -457.35,254.5 -294.49,536.8 162.87,282.4 213.53,505.4 512.42,354.9 298.9,-150.6 292.99,-290.7 261.55,-398.2 -31.44,-107.5 -356.32,-552.4 -479.48,-493.5"
         style="fill:#ffb27d;fill-opacity:1;fill-rule:nonzero;stroke:none"
         id="path468" /><path
         d="m 9178.4,9185.4 c -20.95,125.4 -84.64,137.3 -129.04,129 -168.91,279.3 -444.85,170.3 -444.85,170.3 -147.39,-185 -360.48,-216.5 -360.48,-216.5 0,0 53.08,-98.8 271.75,-159.9 66.79,-18.7 142.61,-7.4 215.72,17.2 -151.71,-84.6 -310.37,-117 -310.37,-117 288.17,-26.3 562.35,237.1 590.78,265.3 13.3,-40.8 36.62,-126.3 22.66,-188.8 -18.97,-84.9 -94.36,-238.7 -48.33,-258.6 0,0 223.57,171 192.16,359"
         style="fill:#2c3a64;fill-opacity:1;fill-rule:nonzero;stroke:none"
         id="path470" /><path
         d="m 4997.63,1967.9 h -809.74 c 0,0 -19.41,123.4 22.89,217 40.52,89.8 104,130.7 88.8,239.4 51.46,-53 135.31,-112.3 252.38,-96.6 14.34,-23.2 92.59,-147.7 140.5,-182.1 52.91,-38 288.87,-24.5 305.17,-177.7"
         style="fill:#233862;fill-opacity:1;fill-rule:nonzero;stroke:none"
         id="path472" /><path
         d="m 8147.02,7229.7 c -104.17,-36.4 -250.42,-56.3 -400.01,-72.5 -212.92,-23.3 -432.75,-39.2 -547.91,-85.1 -42,-16.8 -70.09,-37.4 -78.86,-63.9 -49.91,-150.1 -269.89,-381.7 -269.89,-381.7 -1409.97,64.2 -1564.77,653.9 -1564.77,653.9 948.63,1103.1 2554.84,1422.4 2554.84,1422.4 0,0 114.73,48.7 403.65,-180.9 192.81,-153.3 167.42,-212.2 167.42,-212.2 0,0 42.14,-973.1 -264.47,-1080"
         style="fill:#f99746;fill-opacity:1;fill-rule:nonzero;stroke:none"
         id="path474" /><path
         d="m 7747.01,7157.2 c -212.92,-23.3 -432.75,-39.2 -547.91,-85.1 -47.06,703.2 284.79,1232.1 284.79,1232.1 0,0 216.48,-880.9 263.12,-1147"
         style="fill:#ed7d2b;fill-opacity:1;fill-rule:nonzero;stroke:none"
         id="path476" /><path
         d="m 7966.15,8440.3 c 0,0 -533.63,-52.7 -576.41,-399.5 -42.78,-346.7 511.6,-1759 591,-1886.9 144.54,-232.8 995.67,-1030.8 995.67,-1030.8 l 156.86,95 c 0,0 -603.7,1022.1 -697.18,1117.7 -146.75,150.2 -289.25,1984.4 -469.94,2104.5"
         style="fill:#ffb27d;fill-opacity:1;fill-rule:nonzero;stroke:none"
         id="path478" /><path
         d="m 7405.14,7832.2 c 1.39,-7.9 492.48,-160.4 808.51,0 0,0 67.64,729.2 -309.67,689.6 -377.31,-39.5 -600.72,-158.4 -610.23,-339 -9.51,-180.7 111.39,-350.6 111.39,-350.6"
         style="fill:#f99746;fill-opacity:1;fill-rule:nonzero;stroke:none"
         id="path480" /><path
         d="m 8927.91,5224.4 c 0,0 191.42,175.8 274.07,180 82.64,4.2 328.61,-25 337.12,-59.1 8.5,-34.1 -252.61,-98.8 -267.28,-120.6 -14.69,-21.8 -174.79,-171.1 -246.07,-144.1 -71.28,27 -97.84,143.8 -97.84,143.8"
         style="fill:#ffb27d;fill-opacity:1;fill-rule:nonzero;stroke:none"
         id="path482" /><path
         d="m 20017.5,1922.6 v 0 c -48.4,-0.3 -99.2,35 -113.4,78.8 l -2914.8,8954.9 c -14.2,43.8 13.4,79.5 61.8,79.8 48.4,0.3 99.2,-35 113.5,-78.8 l 2914.7,-8954.8 c 14.3,-43.8 -13.4,-79.6 -61.8,-79.9"
         style="fill:#233862;fill-opacity:1;fill-rule:nonzero;stroke:none"
         id="path484" /><path
         d="m 22366.6,1936.3 v 0 c -48.4,-0.2 -99.2,35 -113.4,78.9 L 19338.4,10970 c -14.2,43.8 13.4,79.5 61.8,79.8 48.4,0.3 99.2,-35 113.5,-78.8 l 2914.7,-8954.8 c 14.3,-43.8 -13.4,-79.6 -61.8,-79.9"
         style="fill:#233862;fill-opacity:1;fill-rule:nonzero;stroke:none"
         id="path486" /><path
         d="m 19837.3,9722.2 -2358.9,-13.8 c -45.5,-0.2 -93.7,33.3 -107.1,74.4 -13.4,41.2 12.8,75.2 58.3,75.4 l 2358.9,13.8 c 45.5,0.3 93.7,-33.2 107.1,-74.4 13.4,-41.2 -12.8,-75.1 -58.3,-75.4"
         style="fill:#233862;fill-opacity:1;fill-rule:nonzero;stroke:none"
         id="path488" /><path
         d="m 20346.2,8158.7 -2358.9,-13.8 c -45.5,-0.2 -93.7,33.3 -107.1,74.5 -13.4,41.1 12.8,75.1 58.3,75.3 l 2358.9,13.8 c 45.5,0.3 93.7,-33.2 107.1,-74.4 13.4,-41.2 -12.8,-75.1 -58.3,-75.4"
         style="fill:#233862;fill-opacity:1;fill-rule:nonzero;stroke:none"
         id="path490" /><path
         d="m 20836.3,6652.9 -2358.9,-13.8 c -45.5,-0.2 -93.7,33.3 -107.1,74.4 -13.4,41.2 12.9,75.2 58.3,75.4 l 2358.9,13.8 c 45.5,0.3 93.7,-33.2 107.1,-74.4 13.4,-41.2 -12.8,-75.1 -58.3,-75.4"
         style="fill:#233862;fill-opacity:1;fill-rule:nonzero;stroke:none"
         id="path492" /><path
         d="m 21388.1,4957.7 -2358.9,-13.8 c -45.5,-0.3 -93.7,33.2 -107.1,74.4 -13.4,41.2 12.8,75.1 58.3,75.4 l 2358.9,13.8 c 45.5,0.2 93.7,-33.2 107.1,-74.4 13.4,-41.2 -12.8,-75.2 -58.3,-75.4"
         style="fill:#233862;fill-opacity:1;fill-rule:nonzero;stroke:none"
         id="path494" /><path
         d="m 21965.6,3183.3 -2358.9,-13.7 c -45.5,-0.3 -93.7,33.2 -107.1,74.4 -13.4,41.2 12.9,75.1 58.4,75.4 l 2358.9,13.7 c 45.5,0.3 93.6,-33.2 107,-74.4 13.5,-41.2 -12.8,-75.1 -58.3,-75.4"
         style="fill:#233862;fill-opacity:1;fill-rule:nonzero;stroke:none"
         id="path496" /><path
         d="m 17021.4,12607.1 c -43.4,30.6 -141.9,98.1 -147,83 -3.7,-10.8 1.6,-29.1 13.4,-48.2 -59.6,22.2 -120,36.8 -263,9.3 -28.7,-5.5 -54.6,-21.8 -70.4,-46.3 -14.5,-22.7 -20,-51.1 16.5,-73.7 73,-45.4 51.8,-18.3 153.2,-84.3 101.4,-66.1 225.6,-83 299.8,-36.6 l 99.5,16.6 12.4,163.8 c 0,0 -56.7,6.7 -114.4,16.4"
         style="fill:#ffb27d;fill-opacity:1;fill-rule:nonzero;stroke:none"
         id="path498" /><path
         d="m 19630.2,13980.5 c 0,0 -234.7,-278.4 -533.5,-161.9 0,0 -64.3,155.5 -65.3,270.1 -0.1,14.1 -0.2,27.8 -0.5,40.8 -1.6,129.1 -5.9,201.5 -5.9,201.5 l 0.3,0.1 c 13.6,5.7 456.9,187.7 456.5,172.5 -7.6,-349.1 148.4,-523.1 148.4,-523.1"
         style="fill:#ffb27d;fill-opacity:1;fill-rule:nonzero;stroke:none"
         id="path500" /><path
         d="m 19437.3,14420.4 c -42.7,-79.2 -189.4,-234.3 -406.4,-290.9 -1.6,129.1 -5.9,201.5 -5.9,201.5 l 0.3,0.1 c 12.3,3.3 424.7,112.7 412,89.3"
         style="fill:#ed975d;fill-opacity:1;fill-rule:nonzero;stroke:none"
         id="path502" /><path
         d="m 18932.1,14344.4 c 0,0 498.6,-117.2 566.8,194.4 68.2,311.6 178.5,506.3 -136.9,594.3 -315.4,88.1 -403.5,-17.3 -451.6,-115.7 -48,-98.5 -106.2,-634.5 21.7,-673"
         style="fill:#ffb27d;fill-opacity:1;fill-rule:nonzero;stroke:none"
         id="path504" /><path
         d="m 19481.9,14453.9 c 6.8,-4.3 114,-37.3 317.2,367.4 31.9,63.6 53.6,201 -20.7,322.4 -74.4,121.5 -338,216.9 -557,258.5 -219,41.5 -271.5,-81.7 -323.1,-205.5 -54.1,-130 -210.5,-237.1 -210.5,-237.1 188.9,-105.5 416.3,45.4 495.1,20.6 78.8,-24.8 106.7,-149 112.6,-188.8 5.9,-39.8 15,-72.9 114.1,-37.3 99,35.5 44.8,-140.5 28.9,-174.1 0,0 -13.5,-89.7 43.4,-126.1"
         style="fill:#233862;fill-opacity:1;fill-rule:nonzero;stroke:none"
         id="path506" /><path
         d="m 20019.6,6709.2 h 301.9 c 63.3,0 133.6,63.4 151.2,179.4 17.6,116 147.7,179.3 175.9,274.3 28.1,95 -116.1,228.7 -116.1,228.7 l -24.1,30.9 -25.1,32.3 -239.1,-56.2 c 0,0 -5.9,-57 -9.6,-129.5 -2.6,-52.3 -4,-112.9 -1,-166 7.1,-126.6 -35.5,-262.9 -147.9,-287.6 -112.6,-24.6 -66.1,-106.3 -66.1,-106.3"
         style="fill:#2c3a64;fill-opacity:1;fill-rule:nonzero;stroke:none"
         id="path508" /><path
         d="m 18664.6,6683.5 h 800.2 c 7.7,1.5 13.5,3.1 17,4.9 53.4,26.7 36.7,231.3 30.3,294.5 -1.3,11.7 -2.2,18.5 -2.2,18.5 0,0 -281.3,225.1 -320.1,52.8 -1.2,-5.4 -2.6,-10.7 -4.1,-15.9 v -0.1 c -48.8,-161.2 -267.2,-234.4 -393.3,-254.8 -96.4,-15.7 -121.4,-71.9 -127.8,-99.9"
         style="fill:#2c3a64;fill-opacity:1;fill-rule:nonzero;stroke:none"
         id="path510" /><path
         d="m 18825.9,11297.9 c 0,0 42.7,-533.1 92.9,-1174 68.3,-870.6 150.4,-1940 158.5,-2142.6 14,-351.7 70.4,-914.4 70.4,-914.4 0,0 133.6,-133.7 400.9,-77.4 0,0 238.3,803.3 306.4,1653.2 1,13.9 2.1,28 3.1,42 63.3,865.2 161.8,2687.1 161.8,2687.1 l -1194,-73.9"
         style="fill:#2b478b;fill-opacity:1;fill-rule:nonzero;stroke:none"
         id="path512" /><path
         d="m 18825.9,11297.9 c 0,0 42.7,-533.1 92.9,-1174 L 19855,8642.7 c 1,13.9 2.1,28 3.1,42 63.3,865.2 161.8,2687.1 161.8,2687.1 l -1194,-73.9"
         style="fill:#233862;fill-opacity:1;fill-rule:nonzero;stroke:none"
         id="path514" /><path
         d="m 19092.1,11411.7 c 0,0 432.6,-1783.7 762.9,-2769 330.2,-985.3 344.1,-1462.3 344.1,-1462.3 0,0 374.3,73.1 414.8,146 0,0 128.3,1687.5 -126.2,2169.8 -143.8,272.6 -119.6,904.1 -119.6,1191.8 0,533 -166.3,1062.3 -166.3,1062.3 l -1109.7,-338.6"
         style="fill:#2b478b;fill-opacity:1;fill-rule:nonzero;stroke:none"
         id="path516" /><path
         d="m 20777.6,11585.5 8.1,-124.2 c 0,0 -81.9,-220.6 147.6,-333.8 0,0 98.2,-39.6 102.2,36.9 4,76.4 -8.6,47.7 -0.6,155.4 8,107.6 -34.3,209.4 -105.6,243.7 l -58.4,67.4 -93.3,-45.4"
         style="fill:#ffb27d;fill-opacity:1;fill-rule:nonzero;stroke:none"
         id="path518" /><path
         d="m 20867.2,11495.1 c -85.2,-27.4 -98.9,-21.2 -98.9,-21.2 0,0 -414.9,755.4 -457,824.6 -42,69.2 -881,847.2 -881,847.2 l 215.6,804 c 0,0 954.3,-1235.7 1057.3,-1413 170.3,-293 270.1,-973.6 270.1,-973.6 0,0 -39.1,-46.5 -106.1,-68"
         style="fill:#1e3d70;fill-opacity:1;fill-rule:nonzero;stroke:none"
         id="path520" /><path
         d="m 18663.3,12830 c 3,-165.1 12.6,-350.7 25.5,-539.2 0.8,-11.2 1.6,-22.4 2.4,-33.6 8.2,-116.8 17.2,-233.8 27.5,-348 4.2,-45.7 8.6,-91 13.1,-135.4 l 0.7,-6 c 0.4,-16.6 2.4,-34.7 4.3,-51.1 42,-427.6 86.1,-765.4 94.3,-770.6 9.8,-6.5 20.8,-9.7 32.8,-8.3 112.2,14.1 446.7,-11.4 720.6,48.2 231.1,48.8 430.1,141.2 641,265.8 28,16.5 91.8,60.4 86.6,93.1 -5.1,36 -14.5,88 -26.5,153.4 -41.6,227.4 -113.3,618.6 -137.7,1076.5 -4.8,85.3 -11.7,169.5 -20.7,252.3 -23.5,215.7 -61.2,420.6 -111.7,602.6 -93.9,338.2 -231.9,597.1 -405.1,698.4 -22.6,12.7 -144.3,-64.8 -256.1,-136.5 -103.2,-66.2 -211.9,-84.5 -317.6,-75.3 l -93,-102.9 c -112.7,-130.9 -232.6,-305.3 -265.4,-553.1 -2.4,-18.3 -4.5,-37.8 -6.3,-58.4 -9.1,-101 -11.3,-228.8 -8.7,-371.9"
         style="fill:#2a4e96;fill-opacity:1;fill-rule:nonzero;stroke:none"
         id="path522" /><path
         d="m 18663.3,12830 c 3,-165.1 12.6,-350.7 25.5,-539.2 0.8,-11.2 1.6,-22.4 2.4,-33.6 640.4,400.9 739.1,1134.5 739.1,1134.5 -315.1,-13.8 -565.4,-86.3 -758.3,-189.8 -9.1,-101 -11.3,-228.8 -8.7,-371.9"
         style="fill:#1e3d70;fill-opacity:1;fill-rule:nonzero;stroke:none"
         id="path524" /><path
         d="m 17045,12514.2 c -6.6,95 42.6,110.8 42.6,110.8 0,0 965.7,175 1047.8,200.9 82.1,25.8 784,756 784,756 0,0 269.1,303.4 489.4,236.4 191.4,-58.2 266.2,-207.6 291.7,-349.8 30.4,-169.5 -47.8,-340.1 -194.6,-430.2 -329.5,-202.1 -989.3,-600.4 -1144.6,-645.9 -345.9,-101.4 -1275,-8.1 -1275,-8.1 0,0 -36.1,55.3 -41.3,129.9"
         style="fill:#2a4e96;fill-opacity:1;fill-rule:nonzero;stroke:none"
         id="path526" /><path
         d="m 17555.5,11447.8 c -14,-44.9 -61.8,-73.6 -111.8,-58.7 -450.6,140.6 -927.9,233.6 -1398.8,287.8 -516.7,59.4 -1044.3,70.9 -1292.6,53.5 -49.2,-3.1 -91.6,34.4 -94.7,83.7 -2.9,49.2 34.5,91.5 83.6,94.5 386.2,23.1 929.1,-7.3 1339.2,-55.6 470.1,-55.4 956.6,-150 1416.4,-293.4 47.1,-14.7 73.4,-64.7 58.7,-111.8"
         style="fill:#2b478b;fill-opacity:1;fill-rule:nonzero;stroke:none"
         id="path528" /><path
         d="m 26421.7,3407.6 c -7.9,16.9 -17.7,32.3 -29.1,46.2 v 0 l -0.2,0.2 c -8.5,10.3 -17.9,19.9 -28.2,28.7 l -42.8,43.3 -11.2,-8.3 c -218.6,107 -670.2,-6.5 -1126.9,-304.7 -552.1,-360.4 -906.5,-856.6 -804.3,-1120.3 l -15.5,-11.5 61.4,-61.2 c 2.9,-3.1 5.9,-6.1 9,-9.1 l 1.8,-1.7 0.5,-0.4 c 15.6,-14.2 33.3,-26.5 53.1,-36.9 l 0.3,-0.2 h 0.1 c 215.8,-113.1 672.2,-0.5 1133.9,301 562.4,367.1 919.7,875.2 798.1,1134.9"
         style="fill:#ffa412;fill-opacity:1;fill-rule:nonzero;stroke:none"
         id="path530" /><path
         d="m 25117.6,3278.7 c 562.3,367.2 1116.8,454.3 1238.4,194.6 121.6,-259.7 -235.7,-767.8 -798,-1135 -562.4,-367.1 -1116.9,-454.2 -1238.5,-194.6 -121.6,259.7 235.7,767.9 798.1,1135"
         style="fill:#ffb93e;fill-opacity:1;fill-rule:nonzero;stroke:none"
         id="path532" /><path
         d="m 25963,3486.9 c -203.9,0 -503.4,-111.3 -791.7,-300.1 -231.3,-151.5 -430.2,-333.6 -560.2,-512.9 -125.1,-172.4 -171.8,-325.8 -128.2,-420.8 20.6,-44.9 60.5,-76.2 118.6,-92.9 32.5,-9.4 69.8,-13.9 111,-13.9 203.9,0 503.4,111.3 791.7,300.1 231.3,151.4 430.3,333.6 560.3,512.8 125,172.4 171.7,325.8 128.1,420.9 -20.6,44.9 -60.5,76.1 -118.5,92.9 -32.5,9.3 -69.9,13.9 -111.1,13.9 z m -1249.2,-1382 c -45.6,0 -87.2,5.1 -123.8,15.6 -70.1,20.3 -118.7,59.1 -144.6,115.4 -50.7,110.6 -3.7,274.7 132.3,462.3 132.8,183.2 335.7,369 571.1,523.1 361.5,236.8 729.2,351.1 936.7,291.3 70.1,-20.2 118.8,-59 144.6,-115.3 50.7,-110.6 3.8,-274.8 -132.2,-462.3 -132.9,-183.2 -335.7,-369 -571.1,-523.2 -297.8,-195 -599.8,-306.9 -813,-306.9"
         style="fill:#ffa412;fill-opacity:1;fill-rule:nonzero;stroke:none"
         id="path534" /><path
         d="m 25111.2,2674.7 c 17.4,7.6 32.8,16 46.4,25 13.5,9.1 26,19.8 37.5,31.9 11.4,12.2 22.3,26.1 32.5,41.9 10.2,15.7 20.5,34 30.8,54.8 18.2,35.9 36.8,69.4 55.8,100.6 19,31.1 40.3,60 63.9,86.6 23.5,26.6 50.4,51 80.7,73.3 30.2,22.2 65.6,42.3 106.1,60.1 35.1,15.4 66.8,25.3 94.9,29.7 28.1,4.3 52.2,3.5 72.2,-2.5 20,-6.1 35.6,-16.9 47,-32.6 11.3,-15.7 17.6,-36.1 18.7,-61.2 l 132.7,58.2 -7,-71.4 -134.5,-59.1 c -7.4,-27.8 -19.8,-55.4 -37.1,-83 -17.3,-27.5 -38.9,-54 -64.7,-79.3 -25.8,-25.3 -55.7,-49.2 -89.7,-71.7 -34.1,-22.5 -71.8,-42.8 -113.1,-60.9 l 12.5,129 c 49.6,21.8 87.4,45.4 113.4,71 26.1,25.5 40.3,50.6 42.7,75.3 1.3,13.4 -0.4,23.7 -5.1,30.9 -4.6,7.3 -11.5,11.9 -20.6,13.9 -9.1,1.9 -20.1,1.5 -33,-1.3 -13,-2.8 -27.1,-7.6 -42.4,-14.3 -15.3,-6.8 -29.3,-14.3 -42,-22.8 -12.7,-8.4 -24.6,-18.5 -35.9,-30.5 -11.2,-11.9 -22.1,-25.9 -32.5,-42.1 -10.5,-16.1 -21.6,-35.3 -33.2,-57.5 -18.9,-35.9 -38,-69.5 -57.2,-100.6 -19.3,-31.1 -40.8,-60 -64.5,-86.7 -23.8,-26.6 -50.8,-51.1 -81,-73.4 -30.3,-22.3 -65.5,-42.2 -105.6,-59.8 -36.3,-16 -68.6,-26.1 -96.7,-30.3 -28.1,-4.2 -51.9,-3.2 -71.5,3 -19.6,6.2 -34.7,17.4 -45.4,33.7 -10.7,16.2 -16.6,36.9 -17.7,62.1 l -123.4,-54.2 6.9,71 122.7,53.9 c 6.1,26.3 16.5,53.8 31.1,82.3 14.7,28.5 34.5,56.8 59.6,84.9 25.1,28.1 55.9,55.4 92.5,81.7 36.6,26.3 79.7,50.4 129.3,72.2 l -12.5,-129.1 c -29.4,-12.8 -54.1,-26.4 -74.3,-40.5 -20.2,-14.1 -36.6,-28.4 -49.2,-42.8 -12.7,-14.4 -22,-28.5 -27.9,-42.4 -5.9,-13.8 -9.4,-26.8 -10.6,-39 -1.4,-14 0.1,-25.1 4.5,-33.3 4.3,-8.2 10.9,-13.8 19.7,-16.8 8.8,-3 19.6,-3.4 32.3,-1.2 12.6,2.1 26.6,6.6 41.9,13.3"
         style="fill:#ffa412;fill-opacity:1;fill-rule:nonzero;stroke:none"
         id="path536" /><path
         d="m 15360.2,16280.3 c 5,10.7 11.2,20.5 18.4,29.4 v 0 h 0.1 c 5.4,6.6 11.4,12.7 18,18.2 l 27.1,27.5 7.1,-5.2 c 138.7,67.9 425.2,-4.1 715.1,-193.3 350.3,-228.7 575.1,-543.6 510.3,-711 l 9.9,-7.3 -39,-38.8 c -1.9,-1.9 -3.8,-3.9 -5.8,-5.7 l -1.1,-1.1 -0.3,-0.3 c -9.9,-9 -21.1,-16.8 -33.7,-23.4 l -0.2,-0.1 v 0 c -137,-71.8 -426.6,-0.3 -719.6,191 -356.8,232.9 -583.5,555.4 -506.3,720.1"
         style="fill:#ffa412;fill-opacity:1;fill-rule:nonzero;stroke:none"
         id="path538" /><path
         d="m 16187.6,16198.5 c -356.8,233 -708.6,288.3 -785.8,123.5 -77.1,-164.8 149.6,-487.2 506.4,-720.2 356.8,-232.9 708.7,-288.2 785.8,-123.4 77.2,164.7 -149.5,487.2 -506.4,720.1"
         style="fill:#ffb93e;fill-opacity:1;fill-rule:nonzero;stroke:none"
         id="path540" /><path
         d="m 15580.7,16321.8 c -36.8,-10.6 -62.1,-30.4 -75.2,-59 -27.7,-60.3 2,-157.6 81.3,-267 82.5,-113.7 208.8,-229.3 355.5,-325.4 183,-119.8 373,-190.5 502.4,-190.4 26.1,0 49.8,2.9 70.4,8.8 36.9,10.6 62.2,30.4 75.3,58.9 27.6,60.4 -2,157.7 -81.4,267.1 -82.4,113.7 -208.7,229.3 -355.5,325.4 -182.9,119.8 -372.9,190.4 -502.3,190.4 -26.2,0 -49.9,-2.9 -70.5,-8.8 z m 347.3,-673.3 c -149.4,97.8 -278.1,215.7 -362.4,331.9 -86.3,119 -116.1,223.2 -83.9,293.4 16.4,35.7 47.3,60.3 91.8,73.1 131.7,38 365,-34.6 594.4,-184.8 149.3,-97.8 278,-215.7 362.3,-331.9 86.3,-119 116.1,-223.2 84,-293.4 -16.4,-35.7 -47.3,-60.4 -91.8,-73.2 -23.2,-6.7 -49.6,-9.9 -78.6,-9.9 -135.2,0 -326.9,71 -515.8,194.8"
         style="fill:#ffa412;fill-opacity:1;fill-rule:nonzero;stroke:none"
         id="path542" /><path
         d="m 16218.3,15806.8 c 8,-1.4 14.9,-1.1 20.5,0.8 5.6,1.9 9.7,5.4 12.5,10.6 2.8,5.2 3.7,12.3 2.8,21.2 -0.7,7.7 -2.9,16 -6.7,24.8 -3.7,8.7 -9.6,17.7 -17.7,26.8 -8,9.2 -18.4,18.2 -31.2,27.2 -12.8,9 -28.5,17.5 -47.1,25.7 l -8,81.9 c 31.5,-13.8 58.8,-29.1 82,-45.8 23.3,-16.7 42.8,-34 58.7,-51.8 16,-17.9 28.6,-35.8 37.8,-53.9 9.3,-18.1 15.9,-35.5 19.8,-52.2 l 77.9,-34.3 4.3,-45 -78.2,34.4 c -0.8,-16 -4.5,-29.1 -11.3,-39.4 -6.8,-10.3 -16.4,-17.5 -28.8,-21.4 -12.4,-4 -27.6,-4.6 -45.4,-1.9 -17.8,2.7 -38.3,9.1 -61.4,19.2 -25.4,11.2 -47.7,23.9 -66.9,38 -19.2,14.1 -36.4,29.6 -51.4,46.6 -15.1,16.9 -28.7,35.2 -40.9,55 -12.2,19.7 -24.4,41 -36.4,63.8 -7.4,14.1 -14.4,26.3 -21,36.5 -6.6,10.2 -13.5,19.2 -20.7,26.7 -7.1,7.6 -14.7,14 -22.8,19.4 -8,5.3 -16.9,10.1 -26.6,14.4 -9.7,4.3 -18.6,7.3 -26.9,9.1 -8.2,1.8 -15.2,2 -20.9,0.8 -5.8,-1.3 -10.2,-4.2 -13.1,-8.8 -3,-4.6 -4,-11.1 -3.2,-19.6 1.5,-15.7 10.5,-31.6 27,-47.8 16.5,-16.2 40.5,-31.2 72,-45.1 l 7.9,-81.8 c -26.2,11.5 -50.1,24.4 -71.7,38.7 -21.6,14.3 -40.6,29.4 -56.9,45.5 -16.4,16 -30.1,32.8 -41.1,50.3 -11,17.5 -18.8,35 -23.5,52.6 l -85.4,37.5 -4.4,45.4 84.2,-37 c 0.7,15.9 4.7,28.9 11.9,38.8 7.2,10 17.1,16.9 29.8,20.7 12.7,3.8 27.9,4.4 45.8,1.6 17.8,-2.8 37.9,-9.1 60.2,-18.9 25.7,-11.3 48.1,-24 67.3,-38.1 19.2,-14.1 36.3,-29.6 51.2,-46.5 15,-16.9 28.5,-35.2 40.6,-55 12.1,-19.7 23.9,-41 35.4,-63.8 6.5,-13.2 13,-24.8 19.5,-34.8 6.5,-10 13.4,-18.8 20.7,-26.5 7.3,-7.7 15.2,-14.5 23.8,-20.2 8.6,-5.8 18.4,-11.1 29.4,-15.9 9.7,-4.3 18.6,-7.1 26.6,-8.5"
         style="fill:#ffa412;fill-opacity:1;fill-rule:nonzero;stroke:none"
         id="path544" /><path
         d="M 29791.1,1864.7 H 2151.73 c -21.68,0 -39.41,17.8 -39.41,39.4 v 37 c 0,21.7 17.73,39.4 39.41,39.4 H 29791.1 c 21.7,0 39.4,-17.7 39.4,-39.4 v -37 c 0,-21.6 -17.7,-39.4 -39.4,-39.4"
         style="fill:#2e3552;fill-opacity:1;fill-rule:nonzero;stroke:none"
         id="path546" /></g></g></svg>
