<svg xmlns="http://www.w3.org/2000/svg" width="68.26" height="68.256" viewBox="0 0 68.26 68.256">
  <path id="stock-exchange-app" d="M68.26,33.877V45.742a2.666,2.666,0,0,1-5.333,0V40.475L54.441,48.96a2.666,2.666,0,0,1-1.885.781H39.1l-17.75,17.75a2.666,2.666,0,0,1-3.771-3.771L36.111,45.19A2.666,2.666,0,0,1,38,44.409H51.451l7.866-7.866H53.595a2.666,2.666,0,0,1,0-5.333h12A2.666,2.666,0,0,1,68.26,33.877ZM65.593,53.741a2.666,2.666,0,0,0-2.666,2.666v9.2a2.666,2.666,0,0,0,5.333,0v-9.2A2.666,2.666,0,0,0,65.593,53.741Zm-10.665,0a2.666,2.666,0,0,0-2.666,2.666v9.2a2.666,2.666,0,0,0,5.333,0v-9.2A2.666,2.666,0,0,0,54.928,53.741Zm-10.665,0A2.666,2.666,0,0,0,41.6,56.407v9.2a2.666,2.666,0,0,0,5.333,0v-9.2A2.666,2.666,0,0,0,44.263,53.741ZM33.6,61.873a2.666,2.666,0,0,0-2.666,2.666v1.067a2.666,2.666,0,0,0,5.333,0V64.54A2.666,2.666,0,0,0,33.6,61.873ZM28.131,45.209A2.666,2.666,0,0,0,30.8,42.542V40.9c8.358-3.094,6.34-15.39-2.666-15.56a2.657,2.657,0,0,1,0-5.314,2.452,2.452,0,0,1,2.345,1.556A2.666,2.666,0,0,0,35.385,19.5,7.774,7.774,0,0,0,30.8,15.147v-1.8a2.666,2.666,0,0,0-5.333,0v1.809a8,8,0,0,0,2.666,15.522,2.676,2.676,0,0,1,0,5.352,2.834,2.834,0,0,1-2.5-1.645,2.666,2.666,0,1,0-4.864,2.186,8.24,8.24,0,0,0,4.7,4.319v1.654a2.666,2.666,0,0,0,2.666,2.666Zm-9.2,9.129a2.667,2.667,0,0,0,.955-5.157C-3.328,39.807,2.907,5.764,28,5.347A22.611,22.611,0,0,1,50.321,24.071a2.666,2.666,0,1,0,5.253-.92A28.029,28.029,0,0,0,46.1,6.653C28.126-8.71-.079,4.338,0,28.011A28.1,28.1,0,0,0,17.978,54.16a2.66,2.66,0,0,0,.954.177Z" transform="translate(0 -0.017)" fill="#8758fa"/>
</svg>
