<svg xmlns="http://www.w3.org/2000/svg" width="68.995" height="69.982" viewBox="0 0 68.995 69.982">
  <path id="weather-app" d="M70.609,40.881,59.855,37.85a21.824,21.824,0,0,0-.036-5.721l10.79-3.042a2.734,2.734,0,0,0-1.484-5.263l-10.748,3.03a21.584,21.584,0,0,0-4.541-6.831L60.787,11.4A2.734,2.734,0,1,0,56.53,7.967l-6.992,8.675a21.28,21.28,0,0,0-8.24-2.856V2.72a2.734,2.734,0,0,0-5.468,0V13.784a21.314,21.314,0,0,0-8.3,2.888l-7.1-8.716a2.734,2.734,0,1,0-4.241,3.453l7.046,8.655a21.532,21.532,0,0,0-4.527,6.856L7.964,23.976A2.734,2.734,0,0,0,6.519,29.25L17.291,32.2a21.7,21.7,0,0,0-.127,4.541A14.484,14.484,0,0,0,9.8,50.777C-.236,55.019,2.57,69.8,13.586,69.982H50.344c10.731-.27,12.8-14.856,2.507-17.963q-.069-.411-.161-.814a21.114,21.114,0,0,0,5.788-8.062l10.648,3a2.734,2.734,0,0,0,1.484-5.264ZM54.147,60.764a3.781,3.781,0,0,1-3.8,3.749H13.586a4.5,4.5,0,0,1-.384-8.985,2.734,2.734,0,0,0,2.425-3.5,9.183,9.183,0,0,1-.442-2.621c.1-9.439,12.9-12.563,17.409-4.251a2.734,2.734,0,0,0,3.412,1.262c5.452-2.62,11.623,1.968,11.58,7.993A2.734,2.734,0,0,0,50.3,57.131,3.773,3.773,0,0,1,54.147,60.764ZM50.294,45.935c-3.009-4.26-8.881-6.817-14.143-5.334a14.745,14.745,0,0,0-13.582-5.636A16.013,16.013,0,0,1,38.564,19.079C52.369,19.013,59.78,35.9,50.294,45.935Z" transform="translate(-3.606 0)" fill="#8758fa"/>
</svg>
